<svg xmlns="http://www.w3.org/2000/svg" xmlns:svg="http://www.w3.org/2000/svg" xmlns:xlink="http://www.w3.org/1999/xlink" id="Layer_1" x="0" y="0" style="enable-background:new 0 0 50 50" focusable="false" version="1.1" viewBox="0 0 50 50" xml:space="preserve"><style type="text/css">.st0{fill:#7fba00}.st1{opacity:.4;fill:#b8d432;enable-background:new}.st2{fill:#fff}</style><path d="M38.2,6L38.2,6c-11-1.2-12.9-6-12.9-6S22.8,6.2,7,6.2v25.6c0,3.1,1.7,6,4.1,8.5l0,0c5.4,5.7,14.2,9.6,14.2,9.6	s18.3-8,18.3-18.1V6.2C41.6,6.2,39.8,6.1,38.2,6z" class="st0"/><path d="M29.9,16.5L38.2,6c-11-1.2-12.9-6-12.9-6S22.8,6.2,7,6.2v25.6c0,3.1,1.7,6,4.1,8.5l6.2-7.8L29.9,16.5z" class="st1"/><path d="M32.6,24.5h-1.1v-3.6c0-1.7-0.6-3.3-1.7-4.4l0,0c0,0-0.1-0.1-0.1-0.1c-1.1-1.2-2.7-1.9-4.4-1.9	c-1.7,0-3.3,0.8-4.4,1.9c-1.1,1.2-1.8,2.8-1.8,4.6v3.6h-1.1c-0.4,0-0.8,0.4-0.8,0.8v7.2v0v2.2c0,0.4,0.4,0.8,0.8,0.8h14.5	c0.4,0,0.8-0.4,0.8-0.8v-9.4C33.4,24.8,33,24.5,32.6,24.5z M28.6,24.5h-5l0,0h-1.5v-3.6c0-1,0.4-1.9,1-2.6c0.6-0.6,1.4-1,2.3-1	c0.9,0,1.7,0.4,2.3,1c0.1,0.2,0.3,0.3,0.4,0.5l0,0c0.4,0.6,0.6,1.3,0.6,2.1C28.6,20.9,28.6,24.5,28.6,24.5z" class="st2"/></svg>