<svg xmlns="http://www.w3.org/2000/svg" xmlns:v="https://vecta.io/nano" width="1752.384" height="890.016" fill="none" fill-rule="evenodd" stroke-linecap="square" stroke-miterlimit="3" color-interpolation-filters="sRGB" font-size="12" overflow="visible" viewBox="0 0 1314.27 667.5"><style>.U{fill:#000}.V{font-family:Segoe UI}.W{font-size:1em}.X{stroke-linejoin:round}.Y{font-size:.833336em}.Z{stroke-linecap:round}.a{stroke-width:1.5}.b{marker-end:url(#C)}.c{fill:#fff}.d{stroke:#92d050}.e{fill:#f2c4e9}.f{stroke:#7e649e}.g{stroke-width:.5}.h{font-size:.75em}.i{marker-end:url(#B)}.j{stroke:red}.k{overflow:visible}.l{fill-opacity:1}.m{stroke-opacity:1}.n{stroke-width:.373}.o{fill:#b7dde8}.p{stroke:#4bacc6}.q{stroke-width:.75}.r{font-size:1.16666em}</style><defs><path id="A" stroke="none" d="M2 1L0 0l1.981-.993A2.25 2.25 0 0 0 1.985 1"/><marker id="B" fill="red" class="j k l" markerUnits="strokeWidth" orient="auto" refX="-4.69"><use class="m n" href="#A" transform="scale(-2.68)"/></marker><marker id="C" fill="#92d050" class="d k l" markerUnits="strokeWidth" orient="auto" refX="-4.69"><use class="m n" href="#A" transform="scale(-2.68)"/></marker><marker id="D" stroke="#000" class="U k l" markerUnits="strokeWidth" orient="auto" refX="-4.69"><use class="m n" href="#A" transform="scale(-2.68)"/></marker><path id="E" d="M86.092 89.725c0 3.24-1.99 5.9-4.42 5.9h-58.22c-2.43 0-4.42-2.66-4.42-5.9v-11.57c0-3.24 1.99-5.9 4.42-5.9h58.22c2.43 0 4.42 2.66 4.42 5.9v11.57z"/><path id="F" d="M85.65 89.135c0 3.24-1.99 5.9-4.42 5.9H23.01c-2.43 0-4.42-2.66-4.42-5.9v-11.57c0-3.24 1.99-5.9 4.42-5.9h58.22c2.43 0 4.42 2.66 4.42 5.9v11.57z"/><path id="G" d="M186.14 79.86l80.78-60.58c1.008-.755 2.392-.755 3.4 0l80.78 60.58c.712.536 1.13 1.374 1.13 2.265s-.419 1.729-1.13 2.265l-80.78 60.58c-1.008.755-2.392.755-3.4 0l-80.78-60.58c-.712-.536-1.13-1.374-1.13-2.265s.419-1.729 1.13-2.265z"/><path id="H" d="M354.12 82.125h37.97"/><path id="I" d="M256.78 169.425h24.75v9h-24.75z"/></defs><path d="M0 0h1314.27v667.5H0z" class="c"/><g class="U"><use fill-opacity=".23" href="#E"/><use fill-opacity=".11" href="#E"/></g><use fill="#f3f3f5" href="#F"/><use fill="#ff9300" fill-opacity=".5" href="#F"/><text x="39.95" y="87.245" class="U V" font-size="1em">Start</text><use class="X e f g" href="#G"/><text x="45.37" y="598.9" class="U V h" transform="translate(192.12 -544.45)">Do you want to <tspan x="26.1" class="W" dy="1.2em">automatically block/deny </tspan><tspan x="25.3" class="W" dy="1.2em">malicious traffic based on </tspan><tspan x="6.2" class="W" dy="1.2em">Microsoft</tspan>’s Threat Intelligence feed <tspan x="30.69" class="W" dy="1.2em">or does alerting you to </tspan><tspan x="38.28" class="W" dy="1.2em">such traffic suffice?</tspan></text><use x="216" class="X e f g" href="#G"/><text x="24.14" y="615.1" class="U V h" transform="translate(408.12 -544.45)">Do you want to be able to <tspan x="17.45" class="W" dy="1.2em">configure rules based on web </tspan><tspan x="53.53" class="W" dy="1.2em">categories?</tspan></text><use x="432" class="X e f g" href="#G"/><text x="24.14" y="615.1" class="U V h" transform="translate(624.12 -544.45)">Do you want to be able to <tspan x="15.9" class="W" dy="1.2em">set up Azure Firewall as a DNS </tspan><tspan x="27.3" class="W" dy="1.2em">proxy with custom DNS?</tspan></text><use x="864" class="X e f g" href="#G"/><text x="1063.34" y="81.45" class="U V h">Do you want support for fat flows?</text><use x="648" class="X e f g" href="#G"/><text x="50.77" y="593.5" class="U V h" transform="translate(840.84 -547.025)">Do you want <tspan x="35.45" class="W" dy="1.2em">Network level FQDN </tspan><tspan x="33.82" class="W" dy="1.2em">filtering with all ports </tspan><tspan x="32.34" class="W" dy="1.2em">and protocols or does </tspan><tspan x="43.19" class="W" dy="1.2em">Application level </tspan><tspan x="16.51" class="W" dy="1.2em">FQDN filtering (SNI based) for </tspan><tspan x="37.48" class="W" dy="1.2em">HTTPS/SQL suffice?</tspan></text><use x="216" y="252" class="X e f g" href="#G"/><text x="24.29" y="609.7" class="U V h" transform="translate(408.12 -290.95)">Do you need the ability to <tspan x="8.29" class="W" dy="1.2em">configure rules based on URLs i.e., </tspan><tspan x="5.78" class="W" dy="1.2em">the full URL path will be considered </tspan><tspan x="23.29" class="W" dy="1.2em">including SSL termination?</tspan></text><use x="432" y="252" class="X e f g" href="#G"/><text x="24.49" y="604.3" class="U V h" transform="translate(624.12 -285.75)">Do you need inbound TLS <tspan x="9.45" class="W" dy="1.2em">termination i.e., TLS reverse proxy </tspan><tspan x="14.33" class="W" dy="1.2em">(using App GW)? This is usually </tspan><tspan x="20.89" class="W" dy="1.2em">required for highly sensitive </tspan><tspan x="54.76" class="W" dy="1.2em">workloads.</tspan></text><use x="864" y="252" class="X e f g" href="#G"/><text x="40.93" y="604.3" class="U V h" transform="translate(1056.12 -292.45)">Do you need fully <tspan x="26.8" class="W" dy="1.2em">managed IDPS (intrusion </tspan><tspan x="7.52" class="W" dy="1.2em">detection and prevention system)? </tspan><tspan x="24.14" class="W" dy="1.2em">This is usually required for </tspan><tspan x="23.26" class="W" dy="1.2em">highly sensitive workloads.</tspan></text><use x="648" y="252" class="X e f g" href="#G"/><text x="21.41" y="609.7" class="U V h" transform="translate(840.12 -288.7)">Do you need outbound TLS <tspan x="6.32" class="W" dy="1.2em">termination i.e., TLS forward proxy? </tspan><tspan x="10.8" class="W" dy="1.2em">This is usually required for highly </tspan><tspan x="36.59" class="W" dy="1.2em">sensitive workloads.</tspan></text><g class="X Z a"><g class="j i"><use href="#H"/><use x="216" href="#H"/><use x="432" href="#H"/><use x="648" href="#H"/></g><path d="M1132.62 146.25v116.72" class="b d"/><g class="j i"><path d="M1047.12 334.12h-37.97"/><path d="M831.12 334.12h-37.97"/><path d="M615.12 334.12h-37.97"/></g><g class="d b"><path d="M484.618 146.25l-.306 63.839"/><path d="M700.618 146.25l-.306 63.839"/><path d="M916.62 146.251l-.003 63.84"/></g><path stroke="#000" marker-end="url(#D)" d="M87.215 82.125h88.87"/><g class="d b"><path d="M268.62 146.25v63.84"/><path d="M268.62 217.125h856.97"/></g></g><use class="c" href="#I"/><text x="261.65" y="176.925" class="U V Y">Yes</text><use x="216" class="c" href="#I"/><text x="477.65" y="176.925" class="U V Y">Yes</text><use x="432" class="c" href="#I"/><text x="693.65" y="176.925" class="U V Y">Yes</text><use x="648" class="c" href="#I"/><text x="909.65" y="176.925" class="U V Y">Yes</text><use x="864" class="c" href="#I"/><text x="1125.65" y="176.925" class="U V Y">Yes</text><text x="367.113" y="80.625" class="U V Y">No</text><text x="583.113" y="80.625" class="U V Y">No</text><text x="799.113" y="80.625" class="U V Y">No</text><text x="1015.11" y="80.625" class="U V Y">No</text><text x="1244.61" y="80.625" class="U V Y">No</text><rect width="144" height="72" x="196.48" y="298.125" class="X o p q" rx="13.5"/><text x="205.86" y="338.325" class="U V r">Select Standard SKU</text><rect width="144" height="72" x="196.48" y="433.125" class="X o p q" rx="13.5"/><text x="205.99" y="473.325" class="U V r">Select Premium SKU</text><rect width="144" height="72" x="196.48" y="577.125" class="X o p q" rx="13.5"/><text x="218.24" y="617.325" class="U V r">Select Basic SKU</text><g class="X Z a"><path d="M1218.77 82.125h68.51v531H349.31" class="i j"/><path d="M1132.62 398.813v63.84" class="b d"/></g><use x="864" y="252.563" class="c" href="#I"/><text x="1125.65" y="429.488" class="U V Y">Yes</text><path d="M916.62 398.812v63.84" class="X Z a b d"/><use x="648" y="252.562" class="c" href="#I"/><text x="909.65" y="429.487" class="U V Y">Yes</text><path d="M700.62 398.813v63.84" class="X Z a b d"/><use x="432" y="252.563" class="c" href="#I"/><text x="693.65" y="429.488" class="U V Y">Yes</text><path d="M484.62 398.813v63.84" class="X Z a b d"/><use x="216" y="252.563" class="c" href="#I"/><text x="477.65" y="429.488" class="U V Y">Yes</text><g class="X Z a"><path d="M1132.628 469.69l-785.11-.562" class="b d"/><path d="M399.116 334.129l-51.609.396" class="i j"/></g><text x="364.863" y="332.625" class="U V Y">No</text><text x="588.175" y="332.625" class="U V Y">No</text><text x="804.175" y="332.625" class="U V Y">No</text><text x="1021.3" y="332.625" class="U V Y">No</text></svg>