<?xml-stylesheet href="https://cdnjs.cloudflare.com/ajax/libs/font-awesome/6.6.0/css/all.min.css" type="text/css"?><svg xmlns="http://www.w3.org/2000/svg" xmlns:xlink="http://www.w3.org/1999/xlink" style="max-width:100%" id="graph-div" width="100%" height="600" aria-roledescription="er" role="graphics-document document" viewBox="0 0 422.835 640"><style>#graph-div{fill:#333}#graph-div,#graph-div svg{font-family:&quot;trebuchet ms&quot;,verdana,arial,sans-serif;font-size:16px}#graph-div .entityBox{fill:#ececff;stroke:#9370db}#graph-div .relationshipLabelBox{fill:#f9ffec;opacity:.7;background-color:#f9ffec}#graph-div .relationshipLabelBox rect{opacity:.5}#graph-div .relationshipLine{stroke:#333}#graph-div #MD_PARENT_END,#graph-div #MD_PARENT_START{fill:#f5f5f5!important;stroke:#333!important;stroke-width:1}#graph-div :root{--mermaid-font-family:&quot;trebuchet ms&quot;,verdana,arial,sans-serif}</style><defs><marker id="MD_PARENT_START" markerHeight="240" markerWidth="190" orient="auto" refX="0" refY="7"><path d="M 18,7 L9,13 L1,7 L9,1 Z"/></marker></defs><defs><marker id="MD_PARENT_END" markerHeight="28" markerWidth="20" orient="auto" refX="19" refY="7"><path d="M 18,7 L9,13 L1,7 L9,1 Z"/></marker></defs><defs><marker id="ONLY_ONE_START" markerHeight="18" markerWidth="18" orient="auto" refX="0" refY="9"><path fill="none" stroke="gray" d="M9,0 L9,18 M15,0 L15,18"/></marker></defs><defs><marker id="ONLY_ONE_END" markerHeight="18" markerWidth="18" orient="auto" refX="18" refY="9"><path fill="none" stroke="gray" d="M3,0 L3,18 M9,0 L9,18"/></marker></defs><defs><marker id="ZERO_OR_ONE_START" markerHeight="18" markerWidth="30" orient="auto" refX="0" refY="9"><circle cx="21" cy="9" r="6" fill="#fff" stroke="gray"/><path fill="none" stroke="gray" d="M9,0 L9,18"/></marker></defs><defs><marker id="ZERO_OR_ONE_END" markerHeight="18" markerWidth="30" orient="auto" refX="30" refY="9"><circle cx="9" cy="9" r="6" fill="#fff" stroke="gray"/><path fill="none" stroke="gray" d="M21,0 L21,18"/></marker></defs><defs><marker id="ONE_OR_MORE_START" markerHeight="36" markerWidth="45" orient="auto" refX="18" refY="18"><path fill="none" stroke="gray" d="M0,18 Q 18,0 36,18 Q 18,36 0,18 M42,9 L42,27"/></marker></defs><defs><marker id="ONE_OR_MORE_END" markerHeight="36" markerWidth="45" orient="auto" refX="27" refY="18"><path fill="none" stroke="gray" d="M3,9 L3,27 M9,18 Q27,0 45,18 Q27,36 9,18"/></marker></defs><defs><marker id="ZERO_OR_MORE_START" markerHeight="36" markerWidth="57" orient="auto" refX="18" refY="18"><circle cx="48" cy="18" r="6" fill="#fff" stroke="gray"/><path fill="none" stroke="gray" d="M0,18 Q18,0 36,18 Q18,36 0,18"/></marker></defs><defs><marker id="ZERO_OR_MORE_END" markerHeight="36" markerWidth="57" orient="auto" refX="39" refY="18"><circle cx="9" cy="18" r="6" fill="#fff" stroke="gray"/><path fill="none" stroke="gray" d="M21,18 Q39,0 57,18 Q39,36 21,18"/></marker></defs><path style="stroke:gray;fill:none" marker-end="url(#ONE_OR_MORE_END)" marker-start="url(#ONLY_ONE_START)" d="M213.168,95L213.168,103.333C213.168,111.667,213.168,128.333,213.168,145C213.168,161.667,213.168,178.333,213.168,186.667L213.168,195" class="er relationshipLine"/><path style="stroke:gray;fill:none" marker-end="url(#ONE_OR_MORE_END)" marker-start="url(#ONLY_ONE_START)" d="M213.168,270L213.168,278.333C213.168,286.667,213.168,303.333,213.168,320C213.168,336.667,213.168,353.333,213.168,361.667L213.168,370" class="er relationshipLine"/><path style="stroke:gray;fill:none" stroke-dasharray="8 8" marker-end="url(#ZERO_OR_MORE_END)" marker-start="url(#ONE_OR_MORE_START)" d="M163.168,443.744L151.383,452.287C139.599,460.829,116.029,477.915,104.244,494.791C92.459,511.667,92.459,528.333,92.459,536.667L92.459,545" class="er relationshipLine"/><path style="stroke:gray;fill:none" stroke-dasharray="8 8" marker-end="url(#ZERO_OR_MORE_END)" marker-start="url(#ONE_OR_MORE_START)" d="M263.168,443.744L274.953,452.287C286.738,460.829,310.307,477.915,322.092,494.791C333.877,511.667,333.877,528.333,333.877,536.667L333.877,545" class="er relationshipLine"/><g id="entity-Broker-a9f611c6-8ca3-54df-8906-784ee93568ab" transform="translate(163.1681365966797,20 )"><rect width="100" height="75" x="0" y="0" class="er entityBox"/><text style="dominant-baseline:middle;text-anchor:middle;font-size:12px" id="text-entity-Broker-a9f611c6-8ca3-54df-8906-784ee93568ab" x="0" y="0" class="er entityLabel" transform="translate(50,37.5)">Broker</text></g><g id="entity-BrokerListener-5cbb87f4-b869-5888-a964-7fdd4eb9f884" transform="translate(158.54346084594727,195 )"><rect width="109.249" height="75" x="0" y="0" class="er entityBox"/><text style="dominant-baseline:middle;text-anchor:middle;font-size:12px" id="text-entity-BrokerListener-5cbb87f4-b869-5888-a964-7fdd4eb9f884" x="0" y="0" class="er entityLabel" transform="translate(54.62467575073242,37.5)">BrokerListener</text></g><g id="entity-Port-04c26244-4a32-557b-921e-3ed044554cd6" transform="translate(163.1681365966797,370 )"><rect width="100" height="75" x="0" y="0" class="er entityBox"/><text style="dominant-baseline:middle;text-anchor:middle;font-size:12px" id="text-entity-Port-04c26244-4a32-557b-921e-3ed044554cd6" x="0" y="0" class="er entityLabel" transform="translate(50,37.5)">Port</text></g><g id="entity-BrokerAuthentication-699860d3-dd90-5e49-8ec5-225a3fa1735f" transform="translate(20,545 )"><rect width="144.919" height="75" x="0" y="0" class="er entityBox"/><text style="dominant-baseline:middle;text-anchor:middle;font-size:12px" id="text-entity-BrokerAuthentication-699860d3-dd90-5e49-8ec5-225a3fa1735f" x="0" y="0" class="er entityLabel" transform="translate(72.45931243896484,37.5)">BrokerAuthentication</text></g><g id="entity-BrokerAuthorization-31540e80-e485-5223-b6e4-6bd266f89624" transform="translate(264.9186248779297,545 )"><rect width="137.917" height="75" x="0" y="0" class="er entityBox"/><text style="dominant-baseline:middle;text-anchor:middle;font-size:12px" id="text-entity-BrokerAuthorization-31540e80-e485-5223-b6e4-6bd266f89624" x="0" y="0" class="er entityLabel" transform="translate(68.95833587646484,37.5)">BrokerAuthorization</text></g><rect width="41.948" height="14" x="192.194" y="138" class="er relationshipLabelBox"/><text style="text-anchor:middle;dominant-baseline:middle;font-size:12px" id="rel1" x="213.168" y="145" class="er relationshipLabel">exposes</text><rect width="44.844" height="14" x="190.746" y="313" class="er relationshipLabelBox"/><text style="text-anchor:middle;dominant-baseline:middle;font-size:12px" id="rel2" x="213.168" y="320" class="er relationshipLabel">contains</text><rect width="22.823" height="14" x="100.979" y="477.871" class="er relationshipLabelBox"/><text style="text-anchor:middle;dominant-baseline:middle;font-size:12px" id="rel3" x="112.39" y="484.871" class="er relationshipLabel">uses</text><rect width="22.823" height="14" x="302.534" y="477.871" class="er relationshipLabelBox"/><text style="text-anchor:middle;dominant-baseline:middle;font-size:12px" id="rel4" x="313.946" y="484.871" class="er relationshipLabel">uses</text></svg>