<?xml-stylesheet href="https://cdnjs.cloudflare.com/ajax/libs/font-awesome/6.6.0/css/all.min.css" type="text/css"?><svg xmlns="http://www.w3.org/2000/svg" xmlns:xlink="http://www.w3.org/1999/xlink" style="max-width:100%" id="graph-div" width="100%" height="600" aria-roledescription="er" role="graphics-document document" viewBox="0 0 190.865 564"><style>#graph-div{fill:#333}#graph-div,#graph-div svg{font-family:&quot;trebuchet ms&quot;,verdana,arial,sans-serif;font-size:16px}#graph-div .entityBox{fill:#ececff;stroke:#9370db}#graph-div .attributeBoxOdd{fill:#fff;stroke:#9370db}#graph-div .attributeBoxEven{fill:#f2f2f2;stroke:#9370db}#graph-div .relationshipLabelBox{fill:#f9ffec;opacity:.7;background-color:#f9ffec}#graph-div .relationshipLabelBox rect{opacity:.5}#graph-div .relationshipLine{stroke:#333}#graph-div #MD_PARENT_END,#graph-div #MD_PARENT_START{fill:#f5f5f5!important;stroke:#333!important;stroke-width:1}#graph-div :root{--mermaid-font-family:&quot;trebuchet ms&quot;,verdana,arial,sans-serif}</style><defs><marker id="MD_PARENT_START" markerHeight="240" markerWidth="190" orient="auto" refX="0" refY="7"><path d="M 18,7 L9,13 L1,7 L9,1 Z"/></marker></defs><defs><marker id="MD_PARENT_END" markerHeight="28" markerWidth="20" orient="auto" refX="19" refY="7"><path d="M 18,7 L9,13 L1,7 L9,1 Z"/></marker></defs><defs><marker id="ONLY_ONE_START" markerHeight="18" markerWidth="18" orient="auto" refX="0" refY="9"><path fill="none" stroke="gray" d="M9,0 L9,18 M15,0 L15,18"/></marker></defs><defs><marker id="ONLY_ONE_END" markerHeight="18" markerWidth="18" orient="auto" refX="18" refY="9"><path fill="none" stroke="gray" d="M3,0 L3,18 M9,0 L9,18"/></marker></defs><defs><marker id="ZERO_OR_ONE_START" markerHeight="18" markerWidth="30" orient="auto" refX="0" refY="9"><circle cx="21" cy="9" r="6" fill="#fff" stroke="gray"/><path fill="none" stroke="gray" d="M9,0 L9,18"/></marker></defs><defs><marker id="ZERO_OR_ONE_END" markerHeight="18" markerWidth="30" orient="auto" refX="30" refY="9"><circle cx="9" cy="9" r="6" fill="#fff" stroke="gray"/><path fill="none" stroke="gray" d="M21,0 L21,18"/></marker></defs><defs><marker id="ONE_OR_MORE_START" markerHeight="36" markerWidth="45" orient="auto" refX="18" refY="18"><path fill="none" stroke="gray" d="M0,18 Q 18,0 36,18 Q 18,36 0,18 M42,9 L42,27"/></marker></defs><defs><marker id="ONE_OR_MORE_END" markerHeight="36" markerWidth="45" orient="auto" refX="27" refY="18"><path fill="none" stroke="gray" d="M3,9 L3,27 M9,18 Q27,0 45,18 Q27,36 9,18"/></marker></defs><defs><marker id="ZERO_OR_MORE_START" markerHeight="36" markerWidth="57" orient="auto" refX="18" refY="18"><circle cx="48" cy="18" r="6" fill="#fff" stroke="gray"/><path fill="none" stroke="gray" d="M0,18 Q18,0 36,18 Q18,36 0,18"/></marker></defs><defs><marker id="ZERO_OR_MORE_END" markerHeight="36" markerWidth="57" orient="auto" refX="39" refY="18"><circle cx="9" cy="18" r="6" fill="#fff" stroke="gray"/><path fill="none" stroke="gray" d="M21,18 Q39,0 57,18 Q39,36 21,18"/></marker></defs><path style="stroke:gray;fill:none" marker-end="url(#ONLY_ONE_END)" marker-start="url(#ONLY_ONE_START)" d="M95.432,65.333L95.432,73.667C95.432,82,95.432,98.667,95.432,115.333C95.432,132,95.432,148.667,95.432,157L95.432,165.333" class="er relationshipLine"/><path style="stroke:gray;fill:none" marker-end="url(#ONLY_ONE_END)" marker-start="url(#ONLY_ONE_START)" d="M95.432,232L95.432,240.333C95.432,248.667,95.432,265.333,95.432,282C95.432,298.667,95.432,315.333,95.432,323.667L95.432,332" class="er relationshipLine"/><path style="stroke:gray;fill:none" stroke-dasharray="8 8" marker-end="url(#ONLY_ONE_END)" marker-start="url(#ONLY_ONE_START)" d="M95.432,377.333L95.432,385.667C95.432,394,95.432,410.667,95.432,427.333C95.432,444,95.432,460.667,95.432,469L95.432,477.333" class="er relationshipLine"/><g id="entity-Broker-a9f611c6-8ca3-54df-8906-784ee93568ab" transform="translate(45.432289123535156,20 )"><rect width="100" height="45.333" x="0" y="0" class="er entityBox"/><text style="dominant-baseline:middle;text-anchor:middle;font-size:12px" id="text-entity-Broker-a9f611c6-8ca3-54df-8906-784ee93568ab" x="0" y="0" class="er entityLabel" transform="translate(50,12)">Broker</text><rect width="45.891" height="21.333" x="0" y="24" class="er attributeBoxOdd"/><text style="dominant-baseline:middle;font-size:10.2px" id="text-entity-Broker-a9f611c6-8ca3-54df-8906-784ee93568ab-attr-1-type" x="0" y="0" class="er entityLabel" transform="translate(5,34.666666984558105)">name</text><rect width="54.109" height="21.333" x="45.891" y="24" class="er attributeBoxOdd"/><text style="dominant-baseline:middle;font-size:10.2px" id="text-entity-Broker-a9f611c6-8ca3-54df-8906-784ee93568ab-attr-1-name" x="0" y="0" class="er entityLabel" transform="translate(50.891042709350586,34.666666984558105)">default</text></g><g id="entity-BrokerListener-5cbb87f4-b869-5888-a964-7fdd4eb9f884" transform="translate(38.03187942504883,165.33333206176758 )"><rect width="114.801" height="66.667" x="0" y="0" class="er entityBox"/><text style="dominant-baseline:middle;text-anchor:middle;font-size:12px" id="text-entity-BrokerListener-5cbb87f4-b869-5888-a964-7fdd4eb9f884" x="0" y="0" class="er entityLabel" transform="translate(57.40041160583496,12)">BrokerListener</text><rect width="63.602" height="21.333" x="0" y="24" class="er attributeBoxOdd"/><text style="dominant-baseline:middle;font-size:10.2px" id="text-entity-BrokerListener-5cbb87f4-b869-5888-a964-7fdd4eb9f884-attr-1-type" x="0" y="0" class="er entityLabel" transform="translate(5,34.666666984558105)">name</text><rect width="51.199" height="21.333" x="63.602" y="24" class="er attributeBoxOdd"/><text style="dominant-baseline:middle;font-size:10.2px" id="text-entity-BrokerListener-5cbb87f4-b869-5888-a964-7fdd4eb9f884-attr-1-name" x="0" y="0" class="er entityLabel" transform="translate(68.60200119018555,34.666666984558105)">default</text><rect width="63.602" height="21.333" x="0" y="45.333" class="er attributeBoxEven"/><text style="dominant-baseline:middle;font-size:10.2px" id="text-entity-BrokerListener-5cbb87f4-b869-5888-a964-7fdd4eb9f884-attr-2-type" x="0" y="0" class="er entityLabel" transform="translate(5,56.000000953674316)">serviceType</text><rect width="51.199" height="21.333" x="63.602" y="45.333" class="er attributeBoxEven"/><text style="dominant-baseline:middle;font-size:10.2px" id="text-entity-BrokerListener-5cbb87f4-b869-5888-a964-7fdd4eb9f884-attr-2-name" x="0" y="0" class="er entityLabel" transform="translate(68.60200119018555,56.000000953674316)">ClusterIP</text></g><g id="entity-Port-04c26244-4a32-557b-921e-3ed044554cd6" transform="translate(45.432289123535156,331.99999618530273 )"><rect width="100" height="45.333" x="0" y="0" class="er entityBox"/><text style="dominant-baseline:middle;text-anchor:middle;font-size:12px" id="text-entity-Port-04c26244-4a32-557b-921e-3ed044554cd6" x="0" y="0" class="er entityLabel" transform="translate(50,12)">Port</text><rect width="44.649" height="21.333" x="0" y="24" class="er attributeBoxOdd"/><text style="dominant-baseline:middle;font-size:10.2px" id="text-entity-Port-04c26244-4a32-557b-921e-3ed044554cd6-attr-1-type" x="0" y="0" class="er entityLabel" transform="translate(5,34.666666984558105)">port</text><rect width="55.351" height="21.333" x="44.649" y="24" class="er attributeBoxOdd"/><text style="dominant-baseline:middle;font-size:10.2px" id="text-entity-Port-04c26244-4a32-557b-921e-3ed044554cd6-attr-1-name" x="0" y="0" class="er entityLabel" transform="translate(49.64914894104004,34.666666984558105)">*18883</text></g><g id="entity-BrokerAuthentication-699860d3-dd90-5e49-8ec5-225a3fa1735f" transform="translate(20,477.3333282470703 )"><rect width="150.865" height="66.667" x="0" y="0" class="er entityBox"/><text style="dominant-baseline:middle;text-anchor:middle;font-size:12px" id="text-entity-BrokerAuthentication-699860d3-dd90-5e49-8ec5-225a3fa1735f" x="0" y="0" class="er entityLabel" transform="translate(75.43229293823242,12)">BrokerAuthentication</text><rect width="44.781" height="21.333" x="0" y="24" class="er attributeBoxOdd"/><text style="dominant-baseline:middle;font-size:10.2px" id="text-entity-BrokerAuthentication-699860d3-dd90-5e49-8ec5-225a3fa1735f-attr-1-type" x="0" y="0" class="er entityLabel" transform="translate(5,34.666666984558105)">name</text><rect width="106.083" height="21.333" x="44.781" y="24" class="er attributeBoxOdd"/><text style="dominant-baseline:middle;font-size:10.2px" id="text-entity-BrokerAuthentication-699860d3-dd90-5e49-8ec5-225a3fa1735f-attr-1-name" x="0" y="0" class="er entityLabel" transform="translate(49.78125,34.666666984558105)">default</text><rect width="44.781" height="21.333" x="0" y="45.333" class="er attributeBoxEven"/><text style="dominant-baseline:middle;font-size:10.2px" id="text-entity-BrokerAuthentication-699860d3-dd90-5e49-8ec5-225a3fa1735f-attr-2-type" x="0" y="0" class="er entityLabel" transform="translate(5,56.000000953674316)">method</text><rect width="106.083" height="21.333" x="44.781" y="45.333" class="er attributeBoxEven"/><text style="dominant-baseline:middle;font-size:10.2px" id="text-entity-BrokerAuthentication-699860d3-dd90-5e49-8ec5-225a3fa1735f-attr-2-name" x="0" y="0" class="er entityLabel" transform="translate(49.78125,56.000000953674316)">ServiceAccountToken</text></g><rect width="41.948" height="14" x="74.458" y="108.333" class="er relationshipLabelBox"/><text style="text-anchor:middle;dominant-baseline:middle;font-size:12px" id="rel5" x="95.432" y="115.333" class="er relationshipLabel">exposes</text><rect width="44.844" height="14" x="73.01" y="275" class="er relationshipLabelBox"/><text style="text-anchor:middle;dominant-baseline:middle;font-size:12px" id="rel6" x="95.432" y="282" class="er relationshipLabel">contains</text><rect width="22.823" height="14" x="84.021" y="420.333" class="er relationshipLabelBox"/><text style="text-anchor:middle;dominant-baseline:middle;font-size:12px" id="rel7" x="95.432" y="427.333" class="er relationshipLabel">uses</text></svg>