<?xml-stylesheet href="https://cdnjs.cloudflare.com/ajax/libs/font-awesome/6.6.0/css/all.min.css" type="text/css"?><svg xmlns="http://www.w3.org/2000/svg" xmlns:xlink="http://www.w3.org/1999/xlink" style="max-width:100%" id="graph-div" width="100%" height="100%" aria-roledescription="er" role="graphics-document document" viewBox="0 0 981.062 585.333"><style>#graph-div{fill:#333}#graph-div,#graph-div svg{font-family:&quot;trebuchet ms&quot;,verdana,arial,sans-serif;font-size:16px}#graph-div .entityBox{fill:#ececff;stroke:#9370db}#graph-div .attributeBoxOdd{fill:#fff;stroke:#9370db}#graph-div .attributeBoxEven{fill:#f2f2f2;stroke:#9370db}#graph-div .relationshipLabelBox{fill:#f9ffec;opacity:.7;background-color:#f9ffec}#graph-div .relationshipLabelBox rect{opacity:.5}#graph-div .relationshipLine{stroke:#333}#graph-div #MD_PARENT_END,#graph-div #MD_PARENT_START{fill:#f5f5f5!important;stroke:#333!important;stroke-width:1}#graph-div :root{--mermaid-font-family:&quot;trebuchet ms&quot;,verdana,arial,sans-serif}</style><defs><marker id="MD_PARENT_START" markerHeight="240" markerWidth="190" orient="auto" refX="0" refY="7"><path d="M 18,7 L9,13 L1,7 L9,1 Z"/></marker></defs><defs><marker id="MD_PARENT_END" markerHeight="28" markerWidth="20" orient="auto" refX="19" refY="7"><path d="M 18,7 L9,13 L1,7 L9,1 Z"/></marker></defs><defs><marker id="ONLY_ONE_START" markerHeight="18" markerWidth="18" orient="auto" refX="0" refY="9"><path fill="none" stroke="gray" d="M9,0 L9,18 M15,0 L15,18"/></marker></defs><defs><marker id="ONLY_ONE_END" markerHeight="18" markerWidth="18" orient="auto" refX="18" refY="9"><path fill="none" stroke="gray" d="M3,0 L3,18 M9,0 L9,18"/></marker></defs><defs><marker id="ZERO_OR_ONE_START" markerHeight="18" markerWidth="30" orient="auto" refX="0" refY="9"><circle cx="21" cy="9" r="6" fill="#fff" stroke="gray"/><path fill="none" stroke="gray" d="M9,0 L9,18"/></marker></defs><defs><marker id="ZERO_OR_ONE_END" markerHeight="18" markerWidth="30" orient="auto" refX="30" refY="9"><circle cx="9" cy="9" r="6" fill="#fff" stroke="gray"/><path fill="none" stroke="gray" d="M21,0 L21,18"/></marker></defs><defs><marker id="ONE_OR_MORE_START" markerHeight="36" markerWidth="45" orient="auto" refX="18" refY="18"><path fill="none" stroke="gray" d="M0,18 Q 18,0 36,18 Q 18,36 0,18 M42,9 L42,27"/></marker></defs><defs><marker id="ONE_OR_MORE_END" markerHeight="36" markerWidth="45" orient="auto" refX="27" refY="18"><path fill="none" stroke="gray" d="M3,9 L3,27 M9,18 Q27,0 45,18 Q27,36 9,18"/></marker></defs><defs><marker id="ZERO_OR_MORE_START" markerHeight="36" markerWidth="57" orient="auto" refX="18" refY="18"><circle cx="48" cy="18" r="6" fill="#fff" stroke="gray"/><path fill="none" stroke="gray" d="M0,18 Q18,0 36,18 Q18,36 0,18"/></marker></defs><defs><marker id="ZERO_OR_MORE_END" markerHeight="36" markerWidth="57" orient="auto" refX="39" refY="18"><circle cx="9" cy="18" r="6" fill="#fff" stroke="gray"/><path fill="none" stroke="gray" d="M21,18 Q39,0 57,18 Q39,36 21,18"/></marker></defs><path style="stroke:gray;fill:none" marker-end="url(#ONLY_ONE_END)" marker-start="url(#ONLY_ONE_START)" d="M370.924,53.829L325.009,64.08C279.094,74.331,187.263,94.832,141.348,113.416C95.432,132,95.432,148.667,95.432,157L95.432,165.333" class="er relationshipLine"/><path style="stroke:gray;fill:none" marker-end="url(#ONLY_ONE_END)" marker-start="url(#ONLY_ONE_START)" d="M95.432,232L95.432,240.333C95.432,248.667,95.432,265.333,95.432,283.778C95.432,302.222,95.432,322.444,95.432,332.556L95.432,342.667" class="er relationshipLine"/><path style="stroke:gray;fill:none" marker-end="url(#ONLY_ONE_END)" marker-start="url(#ONLY_ONE_START)" d="M420.924,65.333L420.924,73.667C420.924,82,420.924,98.667,420.924,115.333C420.924,132,420.924,148.667,420.924,157L420.924,165.333" class="er relationshipLine"/><path style="stroke:gray;fill:none" marker-end="url(#ONLY_ONE_END)" marker-start="url(#ONLY_ONE_START)" d="M470.924,50.891L536.224,61.631C601.523,72.372,732.122,93.852,797.421,112.926C862.721,132,862.721,148.667,862.721,157L862.721,165.333" class="er relationshipLine"/><path style="stroke:gray;fill:none" marker-end="url(#ONLY_ONE_END)" marker-start="url(#ONLY_ONE_START)" d="M378.601,232L368.021,240.333C357.44,248.667,336.278,265.333,325.697,283.778C315.117,302.222,315.117,322.444,315.117,332.556L315.117,342.667" class="er relationshipLine"/><path style="stroke:gray;fill:none" stroke-dasharray="8 8" marker-end="url(#ONLY_ONE_END)" marker-start="url(#ONLY_ONE_START)" d="M95.432,388L95.432,398.111C95.432,408.222,95.432,428.444,95.432,446.889C95.432,465.333,95.432,482,95.432,490.333L95.432,498.667" class="er relationshipLine"/><path style="stroke:gray;fill:none" marker-end="url(#ONLY_ONE_END)" marker-start="url(#ONLY_ONE_START)" d="M472.06,232L484.844,240.333C497.628,248.667,523.196,265.333,535.98,283.778C548.764,302.222,548.764,322.444,548.764,332.556L548.764,342.667" class="er relationshipLine"/><path style="stroke:gray;fill:none" stroke-dasharray="8 8" marker-end="url(#ONLY_ONE_END)" marker-start="url(#ONLY_ONE_START)" d="M526.012,388L515.863,398.111C505.714,408.222,485.415,428.444,472.815,446.889C460.215,465.333,455.313,482,452.863,490.333L450.412,498.667" class="er relationshipLine"/><path style="stroke:gray;fill:none" stroke-dasharray="8 8" marker-end="url(#ONLY_ONE_END)" marker-start="url(#ONLY_ONE_START)" d="M301.517,388L295.45,398.111C289.383,408.222,277.25,428.444,288.732,446.889C300.215,465.333,335.313,482,352.863,490.333L370.412,498.667" class="er relationshipLine"/><path style="stroke:gray;fill:none" stroke-dasharray="8 8" marker-end="url(#ONLY_ONE_END)" marker-start="url(#ONLY_ONE_START)" d="M328.717,388L334.783,398.111C340.85,408.222,352.983,428.444,400.891,449.347C448.798,470.25,532.479,491.833,574.32,502.625L616.161,513.416" class="er relationshipLine"/><path style="stroke:gray;fill:none" stroke-dasharray="8 8" marker-end="url(#ONLY_ONE_END)" marker-start="url(#ONLY_ONE_START)" d="M582.438,388L597.46,398.111C612.481,408.222,642.524,428.444,659.443,448.667C676.363,468.889,680.16,489.111,682.059,499.222L683.957,509.333" class="er relationshipLine"/><path style="stroke:gray;fill:none" marker-end="url(#ONLY_ONE_END)" marker-start="url(#ONLY_ONE_START)" d="M862.721,232L862.721,240.333C862.721,248.667,862.721,265.333,862.721,282C862.721,298.667,862.721,315.333,862.721,323.667L862.721,332" class="er relationshipLine"/><path style="stroke:gray;fill:none" stroke-dasharray="8 8" marker-end="url(#ONLY_ONE_END)" marker-start="url(#ONLY_ONE_START)" d="M826.659,398.667L817.644,407C808.628,415.333,790.597,432,738.848,451.061C687.098,470.122,601.629,491.578,558.895,502.306L516.161,513.034" class="er relationshipLine"/><path style="stroke:gray;fill:none" stroke-dasharray="8 8" marker-end="url(#ONLY_ONE_END)" marker-start="url(#ONLY_ONE_START)" d="M882.721,398.667L887.721,407C892.721,415.333,902.721,432,880.48,450.444C858.24,468.889,803.76,489.111,776.519,499.222L749.279,509.333" class="er relationshipLine"/><g id="entity-Broker-a9f611c6-8ca3-54df-8906-784ee93568ab" transform="translate(370.92447662353516,20 )"><rect width="100" height="45.333" x="0" y="0" class="er entityBox"/><text style="dominant-baseline:middle;text-anchor:middle;font-size:12px" id="text-entity-Broker-a9f611c6-8ca3-54df-8906-784ee93568ab" x="0" y="0" class="er entityLabel" transform="translate(50,12)">Broker</text><rect width="45.891" height="21.333" x="0" y="24" class="er attributeBoxOdd"/><text style="dominant-baseline:middle;font-size:10.2px" id="text-entity-Broker-a9f611c6-8ca3-54df-8906-784ee93568ab-attr-1-type" x="0" y="0" class="er entityLabel" transform="translate(5,34.666666984558105)">name</text><rect width="54.109" height="21.333" x="45.891" y="24" class="er attributeBoxOdd"/><text style="dominant-baseline:middle;font-size:10.2px" id="text-entity-Broker-a9f611c6-8ca3-54df-8906-784ee93568ab-attr-1-name" x="0" y="0" class="er entityLabel" transform="translate(50.891042709350586,34.666666984558105)">default</text></g><g id="entity-BrokerListener-5cbb87f4-b869-5888-a964-7fdd4eb9f884" transform="translate(38.03187942504883,165.33333206176758 )"><rect width="114.801" height="66.667" x="0" y="0" class="er entityBox"/><text style="dominant-baseline:middle;text-anchor:middle;font-size:12px" id="text-entity-BrokerListener-5cbb87f4-b869-5888-a964-7fdd4eb9f884" x="0" y="0" class="er entityLabel" transform="translate(57.40041160583496,12)">BrokerListener</text><rect width="63.602" height="21.333" x="0" y="24" class="er attributeBoxOdd"/><text style="dominant-baseline:middle;font-size:10.2px" id="text-entity-BrokerListener-5cbb87f4-b869-5888-a964-7fdd4eb9f884-attr-1-type" x="0" y="0" class="er entityLabel" transform="translate(5,34.666666984558105)">name</text><rect width="51.199" height="21.333" x="63.602" y="24" class="er attributeBoxOdd"/><text style="dominant-baseline:middle;font-size:10.2px" id="text-entity-BrokerListener-5cbb87f4-b869-5888-a964-7fdd4eb9f884-attr-1-name" x="0" y="0" class="er entityLabel" transform="translate(68.60200119018555,34.666666984558105)">default</text><rect width="63.602" height="21.333" x="0" y="45.333" class="er attributeBoxEven"/><text style="dominant-baseline:middle;font-size:10.2px" id="text-entity-BrokerListener-5cbb87f4-b869-5888-a964-7fdd4eb9f884-attr-2-type" x="0" y="0" class="er entityLabel" transform="translate(5,56.000000953674316)">serviceType</text><rect width="51.199" height="21.333" x="63.602" y="45.333" class="er attributeBoxEven"/><text style="dominant-baseline:middle;font-size:10.2px" id="text-entity-BrokerListener-5cbb87f4-b869-5888-a964-7fdd4eb9f884-attr-2-name" x="0" y="0" class="er entityLabel" transform="translate(68.60200119018555,56.000000953674316)">ClusterIP</text></g><g id="entity-Port-04c26244-4a32-557b-921e-3ed044554cd6" transform="translate(45.432289123535156,342.6666622161865 )"><rect width="100" height="45.333" x="0" y="0" class="er entityBox"/><text style="dominant-baseline:middle;text-anchor:middle;font-size:12px" id="text-entity-Port-04c26244-4a32-557b-921e-3ed044554cd6" x="0" y="0" class="er entityLabel" transform="translate(50,12)">Port</text><rect width="44.649" height="21.333" x="0" y="24" class="er attributeBoxOdd"/><text style="dominant-baseline:middle;font-size:10.2px" id="text-entity-Port-04c26244-4a32-557b-921e-3ed044554cd6-attr-1-type" x="0" y="0" class="er entityLabel" transform="translate(5,34.666666984558105)">port</text><rect width="55.351" height="21.333" x="44.649" y="24" class="er attributeBoxOdd"/><text style="dominant-baseline:middle;font-size:10.2px" id="text-entity-Port-04c26244-4a32-557b-921e-3ed044554cd6-attr-1-name" x="0" y="0" class="er entityLabel" transform="translate(49.64914894104004,34.666666984558105)">*18883</text></g><g id="entity-BrokerListener1-1ebc3403-89cc-550f-a145-826ee6180609" transform="translate(338.9562759399414,165.33333206176758 )"><rect width="163.936" height="66.667" x="0" y="0" class="er entityBox"/><text style="dominant-baseline:middle;text-anchor:middle;font-size:12px" id="text-entity-BrokerListener1-1ebc3403-89cc-550f-a145-826ee6180609" x="0" y="0" class="er entityLabel" transform="translate(81.96819877624512,12)">BrokerListener1</text><rect width="63.602" height="21.333" x="0" y="24" class="er attributeBoxOdd"/><text style="dominant-baseline:middle;font-size:10.2px" id="text-entity-BrokerListener1-1ebc3403-89cc-550f-a145-826ee6180609-attr-1-type" x="0" y="0" class="er entityLabel" transform="translate(5,34.666666984558105)">name</text><rect width="100.334" height="21.333" x="63.602" y="24" class="er attributeBoxOdd"/><text style="dominant-baseline:middle;font-size:10.2px" id="text-entity-BrokerListener1-1ebc3403-89cc-550f-a145-826ee6180609-attr-1-name" x="0" y="0" class="er entityLabel" transform="translate(68.60200119018555,34.666666984558105)">example-lb-listener</text><rect width="63.602" height="21.333" x="0" y="45.333" class="er attributeBoxEven"/><text style="dominant-baseline:middle;font-size:10.2px" id="text-entity-BrokerListener1-1ebc3403-89cc-550f-a145-826ee6180609-attr-2-type" x="0" y="0" class="er entityLabel" transform="translate(5,56.000000953674316)">serviceType</text><rect width="100.334" height="21.333" x="63.602" y="45.333" class="er attributeBoxEven"/><text style="dominant-baseline:middle;font-size:10.2px" id="text-entity-BrokerListener1-1ebc3403-89cc-550f-a145-826ee6180609-attr-2-name" x="0" y="0" class="er entityLabel" transform="translate(68.60200119018555,56.000000953674316)">LoadBalancer</text></g><g id="entity-BrokerListener2-b2764314-e00c-5b9f-a988-29f1f94c3d0d" transform="translate(764.3800449371338,165.33333206176758 )"><rect width="196.681" height="66.667" x="0" y="0" class="er entityBox"/><text style="dominant-baseline:middle;text-anchor:middle;font-size:12px" id="text-entity-BrokerListener2-b2764314-e00c-5b9f-a988-29f1f94c3d0d" x="0" y="0" class="er entityLabel" transform="translate(98.34071922302246,12)">BrokerListener2</text><rect width="63.602" height="21.333" x="0" y="24" class="er attributeBoxOdd"/><text style="dominant-baseline:middle;font-size:10.2px" id="text-entity-BrokerListener2-b2764314-e00c-5b9f-a988-29f1f94c3d0d-attr-1-type" x="0" y="0" class="er entityLabel" transform="translate(5,34.666666984558105)">name</text><rect width="133.079" height="21.333" x="63.602" y="24" class="er attributeBoxOdd"/><text style="dominant-baseline:middle;font-size:10.2px" id="text-entity-BrokerListener2-b2764314-e00c-5b9f-a988-29f1f94c3d0d-attr-1-name" x="0" y="0" class="er entityLabel" transform="translate(68.60200119018555,34.666666984558105)">example-nodeport-listener</text><rect width="63.602" height="21.333" x="0" y="45.333" class="er attributeBoxEven"/><text style="dominant-baseline:middle;font-size:10.2px" id="text-entity-BrokerListener2-b2764314-e00c-5b9f-a988-29f1f94c3d0d-attr-2-type" x="0" y="0" class="er entityLabel" transform="translate(5,56.000000953674316)">serviceType</text><rect width="133.079" height="21.333" x="63.602" y="45.333" class="er attributeBoxEven"/><text style="dominant-baseline:middle;font-size:10.2px" id="text-entity-BrokerListener2-b2764314-e00c-5b9f-a988-29f1f94c3d0d-attr-2-name" x="0" y="0" class="er entityLabel" transform="translate(68.60200119018555,56.000000953674316)">NodePort</text></g><g id="entity-Port1-37064100-2cf7-5698-8dc7-172834145344" transform="translate(265.1165943145752,342.6666622161865 )"><rect width="100" height="45.333" x="0" y="0" class="er entityBox"/><text style="dominant-baseline:middle;text-anchor:middle;font-size:12px" id="text-entity-Port1-37064100-2cf7-5698-8dc7-172834145344" x="0" y="0" class="er entityLabel" transform="translate(50,12)">Port1</text><rect width="47.326" height="21.333" x="0" y="24" class="er attributeBoxOdd"/><text style="dominant-baseline:middle;font-size:10.2px" id="text-entity-Port1-37064100-2cf7-5698-8dc7-172834145344-attr-1-type" x="0" y="0" class="er entityLabel" transform="translate(5,34.666666984558105)">port</text><rect width="52.674" height="21.333" x="47.326" y="24" class="er attributeBoxOdd"/><text style="dominant-baseline:middle;font-size:10.2px" id="text-entity-Port1-37064100-2cf7-5698-8dc7-172834145344-attr-1-name" x="0" y="0" class="er entityLabel" transform="translate(52.32623291015625,34.666666984558105)">*8883</text></g><g id="entity-BrokerAuthentication-699860d3-dd90-5e49-8ec5-225a3fa1735f" transform="translate(20,498.6666603088379 )"><rect width="150.865" height="66.667" x="0" y="0" class="er entityBox"/><text style="dominant-baseline:middle;text-anchor:middle;font-size:12px" id="text-entity-BrokerAuthentication-699860d3-dd90-5e49-8ec5-225a3fa1735f" x="0" y="0" class="er entityLabel" transform="translate(75.43229293823242,12)">BrokerAuthentication</text><rect width="44.781" height="21.333" x="0" y="24" class="er attributeBoxOdd"/><text style="dominant-baseline:middle;font-size:10.2px" id="text-entity-BrokerAuthentication-699860d3-dd90-5e49-8ec5-225a3fa1735f-attr-1-type" x="0" y="0" class="er entityLabel" transform="translate(5,34.666666984558105)">name</text><rect width="106.083" height="21.333" x="44.781" y="24" class="er attributeBoxOdd"/><text style="dominant-baseline:middle;font-size:10.2px" id="text-entity-BrokerAuthentication-699860d3-dd90-5e49-8ec5-225a3fa1735f-attr-1-name" x="0" y="0" class="er entityLabel" transform="translate(49.78125,34.666666984558105)">default</text><rect width="44.781" height="21.333" x="0" y="45.333" class="er attributeBoxEven"/><text style="dominant-baseline:middle;font-size:10.2px" id="text-entity-BrokerAuthentication-699860d3-dd90-5e49-8ec5-225a3fa1735f-attr-2-type" x="0" y="0" class="er entityLabel" transform="translate(5,56.000000953674316)">method</text><rect width="106.083" height="21.333" x="44.781" y="45.333" class="er attributeBoxEven"/><text style="dominant-baseline:middle;font-size:10.2px" id="text-entity-BrokerAuthentication-699860d3-dd90-5e49-8ec5-225a3fa1735f-attr-2-name" x="0" y="0" class="er entityLabel" transform="translate(49.78125,56.000000953674316)">ServiceAccountToken</text></g><g id="entity-Port2-7e38120a-5523-5294-af11-32c3fd1e6dca" transform="translate(498.7642192840576,342.6666622161865 )"><rect width="100" height="45.333" x="0" y="0" class="er entityBox"/><text style="dominant-baseline:middle;text-anchor:middle;font-size:12px" id="text-entity-Port2-7e38120a-5523-5294-af11-32c3fd1e6dca" x="0" y="0" class="er entityLabel" transform="translate(50,12)">Port2</text><rect width="47.326" height="21.333" x="0" y="24" class="er attributeBoxOdd"/><text style="dominant-baseline:middle;font-size:10.2px" id="text-entity-Port2-7e38120a-5523-5294-af11-32c3fd1e6dca-attr-1-type" x="0" y="0" class="er entityLabel" transform="translate(5,34.666666984558105)">port</text><rect width="52.674" height="21.333" x="47.326" y="24" class="er attributeBoxOdd"/><text style="dominant-baseline:middle;font-size:10.2px" id="text-entity-Port2-7e38120a-5523-5294-af11-32c3fd1e6dca-attr-1-name" x="0" y="0" class="er entityLabel" transform="translate(52.32623291015625,34.666666984558105)">*1883</text></g><g id="entity-BrokerAuthentication1-50138349-abdb-55a3-b66e-db7f55f4dcce" transform="translate(365.05669593811035,498.6666603088379 )"><rect width="151.104" height="66.667" x="0" y="0" class="er entityBox"/><text style="dominant-baseline:middle;text-anchor:middle;font-size:12px" id="text-entity-BrokerAuthentication1-50138349-abdb-55a3-b66e-db7f55f4dcce" x="0" y="0" class="er entityLabel" transform="translate(75.55208587646484,12)">BrokerAuthentication1</text><rect width="58.651" height="21.333" x="0" y="24" class="er attributeBoxOdd"/><text style="dominant-baseline:middle;font-size:10.2px" id="text-entity-BrokerAuthentication1-50138349-abdb-55a3-b66e-db7f55f4dcce-attr-1-type" x="0" y="0" class="er entityLabel" transform="translate(5,34.666666984558105)">name</text><rect width="92.453" height="21.333" x="58.651" y="24" class="er attributeBoxOdd"/><text style="dominant-baseline:middle;font-size:10.2px" id="text-entity-BrokerAuthentication1-50138349-abdb-55a3-b66e-db7f55f4dcce-attr-1-name" x="0" y="0" class="er entityLabel" transform="translate(63.65104293823242,34.666666984558105)">example-authn</text><rect width="58.651" height="21.333" x="0" y="45.333" class="er attributeBoxEven"/><text style="dominant-baseline:middle;font-size:10.2px" id="text-entity-BrokerAuthentication1-50138349-abdb-55a3-b66e-db7f55f4dcce-attr-2-type" x="0" y="0" class="er entityLabel" transform="translate(5,56.000000953674316)">method</text><rect width="92.453" height="21.333" x="58.651" y="45.333" class="er attributeBoxEven"/><text style="dominant-baseline:middle;font-size:10.2px" id="text-entity-BrokerAuthentication1-50138349-abdb-55a3-b66e-db7f55f4dcce-attr-2-name" x="0" y="0" class="er entityLabel" transform="translate(63.65104293823242,56.000000953674316)">Custom</text></g><g id="entity-BrokerAuthorization1-6a237cbe-8c80-5346-9d57-b42e88db5666" transform="translate(616.16086769104,509.3333263397217 )"><rect width="144.104" height="45.333" x="0" y="0" class="er entityBox"/><text style="dominant-baseline:middle;text-anchor:middle;font-size:12px" id="text-entity-BrokerAuthorization1-6a237cbe-8c80-5346-9d57-b42e88db5666" x="0" y="0" class="er entityLabel" transform="translate(72.05208587646484,12)">BrokerAuthorization1</text><rect width="50.575" height="21.333" x="0" y="24" class="er attributeBoxOdd"/><text style="dominant-baseline:middle;font-size:10.2px" id="text-entity-BrokerAuthorization1-6a237cbe-8c80-5346-9d57-b42e88db5666-attr-1-type" x="0" y="0" class="er entityLabel" transform="translate(5,34.666666984558105)">name</text><rect width="93.529" height="21.333" x="50.575" y="24" class="er attributeBoxOdd"/><text style="dominant-baseline:middle;font-size:10.2px" id="text-entity-BrokerAuthorization1-6a237cbe-8c80-5346-9d57-b42e88db5666-attr-1-name" x="0" y="0" class="er entityLabel" transform="translate(55.57528877258301,34.666666984558105)">example-authz</text></g><g id="entity-Port3-ddfa98b5-e239-5c28-a32a-88e40665ce74" transform="translate(812.7207660675049,331.99999618530273 )"><rect width="100" height="66.667" x="0" y="0" class="er entityBox"/><text style="dominant-baseline:middle;text-anchor:middle;font-size:12px" id="text-entity-Port3-ddfa98b5-e239-5c28-a32a-88e40665ce74" x="0" y="0" class="er entityLabel" transform="translate(50,12)">Port3</text><rect width="55.552" height="21.333" x="0" y="24" class="er attributeBoxOdd"/><text style="dominant-baseline:middle;font-size:10.2px" id="text-entity-Port3-ddfa98b5-e239-5c28-a32a-88e40665ce74-attr-1-type" x="0" y="0" class="er entityLabel" transform="translate(5,34.666666984558105)">port</text><rect width="44.448" height="21.333" x="55.552" y="24" class="er attributeBoxOdd"/><text style="dominant-baseline:middle;font-size:10.2px" id="text-entity-Port3-ddfa98b5-e239-5c28-a32a-88e40665ce74-attr-1-name" x="0" y="0" class="er entityLabel" transform="translate(60.55172157287598,34.666666984558105)">*1884</text><rect width="55.552" height="21.333" x="0" y="45.333" class="er attributeBoxEven"/><text style="dominant-baseline:middle;font-size:10.2px" id="text-entity-Port3-ddfa98b5-e239-5c28-a32a-88e40665ce74-attr-2-type" x="0" y="0" class="er entityLabel" transform="translate(5,56.000000953674316)">nodePort</text><rect width="44.448" height="21.333" x="55.552" y="45.333" class="er attributeBoxEven"/><text style="dominant-baseline:middle;font-size:10.2px" id="text-entity-Port3-ddfa98b5-e239-5c28-a32a-88e40665ce74-attr-2-name" x="0" y="0" class="er entityLabel" transform="translate(60.55172157287598,56.000000953674316)">*31884</text></g><rect width="41.948" height="14" x="197.493" y="82.421" class="er relationshipLabelBox"/><text style="text-anchor:middle;dominant-baseline:middle;font-size:12px" id="rel8" x="218.467" y="89.421" class="er relationshipLabel">exposes</text><rect width="44.844" height="14" x="73.01" y="280.333" class="er relationshipLabelBox"/><text style="text-anchor:middle;dominant-baseline:middle;font-size:12px" id="rel9" x="95.432" y="287.333" class="er relationshipLabel">contains</text><rect width="41.948" height="14" x="399.95" y="108.333" class="er relationshipLabelBox"/><text style="text-anchor:middle;dominant-baseline:middle;font-size:12px" id="rel10" x="420.924" y="115.333" class="er relationshipLabel">exposes</text><rect width="41.948" height="14" x="659.193" y="79.659" class="er relationshipLabelBox"/><text style="text-anchor:middle;dominant-baseline:middle;font-size:12px" id="rel11" x="680.167" y="86.659" class="er relationshipLabel">exposes</text><rect width="44.844" height="14" x="306.996" y="270.945" class="er relationshipLabelBox"/><text style="text-anchor:middle;dominant-baseline:middle;font-size:12px" id="rel12" x="329.418" y="277.945" class="er relationshipLabel">contains</text><rect width="22.823" height="14" x="84.021" y="436.333" class="er relationshipLabelBox"/><text style="text-anchor:middle;dominant-baseline:middle;font-size:12px" id="rel13" x="95.432" y="443.333" class="er relationshipLabel">uses</text><rect width="44.844" height="14" x="506.88" y="268.457" class="er relationshipLabelBox"/><text style="text-anchor:middle;dominant-baseline:middle;font-size:12px" id="rel14" x="529.302" y="275.457" class="er relationshipLabel">contains</text><rect width="22.823" height="14" x="468.147" y="430.722" class="er relationshipLabelBox"/><text style="text-anchor:middle;dominant-baseline:middle;font-size:12px" id="rel15" x="479.558" y="437.722" class="er relationshipLabel">uses</text><rect width="22.823" height="14" x="288.636" y="452.378" class="er relationshipLabelBox"/><text style="text-anchor:middle;dominant-baseline:middle;font-size:12px" id="rel16" x="300.048" y="459.378" class="er relationshipLabel">uses</text><rect width="22.823" height="14" x="449.598" y="464.051" class="er relationshipLabelBox"/><text style="text-anchor:middle;dominant-baseline:middle;font-size:12px" id="rel17" x="461.009" y="471.051" class="er relationshipLabel">uses</text><rect width="22.823" height="14" x="637.022" y="430.079" class="er relationshipLabelBox"/><text style="text-anchor:middle;dominant-baseline:middle;font-size:12px" id="rel18" x="648.433" y="437.079" class="er relationshipLabel">uses</text><rect width="44.844" height="14" x="840.299" y="275" class="er relationshipLabelBox"/><text style="text-anchor:middle;dominant-baseline:middle;font-size:12px" id="rel19" x="862.721" y="282" class="er relationshipLabel">contains</text><rect width="22.823" height="14" x="666.492" y="463.663" class="er relationshipLabelBox"/><text style="text-anchor:middle;dominant-baseline:middle;font-size:12px" id="rel20" x="677.903" y="470.663" class="er relationshipLabel">uses</text><rect width="22.823" height="14" x="832.412" y="464.871" class="er relationshipLabelBox"/><text style="text-anchor:middle;dominant-baseline:middle;font-size:12px" id="rel21" x="843.824" y="471.871" class="er relationshipLabel">uses</text></svg>