<svg xmlns="http://www.w3.org/2000/svg" id="ICONS-64x" viewBox="0 0 64 64"><defs><style>.cls-1{fill:#556a8a}.cls-2{fill:#fff}.cls-3{fill:#e5e5e5}.cls-4{fill:#2bc7f4}.cls-5{fill:none;stroke:#556a8a;stroke-miterlimit:10;stroke-width:2px}</style></defs><title>i_quick-start</title><rect width="4" height="10" x="30" y="1" class="cls-1"/><rect width="7" height="3" x="48.46" y="12.54" class="cls-1" transform="translate(5.3 40.86) rotate(-45)"/><rect width="8" height="6" x="51.55" y="7.45" class="cls-1" transform="translate(87.44 57.12) rotate(-135)"/><path d="M32,61.5a27.5,27.5,0,0,1,0-55A27.48,27.48,0,0,1,47.68,56.56,27.15,27.15,0,0,1,32,61.5Z" class="cls-2"/><path d="M32,61a27,27,0,0,1-4.81-.43,26.61,26.61,0,0,1-14-7.11l-.35-.34a27,27,0,0,1,0-38.18A26.64,26.64,0,0,1,27.22,7.45,27,27,0,0,1,32,7a26.77,26.77,0,0,1,19.05,7.89l.33.34A27,27,0,0,1,32,61Z" class="cls-2"/><path d="M51.45,53.45A27.46,27.46,0,0,1,27.14,61a27.08,27.08,0,0,1-14.22-7.25L51.79,14.92a27.51,27.51,0,0,1-.35,38.53Z" class="cls-3"/><path d="M32,8A26,26,0,0,1,46.82,55.33,26,26,0,0,1,6,34a25.67,25.67,0,0,1,4.67-14.83A26,26,0,0,1,32,8m0-2a28,28,0,0,0,0,56A28,28,0,0,0,51.72,14.14,27.89,27.89,0,0,0,32,6Z" class="cls-1"/><path d="M32,45A11,11,0,1,1,43,34,11,11,0,0,1,32,45Z" class="cls-4"/><circle cx="32" cy="34" r="4" class="cls-2"/><rect width="14" height="2" x="25" y="1" class="cls-1" rx="1" ry="1" transform="translate(64 4) rotate(-180)"/><polygon points="32.85 35.12 30.96 33.09 48.29 17.26 49.11 18.11 32.85 35.12" class="cls-1"/><line x1="32" x2="32" y1="11" y2="17" class="cls-5"/><line x1="32" x2="32" y1="52" y2="58" class="cls-5"/><line x1="9" x2="15" y1="34" y2="34" class="cls-5"/><line x1="49" x2="55" y1="34" y2="34" class="cls-5"/></svg>