<svg xmlns="http://www.w3.org/2000/svg" xmlns:ev="http://www.w3.org/2001/xml-events" xmlns:xlink="http://www.w3.org/1999/xlink" style="background-color:#fff" width="620.125" height="739.11" class="st14" color-interpolation-filters="sRGB" viewBox="0 0 465.094 554.333" xml:space="preserve"><style type="text/css">.st1,.st2{fill:#fff;stroke:#000;stroke-linecap:round;stroke-linejoin:round;stroke-width:.24}.st2{fill:none;stroke:none;stroke-width:.75}.st3{fill:#000;font-family:Calibri;font-size:1.00001em}.st4,.st5{stroke-linecap:round;stroke-linejoin:round}.st4{fill:#fff;stroke:none;stroke-width:.24}.st5{marker-end:url(#mrkr4-16);marker-start:url(#mrkr20-14);stroke-width:.75}.st5,.st6,.st7{stroke:#000}.st6{fill:#000;fill-opacity:1;stroke-opacity:1;stroke-width:.22935779816514}.st7{fill:none;stroke-linecap:round;stroke-linejoin:round;stroke-width:.25}.st8,.st9{font-size:1em}.st10,.st11,.st9{font-style:italic}.st10{fill:#000;font-family:Calibri;font-size:1.00001em}.st11,.st12{fill:#9c4a09;font-size:1em}.st12{font-family:Calibri;font-size:1.00001em}.st13{marker-end:url(#mrkr4-16);marker-start:url(#mrkr31-63);stroke:#000;stroke-linecap:round;stroke-linejoin:round;stroke-width:.75}.st14{fill:none;fill-rule:evenodd;font-size:12px;overflow:visible;stroke-linecap:square;stroke-miterlimit:3}</style><defs id="Markers"><g id="lend20"><path style="stroke-linecap:round;stroke-linejoin:round;fill:none" d="M 0 0.75 C -0.414214 0.75 -0.75 0.414214 -0.75 0 -0.75 -0.414214 -0.414214 -0.75 0 -0.75 0.414214 -0.75 0.75 -0.414214 0.75 0 0.75 0.414214 0.414214 0.75 0 0.75 Z"/></g><marker id="mrkr20-14" class="st6" markerUnits="strokeWidth" orient="auto" overflow="visible" refX="2.79"><use transform="scale(4.36)" xlink:href="#lend20"/></marker><g id="lend4"><path style="stroke:none" d="M 2 1 L 0 0 L 2 -1 L 2 1"/></g><marker id="mrkr4-16" class="st6" markerUnits="strokeWidth" orient="auto" overflow="visible" refX="-8.72"><use transform="scale(-4.36,-4.36)" xlink:href="#lend4"/></marker><g id="lend31"><path style="stroke-linecap:round;stroke-linejoin:round;fill:none" d="M 0.75 0.75 C 0.335786 0.75 0 0.414214 0 0 0 -0.414214 0.335786 -0.75 0.75 -0.75 1.16421 -0.75 1.5 -0.414214 1.5 0 1.5 0.414214 1.16421 0.75 0.75 0.75 Z M 2.25 -0.75 L 2.25 0.75"/></g><marker id="mrkr31-63" class="st6" markerUnits="strokeWidth" orient="auto" overflow="visible" refX="6.06"><use transform="scale(4.36)" xlink:href="#lend31"/></marker></defs><g><title>Page-2</title><g id="shape1018-1" transform="translate(216.375,-204.51)"><title>Rectangle.1018</title><rect width="230.344" height="65.52" x="0" y="488.813" class="st1"/></g><g id="shape1001-3" transform="translate(89.4736,-505.583)"><title>Sheet.1001</title><desc>Deployment script</desc><rect width="102.937" height="30.375" x="0" y="523.958" class="st2"/><text x="4" y="542.75" class="st3">Deployment script</text></g><g id="shape1002-6" transform="translate(63.7969,-398.79)"><title>Rectangle.1002</title><rect width="154.406" height="49.98" x="0" y="504.353" class="st4"/></g><g id="shape1004-8" transform="translate(695.275,48.1871) rotate(89.9418)"><title>Flow director 2.1004</title><path d="M2.09 554.33 L2.45 554.33 L50.27 554.33" class="st5"/></g><g id="shape1006-17" transform="translate(63.7969,-400.329)"><title>Sheet.1006</title><desc>Enumerate each valid deployment file Examples: azuredeploy.js...</desc><rect width="194.953" height="48.441" x="0" y="505.891" class="st7"/><text x="4" y="520.69" class="st3">Enumerate each valid deployment file<tspan x="4" class="st8" dy="1.2em">Examples: </tspan><tspan x="4" class="st9" dy="1.2em">azuredeploy.json, azuredeploy.bicep</tspan></text></g><g id="shape1007-22" transform="translate(148.875,-467.614)"><title>Sheet.1007</title><desc>workspaceID</desc><rect width="76.5" height="19.125" x="0" y="535.208" class="st2"/><text x="7.03" y="548.37" class="st10">workspaceID</text></g><g id="shape1008-25" transform="translate(49.875,-286.77)"><title>Diamond.1008</title><path d="M91.13 554.33 L182.25 518.33 L91.13 482.33 L0 518.33 L91.13 554.33 Z" class="st1"/></g><g id="shape1005-27" transform="translate(58.875,-296.895)"><title>Sheet.1005</title><desc>mapped in sentinel-deployment.config file?</desc><rect width="164.25" height="51.75" x="0" y="502.583" class="st2"/><text x="56.13" y="517.66" class="st3">mapped in <tspan x="15.94" class="st11" dy="1.2em">sentinel</tspan><tspan class="st11">-</tspan><tspan class="st11">deployment.config</tspan><tspan x="71.77" class="st8" dy="1.2em">file?</tspan></text></g><g id="shape1009-34" transform="translate(695.333,155.542) rotate(90)"><title>Flow director 2.1009</title><path d="M2.09 554.33 L2.45 554.33 L33.48 554.33" class="st5"/></g><g id="shape1010-41" transform="translate(149.813,-286.77)"><title>Dynamic connector.1010</title><path d="M-8.81 556.43 L-8.81 556.79 L-8.81 721.8 L-9.19 721.8 L-9.19 753.56" class="st5"/></g><g id="shape1011-48" transform="translate(81,-9)"><title>Rectangle.1011</title><desc>Parameter file match</desc><rect width="119.25" height="72" x="0" y="482.333" class="st1"/><text x="8.17" y="521.93" class="st12">Parameter file match</text></g><g id="shape1012-51" transform="translate(108,-256.53)"><title>Sheet.1012</title><desc>Yes</desc><rect width="27" height="13.5" x="0" y="540.833" class="st2"/><text x="5.24" y="551.18" class="st3">Yes</text></g><g id="shape1013-54" transform="translate(250.125,-327.27)"><title>Sheet.1013</title><desc>No</desc><rect width="27" height="13.5" x="0" y="540.833" class="st2"/><text x="6.46" y="551.18" class="st3">No</text></g><g id="shape1015-57" transform="translate(232.125,-322.77)"><title>Dynamic connector.1015</title><path d="M4.55 554.33 L4.91 554.33 L99.42 554.33 L99.42 600.53" class="st13"/></g><g id="shape1016-65" transform="translate(216.375,-217.583)"><title>Sheet.1016</title><desc>exists in same directory as azuredeploy.parameters-&lt;workspace...</desc><rect width="230.344" height="39.375" x="0" y="514.958" class="st2"/><text x="51.21" y="523.85" class="st3">exists in same directory as <tspan x="5.35" class="st11" dy="1.2em">azuredeploy.parameters</tspan><tspan class="st11">-</tspan><tspan class="st11">&lt;workspaceID&gt;.json</tspan><tspan x="16.34" class="st11" dy="1.2em">azuredeploy.&lt;workspaceID&gt;.bicepparam</tspan></text></g><g id="shape1017-72" transform="translate(216.375,-237.27)"><title>Dynamic connector.1017</title><path d="M-2.09 554.33 L-2.45 554.33 L-75.38 554.33 L-75.38 672.35 L-75.75 672.35 L-75.75 704.06" class="st5"/></g><g id="shape1019-79" transform="translate(322.617,-204.51)"><title>Dynamic connector.1019</title><path d="M8.93 558.88 L8.93 559.24 L8.93 600.03 L9.07 600.03 L9.07 600.24" class="st13"/></g><g id="shape1020-86" transform="translate(178.125,-241.77)"><title>Sheet.1020</title><desc>Yes</desc><rect width="27" height="13.5" x="0" y="540.833" class="st2"/><text x="5.24" y="551.18" class="st3">Yes</text></g><g id="shape1021-89" transform="translate(251.25,-86.5426)"><title>Rectangle.1021</title><desc>exists in same directory as azuredeploy.parameters.json azure...</desc><rect width="160.875" height="65.52" x="0" y="488.813" class="st1"/><text x="16.47" y="510.77" class="st3">exists in same directory as<tspan x="9.65" class="st11" dy="1.2em">azuredeploy.parameters.json </tspan><tspan x="20.32" class="st11" dy="1.2em">azuredeploy.bicepparam</tspan></text></g><g id="shape1022-94" transform="translate(251.25,-119.303)"><title>Dynamic connector.1022</title><path d="M-2.09 554.33 L-2.45 554.33 L-110.62 554.33 L-110.62 586.1" class="st5"/></g><g id="shape1023-101" transform="translate(216.375,-124.77)"><title>Sheet.1023</title><desc>Yes</desc><rect width="27" height="13.5" x="0" y="540.833" class="st2"/><text x="5.24" y="551.18" class="st3">Yes</text></g><g id="shape1024-104" transform="translate(286.125,-20.1451)"><title>Sheet.1024</title><desc>No parameter file match</desc><rect width="93.375" height="24.75" x="0" y="529.583" class="st2"/><text x="12.44" y="538.36" class="st3">No parameter <tspan x="22.39" class="st8" dy="1.2em">file match</tspan></text></g><g id="shape1025-108" transform="translate(340.125,-181.02)"><title>Sheet.1025</title><desc>No</desc><rect width="27" height="13.5" x="0" y="540.833" class="st2"/><text x="6.46" y="551.18" class="st3">No</text></g><g id="shape1026-111" transform="translate(344.625,-68.5201)"><title>Sheet.1026</title><desc>No</desc><rect width="27" height="13.5" x="0" y="540.833" class="st2"/><text x="6.46" y="551.18" class="st3">No</text></g><g id="shape1027-114" transform="translate(323.31,-86.5426)"><title>Dynamic connector.1027</title><path d="M8.83 558.88 L8.84 559.24 L9.14 583.82" class="st13"/></g></g></svg>