<svg xmlns="http://www.w3.org/2000/svg" xmlns:ev="http://www.w3.org/2001/xml-events" xmlns:xlink="http://www.w3.org/1999/xlink" width="998.995" height="696" class="st25" color-interpolation-filters="sRGB" viewBox="0 0 749.25 522" xml:space="preserve"><style type="text/css">.st1,.st2{fill:#fff;stroke:none;stroke-linecap:round;stroke-linejoin:round;stroke-width:.75}.st2{stroke:#000}.st3{fill:#000;font-family:Segoe UI;font-size:.916672em;font-stretch:semi-expanded}.st4{fill:#606771;stroke:#606771;stroke-linecap:round;stroke-linejoin:round;stroke-width:.25}.st5{font-size:1em}.st6{fill:#d7e3bf;stroke:#50632a;stroke-dasharray:0,2.25;stroke-linecap:round;stroke-linejoin:round;stroke-width:.75}.st7{fill:#000;font-family:Segoe UI;font-size:.916672em}.st8{fill:#c3e5ff;stroke:#99c2eb;stroke-dasharray:2.25,2.25;stroke-linecap:round;stroke-linejoin:round;stroke-width:.75}.st9{fill:#000;font-family:Calibri;font-size:1.00001em}.st10{fill:url(#grad0-87);stroke:none;stroke-width:.75}.st10,.st11,.st12{stroke-linecap:butt}.st11,.st12,.st13,.st14{stroke:none;stroke-width:.75}.st11{fill:#0078d4}.st12{fill:#86d633}.st13,.st14{fill:#f9c499;stroke-linecap:round;stroke-linejoin:round}.st14{fill:#ccc2d9}.st15,.st16{stroke:#ea700d}.st15{marker-end:url(#mrkr4-175);stroke-linecap:butt;stroke-width:1.5}.st16{fill:#ea700d;fill-opacity:1;stroke-opacity:1;stroke-width:.27472527472527}.st17,.st18{stroke:#7030a0}.st17{marker-end:url(#mrkr4-189);marker-start:url(#mrkr4-187);stroke-linecap:butt;stroke-width:1.5}.st18{fill:#7030a0;fill-opacity:1;stroke-opacity:1;stroke-width:.31645569620253}.st19{stroke:none;stroke-linecap:round;stroke-linejoin:round;stroke-width:.75}.st20,.st21,.st22{marker-end:url(#mrkr4-189);stroke:#7030a0;stroke-linecap:butt;stroke-width:1.5}.st21,.st22{marker-end:url(#mrkr4-175);stroke:#ea700d;stroke-dasharray:3,1.5}.st22{marker-end:url(#mrkr4-189);marker-start:url(#mrkr4-187);stroke:#7030a0}.st23,.st24{fill:#c3e5ff;stroke:none;stroke-linecap:round;stroke-linejoin:round;stroke-width:.75}.st24{fill:none}.st25{fill:none;fill-rule:evenodd;font-size:12px;overflow:visible;stroke-linecap:square;stroke-miterlimit:3}</style><defs id="Patterns_And_Gradients"><linearGradient id="grad0-13" x1="0" x2="1" y1="0" y2="0" gradientTransform="rotate(90 0.5 0.5)"><stop offset=".01" stop-color="#fff" stop-opacity="1"/><stop offset=".5" stop-color="#fefefe" stop-opacity="1"/><stop offset="1" stop-color="#fff" stop-opacity="1"/></linearGradient><linearGradient id="grad0-60" x1="0" x2="1" y1="0" y2="0" gradientTransform="rotate(270 0.5 0.5)"><stop offset="0" stop-color="#fefefe" stop-opacity="1"/><stop offset="1" stop-color="#fff" stop-opacity="1"/></linearGradient><linearGradient id="grad0-87" x1="0" x2="1" y1="0" y2="0" gradientTransform="rotate(90 0.5 0.5)"><stop offset="0" stop-color="#50e6ff" stop-opacity="1"/><stop offset=".5" stop-color="#32bedd" stop-opacity="1"/></linearGradient></defs><defs id="Markers"><g id="lend4"><path d="M 2 1 L 0 0 L 2 -1 L 2 1" style="stroke:none"/></g><marker id="mrkr4-175" class="st16" markerUnits="strokeWidth" orient="auto" overflow="visible" refX="-7.28"><use transform="scale(-3.64,-3.64)" xlink:href="#lend4"/></marker><marker id="mrkr4-187" class="st18" markerUnits="strokeWidth" orient="auto" overflow="visible" refX="6.08"><use transform="scale(3.16)" xlink:href="#lend4"/></marker><marker id="mrkr4-189" class="st18" markerUnits="strokeWidth" orient="auto" overflow="visible" refX="-6.32"><use transform="scale(-3.16,-3.16)" xlink:href="#lend4"/></marker></defs><g><title>VBackground-1</title><g id="shape1000-1"><title>Solid.1000</title><rect width="749.25" height="522" x="0" y="0" class="st1"/></g></g><g><title>IP addresses</title><g id="group84-3" transform="translate(253.125,-90)"><title>Container Style 2</title><g id="group85-4"><title>Sheet.85</title><g id="shape86-5" transform="translate(2.88,2.88)"><title>Sheet.86</title></g><g id="shape85-7"><path d="M0 522 L119.81 522 L239.62 522 L239.62 99 L119.81 99 L0 99 L0 522 Z" class="st2"/></g></g><g id="group87-9" transform="translate(0,-400.5)"><title>Sheet.87</title><desc>Azure</desc><g id="shape88-10"><title>Sheet.88</title></g><g id="shape87-14"><path d="M0 522 L239.62 522 L239.62 499.5 L119.81 499.5 L0 499.5 L0 522 Z" class="st2"/><text x="104.48" y="514.05" class="st3">Azure</text></g></g></g><g id="group1031-17" transform="translate(547.875,-90)"><title>Classic.1031</title><g id="group1032-18"><title>Sheet.1032</title><g id="shape1033-19" transform="translate(2.88,2.88)"><title>Sheet.1033</title></g><g id="shape1032-21"><path d="M0 522 L97.87 522 L195.75 522 L195.75 99 L97.87 99 L0 99 L0 522 Z" class="st2"/></g></g><g id="group1034-23" transform="translate(0,-400.5)"><title>Sheet.1034</title><desc>Communications service</desc><g id="shape1035-24"><title>Sheet.1035</title></g><g id="shape1034-27"><path d="M0 522 L195.75 522 L195.75 499.5 L97.87 499.5 L0 499.5 L0 522 Z" class="st2"/><text x="33.11" y="514.05" class="st3">Communications service</text></g></g></g><g id="group1029-30" transform="translate(608.188,-264.027)"><title>Cloud.1029</title><g id="shape1030-31"><title>Sheet.1030</title><path d="M83.99 494.22 C83.64 494.22 83.19 494.22 82.84 494.22 C82.84 494.22 82.84 494.22 82.84 494.22 C82.84 488.57 80.09 483.38 75.62 480.15 C71.04 476.93 65.2 476.12 59.93 477.96 C55.57 469.43 45.95 465.05 36.78 467.24 C27.61 469.43 20.97 477.73 20.97 487.3 C20.97 487.3 20.97 487.42 20.97 487.53 C14.67 486.49 8.36 489.15 4.47 494.22 C0.69 499.41 0 506.21 2.64 511.97 C5.39 517.73 11.11 521.54 17.42 521.88 L17.42 522 L83.87 522 C91.44 522 97.62 515.78 97.62 508.17 C97.62 500.56 91.55 494.22 83.99 494.22 Z" class="st4"/></g></g><g id="group256-33" transform="translate(2.25001,-90)"><title>Container Style 2.256</title><g id="group257-34"><title>Sheet.257</title><g id="shape258-35" transform="translate(2.88,2.88)"><title>Sheet.258</title></g><g id="shape257-37"><path d="M0 522 L97.87 522 L195.75 522 L195.75 99 L97.87 99 L0 99 L0 522 Z" class="st2"/></g></g><g id="group259-39" transform="translate(0,-400.5)"><title>Sheet.259</title><desc>Operator network</desc><g id="shape260-40"><title>Sheet.260</title></g><g id="shape259-43"><path d="M0 522 L195.75 522 L195.75 499.5 L97.87 499.5 L0 499.5 L0 522 Z" class="st2"/><text x="50.39" y="514.05" class="st3">Operator <tspan class="st5">n</tspan>etwork</text></g></g></g><g id="group1044-47" transform="translate(263.25,-105.75)"><title>Container Style 1.1044</title><g id="group1045-48"><title>Sheet.1045</title><g id="shape1046-49" transform="translate(2.88,2.88)"><title>Sheet.1046</title></g><g id="shape1045-51"><path d="M0 522 L110.25 522 L220.5 522 L220.5 355.5 L110.25 355.5 L0 355.5 L0 522 Z" class="st2"/></g></g><g id="group1047-53" transform="translate(0,-144)"><title>Sheet.1047</title><desc>Region 2</desc><g id="shape1048-54"><title>Sheet.1048</title></g><g id="shape1047-57"><text x="86.55" y="514.05" class="st3">Region 2</text></g></g></g><g id="group1081-62" transform="translate(262.125,-315)"><title>Container Style 1.1081</title><g id="group1082-63"><title>Sheet.1082</title><g id="shape1083-64" transform="translate(2.88,2.88)"><title>Sheet.1083</title></g><g id="shape1082-66"><path d="M0 522 L110.25 522 L220.5 522 L220.5 355.5 L110.25 355.5 L0 355.5 L0 522 Z" class="st2"/></g></g><g id="group1084-68" transform="translate(0,-144)"><title>Sheet.1084</title><desc>Region 1</desc><g id="shape1085-69"><title>Sheet.1085</title></g><g id="shape1084-72"><text x="86.55" y="514.05" class="st3">Region 1</text></g></g></g><g id="shape1174-76" transform="translate(24.3403,-333)"><title>Round Corner Rectangle</title><desc>Site A</desc><path d="M13.95 522 L125.55 522 A13.9498 13.9498 -180 0 0 139.5 508.05 L139.5 418.95 A13.9498 13.9498 -180 0 0 125.55 405 L13.95 405 A13.9498 13.9498 -180 0 0 0 418.95 L0 508.05 A13.9498 13.9498 -180 0 0 13.95 522 Z" class="st6"/><text x="55.7" y="466.8" class="st7">Site A</text></g><g id="shape1066-79" transform="translate(307.518,-123.75)"><title>Sheet.1066</title><desc>Azure Communications Gateway</desc><path d="M0 522 L139.5 522 L139.5 405 L0 405 L0 522 Z" class="st8"/><text x="13.23" y="419.8" class="st9">Azure Communications <tspan x="48.22" class="st5" dy="1.2em">Gateway</tspan></text></g><g id="group1067-83" transform="translate(343.246,-132.75)"><title>Azure Communications Gateway</title><g id="shape1068-84" transform="translate(12.5163,-12.021)"><title>Sheet.1068</title><path d="M27.57 502.08 L27.57 497.89 C27.4 497.21 27.32 496.5 27.36 495.79 L15.2 495.79 C15.23 496.5 15.17 497.21 14.99 497.89 L14.99 502.08 C15.17 502.77 15.24 503.47 15.2 504.18 L27.36 504.18 C27.33 503.47 27.4 502.77 27.57 502.08 ZM28.62 491.8 C28.85 492.4 29 493.04 29.04 493.69 L34.49 493.7 C34.08 492.82 33.59 491.98 33.03 491.19 L31.15 489.09 L28.61 487.41 L26.1 486.15 C26.5 486.68 26.85 487.24 27.15 487.83 L27.99 489.71 L28.62 491.81 L28.62 491.8 ZM28.62 512.56 L31.13 510.89 L33.01 508.79 C33.58 508 34.08 507.16 34.49 506.27 L29.04 506.27 C29 506.92 28.86 507.56 28.62 508.16 L27.99 510.25 L27.15 512.13 C26.85 512.72 26.5 513.29 26.1 513.82 C27.01 513.57 27.87 513.14 28.62 512.56 L28.62 512.56 ZM40.51 495.35 L42.69 493.17 C40.27 485.56 33.92 479.71 26.02 478.02 L26.02 480.77 C33.17 482.53 38.79 488.18 40.51 495.35 ZM6.62 499.99 C6.6 501.41 6.81 502.83 7.24 504.18 L13.11 504.18 C13.14 503.47 13.07 502.77 12.9 502.08 L12.9 497.89 C13.08 497.21 13.14 496.5 13.11 495.79 L7.24 495.79 C6.81 497.15 6.6 498.56 6.62 499.98 L6.62 499.99 ZM13.95 491.82 L14.58 489.72 L15.42 487.84 C15.72 487.24 16.07 486.68 16.47 486.14 C15.55 486.39 14.7 486.82 13.95 487.4 L11.44 489.09 L9.56 491.19 C8.99 491.98 8.49 492.82 8.08 493.7 L13.53 493.7 C13.57 493.05 13.71 492.42 13.95 491.82 L13.95 491.82 ZM11.44 510.89 L13.95 512.56 C14.7 513.14 15.55 513.57 16.46 513.82 C16.07 513.29 15.72 512.73 15.41 512.14 L14.57 510.26 L13.95 508.16 C13.71 507.56 13.56 506.93 13.53 506.28 L8.07 506.27 C8.49 507.16 8.98 508 9.55 508.79 L11.43 510.89 L11.44 510.89 ZM26.94 506.28 L15.62 506.28 C15.69 506.79 15.83 507.28 16.04 507.75 L16.67 509.63 C16.86 510.29 17.14 510.93 17.51 511.51 L18.56 512.98 L19.82 514.24 L21.28 514.66 L22.75 514.24 L24 512.98 L25.05 511.51 C25.41 510.93 25.7 510.29 25.89 509.63 L26.52 507.75 C26.73 507.28 26.87 506.79 26.94 506.28 L26.94 506.28 ZM2.14 504.93 L0 507.09 C2.54 514.67 9.01 520.45 17 522 L17 519.28 C9.75 517.67 4 512.08 2.14 504.93 ZM26.01 519.16 L26.01 521.91 C33.91 520.22 40.27 514.37 42.68 506.76 L40.51 504.58 C38.79 511.75 33.16 517.4 26.01 519.16 ZM17 480.65 L17 477.93 C9.01 479.47 2.54 485.25 0 492.84 L2.14 494.99 C4 487.84 9.75 482.25 17 480.65 ZM35.95 499.99 C35.96 498.57 35.75 497.15 35.32 495.8 L29.46 495.8 C29.42 496.5 29.49 497.21 29.66 497.89 L29.66 502.09 C29.49 502.77 29.42 503.48 29.46 504.18 L35.32 504.18 C35.75 502.83 35.96 501.41 35.95 499.99 L35.95 499.99 ZM16.05 492.23 C15.84 492.69 15.7 493.19 15.63 493.69 L26.95 493.69 C26.88 493.19 26.74 492.69 26.53 492.23 L25.9 490.34 C25.71 489.68 25.42 489.05 25.06 488.46 L24.01 487 L22.76 485.74 L21.29 485.32 L19.82 485.74 L18.56 487 L17.52 488.46 C17.15 489.05 16.87 489.68 16.68 490.34 L16.05 492.23 L16.05 492.23 Z" class="st10"/></g><g id="shape1069-88" transform="translate(25.4861,0)"><title>Sheet.1069</title><path d="M0.52 462.69 L5.21 462.69 C5.44 462.69 5.62 462.88 5.62 463.11 L5.62 470.67 C5.62 470.9 5.81 471.08 6.04 471.08 L11.03 471.08 C11.26 471.08 11.45 470.9 11.45 470.67 L11.45 463.11 C11.45 462.88 11.63 462.69 11.86 462.69 L16.55 462.69 C16.75 462.74 16.96 462.62 17.01 462.42 C17.04 462.26 16.98 462.1 16.85 462.01 L8.84 454.04 C8.66 453.88 8.41 453.88 8.23 454.04 L0.22 462.01 C0.05 462.13 0 462.36 0.12 462.54 C0.2 462.67 0.37 462.73 0.52 462.69 ZM16.55 513.19 L11.86 513.19 C11.63 513.19 11.45 513 11.45 512.77 L11.45 505.21 C11.45 504.98 11.26 504.8 11.03 504.8 L6.04 504.8 C5.81 504.8 5.62 504.98 5.62 505.21 L5.62 512.77 C5.62 513 5.44 513.19 5.21 513.19 L0.52 513.19 C0.37 513.15 0.2 513.21 0.12 513.34 C0 513.52 0.05 513.75 0.22 513.87 L8.23 521.85 C8.41 522 8.66 522 8.84 521.85 L16.85 513.87 C16.98 513.78 17.04 513.62 17.01 513.46 C16.96 513.26 16.75 513.14 16.55 513.19 Z" class="st11"/></g><g id="shape1070-90" transform="translate(0,-25.5239)"><title>Sheet.1070</title><path d="M67.63 510.55 L60.07 510.55 C59.84 510.55 59.65 510.37 59.65 510.14 L59.65 505.45 C59.7 505.25 59.58 505.04 59.38 504.99 C59.22 504.96 59.06 505.02 58.97 505.15 L50.99 513.16 C50.84 513.34 50.84 513.59 50.99 513.77 L58.97 521.78 C59.09 521.95 59.32 522 59.5 521.88 C59.63 521.8 59.69 521.63 59.65 521.48 L59.65 516.79 C59.65 516.56 59.84 516.38 60.07 516.38 L67.63 516.38 C67.86 516.38 68.04 516.19 68.04 515.96 L68.04 510.97 C68.04 510.74 67.86 510.55 67.63 510.55 ZM9.07 505.15 C8.98 505.02 8.82 504.96 8.67 504.99 C8.46 505.04 8.34 505.25 8.39 505.45 L8.39 510.14 C8.39 510.37 8.21 510.55 7.98 510.55 L0.42 510.55 C0.19 510.55 0 510.74 0 510.97 L0 515.96 C0 516.19 0.19 516.38 0.42 516.38 L7.98 516.38 C8.21 516.38 8.39 516.56 8.39 516.79 L8.39 521.48 C8.35 521.63 8.41 521.8 8.55 521.88 C8.72 522 8.96 521.95 9.07 521.78 L17.05 513.77 C17.2 513.59 17.2 513.34 17.05 513.16 L9.07 505.15 Z" class="st12"/></g></g><g id="shape1038-92" transform="translate(293.625,-168.456)"><title>Sheet.1038</title><ellipse cx="12.938" cy="509.063" class="st13" rx="12.938" ry="12.938"/><text x="6.86" y="512.66" class="st9">11</text></g><g id="shape1075-95" transform="translate(293.625,-129.938)"><title>Sheet.1075</title><ellipse cx="12.938" cy="509.063" class="st14" rx="12.938" ry="12.938"/><text x="6.86" y="512.66" class="st9">12</text></g><g id="shape1076-98" transform="translate(293.625,-205.875)"><title>Sheet.1076</title><ellipse cx="12.938" cy="509.063" class="st13" rx="12.938" ry="12.938"/><text x="6.86" y="512.66" class="st9">10</text></g><g id="shape1077-101" transform="translate(434.08,-168.456)"><title>Sheet.1077</title><ellipse cx="12.938" cy="509.063" class="st13" rx="12.938" ry="12.938"/><text x="6.86" y="512.66" class="st9">18</text></g><g id="shape1078-104" transform="translate(434.08,-129.938)"><title>Sheet.1078</title><ellipse cx="12.938" cy="509.063" class="st14" rx="12.938" ry="12.938"/><text x="6.86" y="512.66" class="st9">19</text></g><g id="shape1079-107" transform="translate(434.08,-205.875)"><title>Sheet.1079</title><ellipse cx="12.938" cy="509.063" class="st13" rx="12.938" ry="12.938"/><text x="6.86" y="512.66" class="st9">17</text></g><g id="shape1086-110" transform="translate(303.018,-333)"><title>Sheet.1086</title><desc>Azure Communications Gateway</desc><path d="M0 522 L139.5 522 L139.5 405 L0 405 L0 522 Z" class="st8"/><text x="13.23" y="419.8" class="st9">Azure Communications <tspan x="48.22" class="st5" dy="1.2em">Gateway</tspan></text></g><g id="group1087-114" transform="translate(338.746,-343.94)"><title>Azure Communications Gateway.1087</title><g id="shape1088-115" transform="translate(12.5163,-12.021)"><title>Sheet.1088</title><path d="M27.57 502.08 L27.57 497.89 C27.4 497.21 27.32 496.5 27.36 495.79 L15.2 495.79 C15.23 496.5 15.17 497.21 14.99 497.89 L14.99 502.08 C15.17 502.77 15.24 503.47 15.2 504.18 L27.36 504.18 C27.33 503.47 27.4 502.77 27.57 502.08 ZM28.62 491.8 C28.85 492.4 29 493.04 29.04 493.69 L34.49 493.7 C34.08 492.82 33.59 491.98 33.03 491.19 L31.15 489.09 L28.61 487.41 L26.1 486.15 C26.5 486.68 26.85 487.24 27.15 487.83 L27.99 489.71 L28.62 491.81 L28.62 491.8 ZM28.62 512.56 L31.13 510.89 L33.01 508.79 C33.58 508 34.08 507.16 34.49 506.27 L29.04 506.27 C29 506.92 28.86 507.56 28.62 508.16 L27.99 510.25 L27.15 512.13 C26.85 512.72 26.5 513.29 26.1 513.82 C27.01 513.57 27.87 513.14 28.62 512.56 L28.62 512.56 ZM40.51 495.35 L42.69 493.17 C40.27 485.56 33.92 479.71 26.02 478.02 L26.02 480.77 C33.17 482.53 38.79 488.18 40.51 495.35 ZM6.62 499.99 C6.6 501.41 6.81 502.83 7.24 504.18 L13.11 504.18 C13.14 503.47 13.07 502.77 12.9 502.08 L12.9 497.89 C13.08 497.21 13.14 496.5 13.11 495.79 L7.24 495.79 C6.81 497.15 6.6 498.56 6.62 499.98 L6.62 499.99 ZM13.95 491.82 L14.58 489.72 L15.42 487.84 C15.72 487.24 16.07 486.68 16.47 486.14 C15.55 486.39 14.7 486.82 13.95 487.4 L11.44 489.09 L9.56 491.19 C8.99 491.98 8.49 492.82 8.08 493.7 L13.53 493.7 C13.57 493.05 13.71 492.42 13.95 491.82 L13.95 491.82 ZM11.44 510.89 L13.95 512.56 C14.7 513.14 15.55 513.57 16.46 513.82 C16.07 513.29 15.72 512.73 15.41 512.14 L14.57 510.26 L13.95 508.16 C13.71 507.56 13.56 506.93 13.53 506.28 L8.07 506.27 C8.49 507.16 8.98 508 9.55 508.79 L11.43 510.89 L11.44 510.89 ZM26.94 506.28 L15.62 506.28 C15.69 506.79 15.83 507.28 16.04 507.75 L16.67 509.63 C16.86 510.29 17.14 510.93 17.51 511.51 L18.56 512.98 L19.82 514.24 L21.28 514.66 L22.75 514.24 L24 512.98 L25.05 511.51 C25.41 510.93 25.7 510.29 25.89 509.63 L26.52 507.75 C26.73 507.28 26.87 506.79 26.94 506.28 L26.94 506.28 ZM2.14 504.93 L0 507.09 C2.54 514.67 9.01 520.45 17 522 L17 519.28 C9.75 517.67 4 512.08 2.14 504.93 ZM26.01 519.16 L26.01 521.91 C33.91 520.22 40.27 514.37 42.68 506.76 L40.51 504.58 C38.79 511.75 33.16 517.4 26.01 519.16 ZM17 480.65 L17 477.93 C9.01 479.47 2.54 485.25 0 492.84 L2.14 494.99 C4 487.84 9.75 482.25 17 480.65 ZM35.95 499.99 C35.96 498.57 35.75 497.15 35.32 495.8 L29.46 495.8 C29.42 496.5 29.49 497.21 29.66 497.89 L29.66 502.09 C29.49 502.77 29.42 503.48 29.46 504.18 L35.32 504.18 C35.75 502.83 35.96 501.41 35.95 499.99 L35.95 499.99 ZM16.05 492.23 C15.84 492.69 15.7 493.19 15.63 493.69 L26.95 493.69 C26.88 493.19 26.74 492.69 26.53 492.23 L25.9 490.34 C25.71 489.68 25.42 489.05 25.06 488.46 L24.01 487 L22.76 485.74 L21.29 485.32 L19.82 485.74 L18.56 487 L17.52 488.46 C17.15 489.05 16.87 489.68 16.68 490.34 L16.05 492.23 L16.05 492.23 Z" class="st10"/></g><g id="shape1089-118" transform="translate(25.4861,0)"><title>Sheet.1089</title><path d="M0.52 462.69 L5.21 462.69 C5.44 462.69 5.62 462.88 5.62 463.11 L5.62 470.67 C5.62 470.9 5.81 471.08 6.04 471.08 L11.03 471.08 C11.26 471.08 11.45 470.9 11.45 470.67 L11.45 463.11 C11.45 462.88 11.63 462.69 11.86 462.69 L16.55 462.69 C16.75 462.74 16.96 462.62 17.01 462.42 C17.04 462.26 16.98 462.1 16.85 462.01 L8.84 454.04 C8.66 453.88 8.41 453.88 8.23 454.04 L0.22 462.01 C0.05 462.13 0 462.36 0.12 462.54 C0.2 462.67 0.37 462.73 0.52 462.69 ZM16.55 513.19 L11.86 513.19 C11.63 513.19 11.45 513 11.45 512.77 L11.45 505.21 C11.45 504.98 11.26 504.8 11.03 504.8 L6.04 504.8 C5.81 504.8 5.62 504.98 5.62 505.21 L5.62 512.77 C5.62 513 5.44 513.19 5.21 513.19 L0.52 513.19 C0.37 513.15 0.2 513.21 0.12 513.34 C0 513.52 0.05 513.75 0.22 513.87 L8.23 521.85 C8.41 522 8.66 522 8.84 521.85 L16.85 513.87 C16.98 513.78 17.04 513.62 17.01 513.46 C16.96 513.26 16.75 513.14 16.55 513.19 Z" class="st11"/></g><g id="shape1090-120" transform="translate(0,-25.5239)"><title>Sheet.1090</title><path d="M67.63 510.55 L60.07 510.55 C59.84 510.55 59.65 510.37 59.65 510.14 L59.65 505.45 C59.7 505.25 59.58 505.04 59.38 504.99 C59.22 504.96 59.06 505.02 58.97 505.15 L50.99 513.16 C50.84 513.34 50.84 513.59 50.99 513.77 L58.97 521.78 C59.09 521.95 59.32 522 59.5 521.88 C59.63 521.8 59.69 521.63 59.65 521.48 L59.65 516.79 C59.65 516.56 59.84 516.38 60.07 516.38 L67.63 516.38 C67.86 516.38 68.04 516.19 68.04 515.96 L68.04 510.97 C68.04 510.74 67.86 510.55 67.63 510.55 ZM9.07 505.15 C8.98 505.02 8.82 504.96 8.67 504.99 C8.46 505.04 8.34 505.25 8.39 505.45 L8.39 510.14 C8.39 510.37 8.21 510.55 7.98 510.55 L0.42 510.55 C0.19 510.55 0 510.74 0 510.97 L0 515.96 C0 516.19 0.19 516.38 0.42 516.38 L7.98 516.38 C8.21 516.38 8.39 516.56 8.39 516.79 L8.39 521.48 C8.35 521.63 8.41 521.8 8.55 521.88 C8.72 522 8.96 521.95 9.07 521.78 L17.05 513.77 C17.2 513.59 17.2 513.34 17.05 513.16 L9.07 505.15 Z" class="st12"/></g></g><g id="shape1091-122" transform="translate(290.08,-377.144)"><title>Sheet.1091</title><ellipse cx="12.938" cy="509.063" class="st13" rx="12.938" ry="12.938"/><text x="9.9" y="512.66" class="st9">8</text></g><g id="shape1092-125" transform="translate(290.08,-338.625)"><title>Sheet.1092</title><ellipse cx="12.938" cy="509.063" class="st14" rx="12.938" ry="12.938"/><text x="9.9" y="512.66" class="st9">9</text></g><g id="shape1093-128" transform="translate(290.08,-414.563)"><title>Sheet.1093</title><ellipse cx="12.938" cy="509.063" class="st13" rx="12.938" ry="12.938"/><text x="9.9" y="512.66" class="st9">7</text></g><g id="shape1094-131" transform="translate(429.75,-377.706)"><title>Sheet.1094</title><ellipse cx="12.938" cy="509.063" class="st13" rx="12.938" ry="12.938"/><text x="6.86" y="512.66" class="st9">15</text></g><g id="shape1095-134" transform="translate(429.75,-339.188)"><title>Sheet.1095</title><ellipse cx="12.938" cy="509.063" class="st14" rx="12.938" ry="12.938"/><text x="6.86" y="512.66" class="st9">16</text></g><g id="shape1096-137" transform="translate(429.75,-415.125)"><title>Sheet.1096</title><ellipse cx="12.938" cy="509.063" class="st13" rx="12.938" ry="12.938"/><text x="6.86" y="512.66" class="st9">14</text></g><g id="shape1100-140" transform="translate(150.75,-377.706)"><title>Sheet.1100</title><ellipse cx="12.938" cy="509.063" class="st13" rx="12.938" ry="12.938"/><text x="9.9" y="512.66" class="st9">2</text></g><g id="shape1101-143" transform="translate(150.75,-339.188)"><title>Sheet.1101</title><ellipse cx="12.938" cy="509.063" class="st14" rx="12.938" ry="12.938"/><text x="9.9" y="512.66" class="st9">3</text></g><g id="shape1102-146" transform="translate(150.75,-415.125)"><title>Sheet.1102</title><ellipse cx="12.938" cy="509.063" class="st13" rx="12.938" ry="12.938"/><text x="9.9" y="512.66" class="st9">1</text></g><g id="shape1175-149" transform="translate(22.8577,-123.75)"><title>Round Corner Rectangle.1175</title><desc>Site B</desc><path d="M13.95 522 L125.55 522 A13.9498 13.9498 -180 0 0 139.5 508.05 L139.5 418.95 A13.9498 13.9498 -180 0 0 125.55 405 L13.95 405 A13.9498 13.9498 -180 0 0 0 418.95 L0 508.05 A13.9498 13.9498 -180 0 0 13.95 522 Z" class="st6"/><text x="56.1" y="466.8" class="st7">Site B</text></g><g id="shape1114-152" transform="translate(149.267,-168.456)"><title>Sheet.1114</title><ellipse cx="12.938" cy="509.063" class="st13" rx="12.938" ry="12.938"/><text x="9.9" y="512.66" class="st9">5</text></g><g id="shape1115-155" transform="translate(149.267,-129.938)"><title>Sheet.1115</title><ellipse cx="12.938" cy="509.063" class="st14" rx="12.938" ry="12.938"/><text x="9.9" y="512.66" class="st9">6</text></g><g id="shape1116-158" transform="translate(149.267,-205.875)"><title>Sheet.1116</title><ellipse cx="12.938" cy="509.063" class="st13" rx="12.938" ry="12.938"/><text x="9.9" y="512.66" class="st9">4</text></g><g id="shape1123-161" transform="translate(569.25,-280.112)"><title>Sheet.1123</title><ellipse cx="12.938" cy="509.063" class="st13" rx="12.938" ry="12.938"/><text x="6.86" y="512.66" class="st9">21</text></g><g id="shape1124-164" transform="translate(569.25,-241.594)"><title>Sheet.1124</title><ellipse cx="12.938" cy="509.063" class="st14" rx="12.938" ry="12.938"/><text x="6.86" y="512.66" class="st9">22</text></g><g id="shape1125-167" transform="translate(569.25,-317.531)"><title>Sheet.1125</title><ellipse cx="12.938" cy="509.063" class="st13" rx="12.938" ry="12.938"/><text x="6.86" y="512.66" class="st9">20</text></g><g id="shape1132-170" transform="translate(453.288,-420.646)"><title>Dynamic connector.1132</title><path d="M0 522 L109.35 598.5" class="st15"/></g><g id="shape1133-176" transform="translate(571.587,-300.466)"><title>Dynamic connector.1133</title><path d="M0 522 L-109.35 445.5" class="st15"/></g><g id="shape1134-181" transform="translate(453.288,-344.709)"><title>Dynamic connector.1134</title><path d="M7.47 527.23 L7.77 527.43 L110.53 599.33" class="st17"/></g><g id="shape1135-190" transform="translate(456.992,-227.052)"><title>Dynamic connector.1135</title><path d="M0 522 L106.8 433.78" class="st15"/></g><g id="shape1137-195" transform="translate(572.213,-284.81)"><title>Dynamic connector.1137</title><path d="M0 522 L-106.8 610.22" class="st15"/></g><g id="shape1138-200" transform="translate(456.992,-151.114)"><title>Dynamic connector.1138</title><path d="M7.03 516.19 L7.31 515.96 L107.91 432.86" class="st17"/></g><g id="group1148-207" transform="translate(7.875,-45)"><title>Sheet.1148</title><desc>Signaling IP address / FQDN and signaling traffic</desc><g id="shape1146-208"><title>Sheet.1146</title><ellipse cx="12.938" cy="509.063" class="st13" rx="12.938" ry="12.938"/></g><g id="shape1147-210" transform="translate(25.875,-3.9375)"><title>Dynamic connector.1147</title><path d="M0 513 L16.08 513" class="st15"/></g><g id="shape1148-215"><text x="61.27" y="512.66" class="st9">Signaling IP address / FQDN and signaling traffic</text></g></g><g id="group1151-217" transform="translate(326.25,-45)"><title>Sheet.1151</title><desc>Media IP address and media traffic</desc><g id="shape1153-218"><title>Sheet.1153</title><ellipse cx="12.938" cy="509.063" class="st14" rx="12.938" ry="12.938"/></g><g id="shape1154-220" transform="translate(25.875,-3.9375)"><title>Dynamic connector.1147</title><path d="M0 513 L27 513" class="st19"/></g><g id="shape1151-223"><text x="65.98" y="512.66" class="st9">Media<tspan class="st5"> </tspan><tspan class="st5">IP </tspan>address<tspan class="st5"> </tspan><tspan class="st5">and </tspan>media <tspan class="st5">traffic</tspan></text></g></g><g id="group1164-230" transform="translate(352.125,-48.9375)"><title>Sheet.1164</title><g id="shape1156-231"><title>Dynamic connector.1156</title><path d="M0 513 L16.39 513" class="st20"/></g></g><g id="shape1166-236" transform="translate(170.983,-417.378)"><title>Dynamic connector.1166</title><path d="M0 522 L122.13 700.86" class="st21"/></g><g id="shape1167-241" transform="translate(169.441,-229.537)"><title>Dynamic connector.1167</title><path d="M0 522 L120.23 343.81" class="st21"/></g><g id="shape1168-246" transform="translate(295.781,-379.357)"><title>Dynamic connector.1168</title><path d="M0 522 L-120.23 700.19" class="st21"/></g><g id="shape1169-251" transform="translate(299.267,-192.078)"><title>Dynamic connector.1169</title><path d="M0 522 L-122.13 343.14" class="st21"/></g><g id="shape1170-256" transform="translate(170.983,-341.441)"><title>Dynamic connector.1170</title><path d="M5.14 529.53 L5.35 529.83 L122.94 702.05" class="st22"/></g><g id="shape1171-263" transform="translate(169.441,-153.599)"><title>Dynamic connector.1171</title><path d="M5.1 514.44 L5.3 514.14 L121.04 342.62" class="st22"/></g><g id="shape1129-270" transform="translate(176.622,-418.781)"><title>Dynamic connector</title><path d="M0 513 L102.54 513" class="st15"/></g><g id="shape1130-275" transform="translate(290.083,-381.362)"><title>Dynamic connector.1130</title><path d="M0 513 L-102.54 513" class="st15"/></g><g id="shape1131-280" transform="translate(176.622,-342.844)"><title>Dynamic connector.1131</title><path d="M9.12 513 L9.48 513 L103.98 513" class="st17"/></g><g id="shape1139-287" transform="translate(175.142,-209.813)"><title>Dynamic connector.1139</title><path d="M0 513 L107.56 513" class="st15"/></g><g id="shape1141-292" transform="translate(293.625,-172.394)"><title>Dynamic connector.1141</title><path d="M0 513 L-107.56 513" class="st15"/></g><g id="shape1142-297" transform="translate(175.142,-133.875)"><title>Dynamic connector.1142</title><path d="M9.12 513 L9.48 513 L109 513" class="st17"/></g><g id="shape1179-304" transform="translate(359.438,-280.125)"><title>Sheet.1179</title><ellipse cx="12.938" cy="509.063" class="st23" rx="12.938" ry="12.938"/><text x="6.86" y="512.66" class="st9">13</text></g><g id="shape1181-307" transform="translate(583.312,-45)"><title>Sheet.1181</title><desc>Other IP address / FQDN</desc><ellipse cx="12.938" cy="509.063" class="st23" rx="12.938" ry="12.938"/><text x="33" y="512.66" class="st9">Other IP address / FQDN</text></g><g id="shape1188-310" transform="translate(-254,-255)"><title>Sheet.1188</title><rect width="152" height="20" x="0" y="502" class="st24"/></g></g></svg>