<svg xmlns="http://www.w3.org/2000/svg" xmlns:xlink="http://www.w3.org/1999/xlink" width="681" height="305" contentStyleType="text/css" preserveAspectRatio="none" version="1.1" viewBox="0 0 681 305" zoomAndPan="magnify" style="width:681px;height:305px;background:#fff"><g><line x1="67" x2="67" y1="37.609" y2="269.125" style="stroke:#181818;stroke-width:.5;stroke-dasharray:5,5"/><line x1="333.5" x2="333.5" y1="37.609" y2="269.125" style="stroke:#181818;stroke-width:.5;stroke-dasharray:5,5"/><line x1="570" x2="570" y1="37.609" y2="269.125" style="stroke:#181818;stroke-width:.5;stroke-dasharray:5,5"/><rect width="124" height="31.609" x="5" y="5" fill="#C2F0FF" rx="2.5" ry="2.5" style="stroke:#181818;stroke-width:.5"/><text x="12" y="26.533" fill="#000" font-family="sans-serif" font-size="14" lengthAdjust="spacing" textLength="110">Operator network</text><rect width="124" height="31.609" x="5" y="268.125" fill="#C2F0FF" rx="2.5" ry="2.5" style="stroke:#181818;stroke-width:.5"/><text x="12" y="289.658" fill="#000" font-family="sans-serif" font-size="14" lengthAdjust="spacing" textLength="110">Operator network</text><rect width="217" height="31.609" x="225.5" y="5" fill="#C2F0FF" rx="2.5" ry="2.5" style="stroke:#181818;stroke-width:.5"/><text x="232.5" y="26.533" fill="#000" font-family="sans-serif" font-size="14" lengthAdjust="spacing" textLength="203">Azure Communications Gateway</text><rect width="217" height="31.609" x="225.5" y="268.125" fill="#C2F0FF" rx="2.5" ry="2.5" style="stroke:#181818;stroke-width:.5"/><text x="232.5" y="289.658" fill="#000" font-family="sans-serif" font-size="14" lengthAdjust="spacing" textLength="203">Azure Communications Gateway</text><rect width="210" height="31.609" x="465" y="5" fill="#C2F0FF" rx="2.5" ry="2.5" style="stroke:#181818;stroke-width:.5"/><text x="472" y="26.533" fill="#000" font-family="sans-serif" font-size="14" lengthAdjust="spacing" textLength="196">Operator Connect environment</text><rect width="210" height="31.609" x="465" y="268.125" fill="#C2F0FF" rx="2.5" ry="2.5" style="stroke:#181818;stroke-width:.5"/><text x="472" y="289.658" fill="#000" font-family="sans-serif" font-size="14" lengthAdjust="spacing" textLength="196">Operator Connect environment</text><polygon style="stroke:#181818;stroke-width:1" fill="#181818" points="345 98.664 335 102.664 345 106.664 341 102.664"/><line x1="339" x2="569" y1="102.664" y2="102.664" style="stroke:#181818;stroke-width:1"/><text x="351" y="65.105" fill="#000" font-family="sans-serif" font-size="13" font-weight="bold" lengthAdjust="spacing" textLength="42">INVITE</text><text x="351" y="81.456" fill="#000" font-family="sans-serif" font-size="13" lengthAdjust="spacing" textLength="149">(From number provisioned</text><text x="351" y="97.808" fill="#000" font-family="sans-serif" font-size="13" lengthAdjust="spacing" textLength="212">on Azure Communications Gateway)</text><path style="stroke:#181818;stroke-width:.5" fill="#FEFFDD" d="M178,115.6641 L178,206.6641 L489,206.6641 L489,125.6641 L479,115.6641 L178,115.6641"/><path style="stroke:#181818;stroke-width:.5" fill="#FEFFDD" d="M479,115.6641 L479,125.6641 L489,125.6641 L479,115.6641"/><text x="184" y="134.159" fill="#000" font-family="sans-serif" font-size="13" lengthAdjust="spacing" textLength="235">Lookup in internal database to determine</text><text x="184" y="150.511" fill="#000" font-family="sans-serif" font-size="13" lengthAdjust="spacing" textLength="245">if the calling number configuration includes</text><text x="184" y="166.862" fill="#000" font-family="sans-serif" font-size="13" lengthAdjust="spacing" textLength="90">custom header.</text><text x="184" y="199.565" fill="#000" font-family="sans-serif" font-size="13" lengthAdjust="spacing" textLength="290">Contents added in X-MS-Operator-Content header.</text><polygon style="stroke:#181818;stroke-width:1" fill="#181818" points="78 247.125 68 251.125 78 255.125 74 251.125"/><line x1="72" x2="333" y1="251.125" y2="251.125" style="stroke:#181818;stroke-width:1"/><text x="84" y="229.917" fill="#000" font-family="sans-serif" font-size="13" font-weight="bold" lengthAdjust="spacing" textLength="42">INVITE</text><text x="84" y="246.269" fill="#000" font-family="sans-serif" font-size="13" lengthAdjust="spacing" textLength="138">X-MS-Operator-Content:</text><text x="222" y="246.269" fill="#000" font-family="sans-serif" font-size="13" font-style="italic" lengthAdjust="spacing" textLength="105">[Operator content]</text></g></svg>