<svg xmlns="http://www.w3.org/2000/svg" xmlns:ev="http://www.w3.org/2001/xml-events" xmlns:xlink="http://www.w3.org/1999/xlink" width="972" height="540" class="st22" color-interpolation-filters="sRGB" viewBox="0 0 729 405" xml:space="preserve"><style type="text/css">.st1,.st2{fill:#fff;stroke:none;stroke-linecap:round;stroke-linejoin:round;stroke-width:.75}.st2{fill:#f2f2f2;stroke:#000}.st3{fill:#000;font-family:Segoe UI;font-size:.916672em}.st4{font-size:1em}.st5{fill:#fff;stroke:#000;stroke-linecap:round;stroke-linejoin:round;stroke-width:.75}.st6{fill:#000;font-family:Segoe UI;font-size:.916672em;font-stretch:semi-expanded}.st7{fill:#606771;stroke:#606771;stroke-linecap:round;stroke-linejoin:round;stroke-width:.25}.st8,.st9{fill:#000;font-family:Calibri;font-size:1.00001em}.st9{font-stretch:semi-expanded}.st10,.st11{stroke:#c05046}.st10{marker-end:url(#mrkr4-110);marker-start:url(#mrkr4-108);stroke-linecap:round;stroke-linejoin:round;stroke-width:1.5}.st11{fill:#c05046;fill-opacity:1;stroke-opacity:1;stroke-width:.37313432835821}.st12{fill:#d7e3bf;stroke:#000;stroke-linecap:round;stroke-linejoin:round;stroke-width:.24}.st13{fill:#000}.st14{stroke:#000;stroke-linecap:round;stroke-linejoin:round;stroke-width:.75}.st15,.st16{stroke:#002060}.st15{marker-end:url(#mrkr4-148);marker-start:url(#mrkr4-146);stroke-dasharray:0,4.5;stroke-linecap:round;stroke-linejoin:round;stroke-width:1.5}.st16{fill:#002060;fill-opacity:1;stroke-opacity:1;stroke-width:.45454545454545}.st17{stroke:#c05046;stroke-dasharray:1.5,3;stroke-linecap:round;stroke-linejoin:round;stroke-width:1.5}.st18{fill:url(#grad0-229)}.st18,.st19,.st20{stroke:none;stroke-linecap:butt;stroke-width:.75}.st19{fill:#0078d4}.st20{fill:#86d633}.st21{fill:#c3e5ff;stroke:#000;stroke-linecap:round;stroke-linejoin:round;stroke-width:.24}.st22{fill:none;fill-rule:evenodd;font-size:12px;overflow:visible;stroke-linecap:square;stroke-miterlimit:3}</style><defs id="Patterns_And_Gradients"><linearGradient id="grad0-21" x1="0" x2="1" y1="0" y2="0" gradientTransform="rotate(90 0.5 0.5)"><stop offset=".01" stop-color="#fff" stop-opacity="1"/><stop offset=".5" stop-color="#fefefe" stop-opacity="1"/><stop offset="1" stop-color="#fff" stop-opacity="1"/></linearGradient><linearGradient id="grad0-69" x1="0" x2="1" y1="0" y2="0" gradientTransform="rotate(270 0.5 0.5)"><stop offset="0" stop-color="#fefefe" stop-opacity="1"/><stop offset="1" stop-color="#fff" stop-opacity="1"/></linearGradient><linearGradient id="grad0-229" x1="0" x2="1" y1="0" y2="0" gradientTransform="rotate(90 0.5 0.5)"><stop offset="0" stop-color="#50e6ff" stop-opacity="1"/><stop offset=".5" stop-color="#32bedd" stop-opacity="1"/></linearGradient></defs><defs id="Markers"><g id="lend4"><path d="M 2 1 L 0 0 L 2 -1 L 2 1" style="stroke:none"/></g><marker id="mrkr4-108" class="st11" markerUnits="strokeWidth" orient="auto" overflow="visible" refX="5.12"><use transform="scale(2.68)" xlink:href="#lend4"/></marker><marker id="mrkr4-110" class="st11" markerUnits="strokeWidth" orient="auto" overflow="visible" refX="-5.36"><use transform="scale(-2.68,-2.68)" xlink:href="#lend4"/></marker><marker id="mrkr4-146" class="st16" markerUnits="strokeWidth" orient="auto" overflow="visible" refX="4.16"><use transform="scale(2.2)" xlink:href="#lend4"/></marker><marker id="mrkr4-148" class="st16" markerUnits="strokeWidth" orient="auto" overflow="visible" refX="-4.4"><use transform="scale(-2.2,-2.2)" xlink:href="#lend4"/></marker></defs><g><title>VBackground-1</title><g id="shape1000-1"><title>Solid.1000</title><rect width="729" height="405" x="0" y="0" class="st1"/></g></g><g><title>Call Flow</title><g id="shape278-3" transform="translate(340.285,-48.9465) scale(-1,1)"><title>Sheet.278</title><desc>MAPS / ExpressRoute</desc><rect width="79.285" height="34.56" x="0" y="370.44" class="st2"/><text x="-59.29" y="384.46" class="st3" transform="scale(-1,1)">MAPS / <tspan x="-72" class="st4" dy="1.4em">ExpressRoute</tspan></text></g><g id="shape266-7" transform="translate(342,-274.5) scale(-1,1)"><title>Sheet.266</title><desc>MAPS / ExpressRoute</desc><rect width="82.63" height="34.56" x="0" y="370.44" class="st2"/><text x="-59.45" y="383.74" class="st3" transform="scale(-1,1)">MAPS / <tspan x="-73.68" class="st4" dy="1.4em">ExpressRoute</tspan></text></g><g id="group84-11" transform="translate(335.25,-9)"><title>Container Style 2</title><g id="group85-12"><title>Sheet.85</title><g id="shape86-13" transform="translate(2.88,2.88)"><title>Sheet.86</title></g><g id="shape85-15"><path d="M0 405 L118.12 405 L236.25 405 L236.25 18 L118.12 18 L0 18 L0 405 Z" class="st5"/></g></g><g id="group87-17" transform="translate(0,-364.5)"><title>Sheet.87</title><desc>Azure Geography</desc><g id="shape88-18"><title>Sheet.88</title></g><g id="shape87-22"><path d="M0 405 L236.25 405 L236.25 382.5 L118.12 382.5 L0 382.5 L0 405 Z" class="st5"/><text x="71.63" y="397.05" class="st6">Azure Geography</text></g></g></g><g id="group1031-25" transform="translate(612,-83.25)"><title>Classic.1031</title><g id="group1032-26"><title>Sheet.1032</title><g id="shape1033-27" transform="translate(2.88,2.88)"><title>Sheet.1033</title></g><g id="shape1032-29"><path d="M0 405 L51.75 405 L103.5 405 L103.5 137.25 L51.75 137.25 L0 137.25 L0 405 Z" class="st5"/></g></g><g id="group1034-31" transform="translate(0,-231.75)"><title>Sheet.1034</title><desc>Communications service</desc><g id="shape1035-32"><title>Sheet.1035</title></g><g id="shape1034-35"><path d="M0 405 L103.5 405 L103.5 369 L51.75 369 L0 369 L0 405 Z" class="st5"/><text x="6.8" y="383.7" class="st6">Communications <tspan x="33.59" class="st4" dy="1.2em">service</tspan></text></g></g></g><g id="group1029-39" transform="translate(685.746,-183.053) scale(-1,1)"><title>Cloud.1029</title><g id="shape1030-40"><title>Sheet.1030</title><path d="M44.09 390.42 C43.91 390.42 43.67 390.42 43.49 390.42 C43.49 390.42 43.49 390.42 43.49 390.42 C43.49 387.45 42.04 384.73 39.7 383.03 C37.29 381.34 34.22 380.92 31.46 381.88 C29.17 377.41 24.12 375.11 19.31 376.26 C14.5 377.41 11.01 381.76 11.01 386.79 C11.01 386.79 11.01 386.85 11.01 386.91 C7.7 386.36 4.39 387.75 2.35 390.42 C0.36 393.14 0 396.71 1.38 399.74 C2.83 402.76 5.83 404.76 9.14 404.94 L9.14 405 L44.03 405 C48 405 51.25 401.73 51.25 397.74 C51.25 393.74 48.06 390.42 44.09 390.42 Z" class="st7"/></g></g><g id="group256-42" transform="translate(112.294,-9)"><title>Container Style 2.256</title><g id="group257-43"><title>Sheet.257</title><g id="shape258-44" transform="translate(2.88,2.88)"><title>Sheet.258</title></g><g id="shape257-46"><path d="M0 405 L76.6 405 L153.21 405 L153.21 18 L76.6 18 L0 18 L0 405 Z" class="st5"/></g></g><g id="group259-48" transform="translate(0,-364.5)"><title>Sheet.259</title><desc>Operator network</desc><g id="shape260-49"><title>Sheet.260</title></g><g id="shape259-52"><path d="M0 405 L153.21 405 L153.21 382.5 L76.6 382.5 L0 382.5 L0 405 Z" class="st5"/><text x="29.12" y="397.05" class="st6">Operator <tspan class="st4">n</tspan>etwork</text></g></g></g><g id="group296-56" transform="translate(137.475,-158.226)"><title>Container Style 1.296</title><g id="group297-57"><title>Sheet.297</title><g id="shape298-58" transform="translate(2.88,2.88)"><title>Sheet.298</title></g><g id="shape297-60"><path d="M0 405 L45 405 L90 405 L90 338.95 L45 338.95 L0 338.95 L0 405 Z" class="st5"/></g></g><g id="group299-62" transform="translate(0,-43.5476)"><title>Sheet.299</title><desc>On-net</desc><g id="shape300-63"><title>Sheet.300</title></g><g id="shape299-66"><text x="6" y="397.05" class="st6">On-net</text></g></g></g><g id="group350-71" transform="translate(11.25,-219.702)"><title>Container Style 1.350</title><g id="group351-72"><title>Sheet.351</title><g id="shape352-73" transform="translate(2.88,2.88)"><title>Sheet.352</title></g><g id="shape351-75"><path d="M0 405 L33.85 405 L67.7 405 L67.7 290.9 L33.85 290.9 L0 290.9 L0 405 Z" class="st5"/></g></g><g id="group353-77" transform="translate(0,-91.5952)"><title>Sheet.353</title><desc>Off-net</desc><g id="shape354-78"><title>Sheet.354</title></g><g id="shape353-81"><text x="6" y="397.05" class="st6">Off-net</text></g></g></g><g id="group1069-85" transform="translate(355.5,-27)"><title>Plain.1069</title><g id="group1070-86"><title>Sheet.1070</title><g id="shape1071-87" transform="translate(2.88,2.88)"><title>Sheet.1071</title><desc>C:\code\msft_docs\azure-docs-pr\articles\media\index\communic...</desc><text x="14.33" y="229.95" class="st8">C:\code\msft_docs\azure-docs-pr\<tspan x="46" class="st4" dy="1.2em">articles\media\index\</tspan><tspan x="26.77" class="st4" dy="1.2em">communications</tspan>-gateway.svg</text></g><g id="shape1070-92"><path d="M0 405 L99 405 L198 405 L198 76.5 L99 76.5 L0 76.5 L0 405 Z" class="st5"/></g></g><g id="group1072-94" transform="translate(0,-306)"><title>Sheet.1072</title><desc>Azure Communications Gateway</desc><g id="shape1073-95"><title>Sheet.1073</title></g><g id="shape1072-98"><text x="11.65" y="397.35" class="st9">Azure Communications Gateway</text></g></g></g><g id="shape254-102" transform="translate(660.123,-211.39)"><title>Dynamic connector</title><path d="M0 397.32 L0 396.96 L0 323.49 L-150.72 323.49" class="st10"/></g><g id="shape255-111" transform="translate(660.123,-183.053)"><title>Dynamic connector.255</title><path d="M0 412.68 L0 413.04 L0 479.77 L-150.72 479.77" class="st10"/></g><g id="group281-118" transform="translate(227.475,-266.625) scale(-1,1)"><title>Sheet.281</title><g id="shape280-119" transform="translate(6.98589,-5.59276)"><title>Rounded Rectangle.280</title><path d="M8.3 405 L74.71 405 A8.30128 8.30128 -180 0 0 83.01 396.7 L83.01 362.06 A8.30128 8.30128 -180 0 0 74.71 353.75 L8.3 353.75 A8.30128 8.30128 -180 0 0 0 362.06 L0 396.7 A8.30128 8.30128 -180 0 0 8.3 405 Z" class="st12"/></g><g id="shape279-121"><title>Rounded Rectangle</title><desc>Site A SBC/AS/Switch</desc><path d="M8.3 405 L74.71 405 A8.30128 8.30128 -180 0 0 83.01 396.7 L83.01 362.06 A8.30128 8.30128 -180 0 0 74.71 353.75 L8.3 353.75 A8.30128 8.30128 -180 0 0 0 362.06 L0 396.7 A8.30128 8.30128 -180 0 0 8.3 405 Z" class="st12"/><text x="-55.56" y="376.08" class="st3" transform="scale(-1,1)">Site A<tspan x="-77.49" class="st4" dy="1.2em">SBC/AS/Switch</tspan></text></g></g><g id="group282-125" transform="translate(227.025,-40.7431) scale(-1,1)"><title>Sheet.282</title><g id="shape283-126" transform="translate(6.98589,-5.59276)"><title>Rounded Rectangle.280</title><path d="M8.3 405 L74.71 405 A8.30128 8.30128 -180 0 0 83.01 396.7 L83.01 362.06 A8.30128 8.30128 -180 0 0 74.71 353.75 L8.3 353.75 A8.30128 8.30128 -180 0 0 0 362.06 L0 396.7 A8.30128 8.30128 -180 0 0 8.3 405 Z" class="st12"/></g><g id="shape284-128"><title>Rounded Rectangle</title><desc>Site B SBC/AS/Switch</desc><path d="M8.3 405 L74.71 405 A8.30128 8.30128 -180 0 0 83.01 396.7 L83.01 362.06 A8.30128 8.30128 -180 0 0 74.71 353.75 L8.3 353.75 A8.30128 8.30128 -180 0 0 0 362.06 L0 396.7 A8.30128 8.30128 -180 0 0 8.3 405 Z" class="st12"/><text x="-55.16" y="376.08" class="st3" transform="scale(-1,1)">Site B<tspan x="-77.49" class="st4" dy="1.2em">SBC/AS/Switch</tspan></text></g></g><g id="group312-132" transform="translate(168.438,-170.811) scale(-1,1)"><title>Smart phone</title><g id="shape313-133" transform="translate(5.17858,0)"><title>Sheet.313</title><path d="M0 403.63 C0 404.11 0.39 404.56 0.87 404.62 C0.87 404.62 3.7 405 5.8 405 C7.9 405 10.74 404.62 10.74 404.62 C11.22 404.56 11.61 404.11 11.61 403.63 L11.61 384.4 C11.61 383.92 11.22 383.48 10.74 383.41 C10.74 383.41 7.96 383.04 5.8 383.04 C3.7 383.04 0.87 383.41 0.87 383.41 C0.39 383.48 0 383.92 0 384.4 L0 403.63 Z" class="st5"/></g><g id="shape314-135" transform="translate(6.05435,-2.69687)"><title>Sheet.314</title><rect width="9.854" height="16.144" x="0" y="388.856" class="st5"/></g><g id="shape315-137" transform="translate(9.1715,-1.0954)"><title>Sheet.315</title><path d="M0.78 404.61 a0.39053 0.39053 -180 1 0 -0.781059 0 a0.39053 0.39053 -180 1 0 0.781059 0 ZM2.2 404.61 a0.39053 0.39053 -180 1 0 -0.781059 0 a0.39053 0.39053 -180 1 0 0.781059 0 ZM3.62 404.61 a0.390758 0.390758 -180 1 0 -0.781517 0 a0.390758 0.390758 -180 1 0 0.781517 0 Z" class="st13"/><path d="M0.36 385.93 L3.26 385.93" class="st14"/></g></g><g id="shape322-140" transform="translate(180.165,-266.625)"><title>Dynamic connector.322</title><path d="M0.12 411.24 L0.12 411.6 L0.12 436.88 L17.88 436.88 L17.88 472.25" class="st15"/></g><g id="group324-149" transform="translate(209.025,-170.811) scale(-1,1)"><title>Smart phone.324</title><g id="shape325-150" transform="translate(5.17858,0)"><title>Sheet.325</title><path d="M0 403.63 C0 404.11 0.39 404.56 0.87 404.62 C0.87 404.62 3.7 405 5.8 405 C7.9 405 10.74 404.62 10.74 404.62 C11.22 404.56 11.61 404.11 11.61 403.63 L11.61 384.4 C11.61 383.92 11.22 383.48 10.74 383.41 C10.74 383.41 7.96 383.04 5.8 383.04 C3.7 383.04 0.87 383.41 0.87 383.41 C0.39 383.48 0 383.92 0 384.4 L0 403.63 Z" class="st5"/></g><g id="shape326-152" transform="translate(6.05435,-2.69687)"><title>Sheet.326</title><rect width="9.854" height="16.144" x="0" y="388.856" class="st5"/></g><g id="shape327-154" transform="translate(9.1715,-1.0954)"><title>Sheet.327</title><path d="M0.78 404.61 a0.39053 0.39053 -180 1 0 -0.781059 0 a0.39053 0.39053 -180 1 0 0.781059 0 ZM2.2 404.61 a0.39053 0.39053 -180 1 0 -0.781059 0 a0.39053 0.39053 -180 1 0 0.781059 0 ZM3.62 404.61 a0.390758 0.390758 -180 1 0 -0.781517 0 a0.390758 0.390758 -180 1 0 0.781517 0 Z" class="st13"/><path d="M0.36 385.93 L3.26 385.93" class="st14"/></g></g><g id="shape332-157" transform="translate(179.896,-97.581)"><title>Dynamic connector.332</title><path d="M-1.36 398.76 L-1.36 398.4 L-1.36 320.79 L-10.04 320.79" class="st15"/></g><g id="group355-164" transform="translate(44.463,-280.335) scale(-1,1)"><title>Smart phone.355</title><g id="shape356-165" transform="translate(5.17858,0)"><title>Sheet.356</title><path d="M0 403.63 C0 404.11 0.39 404.56 0.87 404.62 C0.87 404.62 3.7 405 5.8 405 C7.9 405 10.74 404.62 10.74 404.62 C11.22 404.56 11.61 404.11 11.61 403.63 L11.61 384.4 C11.61 383.92 11.22 383.48 10.74 383.41 C10.74 383.41 7.96 383.04 5.8 383.04 C3.7 383.04 0.87 383.41 0.87 383.41 C0.39 383.48 0 383.92 0 384.4 L0 403.63 Z" class="st5"/></g><g id="shape357-167" transform="translate(6.05435,-2.69687)"><title>Sheet.357</title><rect width="9.854" height="16.144" x="0" y="388.856" class="st5"/></g><g id="shape358-169" transform="translate(9.1715,-1.0954)"><title>Sheet.358</title><path d="M0.78 404.61 a0.39053 0.39053 -180 1 0 -0.781059 0 a0.39053 0.39053 -180 1 0 0.781059 0 ZM2.2 404.61 a0.39053 0.39053 -180 1 0 -0.781059 0 a0.39053 0.39053 -180 1 0 0.781059 0 ZM3.62 404.61 a0.390758 0.390758 -180 1 0 -0.781517 0 a0.390758 0.390758 -180 1 0 0.781517 0 Z" class="st13"/><path d="M0.36 385.93 L3.26 385.93" class="st14"/></g></g><g id="group359-172" transform="translate(55.713,-240.221) scale(-1,1)"><title>Smart phone.359</title><g id="shape360-173" transform="translate(5.17858,0)"><title>Sheet.360</title><path d="M0 403.63 C0 404.11 0.39 404.56 0.87 404.62 C0.87 404.62 3.7 405 5.8 405 C7.9 405 10.74 404.62 10.74 404.62 C11.22 404.56 11.61 404.11 11.61 403.63 L11.61 384.4 C11.61 383.92 11.22 383.48 10.74 383.41 C10.74 383.41 7.96 383.04 5.8 383.04 C3.7 383.04 0.87 383.41 0.87 383.41 C0.39 383.48 0 383.92 0 384.4 L0 403.63 Z" class="st5"/></g><g id="shape361-175" transform="translate(6.05435,-2.69687)"><title>Sheet.361</title><rect width="9.854" height="16.144" x="0" y="388.856" class="st5"/></g><g id="shape362-177" transform="translate(9.1715,-1.0954)"><title>Sheet.362</title><path d="M0.78 404.61 a0.39053 0.39053 -180 1 0 -0.781059 0 a0.39053 0.39053 -180 1 0 0.781059 0 ZM2.2 404.61 a0.39053 0.39053 -180 1 0 -0.781059 0 a0.39053 0.39053 -180 1 0 0.781059 0 ZM3.62 404.61 a0.390758 0.390758 -180 1 0 -0.781517 0 a0.390758 0.390758 -180 1 0 0.781517 0 Z" class="st13"/><path d="M0.36 385.93 L3.26 385.93" class="st14"/></g></g><g id="shape363-180" transform="translate(144.461,-283.248)"><title>Dynamic connector.363</title><path d="M-6.24 396 L-6.6 396 L-98.58 396" class="st15"/></g><g id="shape364-187" transform="translate(144.011,-66.3657)"><title>Dynamic connector.364</title><path d="M-6.24 405 L-6.6 405 L-99.28 405 L-99.28 237.74" class="st15"/></g><g id="shape1003-194" transform="translate(346.5,-163.44) scale(-1,1)"><title>Sheet.1003</title><desc>Cross-connect required</desc><rect width="84.88" height="34.56" x="0" y="370.44" class="st1"/><text x="-77.12" y="384.42" class="st3" transform="scale(-1,1)">Cross-connect <tspan x="-62.94" class="st4" dy="1.2em">required</tspan></text></g><g id="shape1004-198" transform="translate(256.793,-292.267)"><title>Dynamic connector.1004</title><path d="M-1.42 405 L-16.58 630.9" class="st17"/></g><g id="shape1005-201" transform="translate(240.75,-292.071)"><title>Dynamic connector.1005</title><path d="M2.25 405 L15.75 630.71" class="st17"/></g><g id="shape1046-204" transform="translate(384.501,-292.8)"><title>Dynamic connector.1046</title><path d="M0 405 L-20 631.43" class="st17"/></g><g id="shape285-207" transform="translate(411.364,-301.572)"><title>Dynamic connector.285</title><path d="M-7.68 413.7 L-8.04 413.7 L-175.85 414.3" class="st10"/></g><g id="shape1066-214" transform="translate(373.5,-57.3657)"><title>Dynamic connector.1066</title></g><g id="shape1068-215" transform="translate(383.056,-66.3657)"><title>Dynamic connector.1068</title><path d="M-0.56 405 L-17.44 178.63" class="st17"/></g><g id="shape286-218" transform="translate(411.364,-108.279)"><title>Dynamic connector.286</title><path d="M-7.68 405 L-8.04 405 L-24.36 405 L-24.36 446.91 L-176.3 446.91" class="st10"/></g><g id="group1074-225" transform="translate(416.722,-160.901)"><title>Sheet.1074</title><g id="shape1075-226" transform="translate(14.5841,-14.0071)"><title>Sheet.1075</title><path d="M32.12 381.79 L32.12 376.91 C31.92 376.11 31.84 375.29 31.88 374.46 L17.71 374.46 C17.75 375.29 17.67 376.11 17.47 376.91 L17.47 381.79 C17.67 382.59 17.76 383.41 17.71 384.24 L31.88 384.24 C31.84 383.41 31.92 382.59 32.12 381.79 ZM33.34 369.81 C33.62 370.52 33.79 371.26 33.83 372.01 L40.19 372.03 C39.71 371 39.14 370.02 38.48 369.1 L36.29 366.65 L33.34 364.7 L30.41 363.23 C30.88 363.84 31.28 364.49 31.63 365.18 L32.61 367.37 L33.34 369.82 L33.34 369.81 ZM33.34 394 L36.27 392.05 L38.47 389.61 C39.13 388.68 39.71 387.7 40.19 386.68 L33.83 386.68 C33.79 387.43 33.63 388.17 33.34 388.87 L32.61 391.31 L31.63 393.5 C31.28 394.19 30.88 394.85 30.41 395.47 C31.48 395.18 32.47 394.68 33.34 394.01 L33.34 394 ZM47.21 373.95 L49.74 371.41 C46.93 362.54 39.52 355.72 30.31 353.75 L30.31 356.95 C38.65 359.01 45.2 365.6 47.21 373.95 ZM7.71 379.35 C7.69 381.01 7.94 382.66 8.44 384.24 L15.28 384.24 C15.32 383.41 15.23 382.59 15.03 381.79 L15.03 376.91 C15.24 376.11 15.32 375.29 15.28 374.46 L8.44 374.46 C7.94 376.04 7.69 377.69 7.71 379.35 L7.71 379.35 ZM16.25 369.83 L16.98 367.39 L17.96 365.19 C18.31 364.5 18.72 363.85 19.19 363.22 C18.12 363.51 17.13 364.01 16.26 364.69 L13.33 366.65 L11.14 369.1 C10.47 370.02 9.9 371 9.42 372.03 L15.77 372.03 C15.81 371.27 15.98 370.53 16.26 369.83 L16.25 369.83 ZM13.32 392.05 L16.25 394 C17.13 394.68 18.12 395.18 19.18 395.46 C18.72 394.85 18.31 394.2 17.96 393.51 L16.98 391.32 L16.25 388.88 C15.97 388.18 15.8 387.44 15.76 386.69 L9.41 386.68 C9.89 387.7 10.46 388.68 11.13 389.61 L13.32 392.05 L13.32 392.05 ZM31.39 386.69 L18.2 386.69 C18.28 387.28 18.45 387.85 18.69 388.39 L19.42 390.59 C19.65 391.36 19.98 392.1 20.4 392.78 L21.62 394.49 L23.09 395.96 L24.8 396.45 L26.51 395.96 L27.97 394.49 L29.19 392.78 C29.61 392.1 29.94 391.36 30.17 390.59 L30.9 388.39 C31.15 387.85 31.31 387.28 31.39 386.69 L31.39 386.69 ZM2.5 385.11 L0 387.62 C2.96 396.46 10.5 403.2 19.81 405 L19.81 401.83 C11.36 399.96 4.66 393.44 2.5 385.11 ZM30.31 401.7 L30.31 404.9 C39.51 402.92 46.92 396.11 49.73 387.24 L47.2 384.7 C45.2 393.05 38.64 399.64 30.31 401.7 ZM19.81 356.82 L19.81 353.65 C10.5 355.45 2.96 362.18 0 371.02 L2.5 373.53 C4.66 365.2 11.36 358.69 19.81 356.82 ZM41.89 379.35 C41.91 377.7 41.66 376.04 41.16 374.47 L34.32 374.47 C34.28 375.29 34.36 376.11 34.56 376.91 L34.56 381.8 C34.36 382.59 34.28 383.42 34.32 384.24 L41.16 384.24 C41.66 382.66 41.91 381.01 41.89 379.36 L41.89 379.35 ZM18.7 370.31 C18.45 370.85 18.29 371.43 18.21 372.02 L31.4 372.02 C31.32 371.43 31.15 370.85 30.91 370.31 L30.18 368.11 C29.95 367.34 29.62 366.6 29.2 365.92 L27.98 364.21 L26.52 362.75 L24.81 362.26 L23.1 362.75 L21.63 364.21 L20.41 365.92 C19.99 366.6 19.66 367.34 19.43 368.11 L18.7 370.31 L18.7 370.31 Z" class="st18"/></g><g id="shape1076-230" transform="translate(29.6967,0)"><title>Sheet.1076</title><path d="M0.61 335.89 L6.07 335.89 C6.34 335.89 6.55 336.11 6.55 336.38 L6.55 345.19 C6.55 345.46 6.77 345.67 7.04 345.67 L12.85 345.67 C13.12 345.67 13.34 345.46 13.34 345.19 L13.34 336.38 C13.34 336.11 13.55 335.89 13.82 335.89 L19.28 335.89 C19.52 335.95 19.76 335.81 19.82 335.57 C19.86 335.39 19.79 335.2 19.64 335.1 L10.3 325.81 C10.1 325.63 9.8 325.63 9.59 325.81 L0.26 335.1 C0.05 335.24 0 335.51 0.14 335.71 C0.24 335.87 0.43 335.94 0.61 335.89 ZM19.28 394.73 L13.82 394.73 C13.55 394.73 13.34 394.52 13.34 394.25 L13.34 385.44 C13.34 385.17 13.12 384.95 12.85 384.95 L7.04 384.95 C6.77 384.95 6.55 385.17 6.55 385.44 L6.55 394.25 C6.55 394.52 6.34 394.73 6.07 394.73 L0.61 394.73 C0.43 394.69 0.24 394.76 0.14 394.91 C0 395.12 0.05 395.39 0.26 395.53 L9.59 404.82 C9.8 405 10.1 405 10.3 404.82 L19.64 395.53 C19.79 395.42 19.86 395.23 19.82 395.05 C19.76 394.82 19.52 394.68 19.28 394.73 Z" class="st19"/></g><g id="shape1077-232" transform="translate(0,-29.7408)"><title>Sheet.1077</title><path d="M78.8 391.66 L69.99 391.66 C69.72 391.66 69.51 391.45 69.51 391.18 L69.51 385.72 C69.56 385.48 69.42 385.24 69.19 385.18 C69 385.14 68.82 385.21 68.71 385.36 L59.42 394.7 C59.24 394.9 59.24 395.2 59.42 395.41 L68.71 404.74 C68.85 404.95 69.12 405 69.33 404.86 C69.48 404.76 69.55 404.57 69.51 404.39 L69.51 398.93 C69.51 398.66 69.72 398.45 69.99 398.45 L78.8 398.45 C79.07 398.45 79.29 398.23 79.29 397.96 L79.29 392.15 C79.29 391.88 79.07 391.66 78.8 391.66 ZM10.57 385.36 C10.47 385.21 10.28 385.14 10.1 385.18 C9.86 385.24 9.72 385.48 9.78 385.72 L9.78 391.18 C9.78 391.45 9.56 391.66 9.29 391.66 L0.48 391.66 C0.22 391.66 0 391.88 0 392.15 L0 397.96 C0 398.23 0.22 398.45 0.48 398.45 L9.29 398.45 C9.56 398.45 9.78 398.66 9.78 398.93 L9.78 404.39 C9.73 404.57 9.8 404.76 9.96 404.86 C10.16 405 10.43 404.95 10.57 404.74 L19.87 395.41 C20.05 395.2 20.05 394.9 19.87 394.7 L10.57 385.36 Z" class="st20"/></g></g><g id="shape1078-234" transform="translate(411.364,-267.275)"><title>Rounded Rectangle</title><desc>Region 1</desc><path d="M9 405 L81 405 A8.99985 8.99985 -180 0 0 90 396 L90 362.75 A8.99985 8.99985 -180 0 0 81 353.75 L9 353.75 A8.99985 8.99985 -180 0 0 0 362.75 L0 396 A8.99985 8.99985 -180 0 0 9 405 Z" class="st21"/><text x="23.46" y="382.68" class="st3">Region 1</text></g><g id="shape1079-237" transform="translate(411.364,-82.6561)"><title>Rounded Rectangle.1079</title><desc>Region 2</desc><path d="M9 405 L81 405 A8.99985 8.99985 -180 0 0 90 396 L90 362.75 A8.99985 8.99985 -180 0 0 81 353.75 L9 353.75 A8.99985 8.99985 -180 0 0 0 362.75 L0 396 A8.99985 8.99985 -180 0 0 9 405 Z" class="st21"/><text x="23.46" y="382.68" class="st3">Region 2</text></g></g></svg>