<svg xmlns="http://www.w3.org/2000/svg" xmlns:ev="http://www.w3.org/2001/xml-events" xmlns:xlink="http://www.w3.org/1999/xlink" width="1082.995" height="684" class="st33" color-interpolation-filters="sRGB" viewBox="0 0 812.25 513" xml:space="preserve"><style type="text/css">.st1,.st2{fill:#fff;stroke:none;stroke-linecap:round;stroke-linejoin:round;stroke-width:.75}.st2{stroke:#000}.st3{fill:#000;font-family:Segoe UI;font-size:.916672em;font-stretch:semi-expanded}.st4{font-size:1em}.st5,.st6{stroke:#ea700d}.st5{marker-end:url(#mrkr4-36);stroke-dasharray:3,1.5;stroke-linecap:butt;stroke-width:1.5}.st6{fill:#ea700d;fill-opacity:1;stroke-opacity:1;stroke-width:.27472527472527}.st7{fill:#606771;stroke:#606771;stroke-linecap:round;stroke-linejoin:round;stroke-width:.25}.st8{fill:#fff;stroke:#99c2eb;stroke-dasharray:.01,3.5;stroke-width:.7}.st9{fill:#fff;stroke:none;stroke-linecap:round;stroke-linejoin:round;stroke-width:.24}.st10{fill:#000;font-family:Calibri;font-size:.833336em}.st11{fill:url(#grad0-69)}.st11,.st12,.st13,.st14{stroke:none;stroke-linecap:butt;stroke-width:.75}.st15{stroke:none}.st15,.st16{stroke-width:.75}.st12{fill:url(#grad0-73)}.st13{fill:#50e6ff}.st14{fill:#1490df}.st15,.st16{fill:#e3f3ff;stroke-linecap:round;stroke-linejoin:round}.st16{fill:#d7e3bf;stroke:#50632a;stroke-dasharray:0,2.25}.st17{fill:#000;font-family:Segoe UI;font-size:.916672em}.st18{fill:#c3e5ff;stroke:#99c2eb;stroke-dasharray:2.25,2.25;stroke-linecap:round;stroke-linejoin:round;stroke-width:.75}.st19{fill:#000;font-family:Calibri;font-size:1.00001em}.st20{fill:url(#grad0-122);stroke:none;stroke-width:.75}.st20,.st21,.st22{stroke-linecap:butt}.st21,.st22,.st23,.st24,.st25{stroke:none;stroke-width:.75}.st21{fill:#0078d4}.st22{fill:#86d633}.st23{fill:#6ac0ff}.st23,.st24,.st25{stroke-linecap:round;stroke-linejoin:round}.st24{fill:#f9c499}.st25{fill:#d8d8d8}.st26{marker-end:url(#mrkr4-36);stroke:#ea700d;stroke-linecap:butt;stroke-width:1.5}.st27,.st28{stroke-linecap:round;stroke-linejoin:round}.st27{fill:none;stroke:none;stroke-width:.75}.st28{stroke:#ea700d;stroke-width:1.5}.st29{fill:url(#grad0-181);stroke:none;stroke-linecap:butt;stroke-width:.75}.st30{fill-opacity:.2}.st30,.st31,.st32{fill:#fff;stroke:none;stroke-linecap:butt;stroke-width:.75}.st32{fill:none;stroke:#000;stroke-linecap:round;stroke-linejoin:round}.st33{fill:none;fill-rule:evenodd;font-size:12px;overflow:visible;stroke-linecap:square;stroke-miterlimit:3}</style><defs id="Patterns_And_Gradients"><linearGradient id="grad0-13" x1="0" x2="1" y1="0" y2="0" gradientTransform="rotate(90 0.5 0.5)"><stop offset=".01" stop-color="#fff" stop-opacity="1"/><stop offset=".5" stop-color="#fefefe" stop-opacity="1"/><stop offset="1" stop-color="#fff" stop-opacity="1"/></linearGradient><linearGradient id="grad0-69" x1="0" x2="1" y1="0" y2="0" gradientTransform="rotate(-90.079999999999 0.5 0.5)"><stop offset="0" stop-color="#0078d4" stop-opacity="1"/><stop offset=".82" stop-color="#5ea0ef" stop-opacity="1"/></linearGradient><linearGradient id="grad0-73" x1="0" x2="1" y1="0" y2="0" gradientTransform="rotate(-89.753036962574 0.5 0.5)"><stop offset="0" stop-color="#0078d4" stop-opacity="1"/><stop offset=".82" stop-color="#5ea0ef" stop-opacity="1"/></linearGradient><linearGradient id="grad0-122" x1="0" x2="1" y1="0" y2="0" gradientTransform="rotate(90 0.5 0.5)"><stop offset="0" stop-color="#50e6ff" stop-opacity="1"/><stop offset=".5" stop-color="#32bedd" stop-opacity="1"/></linearGradient><linearGradient id="grad0-181" x1="0" x2="1" y1="0" y2="0" gradientTransform="rotate(88.546233687646 0.5 0.5)"><stop offset=".22" stop-color="#32d4f5" stop-opacity="1"/><stop offset=".47" stop-color="#31d1f3" stop-opacity="1"/><stop offset=".63" stop-color="#2ec9eb" stop-opacity="1"/><stop offset=".77" stop-color="#29bade" stop-opacity="1"/><stop offset=".89" stop-color="#22a5cb" stop-opacity="1"/><stop offset="1" stop-color="#198ab3" stop-opacity="1"/><stop offset="1" stop-color="#198ab3" stop-opacity="1"/></linearGradient></defs><defs id="Markers"><g id="lend4"><path style="stroke:none" d="M 2 1 L 0 0 L 2 -1 L 2 1"/></g><marker id="mrkr4-36" class="st6" markerUnits="strokeWidth" orient="auto" overflow="visible" refX="-7.28"><use transform="scale(-3.64,-3.64)" xlink:href="#lend4"/></marker></defs><g><title>VBackground-1</title><g id="shape1000-1"><title>Solid.1000</title><rect width="812.25" height="513" x="0" y="0" class="st1"/></g></g><g><title>IP addresses</title><g id="group256-3" transform="translate(18.375,-71.625)"><title>Container Style 2.256</title><g id="group257-4"><title>Sheet.257</title><g id="shape258-5" transform="translate(2.88,2.88)"><title>Sheet.258</title></g><g id="shape257-7"><path d="M0 513 L97.87 513 L195.75 513 L195.75 90 L97.87 90 L0 90 L0 513 Z" class="st2"/></g></g><g id="group259-9" transform="translate(0,-400.5)"><title>Sheet.259</title><desc>Operator network</desc><g id="shape260-10"><title>Sheet.260</title></g><g id="shape259-14"><path d="M0 513 L195.75 513 L195.75 490.5 L97.87 490.5 L0 490.5 L0 513 Z" class="st2"/><text x="50.39" y="505.05" class="st3">Operator <tspan class="st4">n</tspan>etwork</text></g></g></g><g id="group84-18" transform="translate(250.989,-71.625)"><title>Container Style 2</title><g id="group85-19"><title>Sheet.85</title><g id="shape86-20" transform="translate(2.88,2.88)"><title>Sheet.86</title></g><g id="shape85-22"><path d="M0 513 L159.32 513 L318.64 513 L318.64 90 L159.32 90 L0 90 L0 513 Z" class="st2"/></g></g><g id="group87-24" transform="translate(0,-400.5)"><title>Sheet.87</title><desc>Azure</desc><g id="shape88-25"><title>Sheet.88</title></g><g id="shape87-28"><path d="M0 513 L318.64 513 L318.64 490.5 L159.32 490.5 L0 490.5 L0 513 Z" class="st2"/><text x="143.99" y="505.05" class="st3">Azure</text></g></g></g><g id="shape1168-31" transform="translate(341.187,-352.875)"><title>Dynamic connector.1168</title><path d="M0 513 L-147.32 684.75" class="st5"/></g><g id="shape1169-37" transform="translate(326.557,-163.019)"><title>Dynamic connector.1169</title><path d="M0 513 L-133.05 323.28" class="st5"/></g><g id="group1031-42" transform="translate(597.375,-71.625)"><title>Classic.1031</title><g id="group1032-43"><title>Sheet.1032</title><g id="shape1033-44" transform="translate(2.88,2.88)"><title>Sheet.1033</title></g><g id="shape1032-46"><path d="M0 513 L97.87 513 L195.75 513 L195.75 90 L97.87 90 L0 90 L0 513 Z" class="st2"/></g></g><g id="group1034-48" transform="translate(0,-400.5)"><title>Sheet.1034</title><desc>Communications service</desc><g id="shape1035-49"><title>Sheet.1035</title></g><g id="shape1034-52"><path d="M0 513 L195.75 513 L195.75 490.5 L97.87 490.5 L0 490.5 L0 513 Z" class="st2"/><text x="33.11" y="505.05" class="st3">Communications service</text></g></g></g><g id="group1029-55" transform="translate(658.063,-245.652)"><title>Cloud.1029</title><g id="shape1030-56"><title>Sheet.1030</title><path d="M83.99 485.22 C83.64 485.22 83.19 485.22 82.84 485.22 C82.84 485.22 82.84 485.22 82.84 485.22 C82.84 479.57 80.09 474.38 75.62 471.15 C71.04 467.93 65.2 467.12 59.93 468.96 C55.57 460.43 45.95 456.05 36.78 458.24 C27.61 460.43 20.97 468.73 20.97 478.3 C20.97 478.3 20.97 478.42 20.97 478.53 C14.67 477.49 8.36 480.15 4.47 485.22 C0.69 490.41 0 497.21 2.64 502.97 C5.39 508.73 11.11 512.54 17.42 512.88 L17.42 513 L83.87 513 C91.44 513 97.62 506.78 97.62 499.17 C97.62 491.56 91.55 485.22 83.99 485.22 Z" class="st7"/></g></g><g id="group1189-58" transform="translate(274.875,-323.818)"><title>Virtual Network.1028.1189</title><g id="shape1190-59"><title>Rectangle</title><path d="M0 513 L132.88 513 L132.88 406.61 L0 406.61 L0 513 Z" class="st8"/></g><g id="shape1191-61" transform="translate(45,-61.1847)"><title>Rectangle.28</title><desc>Operator Virtual Network</desc><rect width="78.875" height="34.404" x="0" y="478.596" class="st9"/><text x="4" y="491.6" class="st10">Operator <tspan x="4" class="st4" dy="1.38em">Virtual Network</tspan></text></g><g id="group1192-65" transform="translate(7.2,-66.7884)"><title>Virtual Networks</title><g id="shape1193-66" transform="translate(18.5285,-11.326)"><title>Sheet.1193</title><ellipse cx="1.855" cy="509.902" class="st11" rx="1.855" ry="3.098"/></g><g id="shape1194-70" transform="translate(12.6106,-11.2993)"><title>Sheet.1194</title><ellipse cx="1.855" cy="509.902" class="st12" rx="1.855" ry="3.098"/></g><g id="shape1195-74" transform="translate(6.69276,-11.2993)"><title>Sheet.1195</title><ellipse cx="1.855" cy="509.902" class="st12" rx="1.855" ry="3.098"/></g><g id="shape1196-77" transform="translate(0.0135951,-1.13687E-13)"><title>Sheet.1196</title><path d="M9.88 510.99 L8.82 512.77 a0.479828 0.801226 0 0 1 -0.678157 0 L0.28 499.68 a0.959656 1.60245 0 0 1 -0.00159943 -2.2648 L1.34 495.64 L9.88 509.86 a0.479828 0.801226 0 0 1 3.55271E-15 1.13507 L9.88 510.99 Z" class="st13"/></g><g id="shape1197-79" transform="translate(0,-11.5743)"><title>Sheet.1197</title><path d="M8.67 496.04 L9.74 497.82 a0.479828 0.801226 0 0 1 -7.10543E-15 1.1324 L1.35 513 L0.28 511.23 a0.959656 1.60245 0 0 1 -0.00159943 -2.26747 L7.99 496.05 a0.479828 0.801226 0 0 1 0.678157 0 L8.67 496.04 Z" class="st14"/></g><g id="shape1198-81" transform="translate(18.7673,-0.0240368)"><title>Sheet.1198</title><path d="M8.68 495.64 L9.74 497.41 a0.959656 1.60245 0 0 1 8.88178E-15 2.2648 L1.88 512.77 a0.479828 0.801226 0 0 1 -0.678157 0 L0.14 510.99 a0.479828 0.801226 0 0 1 -4.27436E-15 -1.1324 L8.68 495.64 Z" class="st13"/></g><g id="shape1199-83" transform="translate(18.9088,-11.5904)"><title>Sheet.1199</title><path d="M9.6 511.23 L8.53 513 L0.14 498.95 a0.479828 0.801226 0 0 1 -1.97065E-14 -1.13507 L1.22 496.02 a0.479828 0.801226 0 0 1 0.678157 0 L9.61 508.94 a0.959656 1.60245 0 0 1 -0.00319885 2.26747 L9.6 511.23 Z" class="st14"/></g></g></g><g id="group1201-85" transform="translate(274.75,-117.75)"><title>Virtual Network.1201</title><g id="shape1202-86"><title>Rectangle</title><path d="M0 513 L132.88 513 L132.88 409.14 L0 409.14 L0 513 Z" class="st8"/></g><g id="shape1203-88" transform="translate(45,-58.6609)"><title>Rectangle.28</title><desc>Operator Virtual Network</desc><rect width="78.875" height="34.404" x="0" y="478.596" class="st9"/><text x="4" y="491.6" class="st10">Operator <tspan x="4" class="st4" dy="1.38em">Virtual Network</tspan></text></g><g id="group1204-92" transform="translate(7.2,-64.2647)"><title>Virtual Networks</title><g id="shape1205-93" transform="translate(18.5285,-11.326)"><title>Sheet.1205</title><ellipse cx="1.855" cy="509.902" class="st11" rx="1.855" ry="3.098"/></g><g id="shape1206-96" transform="translate(12.6106,-11.2993)"><title>Sheet.1206</title><ellipse cx="1.855" cy="509.902" class="st12" rx="1.855" ry="3.098"/></g><g id="shape1207-99" transform="translate(6.69276,-11.2993)"><title>Sheet.1207</title><ellipse cx="1.855" cy="509.902" class="st12" rx="1.855" ry="3.098"/></g><g id="shape1208-102" transform="translate(0.0135951,-1.13687E-13)"><title>Sheet.1208</title><path d="M9.88 510.99 L8.82 512.77 a0.479828 0.801226 0 0 1 -0.678157 0 L0.28 499.68 a0.959656 1.60245 0 0 1 -0.00159943 -2.2648 L1.34 495.64 L9.88 509.86 a0.479828 0.801226 0 0 1 3.55271E-15 1.13507 L9.88 510.99 Z" class="st13"/></g><g id="shape1209-104" transform="translate(0,-11.5743)"><title>Sheet.1209</title><path d="M8.67 496.04 L9.74 497.82 a0.479828 0.801226 0 0 1 -7.10543E-15 1.1324 L1.35 513 L0.28 511.23 a0.959656 1.60245 0 0 1 -0.00159943 -2.26747 L7.99 496.05 a0.479828 0.801226 0 0 1 0.678157 0 L8.67 496.04 Z" class="st14"/></g><g id="shape1210-106" transform="translate(18.7673,-0.0240368)"><title>Sheet.1210</title><path d="M8.68 495.64 L9.74 497.41 a0.959656 1.60245 0 0 1 8.88178E-15 2.2648 L1.88 512.77 a0.479828 0.801226 0 0 1 -0.678157 0 L0.14 510.99 a0.479828 0.801226 0 0 1 -4.27436E-15 -1.1324 L8.68 495.64 Z" class="st13"/></g><g id="shape1211-108" transform="translate(18.9088,-11.5904)"><title>Sheet.1211</title><path d="M9.6 511.23 L8.53 513 L0.14 498.95 a0.479828 0.801226 0 0 1 -1.97065E-14 -1.13507 L1.22 496.02 a0.479828 0.801226 0 0 1 0.678157 0 L9.61 508.94 a0.959656 1.60245 0 0 1 -0.00319885 2.26747 L9.6 511.23 Z" class="st14"/></g></g></g><g id="shape1232-110" transform="translate(407.625,-117.75)"><title>Sheet.1232</title><rect width="132.875" height="312.75" x="0" y="200.25" class="st15"/></g><g id="shape1174-112" transform="translate(40.4653,-314.625)"><title>Round Corner Rectangle</title><desc>Site A</desc><path d="M13.95 513 L125.55 513 A13.9498 13.9498 -180 0 0 139.5 499.05 L139.5 409.95 A13.9498 13.9498 -180 0 0 125.55 396 L13.95 396 A13.9498 13.9498 -180 0 0 0 409.95 L0 499.05 A13.9498 13.9498 -180 0 0 13.95 513 Z" class="st16"/><text x="55.7" y="457.8" class="st17">Site A</text></g><g id="shape1066-115" transform="translate(407.625,-118.51)"><title>Sheet.1066</title><desc>Service Region 2</desc><path d="M0 513 L132.87 513 L132.87 409.14 L0 409.14 L0 513 Z" class="st18"/><text x="26.48" y="464.67" class="st19">Service Region 2</text></g><g id="group1067-118" transform="translate(439.978,-224.315)"><title>Azure Communications Gateway</title><g id="shape1068-119" transform="translate(12.5163,-12.021)"><title>Sheet.1068</title><path d="M27.57 493.08 L27.57 488.89 C27.4 488.21 27.32 487.5 27.36 486.79 L15.2 486.79 C15.23 487.5 15.17 488.21 14.99 488.89 L14.99 493.08 C15.17 493.77 15.24 494.47 15.2 495.18 L27.36 495.18 C27.33 494.47 27.4 493.77 27.57 493.08 ZM28.62 482.8 C28.85 483.4 29 484.04 29.04 484.69 L34.49 484.7 C34.08 483.82 33.59 482.98 33.03 482.19 L31.15 480.09 L28.61 478.41 L26.1 477.15 C26.5 477.68 26.85 478.24 27.15 478.83 L27.99 480.71 L28.62 482.81 L28.62 482.8 ZM28.62 503.56 L31.13 501.89 L33.01 499.79 C33.58 499 34.08 498.16 34.49 497.27 L29.04 497.27 C29 497.92 28.86 498.56 28.62 499.16 L27.99 501.25 L27.15 503.13 C26.85 503.72 26.5 504.29 26.1 504.82 C27.01 504.57 27.87 504.14 28.62 503.56 L28.62 503.56 ZM40.51 486.35 L42.69 484.17 C40.27 476.56 33.92 470.71 26.02 469.02 L26.02 471.77 C33.17 473.53 38.79 479.18 40.51 486.35 ZM6.62 490.99 C6.6 492.41 6.81 493.83 7.24 495.18 L13.11 495.18 C13.14 494.47 13.07 493.77 12.9 493.08 L12.9 488.89 C13.08 488.21 13.14 487.5 13.11 486.79 L7.24 486.79 C6.81 488.15 6.6 489.56 6.62 490.98 L6.62 490.99 ZM13.95 482.82 L14.58 480.72 L15.42 478.84 C15.72 478.24 16.07 477.68 16.47 477.14 C15.55 477.39 14.7 477.82 13.95 478.4 L11.44 480.09 L9.56 482.19 C8.99 482.98 8.49 483.82 8.08 484.7 L13.53 484.7 C13.57 484.05 13.71 483.42 13.95 482.82 L13.95 482.82 ZM11.44 501.89 L13.95 503.56 C14.7 504.14 15.55 504.57 16.46 504.82 C16.07 504.29 15.72 503.73 15.41 503.14 L14.57 501.26 L13.95 499.16 C13.71 498.56 13.56 497.93 13.53 497.28 L8.07 497.27 C8.49 498.16 8.98 499 9.55 499.79 L11.43 501.89 L11.44 501.89 ZM26.94 497.28 L15.62 497.28 C15.69 497.79 15.83 498.28 16.04 498.75 L16.67 500.63 C16.86 501.29 17.14 501.93 17.51 502.51 L18.56 503.98 L19.82 505.24 L21.28 505.66 L22.75 505.24 L24 503.98 L25.05 502.51 C25.41 501.93 25.7 501.29 25.89 500.63 L26.52 498.75 C26.73 498.28 26.87 497.79 26.94 497.28 L26.94 497.28 ZM2.14 495.93 L0 498.09 C2.54 505.67 9.01 511.45 17 513 L17 510.28 C9.75 508.67 4 503.08 2.14 495.93 ZM26.01 510.16 L26.01 512.91 C33.91 511.22 40.27 505.37 42.68 497.76 L40.51 495.58 C38.79 502.75 33.16 508.4 26.01 510.16 ZM17 471.65 L17 468.93 C9.01 470.47 2.54 476.25 0 483.84 L2.14 485.99 C4 478.84 9.75 473.25 17 471.65 ZM35.95 490.99 C35.96 489.57 35.75 488.15 35.32 486.8 L29.46 486.8 C29.42 487.5 29.49 488.21 29.66 488.89 L29.66 493.09 C29.49 493.77 29.42 494.48 29.46 495.18 L35.32 495.18 C35.75 493.83 35.96 492.41 35.95 490.99 L35.95 490.99 ZM16.05 483.23 C15.84 483.69 15.7 484.19 15.63 484.69 L26.95 484.69 C26.88 484.19 26.74 483.69 26.53 483.23 L25.9 481.34 C25.71 480.68 25.42 480.05 25.06 479.46 L24.01 478 L22.76 476.74 L21.29 476.32 L19.82 476.74 L18.56 478 L17.52 479.46 C17.15 480.05 16.87 480.68 16.68 481.34 L16.05 483.23 L16.05 483.23 Z" class="st20"/></g><g id="shape1069-123" transform="translate(25.4861,0)"><title>Sheet.1069</title><path d="M0.52 453.69 L5.21 453.69 C5.44 453.69 5.62 453.88 5.62 454.11 L5.62 461.67 C5.62 461.9 5.81 462.08 6.04 462.08 L11.03 462.08 C11.26 462.08 11.45 461.9 11.45 461.67 L11.45 454.11 C11.45 453.88 11.63 453.69 11.86 453.69 L16.55 453.69 C16.75 453.74 16.96 453.62 17.01 453.42 C17.04 453.26 16.98 453.1 16.85 453.01 L8.84 445.04 C8.66 444.88 8.41 444.88 8.23 445.04 L0.22 453.01 C0.05 453.13 0 453.36 0.12 453.54 C0.2 453.67 0.37 453.73 0.52 453.69 ZM16.55 504.19 L11.86 504.19 C11.63 504.19 11.45 504 11.45 503.77 L11.45 496.21 C11.45 495.98 11.26 495.8 11.03 495.8 L6.04 495.8 C5.81 495.8 5.62 495.98 5.62 496.21 L5.62 503.77 C5.62 504 5.44 504.19 5.21 504.19 L0.52 504.19 C0.37 504.15 0.2 504.21 0.12 504.34 C0 504.52 0.05 504.75 0.22 504.87 L8.23 512.85 C8.41 513 8.66 513 8.84 512.85 L16.85 504.87 C16.98 504.78 17.04 504.62 17.01 504.46 C16.96 504.26 16.75 504.14 16.55 504.19 Z" class="st21"/></g><g id="shape1070-125" transform="translate(0,-25.5239)"><title>Sheet.1070</title><path d="M67.63 501.55 L60.07 501.55 C59.84 501.55 59.65 501.37 59.65 501.14 L59.65 496.45 C59.7 496.25 59.58 496.04 59.38 495.99 C59.22 495.96 59.06 496.02 58.97 496.15 L50.99 504.16 C50.84 504.34 50.84 504.59 50.99 504.77 L58.97 512.78 C59.09 512.95 59.32 513 59.5 512.88 C59.63 512.8 59.69 512.63 59.65 512.48 L59.65 507.79 C59.65 507.56 59.84 507.38 60.07 507.38 L67.63 507.38 C67.86 507.38 68.04 507.19 68.04 506.96 L68.04 501.97 C68.04 501.74 67.86 501.55 67.63 501.55 ZM9.07 496.15 C8.98 496.02 8.82 495.96 8.67 495.99 C8.46 496.04 8.34 496.25 8.39 496.45 L8.39 501.14 C8.39 501.37 8.21 501.55 7.98 501.55 L0.42 501.55 C0.19 501.55 0 501.74 0 501.97 L0 506.96 C0 507.19 0.19 507.38 0.42 507.38 L7.98 507.38 C8.21 507.38 8.39 507.56 8.39 507.79 L8.39 512.48 C8.35 512.63 8.41 512.8 8.55 512.88 C8.72 513 8.96 512.95 9.07 512.78 L17.05 504.77 C17.2 504.59 17.2 504.34 17.05 504.16 L9.07 496.15 Z" class="st22"/></g></g><g id="shape1077-127" transform="translate(528,-150.938)"><title>Sheet.1077</title><ellipse cx="12.938" cy="500.062" class="st23" rx="12.938" ry="12.938"/></g><g id="shape1086-129" transform="translate(407.562,-323.625)"><title>Sheet.1086</title><desc>Service Region 1</desc><path d="M0 513 L132.88 513 L132.88 406.61 L0 406.61 L0 513 Z" class="st18"/><text x="26.48" y="463.41" class="st19">Service Region 1</text></g><g id="shape1094-132" transform="translate(526.875,-358.557)"><title>Sheet.1094</title><ellipse cx="12.938" cy="500.062" class="st23" rx="12.938" ry="12.938"/></g><g id="shape1100-134" transform="translate(166.875,-359.331)"><title>Sheet.1100</title><ellipse cx="12.938" cy="500.062" class="st24" rx="12.938" ry="12.938"/></g><g id="shape1175-136" transform="translate(38.9827,-105.375)"><title>Round Corner Rectangle.1175</title><desc>Site B</desc><path d="M13.95 513 L125.55 513 A13.9498 13.9498 -180 0 0 139.5 499.05 L139.5 409.95 A13.9498 13.9498 -180 0 0 125.55 396 L13.95 396 A13.9498 13.9498 -180 0 0 0 409.95 L0 499.05 A13.9498 13.9498 -180 0 0 13.95 513 Z" class="st16"/><text x="56.1" y="457.8" class="st17">Site B</text></g><g id="shape1114-139" transform="translate(165.392,-150.081)"><title>Sheet.1114</title><ellipse cx="12.938" cy="500.062" class="st24" rx="12.938" ry="12.938"/></g><g id="shape1123-141" transform="translate(619.125,-261.737)"><title>Sheet.1123</title><ellipse cx="12.938" cy="500.062" class="st25" rx="12.938" ry="12.938"/></g><g id="shape1133-143" transform="translate(623.138,-284.041)"><title>Dynamic connector.1133</title><path d="M0 513 L-66.87 442.82" class="st26"/></g><g id="shape1137-148" transform="translate(623.845,-264.683)"><title>Dynamic connector.1137</title><path d="M0 513 L-67.75 595.38" class="st26"/></g><g id="shape1130-153" transform="translate(326.432,-363.516)"><title>Dynamic connector.1130</title><path d="M0 504 L-122.76 504" class="st26"/></g><g id="shape1141-158" transform="translate(326.557,-153.289)"><title>Dynamic connector.1141</title><path d="M0 504 L-124.7 504" class="st26"/></g><g id="shape1188-163" transform="translate(502.375,-155.625)"><title>Sheet.1188</title><rect width="152" height="20" x="0" y="493" class="st27"/></g><g id="shape1217-165" transform="translate(390.625,-296.625)"><title>Sheet.1217</title><desc>Azure Communications Gateway</desc><rect width="170" height="20" x="0" y="493" class="st27"/><text x="28.48" y="499.4" class="st19">Azure Communications<tspan x="63.47" class="st4" dy="1.2em">Gateway</tspan></text></g><g id="shape1219-169" transform="translate(394.687,-150.081)"><title>Sheet.1219</title><ellipse cx="12.938" cy="500.062" class="st24" rx="12.938" ry="12.938"/></g><g id="shape1220-171" transform="translate(359.223,-372.506) rotate(0.36638)"><title>Sheet.1220</title><path d="M0 513 L38.75 513" class="st28"/></g><g id="shape1221-174" transform="translate(394.687,862.981) rotate(180)"><title>Sheet.1221</title><path d="M0 513 L38.62 513" class="st28"/></g><g id="group1222-177" transform="translate(326.432,-352.875)"><title>Virtual Network Gateways.1222</title><g id="shape1223-178"><title>Sheet.1223</title><path d="M27.94 492.59 L25.77 492.59 L25.77 485.88 A12.6444 12.6444 -180 0 0 22.52 477.35 A10.4246 10.4246 -180 0 0 14.56 473.72 A10.4246 10.4246 -180 0 0 6.51 477.35 A12.4703 12.4703 -180 0 0 3.26 485.88 L3.26 492.59 L1.5 492.59 A1.52342 1.52342 -180 0 0 -0 494.09 L0 511.5 A1.52342 1.52342 -180 0 0 1.5 513 L27.94 513 A1.54519 1.54519 -180 0 0 29.47 511.5 L29.47 494.09 A1.54519 1.54519 -180 0 0 27.94 492.59 ZM20.61 492.59 L8.51 492.59 L8.51 485.77 A6.9207 6.9207 0 0 1 10.4 481.1 A5.46256 5.46256 0 0 1 14.49 479.22 A5.52785 5.52785 0 0 1 18.61 481.1 A6.94246 6.94246 0 0 1 19.3 482.03 A6.52896 6.52896 0 0 1 20.63 485.75 L20.61 492.59 Z" class="st29"/></g><g id="shape1224-182" transform="translate(0.565843,-0.457027)"><title>Sheet.1224</title><path d="M27.44 493.04 L0.96 493.04 A1.43637 1.43637 -180 0 0 -0 493.41 L28.4 513 A1.45813 1.45813 -180 0 0 28.95 511.87 L28.95 494.46 A1.54519 1.54519 -180 0 0 27.44 493.04 Z" class="st13"/></g><g id="shape1225-184" transform="translate(0.0435264,-0.457027)"><title>Sheet.1225</title><path d="M1.52 493.04 L27.99 493.04 A1.52342 1.52342 0 0 1 28.97 493.41 L0.54 513 A1.52342 1.52342 0 0 1 0 511.87 L0 494.46 A1.56695 1.56695 0 0 1 1.52 493.04 Z" class="st30"/></g><g id="shape1226-186" transform="translate(3.74327,-1.65332)"><title>Sheet.1226</title><path d="M8.4 498.44 L11.01 495.83 a0.152342 0.152342 0 0 1 0.195869 -1.13687E-13 L13.8 498.44 a0.130579 0.130579 0 0 1 1.20792E-13 0.217632 L12.27 498.66 a0.130579 0.130579 -180 0 0 -0.130579 0.130579 L12.14 502.14 a0.130579 0.130579 0 0 1 -0.130579 0.130579 L10.29 502.27 a0.108816 0.108816 0 0 1 -0.130579 -0.130579 L10.16 498.79 a0.152342 0.152342 -180 0 0 -0.152342 -0.130579 L8.49 498.66 a0.130579 0.130579 0 0 1 -0.0870528 -0.217632 ZM13.78 510.37 L11.19 512.96 a0.130579 0.130579 0 0 1 -0.195869 0 L8.4 510.37 a0.130579 0.130579 0 0 1 -3.55271E-15 -0.217632 L9.92 510.15 a0.152342 0.152342 -180 0 0 0.152342 -0.130579 L10.08 506.64 a0.130579 0.130579 0 0 1 0.130579 -0.130579 L11.82 506.51 a0.130579 0.130579 0 0 1 0.130579 0.130579 L11.95 510.02 a0.130579 0.130579 -180 0 0 0.130579 0.130579 L13.6 510.15 a0.139352 0.139352 0 0 1 0.174106 0.217632 ZM3.55 506.99 L3.55 505.47 a0.130579 0.130579 -180 0 0 -0.130579 -0.130579 L0.13 505.34 a0.130579 0.130579 0 0 1 -0.130579 -0.130579 L0 503.66 a0.130579 0.130579 0 0 1 0.130579 -0.195869 L3.42 503.47 a0.130579 0.130579 -180 0 0 0.130579 -0.130579 L3.55 501.81 a0.152342 0.152342 0 0 1 0.239395 -0.108816 L6.38 504.32 a0.130579 0.130579 0 0 1 -5.32907E-15 0.174106 L3.79 507.1 a0.152342 0.152342 0 0 1 -0.239395 -0.108816 ZM18.63 501.81 L18.63 503.34 a0.130579 0.130579 -180 0 0 0.130579 0.130579 L22.11 503.47 C22.11 503.47 22.26 503.47 22.26 503.6 L22.26 505.21 a0.152342 0.152342 0 0 1 -0.152342 0.130579 L18.76 505.34 a0.130579 0.130579 -180 0 0 -0.130579 0.130579 L18.63 506.99 a0.130579 0.130579 0 0 1 -0.217632 0.108816 L15.82 504.49 L15.82 504.32 L18.41 501.7 C18.41 501.7 18.63 501.68 18.63 501.81 Z" class="st31"/></g></g><g id="group1227-188" transform="translate(326.557,-143.377)"><title>Virtual Network Gateways.1227</title><g id="shape1228-189"><title>Sheet.1228</title><path d="M27.94 492.59 L25.77 492.59 L25.77 485.88 A12.6444 12.6444 -180 0 0 22.52 477.35 A10.4246 10.4246 -180 0 0 14.56 473.72 A10.4246 10.4246 -180 0 0 6.51 477.35 A12.4703 12.4703 -180 0 0 3.26 485.88 L3.26 492.59 L1.5 492.59 A1.52342 1.52342 -180 0 0 -0 494.09 L0 511.5 A1.52342 1.52342 -180 0 0 1.5 513 L27.94 513 A1.54519 1.54519 -180 0 0 29.47 511.5 L29.47 494.09 A1.54519 1.54519 -180 0 0 27.94 492.59 ZM20.61 492.59 L8.51 492.59 L8.51 485.77 A6.9207 6.9207 0 0 1 10.4 481.1 A5.46256 5.46256 0 0 1 14.49 479.22 A5.52785 5.52785 0 0 1 18.61 481.1 A6.94246 6.94246 0 0 1 19.3 482.03 A6.52896 6.52896 0 0 1 20.63 485.75 L20.61 492.59 Z" class="st29"/></g><g id="shape1229-192" transform="translate(0.565843,-0.457027)"><title>Sheet.1229</title><path d="M27.44 493.04 L0.96 493.04 A1.43637 1.43637 -180 0 0 -0 493.41 L28.4 513 A1.45813 1.45813 -180 0 0 28.95 511.87 L28.95 494.46 A1.54519 1.54519 -180 0 0 27.44 493.04 Z" class="st13"/></g><g id="shape1230-194" transform="translate(0.0435264,-0.457027)"><title>Sheet.1230</title><path d="M1.52 493.04 L27.99 493.04 A1.52342 1.52342 0 0 1 28.97 493.41 L0.54 513 A1.52342 1.52342 0 0 1 0 511.87 L0 494.46 A1.56695 1.56695 0 0 1 1.52 493.04 Z" class="st30"/></g><g id="shape1231-196" transform="translate(3.74327,-1.65332)"><title>Sheet.1231</title><path d="M8.4 498.44 L11.01 495.83 a0.152342 0.152342 0 0 1 0.195869 -1.13687E-13 L13.8 498.44 a0.130579 0.130579 0 0 1 1.20792E-13 0.217632 L12.27 498.66 a0.130579 0.130579 -180 0 0 -0.130579 0.130579 L12.14 502.14 a0.130579 0.130579 0 0 1 -0.130579 0.130579 L10.29 502.27 a0.108816 0.108816 0 0 1 -0.130579 -0.130579 L10.16 498.79 a0.152342 0.152342 -180 0 0 -0.152342 -0.130579 L8.49 498.66 a0.130579 0.130579 0 0 1 -0.0870528 -0.217632 ZM13.78 510.37 L11.19 512.96 a0.130579 0.130579 0 0 1 -0.195869 0 L8.4 510.37 a0.130579 0.130579 0 0 1 -3.55271E-15 -0.217632 L9.92 510.15 a0.152342 0.152342 -180 0 0 0.152342 -0.130579 L10.08 506.64 a0.130579 0.130579 0 0 1 0.130579 -0.130579 L11.82 506.51 a0.130579 0.130579 0 0 1 0.130579 0.130579 L11.95 510.02 a0.130579 0.130579 -180 0 0 0.130579 0.130579 L13.6 510.15 a0.139352 0.139352 0 0 1 0.174106 0.217632 ZM3.55 506.99 L3.55 505.47 a0.130579 0.130579 -180 0 0 -0.130579 -0.130579 L0.13 505.34 a0.130579 0.130579 0 0 1 -0.130579 -0.130579 L0 503.66 a0.130579 0.130579 0 0 1 0.130579 -0.195869 L3.42 503.47 a0.130579 0.130579 -180 0 0 0.130579 -0.130579 L3.55 501.81 a0.152342 0.152342 0 0 1 0.239395 -0.108816 L6.38 504.32 a0.130579 0.130579 0 0 1 -5.32907E-15 0.174106 L3.79 507.1 a0.152342 0.152342 0 0 1 -0.239395 -0.108816 ZM18.63 501.81 L18.63 503.34 a0.130579 0.130579 -180 0 0 0.130579 0.130579 L22.11 503.47 C22.11 503.47 22.26 503.47 22.26 503.6 L22.26 505.21 a0.152342 0.152342 0 0 1 -0.152342 0.130579 L18.76 505.34 a0.130579 0.130579 -180 0 0 -0.130579 0.130579 L18.63 506.99 a0.130579 0.130579 0 0 1 -0.217632 0.108816 L15.82 504.49 L15.82 504.32 L18.41 501.7 C18.41 501.7 18.63 501.68 18.63 501.81 Z" class="st31"/></g></g><g id="group1235-198" transform="translate(251.568,-18.375)"><title>Sheet.1235</title><g id="shape1233-199"><title>Sheet.1233</title><ellipse cx="12.938" cy="500.062" class="st23" rx="12.938" ry="12.938"/></g><g id="shape1234-201" transform="translate(28,-2.9375)"><title>Sheet.1234</title><desc>Microsoft controlled IP</desc><rect width="152" height="20" x="0" y="493" class="st27"/><text x="4" y="506.6" class="st19">Microsoft controlled IP</text></g></g><g id="group1236-204" transform="translate(434.25,-18.375)"><title>Sheet.1236</title><g id="shape1237-205"><title>Sheet.1237</title><ellipse cx="12.938" cy="500.062" class="st24" rx="12.938" ry="12.938"/></g><g id="shape1238-207" transform="translate(28,-2.9375)"><title>Sheet.1238</title><desc>Operator controlled IP</desc><rect width="152" height="20" x="0" y="493" class="st27"/><text x="4" y="506.6" class="st19">Operator controlled IP</text></g></g><g id="shape1239-210" transform="translate(275.062,-323.25)"><title>Sheet.1239</title><rect width="132.75" height="106.875" x="0" y="406.125" class="st32"/></g><g id="shape1218-212" transform="translate(394.687,-359.331)"><title>Sheet.1218</title><ellipse cx="12.938" cy="500.062" class="st24" rx="12.938" ry="12.938"/></g><g id="shape1240-214" transform="translate(274.5,-117.75)"><title>Sheet.1240</title><rect width="132.75" height="103.865" x="0" y="409.135" class="st32"/></g></g></svg>