<svg xmlns="http://www.w3.org/2000/svg" xmlns:ev="http://www.w3.org/2001/xml-events" xmlns:xlink="http://www.w3.org/1999/xlink" width="982.675" height="746.457" class="st38" color-interpolation-filters="sRGB" viewBox="0 0 737.008 559.843" xml:space="preserve"><style type="text/css">.st1{fill:#fff;stroke:none;stroke-width:.25}.st2{fill:#f2f2f2;stroke:#7f7f7f;stroke-width:3}.st3{fill:#000;font-family:Segoe UI;font-size:1.00001em;font-stretch:semi-expanded;font-weight:700}.st4{fill:#bfbfbf;stroke:none;stroke-linecap:round;stroke-linejoin:round;stroke-width:1.5}.st5{fill:#000;font-family:Segoe UI;font-size:.916672em}.st6{fill:#7030a0;stroke:none;stroke-linecap:round;stroke-linejoin:round;stroke-width:1.5}.st7{fill:#feffff;font-family:Segoe UI;font-size:1.00001em}.st8{fill:#7f7f7f;stroke:none;stroke-linecap:round;stroke-linejoin:round;stroke-width:1.5}.st9{fill:#feffff;font-family:Segoe UI;font-size:.916672em}.st10{fill:#737373;stroke:none;stroke-linecap:round;stroke-linejoin:round;stroke-width:1.5}.st11{fill:#fff;font-family:Segoe UI;font-size:.916672em}.st12{fill:none;stroke:none;stroke-width:1.5}.st13{font-size:1em}.st14,.st15{stroke:#000;stroke-linecap:round;stroke-linejoin:round;stroke-width:1.5}.st15{stroke-dasharray:4.5,4.5}.st16,.st17,.st18{fill:#f2f2f2;stroke:none;stroke-linecap:butt;stroke-width:7.2}.st17,.st18{fill:#5059c9;stroke-width:1.5}.st18{fill:#7b83eb}.st19{fill:#000;fill-opacity:.5}.st19,.st20,.st21,.st22{stroke:none;stroke-linecap:butt;stroke-width:1.5}.st20{fill:#000;fill-opacity:.098}.st21{fill:#4b53bc}.st22{fill:#fff}.st23{fill:#000;font-family:Segoe UI;font-size:.916672em;letter-spacing:.00909086em}.st24{stroke:#7030a0;stroke-linecap:butt;stroke-width:1.5}.st25,.st26{fill:#c3e5ff;stroke:#0078d4;stroke-width:3}.st26{fill:#243a5e;stroke:none;stroke-linecap:round;stroke-linejoin:round}.st27,.st28{stroke:#000;stroke-linecap:butt;stroke-width:1.5}.st28{fill:#c3e5ff;stroke:none;stroke-width:7.2}.st29,.st30{fill:#ababab;stroke:none;stroke-linecap:round;stroke-linejoin:round;stroke-width:1.5}.st30{fill:#243a5e}.st31{fill:url(#grad0-169)}.st31,.st32,.st33{stroke:none;stroke-linecap:butt;stroke-width:.75}.st32{fill:#0078d4}.st33{fill:#86d633}.st34{fill:none;stroke:none;stroke-width:.25}.st35{fill:#31528f;font-family:Segoe UI;font-size:.916672em;font-stretch:semi-expanded;font-weight:700}.st36,.st37{stroke-width:1.5}.st36{fill:#000;stroke:none;stroke-linecap:round;stroke-linejoin:round}.st37{stroke:#0078d4;stroke-linecap:butt}.st38{fill:none;fill-rule:evenodd;font-size:12px;overflow:visible;stroke-linecap:square;stroke-miterlimit:3}</style><defs id="Patterns_And_Gradients"><linearGradient id="grad0-13" x1="0" x2="1" y1="0" y2="0" gradientTransform="rotate(90 0.5 0.5)"><stop offset=".01" stop-color="#fbfbfb" stop-opacity="1"/><stop offset=".5" stop-color="#f5f5f5" stop-opacity="1"/><stop offset="1" stop-color="#fbfbfb" stop-opacity="1"/></linearGradient><linearGradient id="grad0-17" x1="0" x2="1" y1="0" y2="0" gradientTransform="rotate(270 0.5 0.5)"><stop offset="0" stop-color="#f5f5f5" stop-opacity="1"/><stop offset="1" stop-color="#fbfbfb" stop-opacity="1"/></linearGradient><linearGradient id="grad0-169" x1="0" x2="1" y1="0" y2="0" gradientTransform="rotate(90 0.5 0.5)"><stop offset="0" stop-color="#50e6ff" stop-opacity="1"/><stop offset=".5" stop-color="#32bedd" stop-opacity="1"/></linearGradient></defs><g><title>VBackground-1</title><g id="shape1041-1"><title>Solid.1041</title><rect width="737.008" height="559.843" x="0" y="0" class="st1"/></g></g><g><title>Page-1</title><g id="group137-3" transform="translate(20.423,-106.291)"><title>Plain</title><g id="group138-4"><title>Sheet.138</title><g id="shape139-5" transform="translate(2.83465,2.83465)"><title>Sheet.139</title></g><g id="shape138-7"><path d="M0 559.84 L111.68 559.84 L223.36 559.84 L223.36 255.73 L111.68 255.73 L0 255.73 L0 559.84 Z" class="st2"/></g></g><g id="group140-9" transform="translate(0,-278.598)"><title>Sheet.140</title><desc>Operator mobile core</desc><g id="shape141-10"><title>Sheet.141</title></g><g id="shape140-14"><text x="6" y="550.69" class="st3">Operator mobile core</text></g></g></g><g id="group142-19" transform="translate(498.898,-106.67)"><title>Plain.142</title><g id="group143-20"><title>Sheet.143</title><g id="shape144-21" transform="translate(2.83465,2.83465)"><title>Sheet.144</title></g><g id="shape143-23"><path d="M0 559.84 L111.68 559.84 L223.36 559.84 L223.36 255.73 L111.68 255.73 L0 255.73 L0 559.84 Z" class="st2"/></g></g><g id="group145-25" transform="translate(0,-278.598)"><title>Sheet.145</title><desc>Operator fixed core</desc><g id="shape146-26"><title>Sheet.146</title></g><g id="shape145-29"><text x="6" y="550.69" class="st3">Operator fixed core</text></g></g></g><g id="shape22-33" transform="translate(63.4066,-43.8496)"><title>Sheet.22</title><desc>PSTN</desc><path d="M83.63 539.97 C83.63 529.03 75.46 520.08 64.56 520.08 C60.91 511.12 51.82 504.16 41.82 504.16 C28.18 504.16 17.28 516.1 16.36 530.02 C8.19 528.03 0 534.99 0 544.93 C-0 559.84 14.55 559.84 14.55 559.84 C67.28 559.84 67.28 559.84 67.28 559.84 C67.28 559.84 83.63 557.86 83.63 539.97 Z" class="st4"/><text x="28.82" y="535.3" class="st5">PSTN</text></g><g id="shape24-36" transform="translate(279.068,-445.646)"><title>Sheet.24</title><desc>Microsoft Phone System</desc><path d="M0 509.97 L0 559.84 L184.82 559.84 L184.82 509.97 L0 509.97 L0 509.97 Z" class="st6"/><text x="28.16" y="538.51" class="st7">Microsoft Phone System</text></g><g id="shape26-39" transform="translate(28.9269,-315.461)"><title>Sheet.26</title><desc>VoLTE TAS</desc><path d="M0 503.65 L0 559.84 L66.48 559.84 L66.48 503.65 L0 503.65 L0 503.65 Z" class="st8"/><text x="7.49" y="535.04" class="st9">VoLTE TAS</text></g><g id="shape37-42" transform="translate(97.1379,-182.474)"><title>Sheet.37</title><desc>IMS core</desc><path d="M0 503.65 L0 559.84 L66.48 559.84 L66.48 503.65 L0 503.65 L0 503.65 Z" class="st10"/><text x="11.85" y="535.04" class="st11">IMS core</text></g><g id="shape56-45" transform="translate(554.162,-43.694)"><title>Sheet.56</title><desc>PSTN</desc><path d="M83.63 539.98 C83.63 529.03 75.47 520.09 64.56 520.09 C60.93 511.12 51.84 504.16 41.82 504.16 C28.2 504.16 17.28 516.1 16.38 530.02 C8.19 528.04 -0 535 0 544.93 C-0 559.84 14.55 559.84 14.55 559.84 C67.28 559.84 67.28 559.84 67.28 559.84 C67.28 559.84 83.63 557.86 83.63 539.98 Z" class="st4"/><text x="28.82" y="535.3" class="st5">PSTN</text></g><g id="shape59-48" transform="translate(559.843,-182.474)"><title>Sheet.59</title><desc>Fixed core</desc><path d="M0 503.65 L0 559.84 L66.47 559.84 L66.47 503.65 L0 503.65 L0 503.65 Z" class="st10"/><text x="8.52" y="535.04" class="st9">Fixed core</text></g><g id="shape92-51" transform="translate(97.6818,-126.502)"><title>Sheet.92</title><desc>IBCF</desc><path d="M0 525.28 L0 559.84 L56.07 559.84 L56.07 525.28 L0 525.28 L0 525.28 Z" class="st10"/><text x="17.33" y="545.86" class="st9">IBCF</text></g><g id="shape94-54" transform="translate(166.79,-126.502)"><title>Sheet.94</title><desc>P-CSCF</desc><path d="M0 525.28 L0 559.84 L56.07 559.84 L56.07 525.28 L0 525.28 L0 525.28 Z" class="st10"/><text x="10.34" y="545.86" class="st9">P-CSCF</text></g><g id="shape96-57" transform="translate(566.929,-128.238)"><title>Sheet.96</title><desc>SBC</desc><path d="M0 525.28 L0 559.84 L56.07 559.84 L56.07 525.28 L0 525.28 L0 525.28 Z" class="st10"/><text x="18.55" y="545.86" class="st9">SBC</text></g><g id="shape98-60" transform="translate(171.613,-34.5827)"><title>Sheet.98</title><desc>Mobile endpoint</desc><rect width="56.229" height="56.229" x="0" y="503.613" class="st12"/><switch><svg width="56.229" height="56.229" x="0" y="503.613" preserveAspectRatio="none" viewBox="-0.709 -0.709 600.04 600.02"><clipPath id="mfid157"><rect id="mfid158" width="600.04" height="600.02" x="-.709" y="-.709"/></clipPath><g clip-path="url(#mfid157)"><mask id="mfid159"><rect width="600" height="600" fill="#fff" stroke="none"/></mask><mask id="mfid160" fill="#fff" stroke="none"><g><g mask="url(#mfid159)"><use xlink:href="#mfid158"/></g></g></mask><mask id="mfid161" fill="#fff" fill-rule="evenodd" stroke="none"><rect width="600" height="600" x="0" y="0"/></mask><defs><path id="mfid162" d="M0,0 L914400,0 L914400,914400 L0,914400 Z"/></defs><mask id="mfid163"><use fill="#fff" fill-rule="evenodd" stroke="none" transform="matrix(0.00065617, 0, 0, 0.00065617, 0, 0)" xlink:href="#mfid162"/></mask><mask id="mfid164" fill="#fff" stroke="none"><g mask="url(#mfid160)"><g mask="url(#mfid163)"><use xlink:href="#mfid158"/></g></g></mask><defs><svg id="mfid165" width="96" height="96" viewBox="-0.709 -0.709 96.149 96.145"><clipPath id="mfid166"><rect id="mfid167" width="96.149" height="96.145" x="-.709" y="-.709"/></clipPath><g clip-path="url(#mfid166)"><mask id="mfid168"><rect width="96" height="96" fill="#fff" stroke="none"/></mask><mask id="mfid169" fill="#fff" stroke="none"><g><g mask="url(#mfid168)"><use xlink:href="#mfid167"/></g></g></mask><defs><path id="mfid170" d="M66,80 L30,80 L30,16 L66,16 L66,80 Z M44,8 L52,8 C53.1,8 54,8.9 54,10 C54,11.1 53.1,12 52,12 L44,12 C42.9,12 42,11.1 42,10 C42,8.9 42.9,8 44,8 Z M70,4 L26,4 C24.9,4 24,4.9 24,6 L24,90 C24,91.1 24.9,92 26,92 L70,92 C71.1,92 72,91.1 72,90 L72,6 C72,4.9 71.1,4 70,4 Z"/></defs><g mask="url(#mfid169)"><g><g fill="#000" transform="matrix(1, 0, 0, 1, 0, 0)"><use fill-rule="nonzero" stroke="none" xlink:href="#mfid170"/></g></g></g></g></svg></defs><g mask="url(#mfid164)"><g transform="matrix(6.1761, 0, 0, 6.1763, 4.3771, 4.3771)"><clipPath id="mfid171"><rect width="97.149" height="97.145" x="-.709" y="-.709"/></clipPath><use clip-path="url(#mfid171)" transform="matrix(1, 0, 0, 1, 0, 0)" xlink:href="#mfid165"/></g></g><mask id="mfid172"><rect width="600" height="600" fill="#fff" stroke="none"/></mask></g></svg></switch><rect width="56.229" height="56.229" x="0" y="503.613" class="st12"/><text x="11.18" y="573.74" class="st5">Mobile <tspan x="6.12" class="st13" dy="1.2em">endpoint</tspan></text></g><g id="shape111-65" transform="translate(123.869,-126.502)"><title>Dynamic connector.111</title><path d="M-3.06 559.84 L-11.11 588.14" class="st14"/></g><g id="shape112-68" transform="translate(134.755,-182.474)"><title>Dynamic connector.112</title><path d="M-6.34 559.84 L-7.83 581.25" class="st14"/></g><g id="shape114-71" transform="translate(587.092,-182.474)"><title>Dynamic connector.114</title><path d="M6.8 559.84 L7.37 579.52" class="st14"/></g><g id="shape115-74" transform="translate(588.312,-128.238)"><title>Dynamic connector.115</title><path d="M6.89 559.84 L7.28 588.71" class="st14"/></g><g id="shape116-77" transform="translate(486.695,-48.2862)"><title>Sheet.116</title><desc>PSTN endpoint</desc><rect width="45.014" height="45.014" x="0" y="514.828" class="st12"/><switch><svg width="45.014" height="45.014" x="0" y="514.828" preserveAspectRatio="none" viewBox="-0.709 -0.709 375.15 375.13"><clipPath id="mfid173"><rect id="mfid174" width="375.15" height="375.13" x="-.709" y="-.709"/></clipPath><g clip-path="url(#mfid173)"><mask id="mfid175"><rect width="375" height="375" fill="#fff" stroke="none"/></mask><mask id="mfid176" fill="#fff" stroke="none"><g><g mask="url(#mfid175)"><use xlink:href="#mfid174"/></g></g></mask><mask id="mfid177" fill="#fff" fill-rule="evenodd" stroke="none"><rect width="375" height="375" x="0" y="0"/></mask><defs><path id="mfid178" d="M0,0 L571500,0 L571500,571500 L0,571500 Z"/></defs><mask id="mfid179"><use fill="#fff" fill-rule="evenodd" stroke="none" transform="matrix(0.00065617, 0, 0, 0.00065617, 0, 0)" xlink:href="#mfid178"/></mask><mask id="mfid180" fill="#fff" stroke="none"><g mask="url(#mfid176)"><g mask="url(#mfid179)"><use xlink:href="#mfid174"/></g></g></mask><defs><svg id="mfid181" width="96" height="96" viewBox="-0.709 -0.709 96.149 96.145"><clipPath id="mfid182"><rect id="mfid183" width="96.149" height="96.145" x="-.709" y="-.709"/></clipPath><g clip-path="url(#mfid182)"><mask id="mfid184"><rect width="96" height="96" fill="#fff" stroke="none"/></mask><mask id="mfid185" fill="#fff" stroke="none"><g><g mask="url(#mfid184)"><use xlink:href="#mfid183"/></g></g></mask><defs><path id="mfid186" d="M39.2,29.2 C40,28.4 40.5,27.3 40.5,26.1 C40.5,24.9 40,23.8 39.2,23 L25.4,9.3 C24.6,8.5 23.5,8 22.4,8 C21.3,8 20.1,8.5 19.3,9.3 L17.8,10.8 L37.7,30.7 L39.2,29.2 Z"/></defs><g mask="url(#mfid185)"><g><g fill="#000" transform="matrix(1, 0, 0, 1, 0, 0)"><use fill-rule="nonzero" stroke="none" xlink:href="#mfid186"/><defs><path id="mfid187" d="M59.3,64.5 C58.9,64.9 58.3,65.1 57.8,65.1 C57.3,65.1 56.7,64.9 56.3,64.5 L31.5,39.8 C31.1,39.4 30.9,38.8 30.9,38.3 C30.9,37.8 31.1,37.2 31.5,36.8 L34.6,33.8 L14.7,13.9 C13.4,15.2 12.2,16.4 11.4,17.2 C9.4,19.1 8.2,21.6 8.1,24.3 C7.8,28.8 8.9,33.1 10.4,37.3 C12,41 14.1,44.5 16.4,47.8 C24.6,60.1 34.9,70.8 46.9,79.3 C48.9,80.8 51,82.1 53.2,83.3 C58.2,85.8 63.5,87.6 69.2,88 C73,88.3 76.8,86.8 79.4,84 L82.1,81.3 L62.3,61.4 L59.3,64.5 Z"/></defs><use fill-rule="nonzero" stroke="none" xlink:href="#mfid187"/><defs><path id="mfid188" d="M86.7,70.6 L72.9,56.8 C72.1,56 71,55.5 69.8,55.5 C68.6,55.5 67.5,56 66.7,56.8 L65.2,58.4 L85.1,78.3 L86.6,76.8 C87.4,76 87.9,74.9 87.9,73.7 C87.9,72.5 87.5,71.4 86.7,70.6 Z"/></defs><use fill-rule="nonzero" stroke="none" xlink:href="#mfid188"/></g></g></g></g></svg></defs><g mask="url(#mfid180)"><g transform="matrix(3.8601, 0, 0, 3.8602, 2.7357, 2.7357)"><clipPath id="mfid189"><rect width="97.149" height="97.145" x="-.709" y="-.709"/></clipPath><use clip-path="url(#mfid189)" transform="matrix(1, 0, 0, 1, 0, 0)" xlink:href="#mfid181"/></g></g><mask id="mfid190"><rect width="375" height="375" fill="#fff" stroke="none"/></mask></g></svg></switch><rect width="45.014" height="45.014" x="0" y="514.828" class="st12"/><text x="9.51" y="573.74" class="st5">PSTN <tspan x=".51" class="st13" dy="1.2em">endpoint</tspan></text></g><g id="shape117-82" transform="translate(560.136,-78.0806)"><title>Dynamic connector.117</title><path d="M0 566.7 L-54.76 567.16" class="st14"/></g><g id="shape118-85" transform="translate(9.54837,-49.5334)"><title>Sheet.118</title><desc>PSTN endpoint</desc><rect width="45.014" height="45.014" x="0" y="514.828" class="st12"/><switch><svg width="45.014" height="45.014" x="0" y="514.828" preserveAspectRatio="none" viewBox="-0.709 -0.709 375.15 375.13"><clipPath id="mfid191"><rect id="mfid192" width="375.15" height="375.13" x="-.709" y="-.709"/></clipPath><g clip-path="url(#mfid191)"><mask id="mfid193"><rect width="375" height="375" fill="#fff" stroke="none"/></mask><mask id="mfid194" fill="#fff" stroke="none"><g><g mask="url(#mfid193)"><use xlink:href="#mfid192"/></g></g></mask><mask id="mfid195" fill="#fff" fill-rule="evenodd" stroke="none"><rect width="375" height="375" x="0" y="0"/></mask><defs><path id="mfid196" d="M0,0 L571500,0 L571500,571500 L0,571500 Z"/></defs><mask id="mfid197"><use fill="#fff" fill-rule="evenodd" stroke="none" transform="matrix(0.00065617, 0, 0, 0.00065617, 0, 0)" xlink:href="#mfid196"/></mask><mask id="mfid198" fill="#fff" stroke="none"><g mask="url(#mfid194)"><g mask="url(#mfid197)"><use xlink:href="#mfid192"/></g></g></mask><defs><svg id="mfid199" width="96" height="96" viewBox="-0.709 -0.709 96.149 96.145"><clipPath id="mfid200"><rect id="mfid201" width="96.149" height="96.145" x="-.709" y="-.709"/></clipPath><g clip-path="url(#mfid200)"><mask id="mfid202"><rect width="96" height="96" fill="#fff" stroke="none"/></mask><mask id="mfid203" fill="#fff" stroke="none"><g><g mask="url(#mfid202)"><use xlink:href="#mfid201"/></g></g></mask><defs><path id="mfid204" d="M39.2,29.2 C40,28.4 40.5,27.3 40.5,26.1 C40.5,24.9 40,23.8 39.2,23 L25.4,9.3 C24.6,8.5 23.5,8 22.4,8 C21.3,8 20.1,8.5 19.3,9.3 L17.8,10.8 L37.7,30.7 L39.2,29.2 Z"/></defs><g mask="url(#mfid203)"><g><g fill="#000" transform="matrix(1, 0, 0, 1, 0, 0)"><use fill-rule="nonzero" stroke="none" xlink:href="#mfid204"/><defs><path id="mfid205" d="M59.3,64.5 C58.9,64.9 58.3,65.1 57.8,65.1 C57.3,65.1 56.7,64.9 56.3,64.5 L31.5,39.8 C31.1,39.4 30.9,38.8 30.9,38.3 C30.9,37.8 31.1,37.2 31.5,36.8 L34.6,33.8 L14.7,13.9 C13.4,15.2 12.2,16.4 11.4,17.2 C9.4,19.1 8.2,21.6 8.1,24.3 C7.8,28.8 8.9,33.1 10.4,37.3 C12,41 14.1,44.5 16.4,47.8 C24.6,60.1 34.9,70.8 46.9,79.3 C48.9,80.8 51,82.1 53.2,83.3 C58.2,85.8 63.5,87.6 69.2,88 C73,88.3 76.8,86.8 79.4,84 L82.1,81.3 L62.3,61.4 L59.3,64.5 Z"/></defs><use fill-rule="nonzero" stroke="none" xlink:href="#mfid205"/><defs><path id="mfid206" d="M86.7,70.6 L72.9,56.8 C72.1,56 71,55.5 69.8,55.5 C68.6,55.5 67.5,56 66.7,56.8 L65.2,58.4 L85.1,78.3 L86.6,76.8 C87.4,76 87.9,74.9 87.9,73.7 C87.9,72.5 87.5,71.4 86.7,70.6 Z"/></defs><use fill-rule="nonzero" stroke="none" xlink:href="#mfid206"/></g></g></g></g></svg></defs><g mask="url(#mfid198)"><g transform="matrix(3.8601, 0, 0, 3.8602, 2.7357, 2.7357)"><clipPath id="mfid207"><rect width="97.149" height="97.145" x="-.709" y="-.709"/></clipPath><use clip-path="url(#mfid207)" transform="matrix(1, 0, 0, 1, 0, 0)" xlink:href="#mfid199"/></g></g><mask id="mfid208"><rect width="375" height="375" fill="#fff" stroke="none"/></mask></g></svg></switch><rect width="45.014" height="45.014" x="0" y="514.828" class="st12"/><text x="9.51" y="573.74" class="st5">PSTN <tspan x=".51" class="st13" dy="1.2em">endpoint</tspan></text></g><g id="shape119-90" transform="translate(70.0289,-64.8719)"><title>Dynamic connector.119</title><path d="M0 552.86 L-41.85 552.66" class="st14"/></g><g id="shape125-93" transform="translate(189.938,-126.502)"><title>Dynamic connector.125</title><path d="M5.93 559.84 L8.24 598.06" class="st14"/></g><g id="shape127-96" transform="translate(157.489,-182.474)"><title>Dynamic connector.127</title><path d="M0 559.84 L20.66 581.25" class="st14"/></g><g id="shape128-99" transform="translate(97.1379,-201.827)"><title>Dynamic connector.128</title><desc>Diameter (Cx)</desc><path d="M0 559.84 L-34.78 559.84 L-34.78 528.41" class="st15"/><rect width="66.017" height="13.2" x="-67.784" y="534.292" class="st16"/><text x="-67.78" y="544.19" class="st5">Diameter (Cx)</text></g><g id="shape129-104" transform="translate(69.384,-289.453)"><title>Dynamic connector.129</title><path d="M-7.04 559.84 L-7.13 533.83" class="st15"/></g><g id="shape130-107" transform="translate(95.402,-343.559)"><title>Dynamic connector.130</title><desc>SIP (ISC)</desc><path d="M0 559.84 L37.83 559.84 L37.83 664.73" class="st14"/><rect width="40.166" height="13.2" x="10.208" y="608.225" class="st16"/><text x="10.21" y="618.12" class="st5">SIP (ISC)</text></g><g id="group160-112" transform="translate(352.069,-518.196)"><title>Microsoft Teams</title><desc>Microsoft Teams clients</desc><g id="group161-113"><title>Sheet.161</title><g id="shape162-114" transform="translate(23.6952,-4.3964)"><title>Sheet.162</title><path d="M9.2 543.01 L2.01 543.01 L0 544.82 L0 553.81 C0 557.14 2.43 559.84 5.42 559.84 C8.4 559.83 10.81 557.13 10.82 553.81 L10.82 544.82 C10.82 543.82 10.09 543.01 9.2 543.01 Z" class="st17"/></g><g id="shape163-116" transform="translate(27.648,-23.1638)"><title>Sheet.163</title><ellipse cx="3.456" cy="555.984" class="st17" rx="3.456" ry="3.859"/></g><g id="shape164-118" transform="translate(12.0855,-1.13687E-13)"><title>Sheet.164</title><path d="M1.55 538.62 L14 538.62 C14.86 538.62 15.55 539.39 15.55 540.35 L15.55 551.33 C15.55 556.03 12.14 559.84 7.93 559.84 L7.62 559.84 C3.41 559.84 0 556.03 0 551.33 L0 540.35 C0 539.39 0.69 538.62 1.55 538.62 Z" class="st18"/></g><g id="shape165-120" transform="translate(15.7137,-23.3443)"><title>Sheet.165</title><ellipse cx="5.022" cy="554.235" class="st18" rx="5.022" ry="5.608"/></g><g id="shape166-122" transform="translate(12.0861,-3.86925)"><title>Sheet.166</title><path d="M10.38 538.62 L10.38 539.93 C7.82 541.04 4.95 539.62 3.96 536.77 C3.95 536.74 3.94 536.72 3.93 536.69 L8.57 536.69 C9.54 536.67 10.35 537.53 10.38 538.62 ZM1.55 542.49 C0.69 542.49 0 543.26 0 544.22 L0 555.2 C0 556.85 0.43 558.46 1.25 559.84 L8.21 559.84 C9.33 559.79 10.24 558.84 10.38 557.6 L10.38 542.49 L1.55 542.49 Z" class="st19"/></g><g id="shape167-124" transform="translate(12.0861,-3.86925)"><title>Sheet.167</title><path d="M10.38 538.62 L10.38 539.93 C7.82 541.04 4.95 539.62 3.96 536.77 C3.95 536.74 3.94 536.72 3.93 536.69 L8.57 536.69 C9.54 536.67 10.35 537.53 10.38 538.62 ZM1.55 542.49 C0.69 542.49 0 543.26 0 544.22 L0 555.2 C0 556.85 0.43 558.46 1.25 559.84 L8.21 559.84 C9.33 559.79 10.24 558.84 10.38 557.6 L10.38 542.49 L1.55 542.49 Z" class="st20"/></g><g id="shape168-126" transform="translate(0,-5.79801)"><title>Sheet.168</title><path d="M1.73 536.69 L19.01 536.69 C19.96 536.69 20.74 537.55 20.74 538.62 L20.74 557.91 C20.74 558.98 19.96 559.84 19.01 559.84 L1.73 559.84 C0.77 559.84 0 558.98 0 557.91 L0 538.62 C0 537.55 0.77 536.69 1.73 536.69 Z" class="st21"/></g><g id="shape169-128" transform="translate(4.52304,-10.3812)"><title>Sheet.169</title><path d="M9.96 548.61 L6.22 548.61 L6.22 559.84 L3.76 559.84 L3.76 548.61 L0 548.61 L0 545.85 L9.96 545.85 L9.96 548.61 Z" class="st22"/></g></g><g id="shape160-130"><text x="41.8" y="542.19" class="st23">Microsoft <tspan x="41.8" class="st13" dy="1.2em">Teams clients</tspan></text></g></g><g id="shape197-133" transform="translate(362.262,-518.636)"><title>Dynamic connector.197</title><path d="M7.09 559.84 L7.09 582.96" class="st24"/></g><g id="shape211-136" transform="translate(279.068,-170.079)"><title>Sheet.211</title><rect width="184.819" height="226.772" x="0" y="333.071" class="st25"/></g><g id="shape64-138" transform="translate(340.719,-192.363)"><title>Sheet.64</title><desc>SBC</desc><path d="M0 522.39 L0 559.84 L66.48 559.84 L66.48 522.39 L0 522.39 L0 522.39 Z" class="st26"/><text x="23.76" y="544.42" class="st9">SBC</text></g><g id="shape74-141" transform="translate(340.686,-299.323)"><title>Sheet.74</title><desc>Provisioning API</desc><path d="M0 522.39 L0 559.84 L70.65 559.84 L70.65 522.39 L0 522.39 L0 522.39 Z" class="st26"/><text x="5.46" y="537.82" class="st9">Provisioning<tspan x="27.24" class="st13" dy="1.2em">API</tspan></text></g><g id="shape108-145" transform="translate(407.194,-217.917)"><title>Dynamic connector.108</title><desc>SIP / RTP</desc><path d="M0 566.75 L152.65 567.11" class="st27"/><rect width="43.748" height="13.2" x="7.467" y="571.169" class="st28"/><text x="7.47" y="581.07" class="st5">SIP / RTP</text></g><g id="shape109-150" transform="translate(340.719,-217.924)"><title>Dynamic connector.109</title><desc>SIP / RTP</desc><path d="M0 566.77 L-108.05 567.08" class="st27"/><rect width="43.748" height="13.2" x="-50.845" y="571.419" class="st28"/><text x="-50.85" y="581.32" class="st5">SIP / RTP</text></g><g id="group216-155" transform="translate(29.8875,-233.256)"><title>Sheet.216</title><g id="shape41-156"><title>Sheet.41</title><desc>HSS</desc><path d="M0 510.67 C-0 514.56 14.55 517.69 32.47 517.69 C50.41 517.69 64.95 514.56 64.95 510.67 L64.95 552.82 C64.95 556.71 50.41 559.84 32.47 559.84 C14.55 559.84 -0 556.71 0 552.82 L0 510.67 Z" class="st10"/><text x="22.73" y="538.56" class="st9">HSS</text></g><g id="shape42-159" transform="translate(0,-42.1478)"><title>Sheet.42</title><path d="M0 552.82 C-0 548.94 14.55 545.79 32.47 545.79 C50.41 545.79 64.95 548.94 64.95 552.82 C64.95 556.71 50.41 559.84 32.47 559.84 C14.55 559.84 0 556.71 0 552.82 Z" class="st29"/></g></g><g id="shape29-161" transform="translate(339.163,-247.181)"><title>Sheet.29</title><desc>MCP</desc><path d="M0 522.39 L0 559.84 L70.65 559.84 L70.65 522.39 L0 522.39 L0 522.39 Z" class="st30"/><text x="23.9" y="544.42" class="st9">MCP</text></g><g id="group1007-164" transform="translate(283.465,-345.229)"><title>Sheet.1007</title><g id="group1000-165" transform="translate(-3.45723E-13,-3.05543)"><title>Sheet.1000</title><g id="shape1001-166" transform="translate(5.91889,-5.42463)"><title>Sheet.1001</title><path d="M13.04 550.85 L13.04 548.96 C12.96 548.65 12.92 548.33 12.94 548.02 L7.19 548.02 C7.2 548.33 7.17 548.65 7.09 548.96 L7.09 550.85 C7.17 551.16 7.21 551.48 7.19 551.8 L12.94 551.8 C12.92 551.48 12.96 551.16 13.04 550.85 ZM13.53 546.22 C13.65 546.49 13.71 546.77 13.73 547.07 L16.31 547.07 C16.12 546.68 15.89 546.29 15.62 545.94 L14.73 544.99 L13.53 544.24 L12.34 543.66 C12.53 543.9 12.7 544.16 12.84 544.42 L13.24 545.27 L13.53 546.22 L13.53 546.22 ZM13.53 555.58 L14.72 554.83 L15.61 553.88 C15.88 553.52 16.12 553.14 16.31 552.75 L13.73 552.75 C13.71 553.04 13.65 553.32 13.53 553.6 L13.24 554.54 L12.84 555.39 C12.7 555.66 12.53 555.91 12.34 556.15 C12.77 556.04 13.18 555.85 13.53 555.58 L13.53 555.58 ZM19.16 547.82 L20.19 546.83 C19.05 543.4 16.04 540.76 12.3 539.99 L12.3 541.24 C15.69 542.03 18.34 544.58 19.16 547.82 ZM3.13 549.91 C3.12 550.55 3.22 551.19 3.43 551.8 L6.2 551.8 C6.22 551.48 6.18 551.16 6.1 550.85 L6.1 548.96 C6.18 548.65 6.22 548.33 6.2 548.02 L3.43 548.02 C3.22 548.63 3.12 549.27 3.13 549.91 L3.13 549.91 ZM6.6 546.22 L6.89 545.28 L7.29 544.43 C7.43 544.16 7.6 543.9 7.79 543.66 C7.35 543.78 6.95 543.97 6.6 544.23 L5.41 544.99 L4.52 545.94 C4.25 546.29 4.02 546.68 3.82 547.07 L6.4 547.07 C6.42 546.78 6.48 546.49 6.6 546.22 L6.6 546.22 ZM5.41 554.83 L6.6 555.58 C6.95 555.85 7.35 556.04 7.79 556.15 C7.6 555.91 7.43 555.66 7.29 555.39 L6.89 554.54 L6.59 553.6 C6.48 553.33 6.41 553.04 6.4 552.75 L3.82 552.75 C4.01 553.14 4.25 553.52 4.52 553.88 L5.41 554.83 L5.41 554.83 ZM12.74 552.75 L7.39 552.75 C7.42 552.98 7.49 553.2 7.59 553.41 L7.88 554.26 C7.97 554.56 8.11 554.85 8.28 555.11 L8.78 555.77 L9.37 556.34 L10.06 556.53 L10.76 556.34 L11.35 555.77 L11.85 555.11 C12.02 554.85 12.15 554.56 12.24 554.26 L12.54 553.41 C12.64 553.2 12.71 552.98 12.74 552.75 L12.74 552.75 ZM1.01 552.14 L0 553.11 C1.2 556.54 4.26 559.14 8.04 559.84 L8.04 558.61 C4.61 557.89 1.89 555.37 1.01 552.14 ZM12.3 558.56 L12.3 559.8 C16.04 559.04 19.04 556.4 20.18 552.97 L19.16 551.98 C18.34 555.22 15.68 557.77 12.3 558.56 ZM8.04 541.18 L8.04 539.95 C4.26 540.65 1.2 543.26 0 546.68 L1.01 547.66 C1.89 544.43 4.61 541.91 8.04 541.18 ZM17 549.91 C17.01 549.27 16.91 548.63 16.7 548.02 L13.93 548.02 C13.91 548.34 13.95 548.66 14.03 548.96 L14.03 550.86 C13.95 551.16 13.91 551.48 13.93 551.8 L16.7 551.8 C16.91 551.19 17.01 550.55 17 549.91 L17 549.91 ZM7.59 546.41 C7.49 546.62 7.42 546.84 7.39 547.07 L12.74 547.07 C12.71 546.84 12.64 546.62 12.54 546.41 L12.25 545.56 C12.16 545.26 12.02 544.97 11.85 544.71 L11.36 544.05 L10.76 543.48 L10.07 543.29 L9.37 543.48 L8.78 544.05 L8.28 544.71 C8.11 544.97 7.98 545.26 7.89 545.56 L7.59 546.41 L7.59 546.41 Z" class="st31"/></g><g id="shape1002-170" transform="translate(12.0523,0)"><title>Sheet.1002</title><path d="M0.25 533.08 L2.46 533.08 C2.57 533.08 2.66 533.16 2.66 533.27 L2.66 536.68 C2.66 536.78 2.75 536.87 2.86 536.87 L5.22 536.87 C5.33 536.87 5.41 536.78 5.41 536.68 L5.41 533.27 C5.41 533.16 5.5 533.08 5.61 533.08 L7.83 533.08 C7.92 533.1 8.02 533.05 8.04 532.95 C8.06 532.88 8.03 532.81 7.97 532.77 L4.18 529.17 C4.1 529.1 3.98 529.1 3.89 529.17 L0.1 532.77 C0.02 532.83 0 532.93 0.06 533.01 C0.1 533.07 0.17 533.1 0.25 533.08 ZM7.83 555.87 L5.61 555.87 C5.5 555.87 5.41 555.78 5.41 555.68 L5.41 552.27 C5.41 552.16 5.33 552.08 5.22 552.08 L2.86 552.08 C2.75 552.08 2.66 552.16 2.66 552.27 L2.66 555.68 C2.66 555.78 2.57 555.87 2.46 555.87 L0.25 555.87 C0.17 555.85 0.1 555.88 0.06 555.94 C0 556.01 0.02 556.12 0.1 556.17 L3.89 559.77 C3.98 559.84 4.1 559.84 4.18 559.77 L7.97 556.17 C8.03 556.13 8.06 556.06 8.04 555.99 C8.02 555.9 7.92 555.84 7.83 555.87 Z" class="st32"/></g><g id="shape1003-172" transform="translate(0,-11.5179)"><title>Sheet.1003</title><path d="M31.98 554.68 L28.41 554.68 C28.3 554.68 28.21 554.59 28.21 554.49 L28.21 552.37 C28.23 552.28 28.18 552.19 28.08 552.17 C28.01 552.15 27.93 552.18 27.89 552.24 L24.12 555.85 C24.04 555.93 24.04 556.05 24.12 556.13 L27.89 559.74 C27.94 559.82 28.05 559.84 28.14 559.79 C28.2 559.75 28.23 559.68 28.21 559.61 L28.21 557.49 C28.21 557.39 28.3 557.3 28.41 557.3 L31.98 557.3 C32.09 557.3 32.18 557.22 32.18 557.12 L32.18 554.86 C32.18 554.76 32.09 554.68 31.98 554.68 ZM4.29 552.24 C4.25 552.18 4.17 552.15 4.1 552.17 C4 552.19 3.95 552.28 3.97 552.37 L3.97 554.49 C3.97 554.59 3.88 554.68 3.77 554.68 L0.2 554.68 C0.09 554.68 0 554.76 0 554.86 L0 557.12 C0 557.22 0.09 557.3 0.2 557.3 L3.77 557.3 C3.88 557.3 3.97 557.39 3.97 557.49 L3.97 559.61 C3.95 559.68 3.98 559.75 4.04 559.79 C4.12 559.84 4.23 559.82 4.29 559.74 L8.06 556.13 C8.14 556.05 8.14 555.93 8.06 555.85 L4.29 552.24 Z" class="st33"/></g></g><g id="shape1004-174" transform="translate(29.4141,1.41731)"><title>Sheet.1004</title><desc>Azure Communications Gateway</desc><rect width="141.101" height="37.449" x="0" y="522.394" class="st34"/><rect width="132.025" height="27.6" x="4" y="526.394" class="st28"/><text x="4" y="536.29" class="st35">Azure Communications<tspan x="4" class="st13" dy="1.282em">Gateway</tspan></text></g></g><g id="shape1008-179" transform="translate(176.371,-266.751)"><title>Dynamic connector.1008</title><path d="M0 559.84 L-43.14 559.84 L-43.14 587.92" class="st14"/></g><g id="shape1011-182" transform="translate(176.595,-193.323)"><title>Sheet.1011</title><desc>IBCF</desc><path d="M0 525.28 L0 559.84 L56.07 559.84 L56.07 525.28 L0 525.28 L0 525.28 Z" class="st10"/><text x="17.33" y="545.86" class="st9">IBCF</text></g><g id="shape1012-185" transform="translate(177.191,-217.675)"><title>Dynamic connector.1012</title><path d="M-0.6 566.93 L-13.58 566.93" class="st14"/></g><g id="shape1013-188" transform="translate(176.371,-249.471)"><title>Sheet.1013</title><desc>ISC GW (SBC)</desc><path d="M0 525.28 L0 559.84 L56.07 559.84 L56.07 525.28 L0 525.28 L0 525.28 Z" class="st10"/><text x="9.83" y="539.26" class="st9">ISC GW<tspan x="15.24" class="st13" dy="1.2em">(SBC)</tspan></text></g><g id="shape1014-192" transform="translate(232.441,-259.665)"><title>Dynamic connector.1014</title><desc>SIP</desc><path d="M0 552.76 L106.72 552.76" class="st27"/><rect width="14.932" height="13.2" x="65.677" y="555.639" class="st28"/><text x="65.68" y="565.54" class="st5">SIP</text></g><g id="shape1015-197" transform="translate(176.371,-300.472)"><title>Sheet.1015</title><desc>BSS</desc><path d="M0 525.28 L0 559.84 L56.07 559.84 L56.07 525.28 L0 525.28 L0 525.28 Z" class="st36"/><text x="19.04" y="545.86" class="st9">BSS</text></g><g id="shape1016-200" transform="translate(232.441,-310.666)"><title>Dynamic connector.1016</title><desc>HTTPS</desc><path d="M0 552.76 L108.24 552.76" class="st27"/><rect width="31.34" height="13.2" x="58.517" y="555.639" class="st28"/><text x="58.52" y="565.54" class="st5">HTTPS</text></g><g id="shape1017-205" transform="translate(525.033,-299.928)"><title>Sheet.1017</title><desc>BSS</desc><path d="M0 525.28 L0 559.84 L56.07 559.84 L56.07 525.28 L0 525.28 L0 525.28 Z" class="st36"/><text x="19.04" y="545.86" class="st9">BSS</text></g><g id="shape1018-208" transform="translate(525.033,-310.122)"><title>Dynamic connector.1018</title><desc>HTTPS</desc><path d="M0 552.76 L-113.69 552.76" class="st27"/><rect width="31.34" height="13.2" x="-103.321" y="555.125" class="st28"/><text x="-103.32" y="565.02" class="st5">HTTPS</text></g><g id="shape1019-213" transform="translate(364.391,-445.646)"><title>Dynamic connector.1019</title><path d="M7.09 559.84 L7.09 608.64" class="st37"/></g></g></svg>