<svg xmlns="http://www.w3.org/2000/svg" xmlns:svg="http://www.w3.org/2000/svg" xmlns:xlink="http://www.w3.org/1999/xlink" id="svg46" width="11in" height="816" class="st16" color-interpolation-filters="sRGB" version="1.1" viewBox="0 0 792 612" xml:space="preserve"><style id="style1" type="text/css">.st1,.st2{fill:red;stroke:#c7c8c8;stroke-width:.25}.st2{fill:#4672c4}.st3{fill:#feffff;font-family:Calibri;font-size:1.5em;font-weight:700}.st4{fill:#ed7d31;stroke:#c7c8c8;stroke-width:.25}.st5{fill:#feffff;font-family:Calibri;font-size:1.16666em;font-weight:700}.st6{font-size:1em}.st7{font-size:.666672em}.st8{fill:#70ad47;stroke:#c7c8c8;stroke-width:.25}.st9{fill:#feffff;font-family:Calibri;font-size:1.00001em;font-weight:700}.st10{marker-end:url(#mrkr4-65);stroke:#000;stroke-linecap:round;stroke-linejoin:round;stroke-width:1.5}.st11{fill:#000;fill-opacity:1;stroke:#000;stroke-opacity:1;stroke-width:.37313432835821}.st12{fill:#000;font-family:Calibri;font-size:1.00001em}.st13{marker-end:url(#mrkr13-81);marker-start:url(#mrkr13-79);stroke:#000;stroke-linecap:round;stroke-linejoin:round;stroke-width:1.5}.st14,.st15{stroke:#4672c4}.st14{marker-end:url(#mrkr4-91);stroke-linecap:round;stroke-linejoin:round;stroke-width:1}.st15{fill:#4672c4;fill-opacity:1;stroke-opacity:1;stroke-width:.28409090909091}.st16{fill:none;fill-rule:evenodd;font-size:12px;overflow:visible;stroke-linecap:square;stroke-miterlimit:3}</style><defs id="Markers"><g id="lend4"><path style="stroke:none" id="path1" d="M 2 1 L 0 0 L 2 -1 L 2 1"/></g><marker id="mrkr4-65" class="st11" markerUnits="strokeWidth" orient="auto" overflow="visible" refX="-5.36"><use id="use1" transform="scale(-2.68,-2.68)" xlink:href="#lend4"/></marker><g id="lend13"><path style="stroke:none" id="path2" d="M 3 1 L 0 0 L 3 -1 L 3 1"/></g><marker id="mrkr13-79" class="st11" markerUnits="strokeWidth" orient="auto" overflow="visible" refX="7.8"><use id="use2" transform="scale(2.68)" xlink:href="#lend13"/></marker><marker id="mrkr13-81" class="st11" markerUnits="strokeWidth" orient="auto" overflow="visible" refX="-8.04"><use id="use3" transform="scale(-2.68,-2.68)" xlink:href="#lend13"/></marker><marker id="mrkr4-91" class="st15" markerUnits="strokeWidth" orient="auto" overflow="visible" refX="-7.04"><use id="use4" transform="scale(-3.52,-3.52)" xlink:href="#lend4"/></marker></defs><g id="g46"><title id="title4">Page-1</title><rect style="fill:#fff;fill-opacity:1;stroke-width:.75" id="rect1" width="790.424" height="611.319" x="1.072" y="1.072"/><g id="shape1008-1" transform="translate(295.875,-340.5)"><title id="title5">Rectangle.1008</title><rect id="rect5" width="36" height="36" x="0" y="576" class="st1"/></g><g id="shape1005-3" transform="translate(460.125,-216)"><title id="title6">Square.1005</title><rect id="rect6" width="36" height="36" x="0" y="576" class="st1"/></g><g id="shape1001-5" transform="translate(296.375,-216.625)"><title id="title7">Square.1001</title><rect id="rect7" width="37.125" height="37.125" x="0" y="574.875" class="st1"/></g><g id="shape2-7" transform="translate(295.875,-216)"><title id="title8">Rectangle.2</title><desc id="desc8">IoT hub</desc><rect id="rect8" width="200.25" height="160.5" x="0" y="451.5" class="st2"/><text id="text8" x="71.91" y="471.7" class="st3">IoT hub</text></g><g id="shape1017-10" transform="translate(308.187,-317.25)"><title id="title9">Rectangle.1017</title><rect id="rect9" width="37.125" height="21" x="0" y="591" class="st1"/></g><g id="shape10-12" transform="translate(308.25,-281.25)"><title id="title10">Rectangle.10</title><desc id="desc10">Digital twin</desc><rect id="rect10" width="67.5" height="57" x="0" y="555" class="st4"/><text id="text10" x="14.98" y="579.3" class="st5">Digital<tspan id="tspan10" x="20.63" class="st6" dy="1.2em">twin</tspan></text></g><g id="shape1018-16" transform="translate(313.875,-281.25)"><title id="title11">Rectangle.1018</title><rect id="rect11" width="37.125" height="21" x="0" y="591" class="st1"/></g><g id="shape1007-18" transform="translate(182.25,-379.5)"><title id="title12">Rectangle.1007</title><rect id="rect12" width="36" height="36" x="0" y="576" class="st1"/></g><g id="shape1000-20" transform="translate(181.125,-477)"><title id="title13">Square.1000</title><rect id="rect13" width="37.125" height="37.125" x="0" y="574.875" class="st1"/></g><g id="shape1016-22" transform="translate(156.375,-179.625)"><title id="title14">Square.1016</title><rect id="rect14" width="37.125" height="37.125" x="0" y="574.875" class="st1"/></g><g id="shape1-24" transform="translate(18,-379.5)"><title id="title15">Rectangle</title><desc id="desc15">Device</desc><rect id="rect15" width="200.25" height="160.5" x="0" y="451.5" class="st2"/><text id="text15" x="75.16" y="471.7" class="st3">Device</text></g><g id="shape3-27" transform="translate(573.75,-237.937)"><title id="title16">Rectangle.3</title><desc id="desc16">Solution backend</desc><rect id="rect16" width="200.25" height="133.5" x="0" y="478.5" class="st2"/><text id="text16" x="35.41" y="498.7" class="st3">Solution backend</text></g><g id="shape4-30" transform="translate(573.75,-441)"><title id="title17">Rectangle.4</title><desc id="desc17">Model repository</desc><rect id="rect17" width="200.25" height="133.5" x="0" y="478.5" class="st2"/><text id="text17" x="35.2" y="498.7" class="st3">Model repository</text></g><g id="shape5-33" transform="translate(573.75,-45)"><title id="title18">Rectangle.5</title><desc id="desc18">Cloud service Monitors digital twin change events. For exampl...</desc><rect id="rect18" width="200.25" height="85.5" x="0" y="526.5" class="st2"/><text id="text19" x="50.53" y="546.7" class="st3">Cloud service<tspan id="tspan18" x="8.98" class="st7" dy="1.35em">Monitors digital twin change events. </tspan><tspan id="tspan19" x="38.36" class="st7" dy="1.65em">For example, Event Hubs</tspan></text></g><g id="shape7-38" transform="translate(49.5,-408.375)"><title id="title19">Rectangle.7</title><desc id="desc19">Device SDK</desc><rect id="rect19" width="85.5" height="29.25" x="0" y="582.75" class="st8"/><text id="text20" x="10.2" y="601.58" class="st5">Device SDK</text></g><g id="shape8-41" transform="translate(679.5,-252)"><title id="title20">Rectangle.8</title><desc id="desc20">Service SDK</desc><rect id="rect20" width="85.5" height="36" x="0" y="576" class="st8"/><text id="text21" x="8.81" y="598.2" class="st5">Service SDK</text></g><g id="shape11-44" transform="translate(631.125,-299.01)"><title id="title21">Rectangle.11</title><desc id="desc21">Model parser</desc><rect id="rect21" width="85.5" height="46.74" x="0" y="565.26" class="st8"/><text id="text22" x="23.87" y="584.43" class="st5">Model<tspan id="tspan21" x="24.25" class="st6" dy="1.2em">parser</tspan></text></g><g id="shape12-48" transform="translate(420.75,-241.26)"><title id="title22">Rectangle.12</title><desc id="desc22">Routing rules</desc><rect id="rect22" width="67.5" height="46.74" x="0" y="565.26" class="st4"/><text id="text23" x="11.07" y="584.43" class="st5">Routing <tspan id="tspan22" x="19.47" class="st6" dy="1.2em">rules</tspan></text></g><g id="shape14-52" transform="translate(640.125,-479.25)"><title id="title23">Rectangle.14</title><desc id="desc23">DTDL models and interfaces</desc><rect id="rect23" width="67.5" height="57" x="0" y="555" class="st4"/><text id="text24" x="20.68" y="572.7" class="st9">DTDL <tspan id="tspan23" x="4.78" class="st6" dy="1.2em">models and </tspan><tspan id="tspan24" x="9.04" class="st6" dy="1.2em">interfaces</tspan></text></g><g id="shape15-57" transform="translate(336.937,-465)"><title id="title24">Rectangle.15</title><desc id="desc24">Web UI</desc><rect id="rect24" width="118.125" height="85.5" x="0" y="526.5" class="st2"/><text id="text25" x="31.24" y="574.65" class="st3">Web UI</text></g><g id="shape16-60" transform="translate(455.062,-498.75)"><title id="title25">Dynamic connector</title><desc id="desc25">Manage models and interfaces</desc><path id="path25" d="M0 603 L177.02 603" class="st10"/><text id="text26" x="13.62" y="592.35" class="st12">Manage models and interfaces</text></g><g id="shape17-67" transform="translate(682.875,-345.75)"><title id="title26">Dynamic connector.17</title><desc id="desc26">Get interfaces</desc><path id="path26" d="M-9 612 L-9 486.54" class="st10"/><text id="text27" x="-82.7" y="547.35" class="st12">Get interfaces</text></g><g id="shape18-73" transform="translate(118.125,-379.5)"><title id="title27">Dynamic connector.18</title><desc id="desc27">Properties, commands, and telemetry metadata</desc><path id="path27" d="M0 623.7 L0 624.06 L0 663.75 L178 663.75" class="st13"/><text id="text29" x="-63.93" y="636" class="st12">Properties,<tspan id="tspan27" x="-65.43" class="st6" dy="1.2em">commands,</tspan><tspan id="tspan28" x="-71.61" class="st6" dy="1.2em">and telemetry</tspan><tspan id="tspan29" x="-60.7" class="st6" dy="1.2em">metadata</tspan></text></g><g id="shape19-86" transform="translate(342,-281.94)"><title id="title29">Dynamic connector.19</title><path id="path29" d="M0 612.69 L0 629.31 L71.71 629.31" class="st14"/></g><g id="shape20-92" transform="translate(342,-281.94)"><title id="title30">Dynamic connector.20</title><desc id="desc30">Digital twin change event</desc><path id="path30" d="M0 612.69 L0 629.31 L70.71 629.31" class="st10"/><text id="text30" x="5.24" y="644.43" class="st12">Digital twin<tspan id="tspan30" x=".23" class="st6" dy="1.2em">change event</tspan></text></g><g id="shape21-99" transform="translate(454.5,-241.26)"><title id="title31">Dynamic connector.21</title><desc id="desc31">Digital twin change event</desc><path id="path31" d="M0 612 L0 765.51 L111.21 765.51" class="st10"/><text id="text31" x="-52.95" y="784.86" class="st12">Digital twin change event</text></g><g id="shape1002-105" transform="translate(218.25,-495.562)"><title id="title32">Dynamic connector.1002</title><desc id="desc32">Register Model ID</desc><path id="path32" d="M0 612 L95.63 612 L95.63 723.02" class="st10"/><text id="text32" x="49.87" y="635.96" class="st12">Register<tspan id="tspan32" x="47.38" class="st6" dy="1.2em">Model ID</tspan></text></g><g id="shape1003-112" transform="translate(573.75,-295.875)"><title id="title33">Dynamic connector.1003</title><desc id="desc33">Interact with device</desc><path id="path33" d="M-11.7 603.19 L-12.06 603.19 L-99 603.19 L-99 602.81 L-180.88 602.81" class="st13"/><text id="text33" x="-142.92" y="592.54" class="st12">Interact with device</text></g><g id="shape1004-120" transform="translate(573.75,-144)"><title id="title34">Rectangle.1004</title><desc id="desc34">Cloud service Process telemetry stream. For example, Time Ser...</desc><rect id="rect34" width="200.25" height="85.5" x="0" y="526.5" class="st2"/><text id="text35" x="150.438" y="516.227" class="st3" transform="matrix(0.97527571,0,0,1.0001231,-47.339576,31.173583)" xml:space="preserve" style="text-align:center;text-anchor:middle;white-space:pre;inline-size:205.278;stroke-width:.941647"><tspan id="tspan2" x="150.438" y="516.227"><tspan style="font-size:17.9065px" id="tspan1">Cloud service </tspan></tspan><tspan id="tspan4" x="150.438" y="538.727"><tspan style="font-size:11.9377px" id="tspan3">Process telemetry stream.</tspan></tspan></text></g><g id="shape1006-125" transform="translate(496.125,-234)"><title id="title35">Dynamic connector.1006</title><desc id="desc35">Telemetry stream</desc><path id="path35" d="M0 612 L14.47 612 L14.47 659.25 L69.59 659.25" class="st10"/><text id="text36" x="-17.45" y="678.6" class="st12">Telemetry stream</text></g><g id="shape1009-131" transform="translate(200.25,-379.5)"><title id="title36">Dynamic connector.1009</title><desc id="desc36">Telemetry</desc><path id="path36" d="M0 612 L0 633 L87.58 633" class="st10"/><text id="text37" x="11.6" y="650.1" class="st12">Telemetry</text></g><g id="shape1010-137" transform="translate(18,-144.75)"><title id="title37">Rectangle.1010</title><desc id="desc37">IoT Edge gateway device</desc><rect id="rect37" width="200.25" height="133.5" x="0" y="478.5" class="st2"/><text id="text38" x="8.41" y="498.7" class="st3">IoT Edge gateway device</text></g><g id="shape1011-140" transform="translate(18,-39.24)"><title id="title38">Rectangle.1011</title><desc id="desc38">Leaf device</desc><rect id="rect38" width="200.25" height="68.76" x="0" y="543.24" class="st2"/><text id="text39" x="58.34" y="563.44" class="st3">Leaf device</text></g><g id="shape1012-143" transform="translate(126,-159.75)"><title id="title39">Rectangle.1012</title><desc id="desc39">IoT Plug and Play module</desc><rect id="rect39" width="67.5" height="57" x="0" y="555" class="st4"/><text id="text40" x="10.55" y="570.9" class="st5">IoT Plug <tspan id="tspan39" x="8.98" class="st6" dy="1.2em">and Play </tspan><tspan id="tspan40" x="11.54" class="st6" dy="1.2em">module</tspan></text></g><g id="shape1014-148" transform="translate(193.5,-188.25)"><title id="title40">Dynamic connector.1014</title><desc id="desc40">Register Model ID</desc><path id="path40" d="M0 612 L121.44 612 L121.44 591.67" class="st10"/><text id="text41" x="66.08" y="634.28" class="st12">Register<tspan id="tspan41" x="63.59" class="st6" dy="1.2em">Model ID</tspan></text></g><g id="shape1015-155" transform="translate(174.937,-216.75)"><title id="title41">Dynamic connector.1015</title><desc id="desc41">Telemetry</desc><path id="path41" d="M0 612 L0 593.56 L113.4 593.56" class="st10"/><text id="text42" x="52.2" y="611.85" class="st12">Telemetry</text></g><g id="shape1019-161" transform="translate(159.75,-216.75)"><title id="title42">Dynamic connector.1019</title><desc id="desc42">Properties, commands, and telemetry metadata</desc><path id="path42" d="M0 600.3 L0 599.94 L0 537 L142.07 537" class="st13"/><text id="text44" x="76.43" y="531.75" class="st12">Properties,<tspan id="tspan42" x="74.92" class="st6" dy="1.2em">commands,</tspan><tspan id="tspan43" x="68.74" class="st6" dy="1.2em">and telemetry</tspan><tspan id="tspan44" x="79.66" class="st6" dy="1.2em">metadata</tspan></text></g><g id="shape1020-172" transform="translate(109.125,-108)"><title id="title44">Dynamic connector.1020</title><path id="path44" d="M9 600.3 L9 599.94 L9 587.31" class="st13"/></g><g id="shape1021-179" transform="translate(313.312,-276.562)"><title id="title45">Rectangle.1021</title><desc id="desc45">Digital twins</desc><rect id="rect45" width="67.5" height="57" x="0" y="555" class="st4"/><text id="text45" x="14.98" y="579.3" class="st5">Digital<tspan id="tspan45" x="17.84" class="st6" dy="1.2em">twins</tspan></text></g><g id="shape1022-183" transform="translate(36,-42.615)"><title id="title46">Rectangle.1022</title><desc id="desc46">Device SDK</desc><rect id="rect46" width="85.5" height="29.25" x="0" y="582.75" class="st8"/><text id="text46" x="10.2" y="601.58" class="st5">Device SDK</text></g></g></svg>