<svg xmlns="http://www.w3.org/2000/svg" xmlns:ev="http://www.w3.org/2001/xml-events" xmlns:xlink="http://www.w3.org/1999/xlink" width="11in" height="816" class="st16" color-interpolation-filters="sRGB" viewBox="0 0 792 612" xml:space="preserve"><style type="text/css">.st1,.st2{fill:red;stroke:#c7c8c8;stroke-width:.25}.st2{fill:#4672c4}.st3{fill:#feffff;font-family:Calibri;font-size:1.5em;font-weight:700}.st4{fill:#ed7d31;stroke:#c7c8c8;stroke-width:.25}.st5{fill:#feffff;font-family:Calibri;font-size:1.16666em;font-weight:700}.st6{font-size:1em}.st7{font-size:.666672em}.st8{fill:#70ad47;stroke:#c7c8c8;stroke-width:.25}.st9{fill:#feffff;font-family:Calibri;font-size:1.00001em;font-weight:700}.st10{marker-end:url(#mrkr4-65);stroke:#000;stroke-linecap:round;stroke-linejoin:round;stroke-width:1.5}.st11{fill:#000;fill-opacity:1;stroke:#000;stroke-opacity:1;stroke-width:.37313432835821}.st12{fill:#000;font-family:Calibri;font-size:1.00001em}.st13{marker-end:url(#mrkr13-81);marker-start:url(#mrkr13-79);stroke:#000;stroke-linecap:round;stroke-linejoin:round;stroke-width:1.5}.st14,.st15{stroke:#4672c4}.st14{marker-end:url(#mrkr4-91);stroke-linecap:round;stroke-linejoin:round;stroke-width:1}.st15{fill:#4672c4;fill-opacity:1;stroke-opacity:1;stroke-width:.28409090909091}.st16{fill:none;fill-rule:evenodd;font-size:12px;overflow:visible;stroke-linecap:square;stroke-miterlimit:3}</style><defs id="Markers"><g id="lend4"><path d="M 2 1 L 0 0 L 2 -1 L 2 1" style="stroke:none"/></g><marker id="mrkr4-65" class="st11" markerUnits="strokeWidth" orient="auto" overflow="visible" refX="-5.36"><use transform="scale(-2.68,-2.68)" xlink:href="#lend4"/></marker><g id="lend13"><path d="M 3 1 L 0 0 L 3 -1 L 3 1" style="stroke:none"/></g><marker id="mrkr13-79" class="st11" markerUnits="strokeWidth" orient="auto" overflow="visible" refX="7.8"><use transform="scale(2.68)" xlink:href="#lend13"/></marker><marker id="mrkr13-81" class="st11" markerUnits="strokeWidth" orient="auto" overflow="visible" refX="-8.04"><use transform="scale(-2.68,-2.68)" xlink:href="#lend13"/></marker><marker id="mrkr4-91" class="st15" markerUnits="strokeWidth" orient="auto" overflow="visible" refX="-7.04"><use transform="scale(-3.52,-3.52)" xlink:href="#lend4"/></marker></defs><g><title>Page-1</title><g id="shape1008-1" transform="translate(295.875,-340.5)"><title>Rectangle.1008</title><rect width="36" height="36" x="0" y="576" class="st1"/></g><g id="shape1005-3" transform="translate(460.125,-216)"><title>Square.1005</title><rect width="36" height="36" x="0" y="576" class="st1"/></g><g id="shape1001-5" transform="translate(296.375,-216.625)"><title>Square.1001</title><rect width="37.125" height="37.125" x="0" y="574.875" class="st1"/></g><g id="shape2-7" transform="translate(295.875,-216)"><title>Rectangle.2</title><desc>IoT hub</desc><rect width="200.25" height="160.5" x="0" y="451.5" class="st2"/><text x="71.91" y="471.7" class="st3">IoT hub</text></g><g id="shape1017-10" transform="translate(308.187,-317.25)"><title>Rectangle.1017</title><rect width="37.125" height="21" x="0" y="591" class="st1"/></g><g id="shape10-12" transform="translate(308.25,-281.25)"><title>Rectangle.10</title><desc>Digital twin</desc><rect width="67.5" height="57" x="0" y="555" class="st4"/><text x="14.98" y="579.3" class="st5">Digital<tspan x="20.63" class="st6" dy="1.2em">twin</tspan></text></g><g id="shape1018-16" transform="translate(313.875,-281.25)"><title>Rectangle.1018</title><rect width="37.125" height="21" x="0" y="591" class="st1"/></g><g id="shape1007-18" transform="translate(182.25,-379.5)"><title>Rectangle.1007</title><rect width="36" height="36" x="0" y="576" class="st1"/></g><g id="shape1000-20" transform="translate(181.125,-477)"><title>Square.1000</title><rect width="37.125" height="37.125" x="0" y="574.875" class="st1"/></g><g id="shape1016-22" transform="translate(156.375,-179.625)"><title>Square.1016</title><rect width="37.125" height="37.125" x="0" y="574.875" class="st1"/></g><g id="shape1-24" transform="translate(18,-379.5)"><title>Rectangle</title><desc>Device</desc><rect width="200.25" height="160.5" x="0" y="451.5" class="st2"/><text x="75.16" y="471.7" class="st3">Device</text></g><g id="shape3-27" transform="translate(573.75,-237.937)"><title>Rectangle.3</title><desc>Solution backend</desc><rect width="200.25" height="133.5" x="0" y="478.5" class="st2"/><text x="35.41" y="498.7" class="st3">Solution backend</text></g><g id="shape4-30" transform="translate(573.75,-441)"><title>Rectangle.4</title><desc>Model repository</desc><rect width="200.25" height="133.5" x="0" y="478.5" class="st2"/><text x="35.2" y="498.7" class="st3">Model repository</text></g><g id="shape5-33" transform="translate(573.75,-45)"><title>Rectangle.5</title><desc>Cloud service Monitors digital twin change events. For exampl...</desc><rect width="200.25" height="85.5" x="0" y="526.5" class="st2"/><text x="50.53" y="546.7" class="st3">Cloud service<tspan x="8.98" class="st7" dy="1.35em">Monitors digital twin change events. </tspan><tspan x="38.36" class="st7" dy="1.65em">For example, Event Hubs</tspan></text></g><g id="shape7-38" transform="translate(49.5,-408.375)"><title>Rectangle.7</title><desc>Device SDK</desc><rect width="85.5" height="29.25" x="0" y="582.75" class="st8"/><text x="10.2" y="601.58" class="st5">Device SDK</text></g><g id="shape8-41" transform="translate(679.5,-252)"><title>Rectangle.8</title><desc>Service SDK</desc><rect width="85.5" height="36" x="0" y="576" class="st8"/><text x="8.81" y="598.2" class="st5">Service SDK</text></g><g id="shape11-44" transform="translate(631.125,-299.01)"><title>Rectangle.11</title><desc>Model parser</desc><rect width="85.5" height="46.74" x="0" y="565.26" class="st8"/><text x="23.87" y="584.43" class="st5">Model<tspan x="24.25" class="st6" dy="1.2em">parser</tspan></text></g><g id="shape12-48" transform="translate(420.75,-241.26)"><title>Rectangle.12</title><desc>Routing rules</desc><rect width="67.5" height="46.74" x="0" y="565.26" class="st4"/><text x="11.07" y="584.43" class="st5">Routing <tspan x="19.47" class="st6" dy="1.2em">rules</tspan></text></g><g id="shape14-52" transform="translate(640.125,-479.25)"><title>Rectangle.14</title><desc>DTDL models and interfaces</desc><rect width="67.5" height="57" x="0" y="555" class="st4"/><text x="20.68" y="572.7" class="st9">DTDL <tspan x="4.78" class="st6" dy="1.2em">models and </tspan><tspan x="9.04" class="st6" dy="1.2em">interfaces</tspan></text></g><g id="shape15-57" transform="translate(336.937,-465)"><title>Rectangle.15</title><desc>Web UI</desc><rect width="118.125" height="85.5" x="0" y="526.5" class="st2"/><text x="31.24" y="574.65" class="st3">Web UI</text></g><g id="shape16-60" transform="translate(455.062,-498.75)"><title>Dynamic connector</title><desc>Manage models and interfaces</desc><path d="M0 603 L177.02 603" class="st10"/><text x="13.62" y="592.35" class="st12">Manage models and interfaces</text></g><g id="shape17-67" transform="translate(682.875,-345.75)"><title>Dynamic connector.17</title><desc>Get interfaces</desc><path d="M-9 612 L-9 486.54" class="st10"/><text x="-82.7" y="547.35" class="st12">Get interfaces</text></g><g id="shape18-73" transform="translate(118.125,-379.5)"><title>Dynamic connector.18</title><desc>Properties, commands, and telemetry metadata</desc><path d="M0 623.7 L0 624.06 L0 663.75 L178 663.75" class="st13"/><text x="-63.93" y="636" class="st12">Properties,<tspan x="-65.43" class="st6" dy="1.2em">commands,</tspan><tspan x="-71.61" class="st6" dy="1.2em">and telemetry</tspan><tspan x="-60.7" class="st6" dy="1.2em">metadata</tspan></text></g><g id="shape19-86" transform="translate(342,-281.94)"><title>Dynamic connector.19</title><path d="M0 612.69 L0 629.31 L71.71 629.31" class="st14"/></g><g id="shape20-92" transform="translate(342,-281.94)"><title>Dynamic connector.20</title><desc>Digital twin change event</desc><path d="M0 612.69 L0 629.31 L70.71 629.31" class="st10"/><text x="5.24" y="644.43" class="st12">Digital twin<tspan x=".23" class="st6" dy="1.2em">change event</tspan></text></g><g id="shape21-99" transform="translate(454.5,-241.26)"><title>Dynamic connector.21</title><desc>Digital twin change event</desc><path d="M0 612 L0 765.51 L111.21 765.51" class="st10"/><text x="-52.95" y="784.86" class="st12">Digital twin change event</text></g><g id="shape1002-105" transform="translate(218.25,-495.562)"><title>Dynamic connector.1002</title><desc>Register Model ID</desc><path d="M0 612 L95.63 612 L95.63 723.02" class="st10"/><text x="49.87" y="635.96" class="st12">Register<tspan x="47.38" class="st6" dy="1.2em">Model ID</tspan></text></g><g id="shape1003-112" transform="translate(573.75,-295.875)"><title>Dynamic connector.1003</title><desc>Interact with device</desc><path d="M-11.7 603.19 L-12.06 603.19 L-99 603.19 L-99 602.81 L-180.88 602.81" class="st13"/><text x="-142.92" y="592.54" class="st12">Interact with device</text></g><g id="shape1004-120" transform="translate(573.75,-144)"><title>Rectangle.1004</title><desc>Cloud service Process telemetry stream. For example, Time Ser...</desc><rect width="200.25" height="85.5" x="0" y="526.5" class="st2"/><text x="50.53" y="546.7" class="st3">Cloud service<tspan x="25.45" class="st7" dy="1.35em">Process telemetry stream. For </tspan><tspan x="26.73" class="st7" dy="1.65em">example, Time Series Insights</tspan></text></g><g id="shape1006-125" transform="translate(496.125,-234)"><title>Dynamic connector.1006</title><desc>Telemetry stream</desc><path d="M0 612 L14.47 612 L14.47 659.25 L69.59 659.25" class="st10"/><text x="-17.45" y="678.6" class="st12">Telemetry stream</text></g><g id="shape1009-131" transform="translate(200.25,-379.5)"><title>Dynamic connector.1009</title><desc>Telemetry</desc><path d="M0 612 L0 633 L87.58 633" class="st10"/><text x="11.6" y="650.1" class="st12">Telemetry</text></g><g id="shape1010-137" transform="translate(18,-144.75)"><title>Rectangle.1010</title><desc>IoT Edge gateway device</desc><rect width="200.25" height="133.5" x="0" y="478.5" class="st2"/><text x="8.41" y="498.7" class="st3">IoT Edge gateway device</text></g><g id="shape1011-140" transform="translate(18,-39.24)"><title>Rectangle.1011</title><desc>Leaf device</desc><rect width="200.25" height="68.76" x="0" y="543.24" class="st2"/><text x="58.34" y="563.44" class="st3">Leaf device</text></g><g id="shape1012-143" transform="translate(126,-159.75)"><title>Rectangle.1012</title><desc>IoT Plug and Play module</desc><rect width="67.5" height="57" x="0" y="555" class="st4"/><text x="10.55" y="570.9" class="st5">IoT Plug <tspan x="8.98" class="st6" dy="1.2em">and Play </tspan><tspan x="11.54" class="st6" dy="1.2em">module</tspan></text></g><g id="shape1014-148" transform="translate(193.5,-188.25)"><title>Dynamic connector.1014</title><desc>Register Model ID</desc><path d="M0 612 L121.44 612 L121.44 591.67" class="st10"/><text x="66.08" y="634.28" class="st12">Register<tspan x="63.59" class="st6" dy="1.2em">Model ID</tspan></text></g><g id="shape1015-155" transform="translate(174.937,-216.75)"><title>Dynamic connector.1015</title><desc>Telemetry</desc><path d="M0 612 L0 593.56 L113.4 593.56" class="st10"/><text x="52.2" y="611.85" class="st12">Telemetry</text></g><g id="shape1019-161" transform="translate(159.75,-216.75)"><title>Dynamic connector.1019</title><desc>Properties, commands, and telemetry metadata</desc><path d="M0 600.3 L0 599.94 L0 537 L142.07 537" class="st13"/><text x="76.43" y="531.75" class="st12">Properties,<tspan x="74.92" class="st6" dy="1.2em">commands,</tspan><tspan x="68.74" class="st6" dy="1.2em">and telemetry</tspan><tspan x="79.66" class="st6" dy="1.2em">metadata</tspan></text></g><g id="shape1020-172" transform="translate(109.125,-108)"><title>Dynamic connector.1020</title><path d="M9 600.3 L9 599.94 L9 587.31" class="st13"/></g><g id="shape1021-179" transform="translate(313.312,-276.562)"><title>Rectangle.1021</title><desc>Digital twins</desc><rect width="67.5" height="57" x="0" y="555" class="st4"/><text x="14.98" y="579.3" class="st5">Digital<tspan x="17.84" class="st6" dy="1.2em">twins</tspan></text></g><g id="shape1022-183" transform="translate(36,-42.615)"><title>Rectangle.1022</title><desc>Device SDK</desc><rect width="85.5" height="29.25" x="0" y="582.75" class="st8"/><text x="10.2" y="601.58" class="st5">Device SDK</text></g></g></svg>