<svg xmlns="http://www.w3.org/2000/svg" xmlns:xlink="http://www.w3.org/1999/xlink" id="b0aab13a-eb73-42df-9284-c82be56adc18" width="18" height="18" data-name="fluent_icons" viewBox="0 0 18 18"><defs><linearGradient id="e26c126b-ef7c-4c93-a18d-7e6dbd0ff7d5" x1="13.25" x2="8.62" y1="13.02" y2="4.25" gradientUnits="userSpaceOnUse"><stop offset="0" stop-color="#1988d9"/><stop offset=".9" stop-color="#54aef0"/></linearGradient><linearGradient id="f9c4a9e5-7c66-494c-b93a-6b347927d49e" x1="11.26" x2="14.46" y1="10.47" y2="15.99" gradientUnits="userSpaceOnUse"><stop offset=".1" stop-color="#54aef0"/><stop offset=".29" stop-color="#4fabee"/><stop offset=".51" stop-color="#41a2e9"/><stop offset=".74" stop-color="#2a93e0"/><stop offset=".88" stop-color="#1988d9"/></linearGradient></defs><title>Icon-security-247</title><g><polygon fill="#50e6ff" points="1.01 10.19 8.93 15.33 16.99 10.17 18 11.35 8.93 17.19 0 11.35 1.01 10.19" style="isolation:isolate"/><polygon fill="#fff" points="1.61 9.53 8.93 .81 16.4 9.54 8.93 14.26 1.61 9.53"/><polygon fill="#50e6ff" points="8.93 .81 8.93 14.26 1.61 9.53 8.93 .81" style="isolation:isolate"/><polygon fill="url(#e26c126b-ef7c-4c93-a18d-7e6dbd0ff7d5)" points="8.93 .81 8.93 14.26 16.4 9.54 8.93 .81"/><polygon fill="#53b1e0" points="8.93 7.76 16.4 9.54 8.93 14.26 8.93 7.76" style="isolation:isolate"/><polygon fill="#9cebff" points="8.93 14.26 1.61 9.53 8.93 7.76 8.93 14.26" style="isolation:isolate"/><polygon fill="url(#f9c4a9e5-7c66-494c-b93a-6b347927d49e)" points="8.93 17.19 18 11.35 16.99 10.17 8.93 15.33 8.93 17.19"/></g></svg>