<svg xmlns="http://www.w3.org/2000/svg" id="ada1a734-f5a0-4f30-8c41-a30875acb17e" width="18" height="18" viewBox="0 0 18 18"><defs><linearGradient id="f92ae47d-0835-4bac-a4f5-649f41e19a24" x1="13.25" x2="8.62" y1="13.06" y2="4.29" gradientUnits="userSpaceOnUse"><stop offset="0" stop-color="#1988d9"/><stop offset=".9" stop-color="#54aef0"/></linearGradient><linearGradient id="f418fd20-54c9-41f7-a889-8b791ff60efa" x1="11.26" x2="14.46" y1="10.51" y2="16.03" gradientUnits="userSpaceOnUse"><stop offset=".1" stop-color="#54aef0"/><stop offset=".29" stop-color="#4fabee"/><stop offset=".51" stop-color="#41a2e9"/><stop offset=".74" stop-color="#2a93e0"/><stop offset=".88" stop-color="#1988d9"/></linearGradient></defs><title>Icon-identity-222</title><polygon fill="#50e6ff" points="1.01 10.23 8.93 15.37 16.99 10.21 18 11.38 8.93 17.23 0 11.39 1.01 10.23"/><polygon fill="#fff" points="1.61 9.57 8.93 .85 16.4 9.58 8.93 14.3 1.61 9.57"/><polygon fill="#50e6ff" points="8.93 .85 8.93 14.3 1.61 9.57 8.93 .85"/><polygon fill="url(#f92ae47d-0835-4bac-a4f5-649f41e19a24)" points="8.93 .85 8.93 14.3 16.4 9.58 8.93 .85"/><polygon fill="#53b1e0" points="8.93 7.8 16.4 9.58 8.93 14.3 8.93 7.8"/><polygon fill="#9cebff" points="8.93 14.3 1.61 9.57 8.93 7.8 8.93 14.3"/><polygon fill="url(#f418fd20-54c9-41f7-a889-8b791ff60efa)" points="8.93 17.23 18 11.38 16.99 10.21 8.93 15.37 8.93 17.23"/><polygon fill="#773adc" points="13.53 9.04 9.06 15.3 13.53 17.12 18 15.3 13.53 9.04"/><polygon fill="#f9f9f9" points="13.53 9.04 9.06 15.3 13.53 17.12 13.53 9.04" opacity=".5"/></svg>