<svg xmlns="http://www.w3.org/2000/svg" xmlns:xlink="http://www.w3.org/1999/xlink" id="f7638d7a-4484-488c-b8c8-685b42c6e011" width="18" height="18" data-name="fluent_icons" viewBox="0 0 18 18"><defs><linearGradient id="e30828ef-3783-4de1-9295-86db9725e064" x1="3.96" x2="3.96" y1="2.52" y2="7.82" gradientUnits="userSpaceOnUse"><stop offset=".22" stop-color="#32d4f5"/><stop offset=".4" stop-color="#31d0f1"/><stop offset=".58" stop-color="#2cc3e6"/><stop offset=".77" stop-color="#25aed4"/><stop offset=".96" stop-color="#1c91ba"/><stop offset="1" stop-color="#198ab3"/></linearGradient><linearGradient id="bfe52a3c-cad3-4c17-bd1a-fa87ba779ef5" x1="14.04" x2="14.04" y1="5.58" y2="10.89" xlink:href="#e30828ef-3783-4de1-9295-86db9725e064"/><linearGradient id="a7a268f2-b3d0-4556-8c99-4baf00448675" x1="5.29" x2="5.29" y1="10.18" y2="15.48" xlink:href="#e30828ef-3783-4de1-9295-86db9725e064"/></defs><title>Icon-analytics-148</title><rect width="6.92" height="5.31" x=".5" y="2.52" fill="url(#e30828ef-3783-4de1-9295-86db9725e064)" rx=".28"/><rect width="6.92" height="5.31" x="10.58" y="5.58" fill="url(#bfe52a3c-cad3-4c17-bd1a-fa87ba779ef5)" rx=".28"/><rect width="6.92" height="5.31" x="1.82" y="10.18" fill="url(#a7a268f2-b3d0-4556-8c99-4baf00448675)" rx=".42"/><path fill="#773adc" d="M13.15,8.92l.23-.64L4.82,5.13l-.23.63Zm.53-.09-.32-.6L5.29,12.48l.31.6ZM5,13.37l.67-.12L4.31,5.54l-.67.12Z"/><circle cx="14.04" cy="8.23" r="1.08" fill="#fff" transform="translate(-2.23 8.81) rotate(-32.41)"/><circle cx="3.96" cy="5.17" r="1.08" fill="#fff" transform="translate(-2.15 2.93) rotate(-32.41)"/><circle cx="5.29" cy="12.83" r="1.08" fill="#fff" transform="translate(-6.05 4.83) rotate(-32.41)"/></svg>