<svg xmlns="http://www.w3.org/2000/svg" xmlns:xlink="http://www.w3.org/1999/xlink" id="b09f09a4-dc30-43c6-8dbd-f8dcd4d43f3a" width="64" height="64" viewBox="0 0 64 64"><defs><linearGradient id="b8ab31df-ed65-44c4-8984-fab937870017" x1="-1046.497" x2="-1064.781" y1="117.876" y2="63.862" gradientTransform="matrix(1, 0, 0, -1, 1075, 126)" gradientUnits="userSpaceOnUse"><stop offset="0" stop-color="#114a8b"/><stop offset="1" stop-color="#0669bc"/></linearGradient><linearGradient id="f6031adc-0aeb-4052-aa16-2c8917aabe6a" x1="-1040.785" x2="-1045.015" y1="92.704" y2="91.274" gradientTransform="matrix(1, 0, 0, -1, 1075, 126)" gradientUnits="userSpaceOnUse"><stop offset="0" stop-opacity=".3"/><stop offset=".071" stop-opacity=".2"/><stop offset=".321" stop-opacity=".1"/><stop offset=".623" stop-opacity=".05"/><stop offset="1" stop-opacity="0"/></linearGradient><linearGradient id="a2489f1c-8a1a-4551-9eb6-6aa1c87c3280" x1="-1043.111" x2="-1023.042" y1="119.451" y2="65.981" gradientTransform="matrix(1, 0, 0, -1, 1075, 126)" gradientUnits="userSpaceOnUse"><stop offset="0" stop-color="#3ccbf4"/><stop offset="1" stop-color="#2892df"/></linearGradient></defs><g><path fill="url(#b8ab31df-ed65-44c4-8984-fab937870017)" d="M22.0863,3.97H39.6917L21.4161,58.12a2.8071,2.8071,0,0,1-2.66,1.91H5.0552A2.8028,2.8028,0,0,1,2.3994,56.33L19.4264,5.88A2.8071,2.8071,0,0,1,22.0863,3.97Z"/><path fill="#0078d4" d="M47.6694,40.29H19.7513a1.2925,1.2925,0,0,0-.8819,2.2373l17.94,16.7434a2.82,2.82,0,0,0,1.924.7584H54.54Z"/><path fill="url(#f6031adc-0aeb-4052-aa16-2c8917aabe6a)" d="M22.0863,3.97a2.7843,2.7843,0,0,0-2.6656,1.9462l-17,50.368a2.7994,2.7994,0,0,0,2.6427,3.7449H19.1178a3.0039,3.0039,0,0,0,2.306-1.9614l3.39-9.99,12.11,11.2943a2.8645,2.8645,0,0,0,1.8025.6576h15.749L47.5671,40.29l-20.1361.0045L39.7556,3.97Z"/><path fill="url(#a2489f1c-8a1a-4551-9eb6-6aa1c87c3280)" d="M44.5727,5.8769A2.8028,2.8028,0,0,0,41.917,3.97H22.2963a2.8032,2.8032,0,0,1,2.6559,1.9066L41.98,56.33a2.8032,2.8032,0,0,1-2.6559,3.6993H58.945A2.8029,2.8029,0,0,0,61.6006,56.33Z"/></g></svg>