<svg xmlns="http://www.w3.org/2000/svg" xmlns:xlink="http://www.w3.org/1999/xlink" id="e4c8cc05-19c9-48f5-bf71-99a95163eeaf" width="18" height="18" data-name="fluent_icons" viewBox="0 0 18 18"><defs><linearGradient id="abce88f3-2358-4d02-b62b-22c049ee1839" x1="6.73" x2="6.73" y1="9.59" y2=".95" gradientUnits="userSpaceOnUse"><stop offset="0" stop-color="#0078d4"/><stop offset="1" stop-color="#5ea0ef"/></linearGradient></defs><title>Icon-containers-102</title><g><path fill="#949494" d="M15.46,9.49l1.87-1.9c.15-.16.1-.29-.12-.29h-.94A.23.23,0,0,1,16,7.06c0-1.18-.3-4.47-4.8-4.59A.23.23,0,0,0,11,2.7V3.87a.24.24,0,0,0,.25.23,2.75,2.75,0,0,1,3.33,3,.23.23,0,0,1-.23.23h-.87c-.22,0-.28.13-.13.29l1.74,1.9A.22.22,0,0,0,15.46,9.49Z"/><g><rect width="12.46" height="8.64" x=".5" y=".95" fill="url(#abce88f3-2358-4d02-b62b-22c049ee1839)" rx=".57"/><path fill="#83b9f9" d="M1.07.95H12.55a.41.41,0,0,1,.41.41V3a0,0,0,0,1,0,0H.5a0,0,0,0,1,0,0V1.51A.57.57,0,0,1,1.07.95Z"/></g><rect width="7.92" height="5.49" x="9.58" y="11.56" fill="#005ba1" rx=".36"/><path fill="#fff" d="M2.29,3.8h8.87a.19.19,0,0,1,.19.18V4.9a.19.19,0,0,1-.19.18H2.29A.19.19,0,0,1,2.1,4.9V4A.19.19,0,0,1,2.29,3.8Z"/><path fill="#fff" d="M2.3,5.64h8.87a.19.19,0,0,1,.19.18v.93a.19.19,0,0,1-.19.17H2.3a.18.18,0,0,1-.19-.17V5.82A.18.18,0,0,1,2.3,5.64Z"/><path fill="#fff" d="M2.3,7.5h8.87a.19.19,0,0,1,.19.18V8.6a.19.19,0,0,1-.19.18H2.3a.18.18,0,0,1-.19-.18V7.68A.18.18,0,0,1,2.3,7.5Z"/><g><rect width="7.92" height="5.49" x="8.27" y="10.38" fill="#0078d4" rx=".36"/><path fill="#83b9f9" d="M8.63,10.38h7.3a.26.26,0,0,1,.26.26v1a0,0,0,0,1,0,0H8.27a0,0,0,0,1,0,0v-.95A.36.36,0,0,1,8.63,10.38Z"/></g><path fill="#fff" d="M9.41,12.19h5.64a.12.12,0,0,1,.12.11v.59a.12.12,0,0,1-.12.12H9.41a.12.12,0,0,1-.12-.12V12.3A.11.11,0,0,1,9.41,12.19Z"/><path fill="#fff" d="M9.41,13.36h5.64a.12.12,0,0,1,.12.12v.59a.11.11,0,0,1-.12.11H9.41a.12.12,0,0,1-.12-.11v-.59A.12.12,0,0,1,9.41,13.36Z"/><path fill="#fff" d="M9.41,14.54h5.64a.12.12,0,0,1,.12.12v.59a.11.11,0,0,1-.12.11H9.41a.12.12,0,0,1-.12-.11v-.59A.12.12,0,0,1,9.41,14.54Z"/></g></svg>