<svg xmlns="http://www.w3.org/2000/svg" xmlns:xlink="http://www.w3.org/1999/xlink" id="add29400-9646-4000-ac0c-cc35fabc534c" width="18" height="18" data-name="fluent_icons" viewBox="0 0 18 18"><defs><linearGradient id="b4ac57b2-df3a-4076-ac00-a5de8399c8cc" x1="1.24" x2="17.44" y1="8.65" y2="8.65" gradientUnits="userSpaceOnUse"><stop offset=".1" stop-color="#54aef0"/><stop offset="1" stop-color="#1988d9"/></linearGradient></defs><title>Icon-analytics-145</title><path fill="url(#b4ac57b2-df3a-4076-ac00-a5de8399c8cc)" d="M1.41,1.52,16.47,16.58a.57.57,0,0,0,1-.4V1.12a.56.56,0,0,0-.57-.57H1.81A.57.57,0,0,0,1.41,1.52Z"/><path id="b27185b0-e310-437f-9bb6-c6c02affc739" fill="#50e6ff" d="M5.47,5.58l6.94,6.94,5-5V1.12a.56.56,0,0,0-.57-.57H10.5Z" data-name="Path 2"/><rect id="a520972d-0536-44c0-9419-7e1a94d4148d" width="9.37" height="1.7" x="-.44" y="12.9" fill="#86d633" data-name="Rectangle 1" rx=".27" transform="translate(-8.48 7.03) rotate(-45)"/><rect id="b0f65d4c-137e-411d-bc65-24715c60cc75" width="5.99" height="1.7" x=".06" y="9.28" fill="#86d633" data-name="Rectangle 2" rx=".27" transform="translate(-6.27 5.12) rotate(-45)"/><rect id="fdae2a78-1d10-4855-a6fd-2a48524d6a9a" width="5.99" height="1.7" x="4.83" y="14.09" fill="#86d633" data-name="Rectangle 3" rx=".27" transform="translate(-8.27 9.91) rotate(-45)"/><rect id="ab542f88-2d5b-4132-99c3-fc872b8763db" width="1.7" height="1.7" x="9.13" y="4.8" fill="#fff" data-name="Rectangle 4" rx=".38" transform="translate(-1.07 8.71) rotate(-45)"/><rect id="bf569532-ad52-4c34-ae98-0bcda2203439" width="1.7" height="1.7" x="11.53" y="2.4" fill="#fff" data-name="Rectangle 5" rx=".38" transform="translate(1.33 9.71) rotate(-45)"/><rect id="a8494a55-edcf-43d9-afbe-9d11b803f096" width="1.7" height="1.7" x="11.53" y="7.2" fill="#fff" data-name="Rectangle 6" rx=".38" transform="translate(-2.07 11.11) rotate(-45)"/><path id="b5642632-9956-4880-90ac-2bbacd77be90" fill="#fff" d="M13.85,5.38l.66-.66a.38.38,0,0,1,.54,0l.66.66a.38.38,0,0,1,0,.54l-.66.66a.38.38,0,0,1-.54,0l-.66-.66a.38.38,0,0,1,0-.54" data-name="Rectangle 7"/></svg>