<svg xmlns="http://www.w3.org/2000/svg" xmlns:xlink="http://www.w3.org/1999/xlink" id="Layer_1" width="50" height="50" x="0" y="0" enable-background="new 0 0 50 50" version="1.1" viewBox="0 0 50 50" xml:space="preserve"><path fill="#3E3E3E" d="M47.778,28.222H2.222C0.995,28.222,0,29.217,0,30.444v14.333C0,46.005,0.995,47,2.222,47h45.556	C49.005,47,50,46.005,50,44.778V30.444C50,29.222,49,28.222,47.778,28.222z"/><path fill="#FFF" d="M38.778,28.222H2.222C0.995,28.222,0,29.217,0,30.444v14.333C0,46.005,0.995,47,2.222,47	h8.556L38.778,28.222z" opacity=".2"/><rect width="3" height="3" x="43" y="32" fill="#B8D432"/><rect width="3" height="3" x="37" y="32" fill="#B8D432"/><rect width="3" height="3" x="31" y="32" fill="#B8D432"/><path fill="#FCD116" d="M34.9,11.5c0-5.744-4.656-10.4-10.4-10.4S14.1,5.756,14.1,11.5c0,4.88,3.366,8.964,7.9,10.085V34h-5v5h5v4h5	V21.585C31.534,20.464,34.9,16.38,34.9,11.5z M24.5,16.948c-3.004,0-5.448-2.444-5.448-5.448s2.444-5.448,5.448-5.448	s5.448,2.444,5.448,5.448S27.504,16.948,24.5,16.948z"/></svg>