<svg xmlns="http://www.w3.org/2000/svg" xmlns:xlink="http://www.w3.org/1999/xlink" width="18" height="18" viewBox="0 0 18 18"><defs><linearGradient id="aa70aef5-118a-4342-baee-c4279cb47200" x1="13.24" x2="13.24" y1="8.21" y2="10.28" gradientUnits="userSpaceOnUse"><stop offset="0" stop-color="#86d633"/><stop offset="1" stop-color="#0c852e"/></linearGradient><linearGradient id="e362e8ee-165b-47eb-9824-e8b892f18f86" x1="9.53" x2="9.53" y1="9.8" y2="11.87" xlink:href="#aa70aef5-118a-4342-baee-c4279cb47200"/><linearGradient id="b56df72b-364e-489a-afbc-9885d5ea8e7a" x1="5.8" x2="5.8" y1="11.34" y2="13.46" xlink:href="#aa70aef5-118a-4342-baee-c4279cb47200"/></defs><title>Icon-analytics-144</title><g style="isolation:isolate"><g id="ea50ef0e-e9e7-473e-a1e0-824a879cf129" data-name="fluent_icons"><path fill="#76bc2d" d="M10.83,8.42a.26.26,0,0,1-.24.27H8.5a.26.26,0,0,1-.27-.24V6.89a.26.26,0,0,1,.24-.27h2.09a.26.26,0,0,1,.27.24V8.42Z"/><path fill="url(#aa70aef5-118a-4342-baee-c4279cb47200)" d="M14.54,10a.26.26,0,0,1-.24.27H12.21a.26.26,0,0,1-.27-.24V8.48a.26.26,0,0,1,.24-.27h2.09a.26.26,0,0,1,.27.24V10Z"/><path fill="url(#e362e8ee-165b-47eb-9824-e8b892f18f86)" d="M10.83,11.6a.26.26,0,0,1-.24.27H8.5a.26.26,0,0,1-.27-.24V10.07a.26.26,0,0,1,.24-.27h2.09a.26.26,0,0,1,.27.24V11.6Z"/><path fill="#86d633" d="M7.12,6.84a.25.25,0,0,1-.23.26H4.74a.26.26,0,0,1-.27-.23V5.25A.26.26,0,0,1,4.71,5H6.8c.22,0,.32.11.32.27Z"/><path fill="#76bc2d" d="M7.12,10a.25.25,0,0,1-.23.27H4.74A.26.26,0,0,1,4.47,10V8.42a.26.26,0,0,1,.24-.26H6.8c.22,0,.32.11.32.26Z"/><path fill="url(#b56df72b-364e-489a-afbc-9885d5ea8e7a)" d="M7.12,13.19a.25.25,0,0,1-.23.27H4.74a.26.26,0,0,1-.27-.24V11.6a.25.25,0,0,1,.24-.26H6.8c.22,0,.32.1.32.26Z"/><g><path fill="#999" d="M1.07,1.51H2.36a0,0,0,0,1,0,0v3.6a.29.29,0,0,1-.29.29H.79A.29.29,0,0,1,.5,5.11v-3A.57.57,0,0,1,1.07,1.51Z"/><path fill="#999" d="M1.07,1.51H2.36a0,0,0,0,1,0,0v3.6a.29.29,0,0,1-.29.29H.79A.29.29,0,0,1,.5,5.11v-3A.57.57,0,0,1,1.07,1.51Z" opacity=".5" style="mix-blend-mode:multiply"/></g><g style="mix-blend-mode:multiply"><path fill="#999" d="M15.64,1.51h1.29a.57.57,0,0,1,.57.57v3a.29.29,0,0,1-.29.29H15.92a.29.29,0,0,1-.29-.29V1.51A0,0,0,0,1,15.64,1.51Z"/><path fill="#999" d="M15.64,1.51h1.29a.57.57,0,0,1,.57.57v3a.29.29,0,0,1-.29.29H15.92a.29.29,0,0,1-.29-.29V1.51A0,0,0,0,1,15.64,1.51Z" opacity=".5" style="mix-blend-mode:multiply"/></g><path fill="#949494" d="M8.66-6.08H9.91a0,0,0,0,1,0,0v17a0,0,0,0,1,0,0H8.66a.57.57,0,0,1-.57-.57V-5.52A.57.57,0,0,1,8.66-6.08Z" transform="translate(11.42 -6.58) rotate(90)"/><g style="mix-blend-mode:multiply"><path fill="#999" d="M.79,12.76H2.08a.29.29,0,0,1,.29.29v3.6a0,0,0,0,1,0,0H1.07a.57.57,0,0,1-.57-.57V13A.29.29,0,0,1,.79,12.76Z"/><path fill="#999" d="M.79,12.76H2.08a.29.29,0,0,1,.29.29v3.6a0,0,0,0,1,0,0H1.07a.57.57,0,0,1-.57-.57V13A.29.29,0,0,1,.79,12.76Z" opacity=".5" style="mix-blend-mode:multiply"/></g><g style="mix-blend-mode:multiply"><path fill="#999" d="M15.92,12.76h1.29a.29.29,0,0,1,.29.29v3a.57.57,0,0,1-.57.57H15.64a0,0,0,0,1,0,0V13A.29.29,0,0,1,15.92,12.76Z"/><path fill="#999" d="M15.92,12.76h1.29a.29.29,0,0,1,.29.29v3a.57.57,0,0,1-.57.57H15.64a0,0,0,0,1,0,0V13A.29.29,0,0,1,15.92,12.76Z" opacity=".5" style="mix-blend-mode:multiply"/></g><path fill="#949494" d="M8.66,7.24H9.91a0,0,0,0,1,0,0v17a0,0,0,0,1,0,0H8.66a.57.57,0,0,1-.57-.57V7.81A.57.57,0,0,1,8.66,7.24Z" transform="translate(-6.74 24.74) rotate(-90)"/></g></g></svg>