<svg xmlns="http://www.w3.org/2000/svg" width="50" height="50" viewBox="0 0 50 50"><title>AvereFXTEdgeFiler</title><g><path fill="#fee087" d="M3,36a2,2,0,0,1-2-2V1H15.049L20,6H42V9l2,0v24.91A2.087,2.087,0,0,1,41.914,36H3Z"/><path fill="#1e1e1e" d="M5,34a2,2,0,0,1-4,0L1,1H15.05L20,6H42V9H5Z" opacity=".2"/><path fill="#fff" d="M10,16H44a0,0,0,0,1,0,0V36a0,0,0,0,1,0,0H9a0,0,0,0,1,0,0V17A1,1,0,0,1,10,16Z" opacity=".4"/><g><path fill="#ff8c00" d="M48,17H11a1,1,0,0,0-1,1v8a1,1,0,0,0,1,1H48a1,1,0,0,0,1-1V18A1,1,0,0,0,48,17Z"/><rect width="2" height="2" x="45" y="19" fill="#0072c6" rx=".5" ry=".5"/><rect width="2" height="2" x="45" y="23" fill="#0072c6" rx=".5" ry=".5"/><path fill="#ff8c00" d="M48,28H11a1,1,0,0,0-1,1v8a1,1,0,0,0,1,1H48a1,1,0,0,0,1-1V29A1,1,0,0,0,48,28Z"/><rect width="2" height="2" x="45" y="30" fill="#0072c6" rx=".5" ry=".5"/><rect width="2" height="2" x="45" y="34" fill="#0072c6" rx=".5" ry=".5"/><path fill="#ff8c00" d="M48,39H11a1,1,0,0,0-1,1v8a1,1,0,0,0,1,1H48a1,1,0,0,0,1-1V40A1,1,0,0,0,48,39Z"/><rect width="2" height="2" x="45" y="41" fill="#0072c6" rx=".5" ry=".5"/><rect width="2" height="2" x="45" y="45" fill="#0072c6" rx=".5" ry=".5"/></g></g></svg>