<svg xmlns="http://www.w3.org/2000/svg" xmlns:xlink="http://www.w3.org/1999/xlink" id="b9a425fc-ba9a-40db-b586-ddbfc77e60e2" width="18" height="18" data-name="fluent_icons" viewBox="0 0 18 18"><defs><linearGradient id="aeb2a765-9cdc-409c-947f-a212bb6989c4" x1="2.9" x2="8.63" y1="3.57" y2="3.57" gradientUnits="userSpaceOnUse"><stop offset="0" stop-color="#b77af4"/><stop offset="1" stop-color="#773adc"/></linearGradient><linearGradient id="eddb5ac8-06fb-4f61-bf76-5c91bf882f19" x1="9.08" x2="14.81" y1="3.62" y2="3.62" xlink:href="#aeb2a765-9cdc-409c-947f-a212bb6989c4"/><linearGradient id="b4cf5827-6183-4b67-9e1b-e5a697c1c1dc" x1="-.04" x2="5.69" y1="8.95" y2="8.95" xlink:href="#aeb2a765-9cdc-409c-947f-a212bb6989c4"/><linearGradient id="fbd9145a-6ef5-4316-87e0-eff4874a6c5c" x1="6.13" x2="11.86" y1="8.91" y2="8.91" xlink:href="#aeb2a765-9cdc-409c-947f-a212bb6989c4"/><linearGradient id="ad82296d-3929-4228-9888-abcc5676f1ad" x1="12.31" x2="18.04" y1="8.96" y2="8.96" xlink:href="#aeb2a765-9cdc-409c-947f-a212bb6989c4"/><linearGradient id="b56491c6-aee5-452c-b572-0c52485d3fb4" x1="2.83" x2="8.55" y1="14.38" y2="14.38" xlink:href="#aeb2a765-9cdc-409c-947f-a212bb6989c4"/><linearGradient id="b5e1fb96-5509-44a1-9e88-8f1ccb9e2583" x1="9.01" x2="14.74" y1="14.43" y2="14.43" xlink:href="#aeb2a765-9cdc-409c-947f-a212bb6989c4"/></defs><title>Icon-containers-101</title><path fill="url(#aeb2a765-9cdc-409c-947f-a212bb6989c4)" d="M5.76,1.05,2.9,1.58V5.47l2.86.62L8.47,5a.27.27,0,0,0,.16-.24V2.21A.25.25,0,0,0,8.46,2Z"/><path fill="none" d="M5.87,6,8.45,5a.25.25,0,0,0,.15-.23V2.23A.26.26,0,0,0,8.43,2l-2.6-.88a.25.25,0,0,0-.12,0L3.1,1.58A.18.18,0,0,0,3,1.77V5.3a.19.19,0,0,0,.15.19L5.73,6A.36.36,0,0,0,5.87,6Z"/><path fill="#341a6e" d="M2.9,1.58V5.47l2.89.62v-5Zm1.21,3.6L3.3,5V2l.81-.13Zm1.27.23-.93-.15V1.83l.93-.17Z"/><path fill="url(#eddb5ac8-06fb-4f61-bf76-5c91bf882f19)" d="M11.94,1.1l-2.86.52v3.9l2.86.62L14.65,5a.24.24,0,0,0,.16-.23V2.25A.25.25,0,0,0,14.64,2Z"/><path fill="#341a6e" d="M9.08,1.62v3.9L12,6.14v-5ZM10.3,5.23l-.81-.16v-3l.81-.14Zm1.26.23-.93-.15V1.87l.93-.16Z"/><path fill="url(#b4cf5827-6183-4b67-9e1b-e5a697c1c1dc)" d="M2.82,6.43,0,7v3.9l2.86.61,2.71-1.09a.25.25,0,0,0,.16-.23V7.59a.26.26,0,0,0-.17-.24Z"/><path fill="#341a6e" d="M0,7v3.9l2.89.61v-5Zm1.22,3.61L.37,10.4v-3l.81-.13Zm1.26.22-.93-.15V7.21l.93-.16Z"/><path fill="url(#fbd9145a-6ef5-4316-87e0-eff4874a6c5c)" d="M9,6.39l-2.86.53v3.9L9,11.43l2.71-1.09a.25.25,0,0,0,.16-.23V7.55a.26.26,0,0,0-.17-.24Z"/><path fill="#341a6e" d="M6.13,6.92v3.9L9,11.43v-5Zm1.21,3.61-.8-.17v-3l.8-.13Zm1.27.22-.93-.15V7.17L8.61,7Z"/><path fill="url(#ad82296d-3929-4228-9888-abcc5676f1ad)" d="M15.17,6.44,12.31,7v3.9l2.86.61,2.71-1.09a.26.26,0,0,0,.16-.23V7.6a.26.26,0,0,0-.17-.24Z"/><path fill="#341a6e" d="M12.31,7v3.9l2.89.61v-5Zm1.21,3.61-.81-.17v-3l.81-.13Zm1.26.22-.92-.15V7.22l.92-.16Z"/><path fill="url(#b56491c6-aee5-452c-b572-0c52485d3fb4)" d="M5.69,11.86l-2.86.53v3.9l2.86.61L8.4,15.81a.25.25,0,0,0,.15-.23V13a.25.25,0,0,0-.17-.24Z"/><path fill="none" d="M5.79,16.84l2.62-1.06a.19.19,0,0,0,.12-.17V13a.25.25,0,0,0-.17-.23l-2.6-.89H5.64L3,12.39a.2.2,0,0,0-.16.19v3.54A.19.19,0,0,0,3,16.3l2.62.55A.22.22,0,0,0,5.79,16.84Z"/><path fill="#341a6e" d="M2.83,12.39v3.9l2.89.61v-5ZM4,16l-.81-.17v-3L4,12.69Zm1.26.22-.93-.15V12.64l.93-.16Z"/><path fill="url(#b5e1fb96-5509-44a1-9e88-8f1ccb9e2583)" d="M11.87,11.91,9,12.44v3.9l2.86.61,2.71-1.09a.26.26,0,0,0,.16-.23V13.07a.26.26,0,0,0-.17-.24Z"/><path fill="#341a6e" d="M9,12.44v3.9L11.9,17v-5Zm1.21,3.61-.81-.17v-3l.81-.13Zm1.27.22-.93-.15V12.69l.93-.16Z"/></svg>