<svg xmlns="http://www.w3.org/2000/svg" xmlns:xlink="http://www.w3.org/1999/xlink" style="enable-background:new 0 0 80 80" x="0" y="0" version="1.1" viewBox="0 0 80 80" xml:space="preserve"><style type="text/css">.st0{fill:#444}.st13{fill:#6e6e6e}.st14,.st15{fill:#fff;stroke:#6e6e6e;stroke-width:3;stroke-miterlimit:10}.st15{fill:none}</style><g id="Layer_1"><polygon points="23.582 64.706 15.033 56.111 22.705 54.698 25.036 57.042" class="st0"/><rect width="12.857" height="5.888" x="18.753" y="51.623" class="st0" transform="matrix(0.7052 0.709 -0.709 0.7052 46.1125 -1.7669)"/><g><path d="M13.077,36.708c-5.075,5.688-8.39,10.844-8.39,10.844l1.884,1.601c0,0,6.043-6.562,10.921-6.665 c1.087-0.023,2.477,0.36,3.8,0.851c0.989-2.79,2.102-5.356,3.326-7.717C20.783,34.32,15.879,33.568,13.077,36.708z" class="st13"/><path d="M38.121,62.222c-0.129,4.878-6.724,10.885-6.724,10.885L32.988,75c0,0,5.174-3.287,10.889-8.331 c2.991-2.639,2.494-7.188,1.342-10.927c-2.377,1.244-4.961,2.309-7.756,3.171C37.86,60.083,38.146,61.27,38.121,62.222z" class="st13"/></g><path d="M20.068,47.084C29.351,15.459,53.424,9.952,73.635,6.886c-2.588,16.597-9.826,46.963-41.074,53.286 L20.068,47.084z" class="st14"/><path d="M47.397,12.985c4.77,7.156,14.311,15.504,19.082,16.696" class="st15"/></g></svg>