<svg xmlns="http://www.w3.org/2000/svg" xmlns:xlink="http://www.w3.org/1999/xlink" style="enable-background:new 0 0 80 80" x="0" y="0" version="1.1" viewBox="0 0 80 80" xml:space="preserve"><style type="text/css">.st0{fill:#444}.st13{fill:#6e6e6e}</style><g id="Layer_1"><ellipse cx="17.18" cy="11.442" class="st13" rx="5.292" ry="6.432"/><ellipse cx="65.549" cy="58.318" class="st13" rx="5.534" ry="6.014"/><path d="M71.244,63.479c-1.36,1.771-3.405,2.899-5.694,2.899c-2.262,0-4.284-1.104-5.645-2.84 c-5.144,1.281-4.587,6.658-4.372,10.895C55.577,75.312,56.24,76,57.051,76h17.3c0.81,0,1.474-0.688,1.518-1.567 C76.087,70.127,76.66,64.644,71.244,63.479z" class="st13"/><ellipse cx="40.719" cy="58.318" class="st13" rx="5.534" ry="6.014"/><path d="M46.413,63.479c-1.36,1.771-3.405,2.899-5.694,2.899c-2.262,0-4.284-1.104-5.645-2.84 c-5.144,1.281-4.587,6.658-4.372,10.895C30.747,75.312,31.41,76,32.22,76h17.3c0.81,0,1.474-0.688,1.518-1.567 C51.257,70.127,51.83,64.644,46.413,63.479z" class="st13"/><path d="M5.107,45.588c1.458,1.874,2.437,3.131,3.011,3.74L8.145,75h5.295c0.648-5.56,2.47-21.15,2.711-22.711 c0.219-1.422,2.422-1.422,2.642,0C19.034,53.85,20.856,69.44,21.504,75h5.357l-0.063-26.814h2.311V28.692l4.278,1.132 c0.322,0.116,0.662,0.159,0.998,0.13c0.263-0.023,0.522-0.09,0.767-0.199l9.826-4.876c1.183-0.532,1.71-1.922,1.174-3.101 c-0.533-1.18-1.925-1.701-3.112-1.17l-8.587,3.525l-8.211-2.415c-0.477-0.144-0.985-0.294-1.517-0.446l-0.024-0.007l-0.002,0 c-2.126-0.606-4.382-1.196-4.382-1.196l-3.087,6.444H17.18l-3.087-6.444c0,0-3.89,0.879-5.948,1.465 c-2.058,0.586-3.304,2.203-3.528,4.54c-0.316,3.287-0.307,10.634-0.579,13.59C3.944,40.683,3.935,44.082,5.107,45.588z" class="st13"/><rect width="33.781" height="2" x="30.29" y="14" class="st0"/><rect width="15.071" height="2" x="49" y="20" class="st0"/><rect width="15.071" height="2" x="49" y="26" class="st0"/><polygon points="49 5.917 49 3 42 3 42 5.917 26 5.917 26 10.58 73 10.58 73 45 34 45 34 48 76 48 76 5.917" class="st0"/></g></svg>