<svg xmlns="http://www.w3.org/2000/svg" xmlns:xlink="http://www.w3.org/1999/xlink" style="enable-background:new 0 0 80 80" x="0" y="0" version="1.1" viewBox="0 0 80 80" xml:space="preserve"><style type="text/css">.st0{fill:#444}.st12{fill:#fff}.st13{fill:#6e6e6e}</style><g id="Layer_1"><g><path d="M40,53.466c-12.376,0-21-4.231-21-8.028V23.394h42v22.044C61,49.234,52.376,53.466,40,53.466z" class="st12"/><g><path d="M59.5,24.894v20.544c0,2.216-6.883,6.528-19.5,6.528s-19.5-4.312-19.5-6.528V24.894H59.5 M62.5,21.894h-45 v23.544c0,5.262,10.074,9.528,22.5,9.528c12.426,0,22.5-4.266,22.5-9.528V21.894L62.5,21.894z" class="st13"/></g></g><g><rect width="2" height="32.815" x="10.875" y="19.976" class="st0"/></g><g><path d="M16.375,56.864c0-2.789-2.538-4.986-5.43-4.407c-2.121,0.425-3.57,2.413-3.57,4.576l0,8.636h9V56.864z" class="st0"/></g><g><polygon points="8.873 20.272 40 10.202 71.127 20.272 40 30.342" class="st12"/><g><path d="M40,11.778l26.254,8.494L40,28.766l-26.254-8.494L40,11.778 M40,8.625L4,20.272l36,11.647l36-11.647 L40,8.625L40,8.625z" class="st13"/></g></g></g></svg>