<svg xmlns="http://www.w3.org/2000/svg" xmlns:svg="http://www.w3.org/2000/svg" xmlns:xlink="http://www.w3.org/1999/xlink" id="svg1546" width="272.947" height="115.328" class="st10" color-interpolation-filters="sRGB" version="1.1" viewBox="0 0 204.71 69.216" xml:space="preserve"><metadata id="metadata1550"/><style id="style1348" type="text/css">.st1{fill:none;stroke:none;stroke-linecap:round;stroke-linejoin:round;stroke-width:.75}.st2{fill:#00b0f0;font-family:Segoe UI;font-size:.833336em}.st3{fill:#008bfd;stroke:none;stroke-linecap:round;stroke-linejoin:round;stroke-width:.75}.st4{fill:#000;font-family:Segoe UI;font-size:.833336em}.st5{font-size:1em}.st6,.st7{stroke:#505050}.st6{marker-end:url(#mrkr5-57);stroke-linecap:round;stroke-linejoin:round;stroke-width:1.5}.st7{fill:#505050;fill-opacity:1;stroke-opacity:1;stroke-width:.37313432835821}.st8,.st9{fill:#008bfd;stroke:gray;stroke-linecap:round;stroke-linejoin:round;stroke-width:.75}.st9{fill:#fff;stroke:none}.st10{fill:none;fill-rule:evenodd;font-size:12px;overflow:visible;stroke-linecap:square;stroke-miterlimit:3}</style><defs id="Markers"><g id="lend5"><path style="stroke:none" id="path1350" d="M 2 1 L 0 0 L 1.98117 -0.993387 C 1.67173 -0.364515 1.67301 0.372641 1.98465 1.00043"/></g><marker id="mrkr5-57" class="st7" markerUnits="strokeWidth" orient="auto" overflow="visible" refX="-4.69"><use id="use1353" transform="scale(-2.68,-2.68)" xlink:href="#lend5"/></marker></defs><g id="g1544"><title id="title1357">Page-1</title><g id="shape1069-1" transform="translate(78.3486,-48.8408)"><title id="title1359">Sheet.1069</title><desc id="desc1361">Authorization code flow</desc><rect id="rect1363" width="80.483" height="20" x="0" y="49.216" class="st1"/><text id="text1365" x="-12.34" y="51" class="st2">Authorization code flow</text><text id="text1365" x="14.34" y="63" class="st2">(with PKCE)</text></g><g id="group1071-4" transform="translate(43.141,-32.0037)"><title id="title1368">Web app (Was Websites).1508</title><desc id="desc1370">Single Page Application</desc><g id="group1072-5"><title id="title1372">Sheet.1072</title><g id="shape1073-6"><title id="title1374">Sheet.1073</title><path id="path1376" d="M22.89 64.83 C20.71 66.54 18.14 67.38 15.6 67.38 C11.99 67.38 8.42 65.71 6.05 62.54 C2.02 57.13 3.02 49.4 8.29 45.25 C10.47 43.54 13.04 42.72 15.58 42.72 C19.2 42.72 22.76 44.38 25.13 47.55 C29.16 52.96 28.16 60.69 22.89 64.83 ZM26.55 46.42 C23.83 42.78 19.73 40.87 15.58 40.87 C12.66 40.87 9.7 41.82 7.19 43.79 C1.15 48.56 0 57.45 4.64 63.66 C7.35 67.31 11.46 69.22 15.6 69.22 C18.53 69.22 21.49 68.27 23.99 66.3 C30.03 61.54 31.18 52.64 26.55 46.42 Z" class="st3"/></g></g><g id="group1074-8" transform="translate(4.95554,-4.39536)"><title id="title1380">Sheet.1074</title><g id="group1075-9" transform="translate(0.341805,-0.176482)"><title id="title1382">Sheet.1075</title><g id="group1076-10" transform="translate(0.437248,3.2685E-13)"><title id="title1384">Sheet.1076</title><g id="shape1077-11"><title id="title1386">Sheet.1077</title><path id="path1388" d="M3.62 62.19 C2.82 61.38 2.18 60.6 1.66 59.84 C0.51 62.26 0.1 64.74 0 66.72 C0.11 66.88 0.11 67.01 0.23 67.17 C0.81 67.92 1.53 68.64 2.23 69.22 C2.13 67.59 2.27 64.94 3.62 62.19 Z" class="st3"/></g></g><g id="shape1078-13" transform="translate(3.29213,-8.97695)"><title id="title1392">Sheet.1078</title><path id="path1394" d="M4.94 61.72 C3.85 62.49 2.74 63.47 1.61 64.7 C0.99 65.37 0.46 66.05 0 66.75 C0.48 67.54 1.11 68.36 1.9 69.22 C2.49 68.35 3.22 67.49 4.1 66.65 C5.21 65.59 6.25 64.73 7.23 64.05 C6.43 63.28 5.65 62.51 4.94 61.72 Z" class="st3"/></g><g id="group1079-15" transform="translate(9.93516,-15.1958)"><title id="title1397">Sheet.1079</title><g id="shape1080-16"><title id="title1399">Sheet.1080</title><path id="path1401" d="M9.77 67.14 C9.25 66.46 8.66 65.86 8.04 65.32 C6.18 65.03 3.3 65.06 0 66.86 C0.76 67.69 1.51 68.48 2.24 69.22 C6.64 66.78 9.77 67.14 9.77 67.14 Z" class="st3"/></g></g><g id="group1081-18" transform="translate(1.10162E-13,-9.38012)"><title id="title1405">Sheet.1081</title><g id="shape1082-19"><title id="title1407">Sheet.1082</title><path id="path1409" d="M2.1 69.22 C2.44 68.53 2.84 67.84 3.29 67.15 C1.4 64.08 1.49 61.55 1.69 60.36 C1.22 60.87 0.78 61.4 0.4 61.96 C0.02 63.57 -0 66.13 2.1 69.22 Z" class="st3"/></g></g><g id="group1083-21" transform="translate(4.05148,-0.740211)"><title id="title1413">Sheet.1083</title><g id="shape1084-22"><title id="title1415">Sheet.1084</title><path id="path1417" d="M3.41 63.11 C2.53 62.39 1.78 61.67 1.14 60.98 C0.68 61.63 0.31 62.28 0 62.93 C0.6 63.55 1.3 64.18 2.09 64.83 C7.01 68.84 11.9 69.22 14.65 69.22 C14.83 69.22 15.69 68.02 16.19 67.27 C14.96 67.53 9.7 68.22 3.41 63.11 Z" class="st3"/></g></g><g id="group1085-24" transform="translate(2.10339,-7.03041)"><title id="title1421">Sheet.1085</title><g id="shape1086-25"><title id="title1423">Sheet.1086</title><path id="path1425" d="M0 66.87 C0.51 67.63 1.15 68.4 1.95 69.22 C2.26 68.57 2.64 67.92 3.09 67.27 C2.3 66.41 1.67 65.59 1.19 64.8 C0.72 65.49 0.33 66.18 0 66.87 Z" class="st3"/></g></g><g id="group1087-27" transform="translate(10.5195,-5.3233)"><title id="title1429">Sheet.1087</title><g id="shape1088-28"><title id="title1431">Sheet.1088</title><path id="path1433" d="M0 60.39 C4.49 64.65 9.8 68.27 11.15 69.22 C11.29 68.86 11.38 68.52 11.48 68.16 C10.03 67.06 6.22 64.01 1.65 59.35 C1.12 59.64 0.57 59.99 0 60.39 Z" class="st3"/></g></g><g id="group1089-30" transform="translate(4.98729,-16.4714)"><title id="title1437">Sheet.1089</title><g id="shape1090-31"><title id="title1439">Sheet.1090</title><path id="path1441" d="M4.95 68.13 C3.85 66.95 2.73 65.69 1.59 64.33 C1.04 64.51 0.51 64.73 0 64.99 C0.84 66.4 1.97 67.83 3.24 69.22 C3.82 68.8 4.38 68.44 4.95 68.13 Z" class="st3"/></g></g><g id="shape1091-33" transform="translate(8.13763,-14.0503)"><title id="title1445">Sheet.1091</title><path id="path1447" d="M1.87 65.67 C1.31 65.98 0.57 66.44 0 66.86 C0.72 67.65 1.45 68.45 2.25 69.22 C2.82 68.81 3.59 68.33 4.12 68.03 C3.38 67.3 2.63 66.51 1.87 65.67 Z" class="st3"/></g><g id="shape1092-35" transform="translate(8.1369,-14.0039)"><title id="title1450">Sheet.1092</title><path id="path1452" d="M1.67 65.52 C1.1 65.83 0.57 66.23 0 66.65 C0.72 67.43 1.74 68.45 2.54 69.22 C3.11 68.81 3.59 68.41 4.12 68.11 C3.38 67.38 2.42 66.36 1.67 65.52 Z" class="st3"/></g></g><g id="group1093-37" transform="translate(14.8617,-6.23662)"><title id="title1456">Sheet.1093</title><g id="shape1094-38"><title id="title1458">Sheet.1094</title><path id="path1460" d="M1.34 64.13 C0.22 65.02 0 66.68 0.86 67.84 C1.74 69.01 3.36 69.22 4.49 68.34 C5.61 67.45 5.83 65.79 4.97 64.62 C4.1 63.47 2.49 63.23 1.34 64.13 Z" class="st3"/></g></g><g id="group1095-40" transform="translate(9.65099,-2.13163E-13)"><title id="title1464">Sheet.1095</title><g id="shape1096-41"><title id="title1466">Sheet.1096</title><path id="path1468" d="M1.24 64.51 C0.2 65.33 -0 66.87 0.79 67.94 C1.6 69.01 3.1 69.22 4.15 68.4 C5.19 67.58 5.39 66.04 4.59 64.97 C3.79 63.89 2.29 63.69 1.24 64.51 Z" class="st3"/></g></g><g id="group1097-43" transform="translate(0,-5.36433)"><title id="title1472">Sheet.1097</title><g id="shape1098-44"><title id="title1474">Sheet.1098</title><path id="path1476" d="M1.89 62.06 C0.3 63.31 -0 65.64 1.21 67.27 C2.44 68.91 4.72 69.22 6.31 67.96 C7.9 66.72 8.2 64.38 6.98 62.73 C5.76 61.12 3.48 60.8 1.89 62.06 Z" class="st3"/></g></g></g><g id="shape1071-46"><text id="text1483" x="-10.15" y="82.22" class="st4" style="fill:#008bfd;fill-opacity:1">Single Page<tspan id="tspan1481" x="-10.82" class="st5" dy="1.2em" style="fill:#008bfd;fill-opacity:1"> </tspan>Application</text></g></g><g id="shape1099-49" transform="translate(170.17,-33.5918)"><title id="title1487">API App.1536</title><desc id="desc1489">API App</desc><path id="path1491" d="M21.59 43.7 L1.09 43.7 C0.49 43.7 0 44.19 0 44.81 L0 61.55 C0 62.16 0.49 62.65 1.09 62.65 L6.37 62.65 C6.79 64 8.06 64.92 9.58 64.92 C11.4 64.92 12.92 63.39 12.92 61.55 C12.92 59.71 11.4 58.18 9.58 58.18 C8.06 58.18 6.79 59.1 6.37 60.45 L2.18 60.45 L2.18 48.49 L20.49 48.49 L20.49 60.45 L17.04 60.45 C16.55 56.77 13.34 53.88 9.58 53.88 C8.31 53.88 7.03 54.25 5.94 54.8 L6.97 56.77 C7.7 56.34 8.67 56.09 9.52 56.09 C12.43 56.09 14.92 58.55 14.92 61.55 C14.92 64.56 12.49 67.01 9.52 67.01 C8.61 67.01 7.76 66.76 6.97 66.33 L5.94 68.3 C7.03 68.91 8.31 69.22 9.58 69.22 C13.34 69.22 16.55 66.33 17.04 62.65 L21.59 62.65 C22.19 62.65 22.68 62.16 22.68 61.55 L22.68 44.81 C22.68 44.26 22.19 43.7 21.59 43.7 Z" class="st3"/><text id="text1493" x="-6.49" y="82.22" class="st4" style="fill:#008bfd;fill-opacity:1">API App</text></g><g id="shape1100-52" transform="translate(73.5133,-39.1757)"><title id="title1496">Arrow (Azure Poster Style).1537</title><path id="path1498" d="M0 62.21 L89.19 62.06" class="st6"/></g><g id="group1101-58" transform="translate(0.375,-37.673)"><title id="title1501">User Permissions.1538</title><g id="group1102-59"><title id="title1503">Sheet.1102</title><g id="group1103-60"><title id="title1505">Sheet.1103</title><g id="group1104-61" transform="translate(3.8518,-6.4617)"><title id="title1507">Sheet.1104</title><g id="shape1105-62"><title id="title1509">Sheet.1105</title><path id="path1511" d="M3.62 59.34 C1.32 59.89 0 62.44 0.66 65 C1.32 67.55 3.62 69.22 5.93 68.66 C8.23 68.11 9.55 65.55 8.89 63 C8.34 60.33 5.93 58.67 3.62 59.34 Z" class="st3"/></g></g><g id="group1106-64"><title id="title1515">Sheet.1106</title><g id="shape1107-65"><title id="title1517">Sheet.1107</title><path id="path1519" d="M12.41 62.89 C11.97 62.89 11.53 63.67 10.87 64 C10.21 64.33 9.55 64.89 7.69 64 C5.82 63.11 5.6 62.33 4.06 62.33 C2.53 62.33 0 65.11 0 69.22 L15.59 69.22 C15.59 69.22 15.37 66.44 14.49 65 C13.39 62.89 12.85 62.89 12.41 62.89 Z" class="st3"/></g></g></g></g><g id="group1108-67" transform="translate(9.0485,-0.85947)"><title id="title1525">Sheet.1108</title><g id="shape1109-68"><title id="title1527">Sheet.1109</title><path id="path1529" d="M4.77 58.81 L0.65 58.81 C0.33 58.81 0 59.14 0 59.46 L0 62.31 C0 62.64 0.33 62.97 0.76 62.97 L1.52 62.97 L1.52 68.12 C1.52 68.78 1.95 69.22 2.49 69.22 C3.03 69.22 3.47 68.78 3.47 68.23 C3.58 68.23 3.68 68.23 3.68 68.23 C3.68 68.23 3.68 67.68 3.68 67.57 C3.68 67.35 4.01 67.24 4.01 67.24 C4.01 67.24 4.01 66.91 4.01 66.91 C3.68 66.81 3.47 66.59 3.47 66.48 L3.47 66.15 C3.58 66.04 3.68 65.93 3.68 65.93 C3.79 65.82 4.01 65.38 4.01 65.38 C4.01 65.38 3.68 64.94 3.68 64.83 C3.58 64.72 3.58 64.5 3.47 64.39 L3.47 64.18 C3.58 63.63 4.23 63.08 4.23 63.08 L4.77 63.08 C5.09 63.08 5.42 62.75 5.42 62.42 L5.42 59.46 C5.42 59.14 5.2 58.81 4.77 58.81 ZM2.38 68.34 C2.38 68.56 2.38 68.67 2.17 68.67 C1.95 68.67 1.95 68.45 1.95 68.34 L1.95 63.52 C1.95 63.3 2.06 63.19 2.17 63.19 C2.38 63.19 2.38 63.41 2.38 63.52 L2.38 68.34 ZM2.71 60.56 C2.38 60.56 2.06 60.23 2.06 59.9 C2.06 59.57 2.38 59.24 2.71 59.24 C3.03 59.24 3.36 59.57 3.36 59.9 C3.36 60.23 3.14 60.56 2.71 60.56 Z" class="st8"/></g><g id="shape1110-70" transform="translate(1.92482,-0.570755)"><title id="title1532">Sheet.1110</title><path id="path1534" d="M0.22 69.22 C0.11 69.22 0 69.1 0 68.99 L0 64 C0 63.89 0.11 63.78 0.22 63.78 C0.33 63.78 0.44 63.89 0.44 64 L0.44 69.1 C0.44 69.22 0.33 69.22 0.22 69.22 Z" class="st9"/></g><g id="shape1111-72" transform="translate(2.05993,-8.66317)"><title id="title1537">Sheet.1111</title><ellipse id="ellipse1539" cx=".659" cy="68.55" class="st9" rx=".659" ry=".666"/></g></g></g></g></svg>