<svg xmlns="http://www.w3.org/2000/svg" xmlns:ev="http://www.w3.org/2001/xml-events" xmlns:xlink="http://www.w3.org/1999/xlink" width="491.5" height="415" class="st16" color-interpolation-filters="sRGB" viewBox="0 0 368.625 311.25" xml:space="preserve"><style type="text/css">.st1,.st2{stroke:none}.st1{fill:#d8d8d8;stroke-linecap:round;stroke-linejoin:round;stroke-width:.75}.st2{fill:#00b0f0;stroke-width:.25}.st3{fill:#000;font-family:Calibri;font-size:.75em}.st4{fill:#0070c0;stroke:none;stroke-width:.25}.st5,.st6{stroke:#4672c4}.st5{marker-end:url(#mrkr5-82);marker-start:url(#mrkr5-80);stroke-linecap:round;stroke-linejoin:round;stroke-width:1}.st6{fill:#4672c4;fill-opacity:1;stroke-opacity:1;stroke-width:.28409090909091}.st7,.st8{fill:#5059c9;stroke:none;stroke-linecap:butt;stroke-width:.75}.st8{fill:#7b83eb}.st9{fill:#000;fill-opacity:.5}.st10,.st11,.st12{stroke-linecap:butt}.st10,.st11,.st12,.st13,.st9{stroke:none;stroke-width:.75}.st9{stroke-linecap:butt}.st10{fill:#000;fill-opacity:.098}.st11{fill:#4b53bc}.st12{fill:#fff}.st13{fill:none;stroke-linecap:round;stroke-linejoin:round}.st14{fill:#000;font-family:Calibri;font-size:.833336em;font-weight:700}.st15{fill:none;stroke:none;stroke-width:.75}.st16{fill:none;fill-rule:evenodd;font-size:12px;overflow:visible;stroke-linecap:square;stroke-miterlimit:3}</style><defs id="Markers"><g id="lend5"><path d="M 2 1 L 0 0 L 1.98117 -0.993387 C 1.67173 -0.364515 1.67301 0.372641 1.98465 1.00043" style="stroke:none"/></g><marker id="mrkr5-80" class="st6" markerUnits="strokeWidth" orient="auto" overflow="visible" refX="5.8"><use transform="scale(3.52)" xlink:href="#lend5"/></marker><marker id="mrkr5-82" class="st6" markerUnits="strokeWidth" orient="auto" overflow="visible" refX="-6.16"><use transform="scale(-3.52,-3.52)" xlink:href="#lend5"/></marker></defs><g><title>Page-20</title><g id="shape1000-1" transform="translate(19.5,-18.375)"><title>Sheet.1000</title><rect width="330.75" height="87.75" x="0" y="223.5" class="st1"/></g><g id="shape1001-3" transform="translate(18.375,-115.125)"><title>Sheet.1001</title><rect width="330.75" height="83.25" x="0" y="228" class="st1"/></g><g id="shape1002-5" transform="translate(18.375,-207.375)"><title>Sheet.1002</title><rect width="330.75" height="85.5" x="0" y="225.75" class="st1"/></g><g id="group1003-7" transform="translate(37.896,-137.702)"><title>User.1974</title><desc>Consumer</desc><g id="group1004-8" transform="translate(6.43969,-10.292)"><title>Sheet.1004</title><g id="shape1005-9"><title>Sheet.1005</title><path d="M5.91 295.26 C2.18 296.18 0 300.3 1.04 304.47 C2.07 308.63 5.93 311.25 9.66 310.33 C13.38 309.4 15.56 305.27 14.53 301.11 C13.49 296.95 9.63 294.33 5.91 295.26 Z" class="st2"/></g></g><g id="group1006-11"><title>Sheet.1006</title><g id="shape1007-12"><title>Sheet.1007</title><path d="M20.38 301.14 C19.67 301.09 18.89 302.43 17.85 302.91 C16.81 303.39 15.69 304.34 12.7 302.91 C9.7 301.47 9.23 300.25 6.67 300.25 C4.15 300.25 0.08 304.74 0 311.25 L25.48 311.25 C25.43 311.25 25.19 306.77 23.79 304.33 C22.01 301.22 21.06 301.18 20.38 301.14 Z" class="st2"/></g></g><g id="shape1003-14"><text x="-6.68" y="323.03" class="st3">Consumer</text></g></g><g id="group1008-16" transform="translate(80.9325,-137.61)"><title>Web App (Was Websites).1979</title><desc>Custom App</desc><g id="group1009-17"><title>Sheet.1009</title><g id="shape1010-18"><title>Sheet.1010</title><path d="M23.51 306.86 C21.28 308.57 18.64 309.41 16.03 309.41 C12.31 309.41 8.65 307.74 6.22 304.57 C2.08 299.15 3.1 291.42 8.52 287.27 C10.76 285.55 13.39 284.73 16.01 284.73 C19.72 284.73 23.39 286.4 25.82 289.57 C29.96 294.98 28.93 302.72 23.51 306.86 ZM27.28 288.44 C24.49 284.79 20.27 282.88 16.01 282.88 C13.01 282.88 9.96 283.83 7.39 285.8 C1.18 290.57 -0 299.47 4.76 305.69 C7.55 309.34 11.77 311.25 16.03 311.25 C19.04 311.25 22.07 310.3 24.64 308.33 C30.86 303.57 32.04 294.66 27.28 288.44 Z" class="st4"/></g></g><g id="group1011-20" transform="translate(5.09156,-4.39894)"><title>Sheet.1011</title><g id="group1012-21" transform="translate(0.351188,-0.176625)"><title>Sheet.1012</title><g id="group1013-22" transform="translate(0.44925,3.41061E-13)"><title>Sheet.1013</title><g id="shape1014-23"><title>Sheet.1014</title><path d="M3.72 304.22 C2.9 303.41 2.24 302.63 1.71 301.87 C0.52 304.29 0.1 306.77 0 308.76 C0.12 308.91 0.12 309.04 0.23 309.2 C0.83 309.95 1.57 310.67 2.29 311.25 C2.18 309.63 2.34 306.97 3.72 304.22 Z" class="st4"/></g></g><g id="shape1015-25" transform="translate(3.3825,-8.98425)"><title>Sheet.1015</title><path d="M5.07 303.75 C3.96 304.52 2.81 305.5 1.66 306.73 C1.02 307.4 0.48 308.09 0 308.78 C0.49 309.58 1.14 310.4 1.95 311.25 C2.56 310.39 3.31 309.53 4.21 308.68 C5.35 307.62 6.42 306.76 7.43 306.08 C6.6 305.31 5.81 304.54 5.07 303.75 Z" class="st4"/></g><g id="group1016-27" transform="translate(10.2079,-15.2081)"><title>Sheet.1016</title><g id="shape1017-28"><title>Sheet.1017</title><path d="M10.04 309.17 C9.5 308.49 8.9 307.89 8.26 307.35 C6.35 307.06 3.39 307.09 0 308.89 C0.78 309.73 1.55 310.51 2.3 311.25 C6.82 308.81 10.04 309.17 10.04 309.17 Z" class="st4"/></g></g><g id="group1018-30" transform="translate(1.1291E-13,-9.38775)"><title>Sheet.1018</title><g id="shape1019-31"><title>Sheet.1019</title><path d="M2.16 311.25 C2.5 310.56 2.91 309.87 3.38 309.18 C1.44 306.11 1.53 303.57 1.74 302.39 C1.26 302.9 0.8 303.42 0.41 303.99 C0.02 305.6 0 308.16 2.16 311.25 Z" class="st4"/></g></g><g id="group1020-33" transform="translate(4.16269,-0.740812)"><title>Sheet.1020</title><g id="shape1021-34"><title>Sheet.1021</title><path d="M3.51 305.14 C2.6 304.42 1.83 303.7 1.17 303 C0.7 303.66 0.32 304.31 0 304.95 C0.62 305.58 1.33 306.21 2.14 306.86 C7.2 310.87 12.23 311.25 15.05 311.25 C15.24 311.25 16.12 310.05 16.63 309.31 C15.37 309.57 9.97 310.25 3.51 305.14 Z" class="st4"/></g></g><g id="group1022-36" transform="translate(2.16112,-7.03612)"><title>Sheet.1022</title><g id="shape1023-37"><title>Sheet.1023</title><path d="M0 308.9 C0.53 309.66 1.18 310.44 2 311.25 C2.32 310.61 2.71 309.95 3.17 309.3 C2.36 308.45 1.72 307.63 1.22 306.83 C0.74 307.52 0.34 308.21 0 308.9 Z" class="st4"/></g></g><g id="group1024-39" transform="translate(10.8082,-5.32762)"><title>Sheet.1024</title><g id="shape1025-40"><title>Sheet.1025</title><path d="M0 302.42 C4.61 306.68 10.07 310.3 11.46 311.25 C11.6 310.9 11.69 310.55 11.79 310.2 C10.3 309.09 6.39 306.04 1.7 301.37 C1.16 301.66 0.59 302.02 0 302.42 Z" class="st4"/></g></g><g id="group1026-42" transform="translate(5.12419,-16.4848)"><title>Sheet.1026</title><g id="shape1027-43"><title>Sheet.1027</title><path d="M5.08 310.16 C3.95 308.98 2.81 307.72 1.63 306.36 C1.07 306.54 0.53 306.76 0 307.02 C0.86 308.44 2.03 309.86 3.33 311.25 C3.93 310.83 4.5 310.47 5.08 310.16 Z" class="st4"/></g></g><g id="shape1028-45" transform="translate(8.361,-14.0617)"><title>Sheet.1028</title><path d="M1.92 307.7 C1.34 308.01 0.59 308.47 0 308.89 C0.74 309.68 1.49 310.49 2.31 311.25 C2.9 310.85 3.69 310.36 4.23 310.06 C3.48 309.33 2.7 308.54 1.92 307.7 Z" class="st4"/></g><g id="shape1029-47" transform="translate(8.36025,-14.0152)"><title>Sheet.1029</title><path d="M1.71 307.55 C1.13 307.86 0.59 308.26 0 308.68 C0.74 309.46 1.79 310.49 2.61 311.25 C3.2 310.85 3.69 310.44 4.23 310.14 C3.48 309.41 2.49 308.39 1.71 307.55 Z" class="st4"/></g></g><g id="group1030-49" transform="translate(15.2696,-6.24169)"><title>Sheet.1030</title><g id="shape1031-50"><title>Sheet.1031</title><path d="M1.38 306.16 C0.23 307.05 0 308.71 0.89 309.87 C1.78 311.04 3.45 311.25 4.61 310.37 C5.77 309.48 5.99 307.82 5.11 306.65 C4.21 305.5 2.55 305.26 1.38 306.16 Z" class="st4"/></g></g><g id="group1032-52" transform="translate(9.9159,-1.7053E-13)"><title>Sheet.1032</title><g id="shape1033-53"><title>Sheet.1033</title><path d="M1.27 306.54 C0.2 307.36 0 308.91 0.81 309.98 C1.64 311.05 3.18 311.25 4.26 310.43 C5.33 309.61 5.53 308.07 4.71 307 C3.89 305.92 2.35 305.72 1.27 306.54 Z" class="st4"/></g></g><g id="group1034-55" transform="translate(0,-5.36869)"><title>Sheet.1034</title><g id="shape1035-56"><title>Sheet.1035</title><path d="M1.94 304.08 C0.31 305.34 0 307.67 1.25 309.3 C2.5 310.94 4.85 311.25 6.48 309.99 C8.11 308.75 8.42 306.41 7.17 304.76 C5.92 303.15 3.57 302.83 1.94 304.08 Z" class="st4"/></g></g></g><g id="shape1008-58"><text x="9.59" y="322.94" class="st3">Custom App</text></g></g><g id="group1036-60" transform="translate(115.367,-135.665)"><title>Mobile App (Was Mobile Services).2008</title><g id="shape1037-61"><title>Sheet.1037</title><path d="M18.5 277.8 L18.5 277.79 L1.5 277.79 L1.51 277.8 C0.02 277.85 0 278.19 0 280 L0 309.06 C0 310.86 0.03 311.2 1.5 311.24 C1.5 311.24 1.94 311.25 2.02 311.25 L17.98 311.25 C18.06 311.25 18.5 311.24 18.5 311.24 C19.98 311.2 20 310.86 20 309.06 L20 280 C20.01 278.19 19.98 277.85 18.5 277.8 ZM7.65 278.93 L12.36 278.93 C12.45 278.93 12.51 279.02 12.51 279.11 C12.52 279.2 12.45 279.29 12.36 279.29 L7.65 279.29 C7.57 279.29 7.49 279.2 7.49 279.11 C7.49 279.02 7.57 278.93 7.65 278.93 ZM7.78 309.52 L6.63 309.52 C6.44 309.52 6.28 309.44 6.28 309.25 C6.28 309.06 6.44 308.99 6.63 308.99 L7.78 308.99 C7.97 308.99 8.12 309.06 8.12 309.25 C8.12 309.44 7.97 309.52 7.78 309.52 ZM10.79 309.71 L9.22 309.71 C8.96 309.71 8.75 309.61 8.75 309.35 C8.75 309.09 8.96 308.99 9.22 308.99 L10.79 308.99 C11.05 308.99 11.26 309.09 11.26 309.35 C11.26 309.61 11.05 309.71 10.79 309.71 ZM13.4 309.51 L12.25 309.51 C12.07 309.51 11.91 309.44 11.91 309.25 C11.91 309.06 12.07 308.99 12.25 308.99 L13.4 308.99 C13.59 308.99 13.74 309.06 13.74 309.25 C13.74 309.44 13.59 309.51 13.4 309.51 ZM18.57 306.13 C18.57 307.66 18.42 307.99 16.99 308.01 L9.25 308.01 L3.02 308.01 C1.59 307.99 1.44 307.66 1.44 306.13 L1.44 281.94 C1.44 280.34 1.6 280.34 3.2 280.34 L9.25 280.34 L16.81 280.34 C18.41 280.34 18.57 280.34 18.57 281.94 L18.57 306.13 Z" class="st4"/></g><g id="shape1038-63" transform="translate(2.415,-4.33275)"><title>Sheet.1038</title><path d="M15.18 287.26 C15.18 285.71 14.98 285.7 13.43 285.7 L1.7 285.71 C0.15 285.71 0 285.71 0 287.26 L0 309.42 C0 310.97 0.16 311.25 1.71 311.25 L13.44 311.25 C14.98 311.25 15.18 310.97 15.18 309.42 L15.18 287.26 ZM7.14 303.63 L2.33 300.85 L2.33 295.28 L7.14 298.06 L7.14 303.63 ZM2.8 294.51 L7.59 291.75 L12.42 294.53 L7.62 297.3 L2.8 294.51 ZM12.85 300.85 L8.04 303.63 L8.04 298.1 L12.85 295.32 L12.85 300.85 Z" class="st4"/></g></g><g id="group1039-65" transform="translate(301.146,-137.519)"><title>User.2014</title><desc>Provider</desc><g id="group1040-66" transform="translate(6.43969,-10.292)"><title>Sheet.1040</title><g id="shape1041-67"><title>Sheet.1041</title><path d="M5.91 295.26 C2.18 296.18 0 300.3 1.04 304.47 C2.07 308.63 5.93 311.25 9.66 310.33 C13.38 309.4 15.56 305.27 14.53 301.11 C13.49 296.95 9.63 294.33 5.91 295.26 Z" class="st4"/></g></g><g id="group1042-69"><title>Sheet.1042</title><g id="shape1043-70"><title>Sheet.1043</title><path d="M20.38 301.14 C19.67 301.09 18.89 302.43 17.85 302.91 C16.81 303.39 15.69 304.34 12.7 302.91 C9.7 301.47 9.23 300.25 6.67 300.25 C4.15 300.25 0.08 304.74 0 311.25 L25.48 311.25 C25.43 311.25 25.19 306.77 23.79 304.33 C22.01 301.22 21.06 301.18 20.38 301.14 Z" class="st4"/></g></g><g id="shape1039-72"><text x="-1.27" y="322.84" class="st3">Provider</text></g></g><g id="shape1044-74" transform="translate(240.101,-143.317)"><title>Dynamic connector.2032</title><path d="M-5.8 302.33 L-6.16 302.33 L-13.5 302.33 L-13.5 302.17 L-97.32 302.17" class="st5"/></g><g id="group1045-83" transform="translate(240.101,-139.5)"><title>Teams.2036</title><g id="group1046-84"><title>Sheet.1046</title><g id="shape1047-85" transform="translate(17.469,-3.2412)"><title>Sheet.1047</title><path d="M6.78 298.84 L1.48 298.84 L0 300.18 L0 306.8 C0 309.26 1.79 311.25 4 311.25 C6.19 311.24 7.97 309.25 7.98 306.8 L7.98 300.18 C7.98 299.44 7.44 298.84 6.78 298.84 Z" class="st7"/></g><g id="shape1048-87" transform="translate(20.3832,-17.0773)"><title>Sheet.1048</title><ellipse cx="2.548" cy="308.405" class="st7" rx="2.548" ry="2.845"/></g><g id="shape1049-89" transform="translate(8.90992,-1.13687E-13)"><title>Sheet.1049</title><path d="M1.14 295.6 L10.32 295.6 C10.95 295.6 11.47 296.17 11.47 296.88 L11.47 304.98 C11.47 308.44 8.95 311.25 5.85 311.25 L5.62 311.25 C2.52 311.25 0 308.44 0 304.98 L0 296.88 C0 296.17 0.51 295.6 1.14 295.6 Z" class="st8"/></g><g id="shape1050-91" transform="translate(11.5848,-17.2104)"><title>Sheet.1050</title><ellipse cx="3.703" cy="307.116" class="st8" rx="3.703" ry="4.134"/></g><g id="shape1051-93" transform="translate(8.91037,-2.85256)"><title>Sheet.1051</title><path d="M7.65 295.6 L7.65 296.57 C5.77 297.39 3.65 296.34 2.92 294.24 C2.91 294.22 2.91 294.2 2.9 294.18 L6.31 294.18 C7.03 294.16 7.63 294.8 7.65 295.6 ZM1.14 298.45 C0.51 298.45 0 299.03 0 299.73 L0 307.83 C0 309.05 0.32 310.23 0.92 311.25 L6.05 311.25 C6.88 311.21 7.55 310.51 7.65 309.6 L7.65 298.45 L1.14 298.45 Z" class="st9"/></g><g id="shape1052-95" transform="translate(8.91037,-2.85256)"><title>Sheet.1052</title><path d="M7.65 295.6 L7.65 296.57 C5.77 297.39 3.65 296.34 2.92 294.24 C2.91 294.22 2.91 294.2 2.9 294.18 L6.31 294.18 C7.03 294.16 7.63 294.8 7.65 295.6 ZM1.14 298.45 C0.51 298.45 0 299.03 0 299.73 L0 307.83 C0 309.05 0.32 310.23 0.92 311.25 L6.05 311.25 C6.88 311.21 7.55 310.51 7.65 309.6 L7.65 298.45 L1.14 298.45 Z" class="st10"/></g><g id="shape1053-97" transform="translate(0,-4.27453)"><title>Sheet.1053</title><path d="M1.27 294.18 L14.01 294.18 C14.72 294.18 15.29 294.82 15.29 295.6 L15.29 309.83 C15.29 310.61 14.72 311.25 14.01 311.25 L1.27 311.25 C0.57 311.25 0 310.61 0 309.83 L0 295.6 C0 294.82 0.57 294.18 1.27 294.18 Z" class="st11"/></g><g id="shape1054-99" transform="translate(3.33456,-7.6534)"><title>Sheet.1054</title><path d="M7.34 302.97 L4.59 302.97 L4.59 311.25 L2.77 311.25 L2.77 302.97 L0 302.97 L0 300.94 L7.34 300.94 L7.34 302.97 Z" class="st12"/></g></g></g><g id="group1055-101" transform="translate(37.1355,-228.295)"><title>User.2073</title><desc>Consumer</desc><g id="group1056-102" transform="translate(6.43969,-10.292)"><title>Sheet.1056</title><g id="shape1057-103"><title>Sheet.1057</title><path d="M5.91 295.26 C2.18 296.18 0 300.3 1.04 304.47 C2.07 308.63 5.93 311.25 9.66 310.33 C13.38 309.4 15.56 305.27 14.53 301.11 C13.49 296.95 9.63 294.33 5.91 295.26 Z" class="st2"/></g></g><g id="group1058-105"><title>Sheet.1058</title><g id="shape1059-106"><title>Sheet.1059</title><path d="M20.38 301.14 C19.67 301.09 18.89 302.43 17.85 302.91 C16.81 303.39 15.69 304.34 12.7 302.91 C9.7 301.47 9.23 300.25 6.67 300.25 C4.15 300.25 0.08 304.74 0 311.25 L25.48 311.25 C25.43 311.25 25.19 306.77 23.79 304.33 C22.01 301.22 21.06 301.18 20.38 301.14 Z" class="st2"/></g></g><g id="shape1055-108"><text x="-5.92" y="321.37" class="st3">Consumer</text></g></g><g id="group1060-110" transform="translate(301.875,-227.625)"><title>User.2109</title><desc>Provider</desc><g id="group1061-111" transform="translate(6.43969,-10.292)"><title>Sheet.1061</title><g id="shape1062-112"><title>Sheet.1062</title><path d="M5.91 295.26 C2.18 296.18 0 300.3 1.04 304.47 C2.07 308.63 5.93 311.25 9.66 310.33 C13.38 309.4 15.56 305.27 14.53 301.11 C13.49 296.95 9.63 294.33 5.91 295.26 Z" class="st4"/></g></g><g id="group1063-114"><title>Sheet.1063</title><g id="shape1064-115"><title>Sheet.1064</title><path d="M20.38 301.14 C19.67 301.09 18.89 302.43 17.85 302.91 C16.81 303.39 15.69 304.34 12.7 302.91 C9.7 301.47 9.23 300.25 6.67 300.25 C4.15 300.25 0.08 304.74 0 311.25 L25.48 311.25 C25.43 311.25 25.19 306.77 23.79 304.33 C22.01 301.22 21.06 301.18 20.38 301.14 Z" class="st4"/></g></g><g id="shape1060-117"><text x="-2" y="320.7" class="st3">Provider</text></g></g><g id="shape1065-119" transform="translate(238.875,-250.125)"><title>Dynamic connector.2114</title><path d="M-5.8 320.2 L-6.16 320.2 L-13.5 320.2 L-13.5 320.3 L-112.36 320.3" class="st5"/></g><g id="group1066-126" transform="translate(238.875,-228.431)"><title>Teams.2115</title><g id="group1067-127"><title>Sheet.1067</title><g id="shape1068-128" transform="translate(17.469,-3.2412)"><title>Sheet.1068</title><path d="M6.78 298.84 L1.48 298.84 L0 300.18 L0 306.8 C0 309.26 1.79 311.25 4 311.25 C6.19 311.24 7.97 309.25 7.98 306.8 L7.98 300.18 C7.98 299.44 7.44 298.84 6.78 298.84 Z" class="st7"/></g><g id="shape1069-130" transform="translate(20.3832,-17.0773)"><title>Sheet.1069</title><ellipse cx="2.548" cy="308.405" class="st7" rx="2.548" ry="2.845"/></g><g id="shape1070-132" transform="translate(8.90992,-1.13687E-13)"><title>Sheet.1070</title><path d="M1.14 295.6 L10.32 295.6 C10.95 295.6 11.47 296.17 11.47 296.88 L11.47 304.98 C11.47 308.44 8.95 311.25 5.85 311.25 L5.62 311.25 C2.52 311.25 0 308.44 0 304.98 L0 296.88 C0 296.17 0.51 295.6 1.14 295.6 Z" class="st8"/></g><g id="shape1071-134" transform="translate(11.5848,-17.2104)"><title>Sheet.1071</title><ellipse cx="3.703" cy="307.116" class="st8" rx="3.703" ry="4.134"/></g><g id="shape1072-136" transform="translate(8.91037,-2.85256)"><title>Sheet.1072</title><path d="M7.65 295.6 L7.65 296.57 C5.77 297.39 3.65 296.34 2.92 294.24 C2.91 294.22 2.91 294.2 2.9 294.18 L6.31 294.18 C7.03 294.16 7.63 294.8 7.65 295.6 ZM1.14 298.45 C0.51 298.45 0 299.03 0 299.73 L0 307.83 C0 309.05 0.32 310.23 0.92 311.25 L6.05 311.25 C6.88 311.21 7.55 310.51 7.65 309.6 L7.65 298.45 L1.14 298.45 Z" class="st9"/></g><g id="shape1073-138" transform="translate(8.91037,-2.85256)"><title>Sheet.1073</title><path d="M7.65 295.6 L7.65 296.57 C5.77 297.39 3.65 296.34 2.92 294.24 C2.91 294.22 2.91 294.2 2.9 294.18 L6.31 294.18 C7.03 294.16 7.63 294.8 7.65 295.6 ZM1.14 298.45 C0.51 298.45 0 299.03 0 299.73 L0 307.83 C0 309.05 0.32 310.23 0.92 311.25 L6.05 311.25 C6.88 311.21 7.55 310.51 7.65 309.6 L7.65 298.45 L1.14 298.45 Z" class="st10"/></g><g id="shape1074-140" transform="translate(0,-4.27453)"><title>Sheet.1074</title><path d="M1.27 294.18 L14.01 294.18 C14.72 294.18 15.29 294.82 15.29 295.6 L15.29 309.83 C15.29 310.61 14.72 311.25 14.01 311.25 L1.27 311.25 C0.57 311.25 0 310.61 0 309.83 L0 295.6 C0 294.82 0.57 294.18 1.27 294.18 Z" class="st11"/></g><g id="shape1075-142" transform="translate(3.33456,-7.6534)"><title>Sheet.1075</title><path d="M7.34 302.97 L4.59 302.97 L4.59 311.25 L2.77 311.25 L2.77 302.97 L0 302.97 L0 300.94 L7.34 300.94 L7.34 302.97 Z" class="st12"/></g></g></g><g id="group1076-144" transform="translate(94.875,-228.34)"><title>Teams.2125</title><g id="group1077-145"><title>Sheet.1077</title><g id="shape1078-146" transform="translate(17.469,-3.2412)"><title>Sheet.1078</title><path d="M6.78 298.84 L1.48 298.84 L0 300.18 L0 306.8 C0 309.26 1.79 311.25 4 311.25 C6.19 311.24 7.97 309.25 7.98 306.8 L7.98 300.18 C7.98 299.44 7.44 298.84 6.78 298.84 Z" class="st7"/></g><g id="shape1079-148" transform="translate(20.3832,-17.0773)"><title>Sheet.1079</title><ellipse cx="2.548" cy="308.405" class="st7" rx="2.548" ry="2.845"/></g><g id="shape1080-150" transform="translate(8.90992,-1.13687E-13)"><title>Sheet.1080</title><path d="M1.14 295.6 L10.32 295.6 C10.95 295.6 11.47 296.17 11.47 296.88 L11.47 304.98 C11.47 308.44 8.95 311.25 5.85 311.25 L5.62 311.25 C2.52 311.25 0 308.44 0 304.98 L0 296.88 C0 296.17 0.51 295.6 1.14 295.6 Z" class="st8"/></g><g id="shape1081-152" transform="translate(11.5848,-17.2104)"><title>Sheet.1081</title><ellipse cx="3.703" cy="307.116" class="st8" rx="3.703" ry="4.134"/></g><g id="shape1082-154" transform="translate(8.91037,-2.85256)"><title>Sheet.1082</title><path d="M7.65 295.6 L7.65 296.57 C5.77 297.39 3.65 296.34 2.92 294.24 C2.91 294.22 2.91 294.2 2.9 294.18 L6.31 294.18 C7.03 294.16 7.63 294.8 7.65 295.6 ZM1.14 298.45 C0.51 298.45 0 299.03 0 299.73 L0 307.83 C0 309.05 0.32 310.23 0.92 311.25 L6.05 311.25 C6.88 311.21 7.55 310.51 7.65 309.6 L7.65 298.45 L1.14 298.45 Z" class="st9"/></g><g id="shape1083-156" transform="translate(8.91037,-2.85256)"><title>Sheet.1083</title><path d="M7.65 295.6 L7.65 296.57 C5.77 297.39 3.65 296.34 2.92 294.24 C2.91 294.22 2.91 294.2 2.9 294.18 L6.31 294.18 C7.03 294.16 7.63 294.8 7.65 295.6 ZM1.14 298.45 C0.51 298.45 0 299.03 0 299.73 L0 307.83 C0 309.05 0.32 310.23 0.92 311.25 L6.05 311.25 C6.88 311.21 7.55 310.51 7.65 309.6 L7.65 298.45 L1.14 298.45 Z" class="st10"/></g><g id="shape1084-158" transform="translate(0,-4.27453)"><title>Sheet.1084</title><path d="M1.27 294.18 L14.01 294.18 C14.72 294.18 15.29 294.82 15.29 295.6 L15.29 309.83 C15.29 310.61 14.72 311.25 14.01 311.25 L1.27 311.25 C0.57 311.25 0 310.61 0 309.83 L0 295.6 C0 294.82 0.57 294.18 1.27 294.18 Z" class="st11"/></g><g id="shape1085-160" transform="translate(3.33456,-7.6534)"><title>Sheet.1085</title><path d="M7.34 302.97 L4.59 302.97 L4.59 311.25 L2.77 311.25 L2.77 302.97 L0 302.97 L0 300.94 L7.34 300.94 L7.34 302.97 Z" class="st12"/></g></g></g><g id="group1086-162" transform="translate(37.896,-44.2671)"><title>User.2135</title><desc>Consumer</desc><g id="group1087-163" transform="translate(6.43969,-10.292)"><title>Sheet.1087</title><g id="shape1088-164"><title>Sheet.1088</title><path d="M5.91 295.26 C2.18 296.18 0 300.3 1.04 304.47 C2.07 308.63 5.93 311.25 9.66 310.33 C13.38 309.4 15.56 305.27 14.53 301.11 C13.49 296.95 9.63 294.33 5.91 295.26 Z" class="st2"/></g></g><g id="group1089-166"><title>Sheet.1089</title><g id="shape1090-167"><title>Sheet.1090</title><path d="M20.38 301.14 C19.67 301.09 18.89 302.43 17.85 302.91 C16.81 303.39 15.69 304.34 12.7 302.91 C9.7 301.47 9.23 300.25 6.67 300.25 C4.15 300.25 0.08 304.74 0 311.25 L25.48 311.25 C25.43 311.25 25.19 306.77 23.79 304.33 C22.01 301.22 21.06 301.18 20.38 301.14 Z" class="st2"/></g></g><g id="shape1086-169"><text x="-4.43" y="328.59" class="st3">Consumer</text></g></g><g id="group1091-171" transform="translate(80.2105,-42.8209)"><title>Web App (Was Websites).2140</title><desc>Custom App</desc><g id="group1092-172"><title>Sheet.1092</title><g id="shape1093-173"><title>Sheet.1093</title><path d="M23.51 306.86 C21.28 308.57 18.64 309.41 16.03 309.41 C12.31 309.41 8.65 307.74 6.22 304.57 C2.08 299.15 3.1 291.42 8.52 287.27 C10.76 285.55 13.39 284.73 16.01 284.73 C19.72 284.73 23.39 286.4 25.82 289.57 C29.96 294.98 28.93 302.72 23.51 306.86 ZM27.28 288.44 C24.49 284.79 20.27 282.88 16.01 282.88 C13.01 282.88 9.96 283.83 7.39 285.8 C1.18 290.57 -0 299.47 4.76 305.69 C7.55 309.34 11.77 311.25 16.03 311.25 C19.04 311.25 22.07 310.3 24.64 308.33 C30.86 303.57 32.04 294.66 27.28 288.44 Z" class="st4"/></g></g><g id="group1094-175" transform="translate(5.09156,-4.39894)"><title>Sheet.1094</title><g id="group1095-176" transform="translate(0.351188,-0.176625)"><title>Sheet.1095</title><g id="group1096-177" transform="translate(0.44925,3.41061E-13)"><title>Sheet.1096</title><g id="shape1097-178"><title>Sheet.1097</title><path d="M3.72 304.22 C2.9 303.41 2.24 302.63 1.71 301.87 C0.52 304.29 0.1 306.77 0 308.76 C0.12 308.91 0.12 309.04 0.23 309.2 C0.83 309.95 1.57 310.67 2.29 311.25 C2.18 309.63 2.34 306.97 3.72 304.22 Z" class="st4"/></g></g><g id="shape1098-180" transform="translate(3.3825,-8.98425)"><title>Sheet.1098</title><path d="M5.07 303.75 C3.96 304.52 2.81 305.5 1.66 306.73 C1.02 307.4 0.48 308.09 0 308.78 C0.49 309.58 1.14 310.4 1.95 311.25 C2.56 310.39 3.31 309.53 4.21 308.68 C5.35 307.62 6.42 306.76 7.43 306.08 C6.6 305.31 5.81 304.54 5.07 303.75 Z" class="st4"/></g><g id="group1099-182" transform="translate(10.2079,-15.2081)"><title>Sheet.1099</title><g id="shape1100-183"><title>Sheet.1100</title><path d="M10.04 309.17 C9.5 308.49 8.9 307.89 8.26 307.35 C6.35 307.06 3.39 307.09 0 308.89 C0.78 309.73 1.55 310.51 2.3 311.25 C6.82 308.81 10.04 309.17 10.04 309.17 Z" class="st4"/></g></g><g id="group1101-185" transform="translate(1.1291E-13,-9.38775)"><title>Sheet.1101</title><g id="shape1102-186"><title>Sheet.1102</title><path d="M2.16 311.25 C2.5 310.56 2.91 309.87 3.38 309.18 C1.44 306.11 1.53 303.57 1.74 302.39 C1.26 302.9 0.8 303.42 0.41 303.99 C0.02 305.6 0 308.16 2.16 311.25 Z" class="st4"/></g></g><g id="group1103-188" transform="translate(4.16269,-0.740812)"><title>Sheet.1103</title><g id="shape1104-189"><title>Sheet.1104</title><path d="M3.51 305.14 C2.6 304.42 1.83 303.7 1.17 303 C0.7 303.66 0.32 304.31 0 304.95 C0.62 305.58 1.33 306.21 2.14 306.86 C7.2 310.87 12.23 311.25 15.05 311.25 C15.24 311.25 16.12 310.05 16.63 309.31 C15.37 309.57 9.97 310.25 3.51 305.14 Z" class="st4"/></g></g><g id="group1105-191" transform="translate(2.16112,-7.03612)"><title>Sheet.1105</title><g id="shape1106-192"><title>Sheet.1106</title><path d="M0 308.9 C0.53 309.66 1.18 310.44 2 311.25 C2.32 310.61 2.71 309.95 3.17 309.3 C2.36 308.45 1.72 307.63 1.22 306.83 C0.74 307.52 0.34 308.21 0 308.9 Z" class="st4"/></g></g><g id="group1107-194" transform="translate(10.8082,-5.32762)"><title>Sheet.1107</title><g id="shape1108-195"><title>Sheet.1108</title><path d="M0 302.42 C4.61 306.68 10.07 310.3 11.46 311.25 C11.6 310.9 11.69 310.55 11.79 310.2 C10.3 309.09 6.39 306.04 1.7 301.37 C1.16 301.66 0.59 302.02 0 302.42 Z" class="st4"/></g></g><g id="group1109-197" transform="translate(5.12419,-16.4848)"><title>Sheet.1109</title><g id="shape1110-198"><title>Sheet.1110</title><path d="M5.08 310.16 C3.95 308.98 2.81 307.72 1.63 306.36 C1.07 306.54 0.53 306.76 0 307.02 C0.86 308.44 2.03 309.86 3.33 311.25 C3.93 310.83 4.5 310.47 5.08 310.16 Z" class="st4"/></g></g><g id="shape1111-200" transform="translate(8.361,-14.0617)"><title>Sheet.1111</title><path d="M1.92 307.7 C1.34 308.01 0.59 308.47 0 308.89 C0.74 309.68 1.49 310.49 2.31 311.25 C2.9 310.85 3.69 310.36 4.23 310.06 C3.48 309.33 2.7 308.54 1.92 307.7 Z" class="st4"/></g><g id="shape1112-202" transform="translate(8.36025,-14.0152)"><title>Sheet.1112</title><path d="M1.71 307.55 C1.13 307.86 0.59 308.26 0 308.68 C0.74 309.46 1.79 310.49 2.61 311.25 C3.2 310.85 3.69 310.44 4.23 310.14 C3.48 309.41 2.49 308.39 1.71 307.55 Z" class="st4"/></g></g><g id="group1113-204" transform="translate(15.2696,-6.24169)"><title>Sheet.1113</title><g id="shape1114-205"><title>Sheet.1114</title><path d="M1.38 306.16 C0.23 307.05 0 308.71 0.89 309.87 C1.78 311.04 3.45 311.25 4.61 310.37 C5.77 309.48 5.99 307.82 5.11 306.65 C4.21 305.5 2.55 305.26 1.38 306.16 Z" class="st4"/></g></g><g id="group1115-207" transform="translate(9.9159,-1.7053E-13)"><title>Sheet.1115</title><g id="shape1116-208"><title>Sheet.1116</title><path d="M1.27 306.54 C0.2 307.36 0 308.91 0.81 309.98 C1.64 311.05 3.18 311.25 4.26 310.43 C5.33 309.61 5.53 308.07 4.71 307 C3.89 305.92 2.35 305.72 1.27 306.54 Z" class="st4"/></g></g><g id="group1117-210" transform="translate(0,-5.36869)"><title>Sheet.1117</title><g id="shape1118-211"><title>Sheet.1118</title><path d="M1.94 304.08 C0.31 305.34 0 307.67 1.25 309.3 C2.5 310.94 4.85 311.25 6.48 309.99 C8.11 308.75 8.42 306.41 7.17 304.76 C5.92 303.15 3.57 302.83 1.94 304.08 Z" class="st4"/></g></g></g><g id="shape1091-213"><text x="5.82" y="327.15" class="st3">Custom App</text></g></g><g id="group1119-215" transform="translate(114.644,-40.875)"><title>Mobile App (Was Mobile Services).2168</title><g id="shape1120-216"><title>Sheet.1120</title><path d="M18.5 277.8 L18.5 277.79 L1.5 277.79 L1.51 277.8 C0.02 277.85 0 278.19 0 280 L0 309.06 C0 310.86 0.03 311.2 1.5 311.24 C1.5 311.24 1.94 311.25 2.02 311.25 L17.98 311.25 C18.06 311.25 18.5 311.24 18.5 311.24 C19.98 311.2 20 310.86 20 309.06 L20 280 C20.01 278.19 19.98 277.85 18.5 277.8 ZM7.65 278.93 L12.36 278.93 C12.45 278.93 12.51 279.02 12.51 279.11 C12.52 279.2 12.45 279.29 12.36 279.29 L7.65 279.29 C7.57 279.29 7.49 279.2 7.49 279.11 C7.49 279.02 7.57 278.93 7.65 278.93 ZM7.78 309.52 L6.63 309.52 C6.44 309.52 6.28 309.44 6.28 309.25 C6.28 309.06 6.44 308.99 6.63 308.99 L7.78 308.99 C7.97 308.99 8.12 309.06 8.12 309.25 C8.12 309.44 7.97 309.52 7.78 309.52 ZM10.79 309.71 L9.22 309.71 C8.96 309.71 8.75 309.61 8.75 309.35 C8.75 309.09 8.96 308.99 9.22 308.99 L10.79 308.99 C11.05 308.99 11.26 309.09 11.26 309.35 C11.26 309.61 11.05 309.71 10.79 309.71 ZM13.4 309.51 L12.25 309.51 C12.07 309.51 11.91 309.44 11.91 309.25 C11.91 309.06 12.07 308.99 12.25 308.99 L13.4 308.99 C13.59 308.99 13.74 309.06 13.74 309.25 C13.74 309.44 13.59 309.51 13.4 309.51 ZM18.57 306.13 C18.57 307.66 18.42 307.99 16.99 308.01 L9.25 308.01 L3.02 308.01 C1.59 307.99 1.44 307.66 1.44 306.13 L1.44 281.94 C1.44 280.34 1.6 280.34 3.2 280.34 L9.25 280.34 L16.81 280.34 C18.41 280.34 18.57 280.34 18.57 281.94 L18.57 306.13 Z" class="st4"/></g><g id="shape1121-218" transform="translate(2.415,-4.33275)"><title>Sheet.1121</title><path d="M15.18 287.26 C15.18 285.71 14.98 285.7 13.43 285.7 L1.7 285.71 C0.15 285.71 0 285.71 0 287.26 L0 309.42 C0 310.97 0.16 311.25 1.71 311.25 L13.44 311.25 C14.98 311.25 15.18 310.97 15.18 309.42 L15.18 287.26 ZM7.14 303.63 L2.33 300.85 L2.33 295.28 L7.14 298.06 L7.14 303.63 ZM2.8 294.51 L7.59 291.75 L12.42 294.53 L7.62 297.3 L2.8 294.51 ZM12.85 300.85 L8.04 303.63 L8.04 298.1 L12.85 295.32 L12.85 300.85 Z" class="st4"/></g></g><g id="group1122-220" transform="translate(301.875,-45.1622)"><title>User.2171</title><desc>Provider</desc><g id="group1123-221" transform="translate(6.43969,-10.292)"><title>Sheet.1123</title><g id="shape1124-222"><title>Sheet.1124</title><path d="M5.91 295.26 C2.18 296.18 0 300.3 1.04 304.47 C2.07 308.63 5.93 311.25 9.66 310.33 C13.38 309.4 15.56 305.27 14.53 301.11 C13.49 296.95 9.63 294.33 5.91 295.26 Z" class="st4"/></g></g><g id="group1125-224"><title>Sheet.1125</title><g id="shape1126-225"><title>Sheet.1126</title><path d="M20.38 301.14 C19.67 301.09 18.89 302.43 17.85 302.91 C16.81 303.39 15.69 304.34 12.7 302.91 C9.7 301.47 9.23 300.25 6.67 300.25 C4.15 300.25 0.08 304.74 0 311.25 L25.48 311.25 C25.43 311.25 25.19 306.77 23.79 304.33 C22.01 301.22 21.06 301.18 20.38 301.14 Z" class="st4"/></g></g><g id="shape1122-227"><text x="-2" y="329.49" class="st3">Provider</text></g></g><g id="group1127-229" transform="translate(227.625,-43.125)"><title>Web App (Was Websites).2218</title><desc>Custom App</desc><g id="group1128-230"><title>Sheet.1128</title><g id="shape1129-231"><title>Sheet.1129</title><path d="M23.51 306.86 C21.28 308.57 18.64 309.41 16.03 309.41 C12.31 309.41 8.65 307.74 6.22 304.57 C2.08 299.15 3.1 291.42 8.52 287.27 C10.76 285.55 13.39 284.73 16.01 284.73 C19.72 284.73 23.39 286.4 25.82 289.57 C29.96 294.98 28.93 302.72 23.51 306.86 ZM27.28 288.44 C24.49 284.79 20.27 282.88 16.01 282.88 C13.01 282.88 9.96 283.83 7.39 285.8 C1.18 290.57 -0 299.47 4.76 305.69 C7.55 309.34 11.77 311.25 16.03 311.25 C19.04 311.25 22.07 310.3 24.64 308.33 C30.86 303.57 32.04 294.66 27.28 288.44 Z" class="st4"/></g></g><g id="group1130-233" transform="translate(5.09156,-4.39894)"><title>Sheet.1130</title><g id="group1131-234" transform="translate(0.351188,-0.176625)"><title>Sheet.1131</title><g id="group1132-235" transform="translate(0.44925,3.41061E-13)"><title>Sheet.1132</title><g id="shape1133-236"><title>Sheet.1133</title><path d="M3.72 304.22 C2.9 303.41 2.24 302.63 1.71 301.87 C0.52 304.29 0.1 306.77 0 308.76 C0.12 308.91 0.12 309.04 0.23 309.2 C0.83 309.95 1.57 310.67 2.29 311.25 C2.18 309.63 2.34 306.97 3.72 304.22 Z" class="st4"/></g></g><g id="shape1134-238" transform="translate(3.3825,-8.98425)"><title>Sheet.1134</title><path d="M5.07 303.75 C3.96 304.52 2.81 305.5 1.66 306.73 C1.02 307.4 0.48 308.09 0 308.78 C0.49 309.58 1.14 310.4 1.95 311.25 C2.56 310.39 3.31 309.53 4.21 308.68 C5.35 307.62 6.42 306.76 7.43 306.08 C6.6 305.31 5.81 304.54 5.07 303.75 Z" class="st4"/></g><g id="group1135-240" transform="translate(10.2079,-15.2081)"><title>Sheet.1135</title><g id="shape1136-241"><title>Sheet.1136</title><path d="M10.04 309.17 C9.5 308.49 8.9 307.89 8.26 307.35 C6.35 307.06 3.39 307.09 0 308.89 C0.78 309.73 1.55 310.51 2.3 311.25 C6.82 308.81 10.04 309.17 10.04 309.17 Z" class="st4"/></g></g><g id="group1137-243" transform="translate(1.1291E-13,-9.38775)"><title>Sheet.1137</title><g id="shape1138-244"><title>Sheet.1138</title><path d="M2.16 311.25 C2.5 310.56 2.91 309.87 3.38 309.18 C1.44 306.11 1.53 303.57 1.74 302.39 C1.26 302.9 0.8 303.42 0.41 303.99 C0.02 305.6 0 308.16 2.16 311.25 Z" class="st4"/></g></g><g id="group1139-246" transform="translate(4.16269,-0.740812)"><title>Sheet.1139</title><g id="shape1140-247"><title>Sheet.1140</title><path d="M3.51 305.14 C2.6 304.42 1.83 303.7 1.17 303 C0.7 303.66 0.32 304.31 0 304.95 C0.62 305.58 1.33 306.21 2.14 306.86 C7.2 310.87 12.23 311.25 15.05 311.25 C15.24 311.25 16.12 310.05 16.63 309.31 C15.37 309.57 9.97 310.25 3.51 305.14 Z" class="st4"/></g></g><g id="group1141-249" transform="translate(2.16112,-7.03612)"><title>Sheet.1141</title><g id="shape1142-250"><title>Sheet.1142</title><path d="M0 308.9 C0.53 309.66 1.18 310.44 2 311.25 C2.32 310.61 2.71 309.95 3.17 309.3 C2.36 308.45 1.72 307.63 1.22 306.83 C0.74 307.52 0.34 308.21 0 308.9 Z" class="st4"/></g></g><g id="group1143-252" transform="translate(10.8082,-5.32762)"><title>Sheet.1143</title><g id="shape1144-253"><title>Sheet.1144</title><path d="M0 302.42 C4.61 306.68 10.07 310.3 11.46 311.25 C11.6 310.9 11.69 310.55 11.79 310.2 C10.3 309.09 6.39 306.04 1.7 301.37 C1.16 301.66 0.59 302.02 0 302.42 Z" class="st4"/></g></g><g id="group1145-255" transform="translate(5.12419,-16.4848)"><title>Sheet.1145</title><g id="shape1146-256"><title>Sheet.1146</title><path d="M5.08 310.16 C3.95 308.98 2.81 307.72 1.63 306.36 C1.07 306.54 0.53 306.76 0 307.02 C0.86 308.44 2.03 309.86 3.33 311.25 C3.93 310.83 4.5 310.47 5.08 310.16 Z" class="st4"/></g></g><g id="shape1147-258" transform="translate(8.361,-14.0617)"><title>Sheet.1147</title><path d="M1.92 307.7 C1.34 308.01 0.59 308.47 0 308.89 C0.74 309.68 1.49 310.49 2.31 311.25 C2.9 310.85 3.69 310.36 4.23 310.06 C3.48 309.33 2.7 308.54 1.92 307.7 Z" class="st4"/></g><g id="shape1148-260" transform="translate(8.36025,-14.0152)"><title>Sheet.1148</title><path d="M1.71 307.55 C1.13 307.86 0.59 308.26 0 308.68 C0.74 309.46 1.79 310.49 2.61 311.25 C3.2 310.85 3.69 310.44 4.23 310.14 C3.48 309.41 2.49 308.39 1.71 307.55 Z" class="st4"/></g></g><g id="group1149-262" transform="translate(15.2696,-6.24169)"><title>Sheet.1149</title><g id="shape1150-263"><title>Sheet.1150</title><path d="M1.38 306.16 C0.23 307.05 0 308.71 0.89 309.87 C1.78 311.04 3.45 311.25 4.61 310.37 C5.77 309.48 5.99 307.82 5.11 306.65 C4.21 305.5 2.55 305.26 1.38 306.16 Z" class="st4"/></g></g><g id="group1151-265" transform="translate(9.9159,-1.7053E-13)"><title>Sheet.1151</title><g id="shape1152-266"><title>Sheet.1152</title><path d="M1.27 306.54 C0.2 307.36 0 308.91 0.81 309.98 C1.64 311.05 3.18 311.25 4.26 310.43 C5.33 309.61 5.53 308.07 4.71 307 C3.89 305.92 2.35 305.72 1.27 306.54 Z" class="st4"/></g></g><g id="group1153-268" transform="translate(0,-5.36869)"><title>Sheet.1153</title><g id="shape1154-269"><title>Sheet.1154</title><path d="M1.94 304.08 C0.31 305.34 0 307.67 1.25 309.3 C2.5 310.94 4.85 311.25 6.48 309.99 C8.11 308.75 8.42 306.41 7.17 304.76 C5.92 303.15 3.57 302.83 1.94 304.08 Z" class="st4"/></g></g></g><g id="shape1127-271"><text x="6.9" y="327.45" class="st3">Custom App</text></g></g><g id="group1155-273" transform="translate(262.059,-40.875)"><title>Mobile App (Was Mobile Services).2246</title><g id="shape1156-274"><title>Sheet.1156</title><path d="M18.5 277.8 L18.5 277.79 L1.5 277.79 L1.51 277.8 C0.02 277.85 0 278.19 0 280 L0 309.06 C0 310.86 0.03 311.2 1.5 311.24 C1.5 311.24 1.94 311.25 2.02 311.25 L17.98 311.25 C18.06 311.25 18.5 311.24 18.5 311.24 C19.98 311.2 20 310.86 20 309.06 L20 280 C20.01 278.19 19.98 277.85 18.5 277.8 ZM7.65 278.93 L12.36 278.93 C12.45 278.93 12.51 279.02 12.51 279.11 C12.52 279.2 12.45 279.29 12.36 279.29 L7.65 279.29 C7.57 279.29 7.49 279.2 7.49 279.11 C7.49 279.02 7.57 278.93 7.65 278.93 ZM7.78 309.52 L6.63 309.52 C6.44 309.52 6.28 309.44 6.28 309.25 C6.28 309.06 6.44 308.99 6.63 308.99 L7.78 308.99 C7.97 308.99 8.12 309.06 8.12 309.25 C8.12 309.44 7.97 309.52 7.78 309.52 ZM10.79 309.71 L9.22 309.71 C8.96 309.71 8.75 309.61 8.75 309.35 C8.75 309.09 8.96 308.99 9.22 308.99 L10.79 308.99 C11.05 308.99 11.26 309.09 11.26 309.35 C11.26 309.61 11.05 309.71 10.79 309.71 ZM13.4 309.51 L12.25 309.51 C12.07 309.51 11.91 309.44 11.91 309.25 C11.91 309.06 12.07 308.99 12.25 308.99 L13.4 308.99 C13.59 308.99 13.74 309.06 13.74 309.25 C13.74 309.44 13.59 309.51 13.4 309.51 ZM18.57 306.13 C18.57 307.66 18.42 307.99 16.99 308.01 L9.25 308.01 L3.02 308.01 C1.59 307.99 1.44 307.66 1.44 306.13 L1.44 281.94 C1.44 280.34 1.6 280.34 3.2 280.34 L9.25 280.34 L16.81 280.34 C18.41 280.34 18.57 280.34 18.57 281.94 L18.57 306.13 Z" class="st4"/></g><g id="shape1157-276" transform="translate(2.415,-4.33275)"><title>Sheet.1157</title><path d="M15.18 287.26 C15.18 285.71 14.98 285.7 13.43 285.7 L1.7 285.71 C0.15 285.71 0 285.71 0 287.26 L0 309.42 C0 310.97 0.16 311.25 1.71 311.25 L13.44 311.25 C14.98 311.25 15.18 310.97 15.18 309.42 L15.18 287.26 ZM7.14 303.63 L2.33 300.85 L2.33 295.28 L7.14 298.06 L7.14 303.63 ZM2.8 294.51 L7.59 291.75 L12.42 294.53 L7.62 297.3 L2.8 294.51 ZM12.85 300.85 L8.04 303.63 L8.04 298.1 L12.85 295.32 L12.85 300.85 Z" class="st4"/></g></g><g id="shape1158-278" transform="translate(227.894,-48.4575)"><title>Dynamic connector.2249</title><path d="M-5.8 302.4 L-6.16 302.4 L-13.77 302.4 L-13.77 302.1 L-85.83 302.1" class="st5"/></g><g id="shape1159-285" transform="translate(27.5119,-266.125)"><title>Sheet.1159</title><desc>Microsoft Teams</desc><rect width="152" height="20" x="0" y="291.25" class="st13"/><text x="4" y="304.25" class="st14">Microsoft Teams</text></g><g id="shape1160-288" transform="translate(28.375,-172.625)"><title>Sheet.1160</title><desc>Extend Microsoft Teams</desc><rect width="152" height="20" x="0" y="291.25" class="st13"/><text x="4" y="304.25" class="st14">Extend Microsoft Teams</text></g><g id="shape1161-291" transform="translate(28.375,-79.375)"><title>Sheet.1161</title><desc>Custom Azure solution</desc><rect width="152" height="20" x="0" y="291.25" class="st13"/><text x="4" y="304.25" class="st14">Custom Azure solution</text></g><g id="shape1162-294" transform="translate(238.875,-119.625)"><title>Sheet.1162</title><desc>Teams</desc><rect width="35" height="20" x="0" y="291.25" class="st15"/><text x="5.56" y="303.95" class="st3">Teams</text></g><g id="shape1163-297" transform="translate(238.875,-211.875)"><title>Sheet.1163</title><desc>Teams</desc><rect width="35" height="20" x="0" y="291.25" class="st15"/><text x="5.56" y="303.95" class="st3">Teams</text></g><g id="shape1164-300" transform="translate(91.375,-211.875)"><title>Sheet.1164</title><desc>Teams</desc><rect width="35" height="20" x="0" y="291.25" class="st15"/><text x="5.56" y="303.95" class="st3">Teams</text></g></g></svg>