<?xml-stylesheet href="https://cdnjs.cloudflare.com/ajax/libs/font-awesome/6.6.0/css/all.min.css" type="text/css"?><svg xmlns="http://www.w3.org/2000/svg" xmlns:xlink="http://www.w3.org/1999/xlink" id="graph-div" width="100%" height="100%" aria-roledescription="flowchart-v2" class="flowchart" role="graphics-document document" viewBox="0 0 1664.448 293" style="max-width:100%"><style>#graph-div{font-family:&quot;trebuchet ms&quot;,verdana,arial,sans-serif;font-size:16px;fill:#333}#graph-div .edge-thickness-normal{stroke-width:1px}#graph-div .edge-pattern-solid{stroke-dasharray:0}#graph-div .edge-pattern-dotted{stroke-dasharray:2}#graph-div .marker{fill:#333;stroke:#333}#graph-div .marker.cross{stroke:#333}#graph-div .label,#graph-div svg{font-family:&quot;trebuchet ms&quot;,verdana,arial,sans-serif}#graph-div svg{font-size:16px}#graph-div p{margin:0}#graph-div .cluster span,#graph-div .cluster-label span,#graph-div .label{color:#333}#graph-div .cluster-label span p{background-color:transparent}#graph-div span{fill:#333;color:#333}#graph-div .node circle,#graph-div .node path,#graph-div .node rect{fill:#ececff;stroke:#9370db;stroke-width:1px}#graph-div .flowchart-link{stroke:#333;fill:none}#graph-div .edgeLabel,#graph-div .node .label{text-align:center}#graph-div .edgeLabel,#graph-div .edgeLabel p,#graph-div .edgeLabel rect{background-color:rgba(232,232,232,.8)}#graph-div .edgeLabel rect{opacity:.5;fill:rgba(232,232,232,.8)}#graph-div .labelBkg{background-color:rgba(232,232,232,.5)}#graph-div .cluster rect{fill:#ffffde;stroke:#aa3;stroke-width:1px}#graph-div :root{--mermaid-font-family:&quot;trebuchet ms&quot;,verdana,arial,sans-serif}</style><g><marker id="graph-div_flowchart-v2-pointEnd" class="marker flowchart-v2" markerHeight="8" markerUnits="userSpaceOnUse" markerWidth="8" orient="auto" refX="5" refY="5" viewBox="0 0 10 10"><path d="M 0 0 L 10 5 L 0 10 z" class="arrowMarkerPath" style="stroke-width:1;stroke-dasharray:1,0"/></marker><marker id="graph-div_flowchart-v2-pointStart" class="marker flowchart-v2" markerHeight="8" markerUnits="userSpaceOnUse" markerWidth="8" orient="auto" refX="4.5" refY="5" viewBox="0 0 10 10"><path d="M 0 5 L 10 10 L 10 0 z" class="arrowMarkerPath" style="stroke-width:1;stroke-dasharray:1,0"/></marker><marker id="graph-div_flowchart-v2-circleEnd" class="marker flowchart-v2" markerHeight="11" markerUnits="userSpaceOnUse" markerWidth="11" orient="auto" refX="11" refY="5" viewBox="0 0 10 10"><circle cx="5" cy="5" r="5" class="arrowMarkerPath" style="stroke-width:1;stroke-dasharray:1,0"/></marker><marker id="graph-div_flowchart-v2-circleStart" class="marker flowchart-v2" markerHeight="11" markerUnits="userSpaceOnUse" markerWidth="11" orient="auto" refX="-1" refY="5" viewBox="0 0 10 10"><circle cx="5" cy="5" r="5" class="arrowMarkerPath" style="stroke-width:1;stroke-dasharray:1,0"/></marker><marker id="graph-div_flowchart-v2-crossEnd" class="marker cross flowchart-v2" markerHeight="11" markerUnits="userSpaceOnUse" markerWidth="11" orient="auto" refX="12" refY="5.2" viewBox="0 0 11 11"><path d="M 1,1 l 9,9 M 10,1 l -9,9" class="arrowMarkerPath" style="stroke-width:2;stroke-dasharray:1,0"/></marker><marker id="graph-div_flowchart-v2-crossStart" class="marker cross flowchart-v2" markerHeight="11" markerUnits="userSpaceOnUse" markerWidth="11" orient="auto" refX="-1" refY="5.2" viewBox="0 0 11 11"><path d="M 1,1 l 9,9 M 10,1 l -9,9" class="arrowMarkerPath" style="stroke-width:2;stroke-dasharray:1,0"/></marker><g class="root"><g class="clusters"><g id="subGraph1" class="cluster" data-look="classic"><rect width="729.948" height="265" x="926.5" y="20"/><g class="cluster-label" transform="translate(1212.2708320617676, 20)"><foreignObject width="158.406" height="24"><div xmlns="http://www.w3.org/1999/xhtml" style="display:table-cell;white-space:nowrap;line-height:1.5;max-width:200px;text-align:center"><span class="nodeLabel"><p>Fabrikam (client-side)</p></span></div></foreignObject></g></g><g id="subGraph0" class="cluster" data-look="classic"><rect width="826.708" height="255" x="8" y="8"/><g class="cluster-label" transform="translate(345.24478912353516, 8)"><foreignObject width="152.219" height="24"><div xmlns="http://www.w3.org/1999/xhtml" style="display:table-cell;white-space:nowrap;line-height:1.5;max-width:200px;text-align:center"><span class="nodeLabel"><p>Contoso (server-side)</p></span></div></foreignObject></g></g></g><g class="edgePaths"><path id="L_A_B_0" marker-end="url(#graph-div_flowchart-v2-pointEnd)" d="M161.784,132L174.107,123.667C186.429,115.333,211.074,98.667,226.896,90.333C242.719,82,249.719,82,253.219,82L256.719,82" class="edge-thickness-normal edge-pattern-solid flowchart-link"/><path id="L_B_C_1" marker-end="url(#graph-div_flowchart-v2-pointEnd)" d="M499.708,82L503.875,82C508.042,82,516.375,82,524.042,82C531.708,82,538.708,82,542.208,82L545.708,82" class="edge-thickness-normal edge-pattern-solid flowchart-link"/><path id="L_D_E_2" marker-end="url(#graph-div_flowchart-v2-pointEnd)" d="M1138.594,82L1142.76,82C1146.927,82,1155.26,82,1162.927,82C1170.594,82,1177.594,82,1181.094,82L1184.594,82" class="edge-thickness-normal edge-pattern-solid flowchart-link"/><path id="L_E_F_3" marker-end="url(#graph-div_flowchart-v2-pointEnd)" d="M1436.948,82L1441.115,82C1445.281,82,1453.615,82,1461.539,83.43C1469.463,84.859,1476.978,87.718,1480.736,89.148L1484.493,90.578" class="edge-thickness-normal edge-pattern-solid flowchart-link"/><path id="L_E_G_4" marker-end="url(#graph-div_flowchart-v2-pointEnd)" d="M1353.455,109L1371.538,121C1389.62,133,1425.784,157,1449.043,171.236C1472.301,185.471,1482.655,189.943,1487.831,192.178L1493.008,194.414" class="edge-thickness-normal edge-pattern-solid flowchart-link"/><path id="L_C_D_5" marker-end="url(#graph-div_flowchart-v2-pointEnd)" d="M809.708,82L813.875,82C818.042,82,826.375,82,838.191,82C850.007,82,865.306,82,880.604,82C895.903,82,911.201,82,922.351,82C933.5,82,940.5,82,944,82L947.5,82" class="edge-thickness-normal edge-pattern-dotted edge-pattern-solid flowchart-link"/><path id="L_F_A_6" marker-end="url(#graph-div_flowchart-v2-pointEnd)" d="M1493.554,146L1488.286,148.167C1483.019,150.333,1472.483,154.667,1442.353,156.833C1412.222,159,1362.497,159,1312.771,159C1263.045,159,1213.319,159,1168.699,159C1124.078,159,1084.562,159,1045.047,159C1005.531,159,966.016,159,938.609,159C911.201,159,895.903,159,880.604,159C865.306,159,850.007,159,816.524,159C783.042,159,731.375,159,679.708,159C628.042,159,576.375,159,526.459,159C476.543,159,428.378,159,380.214,159C332.049,159,283.884,159,256.301,159C228.719,159,221.719,159,218.219,159L214.719,159" class="edge-thickness-normal edge-pattern-dotted edge-pattern-solid flowchart-link"/><path id="L_G_A_7" marker-end="url(#graph-div_flowchart-v2-pointEnd)" d="M1486.948,230.429L1482.781,230.858C1478.615,231.286,1470.281,232.143,1441.252,232.572C1412.222,233,1362.497,233,1312.771,233C1263.045,233,1213.319,233,1168.699,233C1124.078,233,1084.562,233,1045.047,233C1005.531,233,966.016,233,938.609,233C911.201,233,895.903,233,880.604,233C865.306,233,850.007,233,816.524,233C783.042,233,731.375,233,679.708,233C628.042,233,576.375,233,526.459,233C476.543,233,428.378,233,380.214,233C332.049,233,283.884,233,248.308,225.53C212.731,218.06,189.744,203.12,178.25,195.65L166.757,188.18" class="edge-thickness-normal edge-pattern-dotted edge-pattern-solid flowchart-link"/></g><g class="edgeLabels"><g class="edgeLabel"><g class="label" transform="translate(0, 0)"><foreignObject width="0" height="0"><div xmlns="http://www.w3.org/1999/xhtml" class="labelBkg" style="display:table-cell;white-space:nowrap;line-height:1.5;max-width:200px;text-align:center"><span class="edgeLabel"/></div></foreignObject></g></g><g class="edgeLabel"><g class="label" transform="translate(0, 0)"><foreignObject width="0" height="0"><div xmlns="http://www.w3.org/1999/xhtml" class="labelBkg" style="display:table-cell;white-space:nowrap;line-height:1.5;max-width:200px;text-align:center"><span class="edgeLabel"/></div></foreignObject></g></g><g class="edgeLabel"><g class="label" transform="translate(0, 0)"><foreignObject width="0" height="0"><div xmlns="http://www.w3.org/1999/xhtml" class="labelBkg" style="display:table-cell;white-space:nowrap;line-height:1.5;max-width:200px;text-align:center"><span class="edgeLabel"/></div></foreignObject></g></g><g class="edgeLabel"><g class="label" transform="translate(0, 0)"><foreignObject width="0" height="0"><div xmlns="http://www.w3.org/1999/xhtml" class="labelBkg" style="display:table-cell;white-space:nowrap;line-height:1.5;max-width:200px;text-align:center"><span class="edgeLabel"/></div></foreignObject></g></g><g class="edgeLabel"><g class="label" transform="translate(0, 0)"><foreignObject width="0" height="0"><div xmlns="http://www.w3.org/1999/xhtml" class="labelBkg" style="display:table-cell;white-space:nowrap;line-height:1.5;max-width:200px;text-align:center"><span class="edgeLabel"/></div></foreignObject></g></g><g class="edgeLabel"><g class="label" transform="translate(880.6041622161865, 82) translate(-20.89583396911621, -12)"><foreignObject width="41.792" height="24"><div xmlns="http://www.w3.org/1999/xhtml" class="labelBkg" style="display:table-cell;white-space:nowrap;line-height:1.5;max-width:200px;text-align:center"><span class="edgeLabel"><p>Trusts</p></span></div></foreignObject></g></g><g class="edgeLabel"><g class="label" transform="translate(880.6041622161865, 159) translate(-20.89583396911621, -12)"><foreignObject width="41.792" height="24"><div xmlns="http://www.w3.org/1999/xhtml" class="labelBkg" style="display:table-cell;white-space:nowrap;line-height:1.5;max-width:200px;text-align:center"><span class="edgeLabel"><p>Trusts</p></span></div></foreignObject></g></g><g class="edgeLabel"><g class="label" transform="translate(880.6041622161865, 233) translate(-20.89583396911621, -12)"><foreignObject width="41.792" height="24"><div xmlns="http://www.w3.org/1999/xhtml" class="labelBkg" style="display:table-cell;white-space:nowrap;line-height:1.5;max-width:200px;text-align:center"><span class="edgeLabel"><p>Trusts</p></span></div></foreignObject></g></g></g><g class="nodes"><g id="flowchart-A-23" class="node default" transform="translate(121.859375, 159)"><rect width="177.719" height="54" x="-88.859" y="-27" class="basic label-container"/><g class="label" transform="translate(-58.859375, -12)"><rect/><foreignObject width="117.719" height="24"><div xmlns="http://www.w3.org/1999/xhtml" style="display:table-cell;white-space:nowrap;line-height:1.5;max-width:200px;text-align:center"><span class="nodeLabel"><p>Contoso Root CA</p></span></div></foreignObject></g></g><g id="flowchart-B-24" class="node default" transform="translate(380.21353912353516, 82)"><rect width="238.99" height="54" x="-119.495" y="-27" class="basic label-container"/><g class="label" transform="translate(-89.49479675292969, -12)"><rect/><foreignObject width="178.99" height="24"><div xmlns="http://www.w3.org/1999/xhtml" style="display:table-cell;white-space:nowrap;line-height:1.5;max-width:200px;text-align:center"><span class="nodeLabel"><p>Contoso Intermediate CA</p></span></div></foreignObject></g></g><g id="flowchart-C-25" class="node default" transform="translate(679.7083282470703, 82)"><rect width="260" height="78" x="-130" y="-39" class="basic label-container"/><g class="label" transform="translate(-100, -24)"><rect/><foreignObject width="200" height="48"><div xmlns="http://www.w3.org/1999/xhtml" style="display:table;white-space:break-spaces;line-height:1.5;max-width:200px;text-align:center;width:200px"><span class="nodeLabel"><p>Azure IoT Operations MQTT Broker</p></span></div></foreignObject></g></g><g id="flowchart-D-30" class="node default" transform="translate(1045.0468711853027, 82)"><rect width="187.094" height="54" x="-93.547" y="-27" class="basic label-container"/><g class="label" transform="translate(-63.546875, -12)"><rect/><foreignObject width="127.094" height="24"><div xmlns="http://www.w3.org/1999/xhtml" style="display:table-cell;white-space:nowrap;line-height:1.5;max-width:200px;text-align:center"><span class="nodeLabel"><p>Fabrikam Root CA</p></span></div></foreignObject></g></g><g id="flowchart-E-31" class="node default" transform="translate(1312.7708320617676, 82)"><rect width="248.354" height="54" x="-124.177" y="-27" class="basic label-container"/><g class="label" transform="translate(-94.17708587646484, -12)"><rect/><foreignObject width="188.354" height="24"><div xmlns="http://www.w3.org/1999/xhtml" style="display:table-cell;white-space:nowrap;line-height:1.5;max-width:200px;text-align:center"><span class="nodeLabel"><p>Fabrikam Intermediate CA</p></span></div></foreignObject></g></g><g id="flowchart-F-32" class="node default" transform="translate(1559.1979179382324, 119)"><rect width="142.417" height="54" x="-71.208" y="-27" class="basic label-container"/><g class="label" transform="translate(-41.208335876464844, -12)"><rect/><foreignObject width="82.417" height="24"><div xmlns="http://www.w3.org/1999/xhtml" style="display:table-cell;white-space:nowrap;line-height:1.5;max-width:200px;text-align:center"><span class="nodeLabel"><p>Thermostat</p></span></div></foreignObject></g></g><g id="flowchart-G-33" class="node default" transform="translate(1559.1979179382324, 223)"><rect width="144.5" height="54" x="-72.25" y="-27" class="basic label-container"/><g class="label" transform="translate(-42.25, -12)"><rect/><foreignObject width="84.5" height="24"><div xmlns="http://www.w3.org/1999/xhtml" style="display:table-cell;white-space:nowrap;line-height:1.5;max-width:200px;text-align:center"><span class="nodeLabel"><p>Hygrometer</p></span></div></foreignObject></g></g></g></g></g></svg>