<svg xmlns="http://www.w3.org/2000/svg" viewBox="75.226 93.65 57.309 56.585"><polygon points="101.25 125.642 117.23 134.582 117.83 127.792 113.39 123.062 106.84 121.982 101.25 125.642" class="cls-4" style="fill:#ff4d00;stroke-width:0"/><polygon points="103.95 94.742 117.23 134.582 130.51 121.302 103.95 94.742" class="cls-2" style="fill:#ff7d00;stroke-width:0"/><polygon points="101.81 115.842 101.25 125.642 121.66 121.302 101.81 115.842" class="cls-5" style="fill:#001aff;stroke-width:0"/><polygon points="77.39 121.302 77.39 121.302 91.57 135.482 94.21 131.942 93.74 127.692 87.23 123.472 77.39 121.302" class="cls-1" style="fill:#e23400;stroke-width:0"/><polygon points="102.51 96.182 77.39 121.302 93.74 127.692 102.51 96.182" class="cls-4" style="fill:#ff4d00;stroke-width:0"/><polygon points="93.74 127.692 91.57 135.482 103.95 147.862 115.58 136.232 93.74 127.692" class="cls-2" style="fill:#ff7d00;stroke-width:0"/></svg>