<svg xmlns="http://www.w3.org/2000/svg" id="ICONS-64x" viewBox="0 0 64 64"><defs><style>.cls-1{fill:#556a8a}.cls-2{fill:#fff}.cls-3{fill:none;stroke:#556a8a;stroke-miterlimit:10;stroke-width:2px}.cls-4{fill:#2bc7f4}.cls-5{fill:#e5e5e5}</style></defs><title>i_advanced</title><rect width="2" height="25" x="6" y="21.07" class="cls-1" rx=".5" ry=".5"/><path d="M32,35,12,26.33v15.4C12,47.3,21.16,52,32,52s20-4.7,20-10.26V26.28Z" class="cls-2"/><path d="M32,35,12,26.33v15.4C12,47.3,21.16,52,32,52s20-4.7,20-10.26V26.28Z" class="cls-3"/><polygon points="51 25.61 31.81 31.48 13 25.86 13 33 32 41.04 51 33 51 25.61" class="cls-4"/><polygon points="3 22 32 11.07 60 22 32 34 3 22" class="cls-5"/><polygon points="61 22 32 11.07 3 22 32 34.99 61 22" class="cls-3"/><path d="M5,47V43c0-2.2.72-4,1.6-4h.8C8.28,39,9,40.8,9,43v4Z" class="cls-1"/></svg>