<svg xmlns="http://www.w3.org/2000/svg" xmlns:xlink="http://www.w3.org/1999/xlink" id="Layer_1" width="50" height="50" x="0" y="0" enable-background="new 0 0 50 50" version="1.1" viewBox="0 0 50 50" xml:space="preserve"><polygon fill="#A0A1A2" points="36 5 4 5 4 50 44 50 44 13"/><polygon fill="#3999C6" points="35 7 6 7 6 48 42 48 42 14 35 14"/><path fill="#FFF" d="M23,19c0-0.556,0.459-1,1.033-1h11.934C36.541,18,37,18.444,37,19s-0.459,1-1.033,1H24.033	C23.459,20,23,19.556,23,19"/><path fill="#FFF" d="M23,29c0-0.556,0.459-1,1.033-1h11.934C36.541,28,37,28.444,37,29s-0.459,1-1.033,1H24.033	C23.459,30,23,29.556,23,29"/><path fill="#FFF" d="M10.247,18.475l-0.384-0.416c-0.1-0.11-0.1-0.284,0.016-0.389l1.11-1.026	c0.053-0.048,0.116-0.073,0.185-0.073c0.078,0,0.148,0.032,0.2,0.089l3.052,3.273l5.252-6.727c0.053-0.068,0.132-0.105,0.216-0.105	c0.064,0,0.121,0.021,0.169,0.059l1.201,0.926c0.059,0.043,0.094,0.105,0.105,0.179c0.005,0.073-0.011,0.148-0.059,0.2l-6.747,8.637	L10.247,18.475z"/><path fill="#FFF" d="M10.247,28.475l-0.384-0.416c-0.1-0.11-0.1-0.284,0.016-0.389l1.11-1.026	c0.053-0.048,0.116-0.073,0.185-0.073c0.078,0,0.148,0.032,0.2,0.089l3.052,3.273l5.252-6.727c0.053-0.068,0.132-0.105,0.216-0.105	c0.064,0,0.121,0.021,0.169,0.059l1.201,0.926c0.059,0.043,0.094,0.105,0.105,0.179c0.005,0.073-0.011,0.148-0.059,0.2l-6.747,8.637	L10.247,28.475z"/><path fill="#FFF" d="M23,39c0-0.556,0.459-1,1.033-1h11.934C36.541,38,37,38.444,37,39s-0.459,1-1.033,1H24.033	C23.459,40,23,39.556,23,39"/><path fill="#FFF" d="M10.247,38.475l-0.384-0.416c-0.1-0.11-0.1-0.284,0.016-0.389l1.11-1.026	c0.053-0.048,0.116-0.073,0.185-0.073c0.078,0,0.148,0.032,0.2,0.089l3.052,3.273l5.252-6.727c0.053-0.068,0.132-0.105,0.216-0.105	c0.064,0,0.121,0.021,0.169,0.059l1.201,0.926c0.059,0.043,0.094,0.105,0.105,0.179c0.005,0.073-0.011,0.148-0.059,0.2l-6.747,8.637	L10.247,38.475z"/><rect width="7" height="1" x="35" y="14" opacity=".2"/></svg>