<svg xmlns="http://www.w3.org/2000/svg" xmlns:ev="http://www.w3.org/2001/xml-events" xmlns:xlink="http://www.w3.org/1999/xlink" width="1135.997" height="586.667" class="st31" color-interpolation-filters="sRGB" viewBox="0 0 852 440" xml:space="preserve"><style type="text/css">.st1{fill:#fff;stroke:#c7c8c8;stroke-width:.25}.st2,.st3{stroke-width:.5}.st2{fill:#fff;stroke:#4472c4;stroke-dasharray:3.5,2.5}.st3{fill:none;stroke:none}.st4{fill:#000;font-family:Segoe UI;font-size:1.16666em;font-weight:700}.st5{font-size:1em}.st6,.st7{stroke-width:.5}.st6{fill:#fff;stroke:#000;stroke-dasharray:3.5,2.5}.st7{fill:#ecf3fb;stroke:none}.st10,.st8,.st9{stroke:none;stroke-linecap:butt;stroke-width:.75}.st8{fill:#83b9f9}.st9{fill:url(#grad0-37)}.st10{fill:url(#grad0-43)}.st11{fill:#fff;stroke:#bfbfbf;stroke-width:.5}.st12{fill:none;stroke:none;stroke-width:1.5}.st13{fill:#000;font-family:Segoe UI;font-size:1.16666em}.st14,.st15{fill:#fff;stroke:#c7c8c8;stroke-width:.5}.st15{stroke:#c8c8c8}.st16{fill:#000;font-family:Segoe UI;font-size:.916672em}.st17{fill:url(#grad0-70);stroke:none;stroke-linecap:butt}.st17,.st18,.st19{stroke-width:34}.st18,.st19,.st20,.st21,.st22,.st23,.st24{stroke:none;stroke-linecap:butt}.st18{fill:#fff;fill-opacity:.8}.st19{fill:url(#grad0-76)}.st20{fill:url(#grad0-87)}.st20,.st21,.st22,.st23,.st24{stroke-width:.75}.st21{fill:url(#grad0-91)}.st22{fill:#9cebff}.st23{fill:#773adc}.st24{fill:#fff}.st25{marker-end:url(#mrkr4-104);stroke-linecap:round;stroke-linejoin:round;stroke-width:1}.st25,.st26,.st27{stroke:#4472c4}.st26{fill:#4472c4;fill-opacity:1;stroke-opacity:1;stroke-width:.28409090909091}.st27{marker-start:url(#mrkr4-110);stroke-linecap:round;stroke-linejoin:round;stroke-width:1}.st28{fill:#e8f8fd}.st28,.st29,.st30{stroke:#c7c8c8;stroke-width:.25}.st29{fill:#a4e1f9}.st30{fill:#d5f1fc}.st31{fill:none;fill-rule:evenodd;font-size:12px;overflow:visible;stroke-linecap:square;stroke-miterlimit:3}</style><defs id="Patterns_And_Gradients"><linearGradient id="grad0-37" x1="0" x2="1" y1="0" y2="0" gradientTransform="rotate(45.081 0.5 0.5)"><stop offset="0" stop-color="#5ea0ef" stop-opacity="1"/><stop offset="1" stop-color="#0078d4" stop-opacity="1"/></linearGradient><linearGradient id="grad0-43" x1="0" x2="1" y1="0" y2="0" gradientTransform="rotate(-45.081 0.5 0.5)"><stop offset="0" stop-color="#5ea0ef" stop-opacity="1"/><stop offset="1" stop-color="#0078d4" stop-opacity="1"/></linearGradient><linearGradient id="grad0-70" x1="0" x2="1" y1="0" y2="0" gradientTransform="rotate(90 0.5 0.5)"><stop offset=".22" stop-color="#32d4f5" stop-opacity="1"/><stop offset="1" stop-color="#198ab3" stop-opacity="1"/></linearGradient><linearGradient id="grad0-76" x1="0" x2="1" y1="0" y2="0" gradientTransform="rotate(85.399904333737 0.5 0.5)"><stop offset=".22" stop-color="#32d4f5" stop-opacity="1"/><stop offset="1" stop-color="#198ab3" stop-opacity="1"/></linearGradient><linearGradient id="grad0-87" x1="0" x2="1" y1="0" y2="0" gradientTransform="rotate(-90 0.5 0.5)"><stop offset="0" stop-color="#0078d4" stop-opacity="1"/><stop offset=".82" stop-color="#5ea0ef" stop-opacity="1"/></linearGradient><linearGradient id="grad0-91" x1="0" x2="1" y1="0" y2="0" gradientTransform="rotate(-90 0.5 0.5)"><stop offset="0" stop-color="#1490df" stop-opacity="1"/><stop offset=".98" stop-color="#1f56a3" stop-opacity="1"/></linearGradient></defs><defs id="Markers"><g id="lend4"><path d="M 2 1 L 0 0 L 2 -1 L 2 1" style="stroke:none"/></g><marker id="mrkr4-104" class="st26" markerUnits="strokeWidth" orient="auto" overflow="visible" refX="-7.04"><use transform="scale(-3.52,-3.52)" xlink:href="#lend4"/></marker><marker id="mrkr4-110" class="st26" markerUnits="strokeWidth" orient="auto" overflow="visible" refX="6.68"><use transform="scale(3.52)" xlink:href="#lend4"/></marker></defs><g><title>Single region AZ Setup</title><g id="shape70-1" transform="translate(-1.5,0)"><title>矩形</title><rect width="855" height="439.049" x="0" y=".951" class="st1"/></g><g id="group71-3" transform="translate(19.0489,-129)"><title>Sheet.71</title><g id="shape1-4" transform="translate(440,222.307) rotate(90)"><title>圆角矩形.860</title><path d="M7.67 440 L299.97 440 A7.67178 7.67178 -180 0 0 307.64 432.33 L307.64 -366.23 A7.67178 7.67178 -180 0 0 299.97 -373.9 L7.67 -373.9 A7.67178 7.67178 -180 0 0 0 -366.23 L0 432.33 A7.67178 7.67178 -180 0 0 7.67 440 Z" class="st2"/></g><g id="shape2-6" transform="translate(188.415,-166.572)"><title>Sheet.2</title><desc>Zone 1</desc><rect width="186.035" height="33.429" x="0" y="406.571" class="st3"/><text x="4" y="427.49" class="st4">Zone 1</text></g><g id="shape3-9" transform="translate(-6.39488E-14,-226.62)"><title>Sheet.3</title><desc>Region</desc><rect width="186.035" height="33.429" x="0" y="406.571" class="st3"/><text x="4" y="427.49" class="st4">Region</text></g><g id="shape4-12" transform="translate(390.088,-166.572)"><title>Sheet.4</title><desc>Zone 2</desc><rect width="186.035" height="33.429" x="0" y="406.571" class="st3"/><text x="4" y="427.49" class="st4">Zone <tspan class="st5">2</tspan></text></g><g id="shape5-16" transform="translate(592.17,-166.572)"><title>Sheet.5</title><desc>Zone 3</desc><rect width="186.035" height="33.429" x="0" y="406.571" class="st3"/><text x="4" y="427.49" class="st4">Zone <tspan class="st5">3</tspan></text></g><g id="shape6-20" transform="translate(187.225,64.951)"><title>圆角矩形.865</title><path d="M9.9 440 L165.88 440 A9.89974 9.89974 -180 0 0 175.78 430.1 L175.78 219 A9.89974 9.89974 -180 0 0 165.88 209.1 L9.9 209.1 A9.89974 9.89974 -180 0 0 -0 219 L0 430.1 A9.89974 9.89974 -180 0 0 9.9 440 Z" class="st6"/></g><g id="shape7-22" transform="translate(393.951,64.951)"><title>圆角矩形.866</title><path d="M10.85 440 L164.93 440 A10.8519 10.8519 -180 0 0 175.78 429.15 L175.78 219.95 A10.8519 10.8519 -180 0 0 164.93 209.1 L10.85 209.1 A10.8519 10.8519 -180 0 0 -0 219.95 L0 429.15 A10.8519 10.8519 -180 0 0 10.85 440 Z" class="st6"/></g><g id="shape8-24" transform="translate(596.623,64.951)"><title>圆角矩形.867</title><path d="M10.38 440 L165.4 440 A10.3758 10.3758 -180 0 0 175.78 429.62 L175.78 219.47 A10.3758 10.3758 -180 0 0 165.4 209.1 L10.38 209.1 A10.3758 10.3758 -180 0 0 0 219.47 L0 429.62 A10.3758 10.3758 -180 0 0 10.38 440 Z" class="st6"/></g><g id="shape9-26" transform="translate(450.951,287.666) rotate(90)"><title>圆角矩形.868</title><path d="M8.95 440 L92.57 440 A8.95373 8.95373 -180 0 0 101.52 431.05 L101.52 -341.05 A8.95373 8.95373 -180 0 0 92.57 -350 L8.95 -350 A8.95373 8.95373 -180 0 0 0 -341.05 L0 431.05 A8.95373 8.95373 -180 0 0 8.95 440 Z" class="st7"/></g><g id="shape10-28" transform="translate(40.9511,-148.153)"><title>Sheet.10</title><desc>Azure Bastion</desc><rect width="108.017" height="23.429" x="0" y="416.571" class="st3"/><text x="4" y="424.09" class="st4">Azure Bastion</text></g><g id="group11-31" transform="translate(20.9511,-159.098)"><title>Sheet.11</title><g id="shape12-32" transform="translate(327.614,731.338) rotate(134.919)"><title>Sheet.12</title><path d="M10 431.2 L10.92 431.2 a0.294673 0.337073 0 0 1 0.294673 0.337073 L11.21 439.32 a0.590158 0.675074 0 0 1 -0.590158 0.675074 L9.7 440 L9.7 431.54 a0.294673 0.337073 0 0 1 0.295485 -0.337073 Z" class="st8"/></g><g id="shape13-34" transform="translate(312.165,110.351) rotate(44.919)"><title>Sheet.13</title><path d="M9.95 431.33 L10.87 431.33 a0.294673 0.337073 0 0 1 0.294673 0.337073 L11.16 440 L10.24 440 a0.590158 0.675074 0 0 1 -0.590158 -0.675074 L9.65 431.67 a0.294673 0.337073 0 0 1 0.294673 -0.337073 L9.95 431.33 Z" class="st9"/></g><g id="shape14-38" transform="translate(310.786,125.586) rotate(45.081)"><title>Sheet.14</title><path d="M3.4 431.2 L4.32 431.2 a0.590158 0.675074 0 0 1 0.590158 0.675074 L4.91 439.66 a0.294673 0.337073 0 0 1 -0.294673 0.337073 L3.69 440 a0.294673 0.337073 0 0 1 -0.294673 -0.337073 L3.4 431.2 Z" class="st8"/></g><g id="shape15-40" transform="translate(316.139,736.666) rotate(135.081)"><title>Sheet.15</title><path d="M4.04 431.33 L4.96 431.33 L4.96 439.66 a0.294673 0.337073 0 0 1 -0.294673 0.337073 L3.74 440 a0.294673 0.337073 0 0 1 -0.294673 -0.337073 L3.45 432 a0.590158 0.675074 0 0 1 0.590158 -0.675074 L4.04 431.33 Z" class="st10"/></g></g><g id="group33-44" transform="translate(205.407,-68.1434)"><title>Sheet.33</title></g><g id="group34-45" transform="translate(199.151,-68.1434)"><title>Sheet.34</title><g id="shape35-46"><title>圆角矩形.876</title><path d="M4.65 440 L147.4 440 A4.65077 4.65077 -180 0 0 152.05 435.35 L152.05 377.79 A4.65077 4.65077 -180 0 0 147.4 373.14 L4.65 373.14 A4.65077 4.65077 -180 0 0 0 377.79 L0 435.35 A4.65077 4.65077 -180 0 0 4.65 440 Z" class="st11"/></g><g id="shape36-48" transform="translate(7.97564,-3.35215)"><title>Process.877</title><desc>Bastion Instance</desc><rect width="136.099" height="15.582" x="0" y="424.419" class="st12"/><text x="17.87" y="436.41" class="st13">Bastion Instance</text></g></g><g id="group46-51" transform="translate(404.565,-68.1434)"><title>Sheet.46</title><g id="shape47-52"><title>圆角矩形.876</title><path d="M4.65 440 L147.4 440 A4.65077 4.65077 -180 0 0 152.05 435.35 L152.05 377.79 A4.65077 4.65077 -180 0 0 147.4 373.14 L4.65 373.14 A4.65077 4.65077 -180 0 0 0 377.79 L0 435.35 A4.65077 4.65077 -180 0 0 4.65 440 Z" class="st14"/></g><g id="shape48-54" transform="translate(7.97564,-3.35215)"><title>Process.877</title><desc>Bastion Instance</desc><rect width="136.099" height="15.582" x="0" y="424.419" class="st12"/><text x="17.87" y="436.41" class="st13">Bastion Instance</text></g></g><g id="group58-57" transform="translate(607.591,-68.1434)"><title>Sheet.58</title><g id="shape59-58"><title>圆角矩形.876</title><path d="M4.65 440 L147.4 440 A4.65077 4.65077 -180 0 0 152.05 435.35 L152.05 377.79 A4.65077 4.65077 -180 0 0 147.4 373.14 L4.65 373.14 A4.65077 4.65077 -180 0 0 0 377.79 L0 435.35 A4.65077 4.65077 -180 0 0 4.65 440 Z" class="st15"/></g><g id="shape60-60" transform="translate(7.97564,-3.35215)"><title>Process.877</title><desc>Bastion Instance</desc><rect width="136.099" height="15.582" x="0" y="424.419" class="st12"/><text x="17.87" y="436.41" class="st13">Bastion Instance</text></g></g></g><g id="shape72-63" transform="translate(473,-357.749)"><title>Process.812</title><desc>User</desc><rect width="52" height="15.582" x="0" y="424.419" class="st12"/><text x="15.1" y="435.51" class="st16">User</text></g><g id="group73-66" transform="translate(488.75,-376.249)"><title>Sheet.73</title><g id="shape74-67"><title>Sheet.74</title><path d="M19.36 440 C20.4 440 21.24 439.15 21.25 438.09 L21.25 437.86 C20.5 431.82 17.13 426.9 10.69 426.9 C4.24 426.9 0.76 431.07 0.11 437.87 C0 438.92 0.76 439.87 1.79 439.99 L19.36 439.99 L19.36 440 Z" class="st17"/></g><g id="shape75-71" transform="translate(7.48752,-4.15507)"><title>Sheet.75</title><path d="M3.2 432.49 C2.06 432.49 0.94 432.16 0 431.53 L3.17 440 L6.33 431.59 C5.39 432.18 4.3 432.49 3.2 432.49 Z" class="st18"/></g><g id="shape76-73" transform="translate(4.75196,-11.6457)"><title>Sheet.76</title><ellipse cx="5.936" cy="433.947" class="st19" rx="5.936" ry="6.053"/></g></g><g id="shape77-77" transform="translate(220,-89.0489)"><title>圆角矩形.833</title><path d="M4.59 440 L145.41 440 A4.58805 4.58805 -180 0 0 150 435.41 L150 378.64 A4.58805 4.58805 -180 0 0 145.41 374.05 L4.59 374.05 A4.58805 4.58805 -180 0 0 0 378.64 L0 435.41 A4.58805 4.58805 -180 0 0 4.59 440 Z" class="st15"/></g><g id="shape78-79" transform="translate(274,-94.0489)"><title>Process.913</title><desc>VM</desc><rect width="46" height="15.582" x="0" y="424.419" class="st12"/><text x="14.65" y="435.51" class="st16">VM</text></g><g id="group79-82" transform="translate(280,-115.071)"><title>Sheet.79</title><g id="group80-83"><title>Sheet.80</title><g id="shape81-84" transform="translate(0,-7.78304)"><title>Sheet.81</title><path d="M0 438.99 A1.05845 1.00862 -180 0 0 1.06 440 L30.69 440 A1.05845 1.00862 -180 0 0 31.75 438.99 L31.75 420.84 A1.05845 1.00862 -180 0 0 30.69 419.83 L1.06 419.83 A1.05845 1.00862 -180 0 0 0 420.84 L0 438.99 Z" class="st20"/></g><g id="shape82-88" transform="translate(7.95585,0)"><title>Sheet.82</title><path d="M14.29 438.32 C11.15 437.85 11.03 435.7 11.04 432.22 L4.75 432.22 C4.75 435.7 4.75 437.85 1.55 438.32 A1.76405 1.681 -180 0 0 0 440 L15.88 440 A1.87165 1.78354 -180 0 0 14.29 438.32 Z" class="st21"/></g><g id="group83-92" transform="translate(10.4731,-12.7)"><title>Sheet.83</title><g id="shape84-93" transform="translate(2.41145,-2.12983)"><title>Sheet.84</title><path d="M0 439.82 a0.19405 0.184915 -180 0 0 0.194045 0.18491 L4.73 440 a0.19405 0.184915 -180 0 0 0.194045 -0.18491 L4.93 435.49 a0.19405 0.184915 -180 0 0 -0.194045 -0.18491 L0.19 435.3 a0.19405 0.184915 -180 0 0 -0.194045 0.18491 L0 439.82 Z" class="st22"/></g><g id="shape85-95" transform="translate(5.6079,-5.09848)"><title>Sheet.85</title><path d="M4.85 434.96 L0.19 434.96 a0.192281 0.183229 -180 0 0 -0.192281 0.181548 L0 435.95 a0.192281 0.183229 -180 0 0 0.192281 0.183229 L3.62 436.13 a0.384562 0.366459 0 0 1 0.386326 0.366459 L4 439.82 a0.190517 0.181548 -180 0 0 0.190517 0.181548 L5.04 440 a0.190517 0.181548 -180 0 0 0.192281 -0.181548 L5.23 435.33 a0.386326 0.36814 -180 0 0 -0.386326 -0.36814 Z" class="st23"/></g><g id="shape86-97"><title>Sheet.86</title><path d="M8.82 435.67 L8.82 438.59 a0.352809 0.336201 0 0 1 -0.352809 0.336201 L1.47 438.93 a0.352809 0.336201 0 0 1 -0.352809 -0.336201 L1.12 432.3 a0.352809 0.336201 0 0 1 0.352809 -0.336201 L4.98 431.96 a0.192281 0.183229 -180 0 0 0.190517 -0.183229 L5.17 431.08 a0.192281 0.183229 -180 0 0 -0.190517 -0.183229 L0.35 430.9 a0.352809 0.336201 -180 0 0 -0.352809 0.336201 L0 439.66 a0.352809 0.336201 -180 0 0 0.352809 0.336201 L9.59 440 a0.352809 0.336201 -180 0 0 0.352809 -0.336201 L9.94 435.67 a0.192281 0.183229 -180 0 0 -0.192281 -0.183229 L9.01 435.49 a0.190517 0.181548 -180 0 0 -0.192281 0.181548 L8.82 435.67 Z" class="st24"/></g></g></g></g><g id="shape87-99" transform="translate(499.639,-197.143)"><title>Dynamic connector.970</title><path d="M0 440 L0 515.12 L-122.6 515.12" class="st25"/></g><g id="shape88-105" transform="translate(487.139,-264)"><title>Dynamic connector.968</title><path d="M12.5 433.32 L12.5 432.96 L12.5 346.25" class="st27"/></g><g id="group1003-111" transform="translate(274.853,-220)"><title>Sheet.1003</title><g id="group1004-112"><title>Sheet.1004</title><g id="group1005-113"><title>Cube.1000</title><g id="shape1006-114"><title>Sheet.1006</title><path d="M0 410 L29.72 410 L37.22 402.5 L7.5 402.5 L0 410 Z" class="st28"/></g><g id="shape1007-116"><title>Sheet.1007</title><path d="M29.72 440 L37.22 432.5 L37.22 402.5 L29.72 410 L29.72 440 Z" class="st29"/></g><g id="shape1005-118"><rect width="29.716" height="30" x="0" y="410" class="st30"/></g></g></g><g id="group1008-120" transform="translate(6.61569,-7.84524)"><title>Sheet.1008</title><g id="shape1009-121" transform="translate(326.924,734.598) rotate(134.919)"><title>Sheet.1009</title><path d="M9.24 432.9 L10.09 432.9 a0.27225 0.27225 0 0 1 0.27225 0.27225 L10.36 439.45 a0.54525 0.54525 0 0 1 -0.54525 0.54525 L8.96 440 L8.96 433.17 a0.27225 0.27225 0 0 1 0.273 -0.27225 Z" class="st8"/></g><g id="shape1010-123" transform="translate(312.408,113.371) rotate(44.919)"><title>Sheet.1010</title><path d="M9.19 433 L10.04 433 a0.27225 0.27225 0 0 1 0.27225 0.27225 L10.31 440 L9.46 440 a0.54525 0.54525 0 0 1 -0.54525 -0.54525 L8.92 433.27 a0.27225 0.27225 0 0 1 0.27225 -0.27225 L9.19 433 Z" class="st9"/></g><g id="shape1011-126" transform="translate(311.567,126.101) rotate(45.081)"><title>Sheet.1011</title><path d="M3.14 432.9 L3.99 432.9 a0.54525 0.54525 0 0 1 0.54525 0.54525 L4.54 439.73 a0.27225 0.27225 0 0 1 -0.27225 0.27225 L3.41 440 a0.27225 0.27225 0 0 1 -0.27225 -0.27225 L3.14 432.9 Z" class="st8"/></g><g id="shape1012-128" transform="translate(316.237,739.328) rotate(135.081)"><title>Sheet.1012</title><path d="M3.73 433 L4.58 433 L4.58 439.73 a0.27225 0.27225 0 0 1 -0.27225 0.27225 L3.46 440 a0.27225 0.27225 0 0 1 -0.27225 -0.27225 L3.19 433.54 a0.54525 0.54525 0 0 1 0.54525 -0.54525 L3.73 433 Z" class="st10"/></g></g></g><g id="group1013-131" transform="translate(480,-220)"><title>Sheet.1013</title><g id="group1014-132"><title>Sheet.1014</title><g id="group1015-133"><title>Cube.1000</title><g id="shape1016-134"><title>Sheet.1016</title><path d="M0 410 L29.72 410 L37.22 402.5 L7.5 402.5 L0 410 Z" class="st28"/></g><g id="shape1017-136"><title>Sheet.1017</title><path d="M29.72 440 L37.22 432.5 L37.22 402.5 L29.72 410 L29.72 440 Z" class="st29"/></g><g id="shape1015-138"><rect width="29.716" height="30" x="0" y="410" class="st30"/></g></g></g><g id="group1018-140" transform="translate(6.61569,-7.84524)"><title>Sheet.1018</title><g id="shape1019-141" transform="translate(326.924,734.598) rotate(134.919)"><title>Sheet.1019</title><path d="M9.24 432.9 L10.09 432.9 a0.27225 0.27225 0 0 1 0.27225 0.27225 L10.36 439.45 a0.54525 0.54525 0 0 1 -0.54525 0.54525 L8.96 440 L8.96 433.17 a0.27225 0.27225 0 0 1 0.273 -0.27225 Z" class="st8"/></g><g id="shape1020-143" transform="translate(312.408,113.371) rotate(44.919)"><title>Sheet.1020</title><path d="M9.19 433 L10.04 433 a0.27225 0.27225 0 0 1 0.27225 0.27225 L10.31 440 L9.46 440 a0.54525 0.54525 0 0 1 -0.54525 -0.54525 L8.92 433.27 a0.27225 0.27225 0 0 1 0.27225 -0.27225 L9.19 433 Z" class="st9"/></g><g id="shape1021-146" transform="translate(311.567,126.101) rotate(45.081)"><title>Sheet.1021</title><path d="M3.14 432.9 L3.99 432.9 a0.54525 0.54525 0 0 1 0.54525 0.54525 L4.54 439.73 a0.27225 0.27225 0 0 1 -0.27225 0.27225 L3.41 440 a0.27225 0.27225 0 0 1 -0.27225 -0.27225 L3.14 432.9 Z" class="st8"/></g><g id="shape1022-148" transform="translate(316.237,739.328) rotate(135.081)"><title>Sheet.1022</title><path d="M3.73 433 L4.58 433 L4.58 439.73 a0.27225 0.27225 0 0 1 -0.27225 0.27225 L3.46 440 a0.27225 0.27225 0 0 1 -0.27225 -0.27225 L3.19 433.54 a0.54525 0.54525 0 0 1 0.54525 -0.54525 L3.73 433 Z" class="st10"/></g></g></g><g id="group1023-151" transform="translate(684.377,-220)"><title>Sheet.1023</title><g id="group1024-152"><title>Sheet.1024</title><g id="group1025-153"><title>Cube.1000</title><g id="shape1026-154"><title>Sheet.1026</title><path d="M0 410 L29.72 410 L37.22 402.5 L7.5 402.5 L0 410 Z" class="st28"/></g><g id="shape1027-156"><title>Sheet.1027</title><path d="M29.72 440 L37.22 432.5 L37.22 402.5 L29.72 410 L29.72 440 Z" class="st29"/></g><g id="shape1025-158"><rect width="29.716" height="30" x="0" y="410" class="st30"/></g></g></g><g id="group1028-160" transform="translate(6.61569,-7.84524)"><title>Sheet.1028</title><g id="shape1029-161" transform="translate(326.924,734.598) rotate(134.919)"><title>Sheet.1029</title><path d="M9.24 432.9 L10.09 432.9 a0.27225 0.27225 0 0 1 0.27225 0.27225 L10.36 439.45 a0.54525 0.54525 0 0 1 -0.54525 0.54525 L8.96 440 L8.96 433.17 a0.27225 0.27225 0 0 1 0.273 -0.27225 Z" class="st8"/></g><g id="shape1030-163" transform="translate(312.408,113.371) rotate(44.919)"><title>Sheet.1030</title><path d="M9.19 433 L10.04 433 a0.27225 0.27225 0 0 1 0.27225 0.27225 L10.31 440 L9.46 440 a0.54525 0.54525 0 0 1 -0.54525 -0.54525 L8.92 433.27 a0.27225 0.27225 0 0 1 0.27225 -0.27225 L9.19 433 Z" class="st9"/></g><g id="shape1031-166" transform="translate(311.567,126.101) rotate(45.081)"><title>Sheet.1031</title><path d="M3.14 432.9 L3.99 432.9 a0.54525 0.54525 0 0 1 0.54525 0.54525 L4.54 439.73 a0.27225 0.27225 0 0 1 -0.27225 0.27225 L3.41 440 a0.27225 0.27225 0 0 1 -0.27225 -0.27225 L3.14 432.9 Z" class="st8"/></g><g id="shape1032-168" transform="translate(316.237,739.328) rotate(135.081)"><title>Sheet.1032</title><path d="M3.73 433 L4.58 433 L4.58 439.73 a0.27225 0.27225 0 0 1 -0.27225 0.27225 L3.46 440 a0.27225 0.27225 0 0 1 -0.27225 -0.27225 L3.19 433.54 a0.54525 0.54525 0 0 1 0.54525 -0.54525 L3.73 433 Z" class="st10"/></g></g></g></g></svg>