<svg xmlns="http://www.w3.org/2000/svg" xmlns:xlink="http://www.w3.org/1999/xlink" id="Layer_1" width="16" height="16" x="0" y="0" enable-background="new 0 0 16 16" version="1.1" viewBox="0 0 16 16" xml:space="preserve"><circle cx="8" cy="8" r="8" fill="#5DB300"/><path fill="#FFF" d="M3.553,8.291C3.479,8.212,3.441,8.108,3.445,8c0.004-0.109,0.05-0.209,0.13-0.284L4.41,6.944	c0.076-0.069,0.173-0.107,0.274-0.107c0.112,0,0.22,0.047,0.296,0.129l2.136,2.292l3.807-4.875C11,4.284,11.116,4.226,11.242,4.226	c0.09,0,0.175,0.029,0.247,0.084l0.906,0.699c0.173,0.128,0.21,0.377,0.08,0.554l-4.868,6.233c-0.189,0.242-0.55,0.258-0.76,0.033	L3.553,8.291z"/></svg>