<svg xmlns="http://www.w3.org/2000/svg" xmlns:svg="http://www.w3.org/2000/svg" id="svg151" width="726.99" height="392.092" overflow="hidden" version="1.1"><defs id="defs85"><clipPath id="clip0"><rect id="rect82" width="1280" height="720" x="0" y="0"/></clipPath><clipPath id="clipPath281" clipPathUnits="userSpaceOnUse"><rect style="fill:#00f;fill-rule:evenodd" id="rect283" width="754.951" height="441.024" x="236.399" y="122.648"/></clipPath><clipPath id="clipPath432" clipPathUnits="userSpaceOnUse"><rect style="fill:#00f;fill-rule:evenodd;stroke-width:.7679" id="rect434" width="753.029" height="440.528" x="235.438" y="124.134"/></clipPath></defs><g id="g149" clip-path="url(#clipPath432)" transform="matrix(0.96542109,0,0,0.89004901,-227.29665,-110.48573)"><rect id="rect87" width="1280" height="720" x="0" y="0" fill="#fff"/><path id="path89" fill="#4472c4" fill-rule="evenodd" d="M 244,349.167 C 244,343 249,338 255.167,338 H 969.833 C 976,338 981,343 981,349.167 v 44.666 C 981,400 976,405 969.833,405 H 255.167 C 249,405 244,400 244,393.833 Z"/><text id="text91" fill="#fff" font-family="'Segoe UI Light', 'Segoe UI Light_MSFontService', sans-serif" font-size="27" font-weight="700" transform="translate(509.556,380)">Spark Core Engine</text><path id="path93" fill="#4472c4" fill-rule="evenodd" d="M 434,134 V 245.039 L 339,338 244,245.039 V 134 Z"/><path id="path95" fill="#4472c4" fill-rule="evenodd" d="M 616,134 V 245.329 L 524,338 432,245.329 V 134 Z"/><path id="path97" fill="#4472c4" fill-rule="evenodd" d="M 798,134 V 244.175 L 705.5,338 613,244.175 V 134 Z"/><path id="path99" fill="#4472c4" fill-rule="evenodd" d="M 979,134 V 243.686 L 888,338 797,243.686 V 134 Z"/><text id="text123" fill="#fff" font-family="'Segoe UI', 'Segoe UI_MSFontService', sans-serif" font-size="24" font-weight="400" transform="translate(287.24,171)">Spark SQL<tspan id="tspan101" x="11.84" y="30" font-size="19" font-style="italic">Interactive</tspan><tspan id="tspan103" x="23.167" y="50" font-size="19" font-style="italic">Queries</tspan><tspan id="tspan105" x="206.702" y="0" font-size="24">Spark</tspan><tspan id="tspan107" x="182.756" y="26" font-size="24">Streaming</tspan><tspan id="tspan109" x="162.969" y="56" font-size="19" font-style="italic">Stream processing</tspan><tspan id="tspan111" x="356.488" y="1" font-size="24">Spark MLlib</tspan><tspan id="tspan113" x="384.415" y="31" font-size="19" font-style="italic">Machine</tspan><tspan id="tspan115" x="383.508" y="51" font-size="19" font-style="italic">Learning</tspan><tspan id="tspan117" x="560.656" y="-2" font-size="24">GraphX</tspan><tspan id="tspan119" x="575.05" y="28" font-size="19" font-style="italic">Graph</tspan><tspan id="tspan121" x="547.123" y="48" font-size="19" font-style="italic">Computation</tspan></text><rect id="rect125" width="239" height="69" x="244" y="421" fill="#4472c4"/><text id="text127" fill="#fff" font-family="'Segoe UI', 'Segoe UI_MSFontService', sans-serif" font-size="27" font-weight="400" transform="translate(338.952,464)">Yarn</text><rect id="rect129" width="239" height="69" x="493" y="421" fill="#4472c4"/><text id="text131" fill="#fff" font-family="'Segoe UI', 'Segoe UI_MSFontService', sans-serif" font-size="27" font-weight="400" transform="translate(574.456,464)">Mesos</text><rect id="rect133" width="239" height="70" x="742" y="421" fill="#4472c4"/><text id="text137" fill="#fff" font-family="'Segoe UI', 'Segoe UI_MSFontService', sans-serif" font-size="27" font-weight="400" transform="translate(795.546,450)">Standalone <tspan id="tspan135" x="7.567" y="29" font-size="27">Scheduler</tspan></text><rect id="rect139" width="360" height="53" x="246" y="502" fill="#4472c4"/><text id="text141" fill="#fff" font-family="'Segoe UI', 'Segoe UI_MSFontService', sans-serif" font-size="27" font-weight="400" transform="translate(393.677,537)">HDFS</text><rect id="rect143" width="360" height="53" x="619" y="502" fill="#4472c4"/><text id="text145" fill="#fff" font-family="'Segoe UI', 'Segoe UI_MSFontService', sans-serif" font-size="19" font-weight="400" transform="translate(652.393,535)">Azure Blob Storage/Data Lake Store</text><path id="path147" fill="#fff" fill-rule="evenodd" stroke="#4472c4" stroke-miterlimit="8" stroke-width=".667" d="m 587.5,531.5 6,-6 v 3 h 39 v -3 l 6,6 -6,6 v -3 h -39 v 3 z"/></g></svg>