<svg xmlns="http://www.w3.org/2000/svg" xmlns:xlink="http://www.w3.org/1999/xlink" style="enable-background:new 0 0 80 80" id="Layer_1" x="0" y="0" version="1.1" viewBox="0 0 80 80" xml:space="preserve"><style type="text/css">.st21{fill:url(#SVGID_7_)}.st21,.st22,.st23,.st24,.st25,.st26{fill-rule:evenodd;clip-rule:evenodd}.st22{fill:url(#SVGID_8_)}.st23{fill:url(#SVGID_9_)}.st24{fill:url(#SVGID_10_)}.st25{fill:url(#SVGID_11_)}.st26{fill:url(#SVGID_12_)}.st27{fill:url(#SVGID_13_)}.st27,.st28,.st29,.st30,.st31,.st34{fill-rule:evenodd;clip-rule:evenodd}.st28{fill:url(#SVGID_14_)}.st29{fill:#fff}.st30{fill:url(#SVGID_15_)}.st31{fill:url(#SVGID_16_)}.st34{fill:#aa3e35}</style><g><linearGradient id="SVGID_1_" x1="65.538" x2="50.727" y1="80.337" y2="54.187" gradientUnits="userSpaceOnUse"><stop style="stop-color:#f68f71" offset="0"/><stop style="stop-color:#f68f71" offset="0"/><stop style="stop-color:#dc5242" offset=".41"/><stop style="stop-color:#a72c32" offset=".99"/><stop style="stop-color:#a72c32" offset="1"/></linearGradient><polygon points="18.266 74 70.015 70.478 74 18.154 58.232 50.203" style="fill-rule:evenodd;clip-rule:evenodd;fill:url(#SVGID_1_)"/><linearGradient id="SVGID_2_" x1="72.873" x2="53.821" y1="58.404" y2="45.62" gradientUnits="userSpaceOnUse"><stop style="stop-color:#9b3f34" offset="0"/><stop style="stop-color:#9b3f34" offset="0"/><stop style="stop-color:#a23e36" offset=".99"/><stop style="stop-color:#a23e36" offset="1"/></linearGradient><polygon points="53.537 55.701 70.1 70.443 65.652 39.659" style="fill-rule:evenodd;clip-rule:evenodd;fill:url(#SVGID_2_)"/><linearGradient id="SVGID_3_" x1="57.628" x2="38.598" y1="81.132" y2="68.362" gradientUnits="userSpaceOnUse"><stop style="stop-color:#9b3f34" offset="0"/><stop style="stop-color:#9b3f34" offset="0"/><stop style="stop-color:#a23e36" offset=".99"/><stop style="stop-color:#a23e36" offset="1"/></linearGradient><polygon points="18.44 73.933 70.16 70.443 37.575 67.878" style="fill-rule:evenodd;clip-rule:evenodd;fill:url(#SVGID_3_)"/><linearGradient id="SVGID_4_" x1="17.671" x2="20.63" y1="49.129" y2="68.36" gradientUnits="userSpaceOnUse"><stop style="stop-color:#fff" offset="0"/><stop style="stop-color:#fff" offset="0"/><stop style="stop-color:#e28b6f" offset=".23"/><stop style="stop-color:#da6144" offset=".46"/><stop style="stop-color:#a60003" offset=".99"/><stop style="stop-color:#a60003" offset="1"/></linearGradient><polygon points="8.713 51.039 18.486 73.94 26.626 47.198" style="fill-rule:evenodd;clip-rule:evenodd;fill:url(#SVGID_4_)"/><linearGradient id="SVGID_5_" x1="37.961" x2="39.051" y1="31.176" y2="50.799" gradientUnits="userSpaceOnUse"><stop style="stop-color:#fff" offset="0"/><stop style="stop-color:#fff" offset="0"/><stop style="stop-color:#e08a6d" offset=".23"/><stop style="stop-color:#c14435" offset=".56"/><stop style="stop-color:#b13430" offset=".99"/><stop style="stop-color:#b13430" offset="1"/></linearGradient><polygon points="24.608 46.518 53.533 55.79 46.043 26.37" style="fill-rule:evenodd;clip-rule:evenodd;fill:url(#SVGID_5_)"/><linearGradient id="SVGID_6_" x1="55.964" x2="59.225" y1="13.045" y2="27.1" gradientUnits="userSpaceOnUse"><stop style="stop-color:#fff" offset="0"/><stop style="stop-color:#fff" offset="0"/><stop style="stop-color:#df8063" offset=".18"/><stop style="stop-color:#c94d37" offset=".4"/><stop style="stop-color:#b13430" offset=".99"/><stop style="stop-color:#b13430" offset="1"/></linearGradient><polygon points="46.397 28.481 72.301 26.784 52.039 10.189" style="fill-rule:evenodd;clip-rule:evenodd;fill:url(#SVGID_6_)"/><linearGradient id="SVGID_7_" x1="46.039" x2="60.063" y1="8.086" y2="1.074" gradientUnits="userSpaceOnUse"><stop style="stop-color:#fff" offset="0"/><stop style="stop-color:#fff" offset="0"/><stop style="stop-color:#c94838" offset=".54"/><stop style="stop-color:#c12d2f" offset=".99"/><stop style="stop-color:#c12d2f" offset="1"/></linearGradient><polygon points="43.39 4.184 62.825 4.273 50.908 10.877" class="st21"/><linearGradient id="SVGID_8_" x1="5.376" x2="6.534" y1="44.232" y2="55.821" gradientUnits="userSpaceOnUse"><stop style="stop-color:#fff" offset="0"/><stop style="stop-color:#fff" offset="0"/><stop style="stop-color:#da6548" offset=".31"/><stop style="stop-color:#c14433" offset=".99"/><stop style="stop-color:#c14433" offset="1"/></linearGradient><polygon points="4.954 40.003 4 60.009 8.992 50.879" class="st22"/><path d="M4.685,39.659l4.063,11.557l17.655-3.972L46.559,28.46l5.688-18.118L43.291,4L28.064,9.715 c-4.798,4.475-14.107,13.328-14.443,13.495C13.288,23.379,7.473,34.401,4.685,39.659z" class="st29"/><linearGradient id="SVGID_9_" x1="-2.601" x2="51.734" y1="58.91" y2="3.038" gradientUnits="userSpaceOnUse"><stop style="stop-color:#bd0012" offset="0"/><stop style="stop-color:#bd0012" offset="0"/><stop style="stop-color:#fff" offset=".07"/><stop style="stop-color:#fff" offset=".17"/><stop style="stop-color:#c95841" offset=".27"/><stop style="stop-color:#983734" offset=".33"/><stop style="stop-color:#ae4231" offset=".46"/><stop style="stop-color:#b93e2f" offset=".72"/><stop style="stop-color:#de4e2b" offset=".99"/><stop style="stop-color:#de4e2b" offset="1"/></linearGradient><path d="M18.952,18.898C29.35,8.56,42.754,2.452,47.898,7.656c5.141,5.204-0.311,17.853-10.709,28.187 S13.553,52.622,8.413,47.418C3.269,42.217,8.554,29.232,18.952,18.898z" class="st23"/><linearGradient id="SVGID_10_" x1="39.006" x2="22.671" y1="64.584" y2="60.552" gradientUnits="userSpaceOnUse"><stop style="stop-color:#9f3633" offset="0"/><stop style="stop-color:#9f3633" offset="0"/><stop style="stop-color:#a73532" offset=".54"/><stop style="stop-color:#b13439" offset=".99"/><stop style="stop-color:#b13439" offset="1"/></linearGradient><path d="M18.486,73.929l8.077-26.827l26.823,8.641C43.687,64.863,32.9,72.572,18.486,73.929z" class="st24"/><linearGradient id="SVGID_11_" x1="67.093" x2="52.547" y1="44.932" y2="31.895" gradientUnits="userSpaceOnUse"><stop style="stop-color:#923c36" offset="0"/><stop style="stop-color:#923c36" offset="0"/><stop style="stop-color:#aa3531" offset=".99"/><stop style="stop-color:#aa3531" offset="1"/></linearGradient><path d="M46.594,28.407l6.886,27.351c8.101-8.542,15.372-17.725,18.934-29.083L46.594,28.407z" class="st25"/><linearGradient id="SVGID_12_" x1="72.429" x2="65.187" y1="20.973" y2="13.231" gradientUnits="userSpaceOnUse"><stop style="stop-color:#8d3e36" offset="0"/><stop style="stop-color:#8d3e36" offset="0"/><stop style="stop-color:#aa3e37" offset=".99"/><stop style="stop-color:#aa3e37" offset="1"/></linearGradient><path d="M72.343,26.813c2.756-8.34,3.392-20.304-9.603-22.526l-10.663,5.906L72.343,26.813z" class="st26"/><path d="M4,59.889c0.382,13.764,10.285,13.97,14.503,14.09l-9.744-22.82L4,59.889z" class="st34"/><radialGradient id="SVGID_13_" cx="54.816" cy="32.156" r="17.792" gradientTransform="matrix(1 0 0 1.0028 -2.074863e-04 -0.1183)" gradientUnits="userSpaceOnUse"><stop style="stop-color:#b13430" offset="0"/><stop style="stop-color:#b13430" offset="0"/><stop style="stop-color:#923834" offset=".99"/><stop style="stop-color:#923834" offset="1"/></radialGradient><path d="M46.633,28.449c6.225,3.837,18.771,11.543,19.025,11.684c0.396,0.223,5.409-8.478,6.547-13.396L46.633,28.449 z" class="st27"/><radialGradient id="SVGID_14_" cx="30.176" cy="55.601" r="23.653" gradientTransform="matrix(1 0 0 1.0028 -2.074863e-04 -0.1183)" gradientUnits="userSpaceOnUse"><stop style="stop-color:#ae3531" offset="0"/><stop style="stop-color:#ae3531" offset="0"/><stop style="stop-color:#953a36" offset=".99"/><stop style="stop-color:#953a36" offset="1"/></radialGradient><path d="M26.551,47.103l10.797,20.889c6.384-3.472,11.383-7.702,15.962-12.234L26.551,47.103z" class="st28"/><linearGradient id="SVGID_15_" x1="13.424" x2="7.516" y1="73.911" y2="53.865" gradientUnits="userSpaceOnUse"><stop style="stop-color:#994939" offset="0"/><stop style="stop-color:#994939" offset="0"/><stop style="stop-color:#aa3a36" offset=".43"/><stop style="stop-color:#b83936" offset=".99"/><stop style="stop-color:#b83936" offset="1"/></linearGradient><path d="M8.717,51.187l-1.53,18.267c2.887,3.954,6.858,4.298,11.023,3.989C15.196,65.922,9.176,50.883,8.717,51.187z" class="st30"/><linearGradient id="SVGID_16_" x1="58.639" x2="71.855" y1="7.474" y2="13.308" gradientUnits="userSpaceOnUse"><stop style="stop-color:#b9392f" offset="0"/><stop style="stop-color:#b9392f" offset="0"/><stop style="stop-color:#a23a36" offset=".44"/><stop style="stop-color:#8d463a" offset=".99"/><stop style="stop-color:#8d463a" offset="1"/></linearGradient><path d="M52.014,10.239l21.449,3.019c-1.145-4.864-4.66-8.003-10.652-8.985L52.014,10.239z" class="st31"/></g></svg>