<svg xmlns="http://www.w3.org/2000/svg" xmlns:ev="http://www.w3.org/2001/xml-events" xmlns:xlink="http://www.w3.org/1999/xlink" width="1600.003" height="1066.666" class="st54" color-interpolation-filters="sRGB" viewBox="0 0 1200 800" xml:space="preserve"><style type="text/css">.st1,.st2{fill:#fff;stroke:#c7c8c8;stroke-width:.25}.st2{fill:none;stroke:none}.st3{fill:#000;font-family:Segoe UI;font-size:1.5em;font-weight:700}.st4{fill:#0078d4;stroke:none;stroke-width:.25}.st5{fill:#fff;font-family:Segoe UI;font-size:1.5em}.st6{fill:none;stroke:#000;stroke-width:1.5}.st7{fill:#000;font-family:Segoe UI;font-size:1.5em}.st8{font-size:1em}.st9{fill:#000;font-family:Segoe UI;font-size:1.16666em}.st10{fill:url(#grad0-53)}.st10,.st11,.st12,.st13,.st14{stroke:none;stroke-linecap:butt;stroke-width:.75}.st11{fill:url(#grad0-57)}.st12{fill:#9cebff}.st13{fill:#773adc}.st14{fill:#fff}.st15{fill:#0078d4}.st15,.st16,.st17,.st18{stroke:none;stroke-linecap:butt;stroke-width:.75}.st16{fill:#fff;fill-opacity:.8}.st17{fill:url(#grad0-78)}.st18{fill:url(#grad0-84)}.st19{fill:#eef5fb;stroke:#0078d4;stroke-dasharray:.01,7.5;stroke-width:1.5}.st20{fill:#326ce5}.st21{fill:#fff}.st22{fill:#949494}.st22,.st23,.st24,.st25,.st26,.st27,.st28{stroke:none;stroke-linecap:butt;stroke-width:.75}.st23{fill:url(#grad0-105)}.st24{fill:url(#grad0-110)}.st25{fill:url(#grad0-114)}.st26{fill:#50e6ff}.st27{fill:#1490df}.st28{fill:url(#grad3-130)}.st29{fill:url(#grad7-137)}.st29,.st30,.st31,.st32,.st33{stroke:none;stroke-linecap:butt;stroke-width:.75}.st30{fill:#ff9300;fill-opacity:.75}.st31{fill:url(#grad0-148)}.st32{fill:#e8e8e8}.st33{fill:#32bedd}.st34{fill:#50e6ff}.st35{stroke:none;stroke-linecap:butt;stroke-width:.75}.st36{fill:#0078d4;font-family:Segoe UI;font-size:1.16666em;font-weight:700}.st37{fill:none;stroke:#4ab3ff;stroke-dasharray:10.5,7.5;stroke-width:1.5}.st38{stroke:#0078d4;stroke-linecap:round;stroke-linejoin:round;stroke-width:1}.st39,.st40{fill:url(#grad0-229);stroke:none;stroke-linecap:butt;stroke-width:.75}.st40{fill:url(#grad0-233)}.st41{fill:#000}.st42,.st43{stroke:#3c3c41;stroke-linecap:round;stroke-linejoin:round;stroke-width:1.5}.st43{stroke-width:1}.st44,.st45{fill:#0078d4;stroke:#fff;stroke-width:1}.st45{stroke-width:1.25}.st46,.st47{stroke:#156082}.st46{marker-end:url(#mrkr4-269);stroke-linecap:round;stroke-linejoin:round;stroke-width:1.5}.st47{fill:#156082;fill-opacity:1;stroke-opacity:1;stroke-width:.37313432835821}.st48,.st49{stroke:#3c3c41}.st48{marker-end:url(#mrkr4-275);stroke-linecap:round;stroke-linejoin:round;stroke-width:1.5}.st49{fill:#3c3c41;fill-opacity:1;stroke-opacity:1;stroke-width:.37313432835821}.st50{fill:#eef5fb;stroke:#0078d4;stroke-dasharray:10.5,7.5;stroke-width:1.5}.st51{fill:#c5dff5;stroke:none;stroke-width:.25}.st52{marker-end:url(#mrkr2-318);stroke:#3c3c41;stroke-linecap:round;stroke-linejoin:round;stroke-width:1.5}.st53{fill:#c3f1ff;stroke:none;stroke-linecap:butt;stroke-width:.75}.st54{fill:none;fill-rule:evenodd;font-size:12px;overflow:visible;stroke-linecap:square;stroke-miterlimit:3}</style><defs id="Patterns_And_Gradients"><linearGradient id="grad0-53" x1="0" x2="1" y1="0" y2="0" gradientTransform="rotate(-90 0.5 0.5)"><stop offset="0" stop-color="#0078d4" stop-opacity="1"/><stop offset=".82" stop-color="#5ea0ef" stop-opacity="1"/></linearGradient><linearGradient id="grad0-57" x1="0" x2="1" y1="0" y2="0" gradientTransform="rotate(-90 0.5 0.5)"><stop offset="0" stop-color="#1490df" stop-opacity="1"/><stop offset=".98" stop-color="#1f56a3" stop-opacity="1"/></linearGradient><linearGradient id="grad0-78" x1="0" x2="1" y1="0" y2="0" gradientTransform="rotate(90 0.5 0.5)"><stop offset=".22" stop-color="#32d4f5" stop-opacity="1"/><stop offset="1" stop-color="#198ab3" stop-opacity="1"/></linearGradient><linearGradient id="grad0-84" x1="0" x2="1" y1="0" y2="0" gradientTransform="rotate(85.401203911388 0.5 0.5)"><stop offset=".22" stop-color="#32d4f5" stop-opacity="1"/><stop offset="1" stop-color="#198ab3" stop-opacity="1"/></linearGradient><linearGradient id="grad0-105" x1="0" x2="1" y1="0" y2="0" gradientTransform="rotate(90 0.5 0.5)"><stop offset=".18" stop-color="#5ea0ef" stop-opacity="1"/><stop offset="1" stop-color="#0078d4" stop-opacity="1"/></linearGradient><linearGradient id="grad0-110" x1="0" x2="1" y1="0" y2="0" gradientTransform="rotate(44.92 0.5 0.5)"><stop offset="0" stop-color="#86d633" stop-opacity="1"/><stop offset="1" stop-color="#5e9624" stop-opacity="1"/></linearGradient><linearGradient id="grad0-114" x1="0" x2="1" y1="0" y2="0" gradientTransform="rotate(45.175215904905 0.5 0.5)"><stop offset="0" stop-color="#86d633" stop-opacity="1"/><stop offset="1" stop-color="#5e9624" stop-opacity="1"/></linearGradient><radialGradient id="grad3-130" cx=".5" cy=".5" r=".73"><stop offset=".18" stop-color="#5ea0ef" stop-opacity="1"/><stop offset=".56" stop-color="#5c9fee" stop-opacity="1"/><stop offset=".69" stop-color="#559ced" stop-opacity="1"/><stop offset=".78" stop-color="#4a97e9" stop-opacity="1"/><stop offset=".86" stop-color="#3990e4" stop-opacity="1"/><stop offset=".93" stop-color="#2387de" stop-opacity="1"/><stop offset=".99" stop-color="#087bd6" stop-opacity="1"/><stop offset="1" stop-color="#0078d4" stop-opacity="1"/></radialGradient><radialGradient id="grad7-137" cx="0" cy="0" r="1.4"><stop offset=".27" stop-color="#ffd70f" stop-opacity="1"/><stop offset=".49" stop-color="#ffcb12" stop-opacity="1"/><stop offset=".88" stop-color="#feac19" stop-opacity="1"/><stop offset="1" stop-color="#fea11b" stop-opacity="1"/></radialGradient><linearGradient id="grad0-148" x1="0" x2="1" y1="0" y2="0" gradientTransform="rotate(0 0.5 0.5)"><stop offset="0" stop-color="#005ba1" stop-opacity="1"/><stop offset=".07" stop-color="#0060a9" stop-opacity="1"/><stop offset=".36" stop-color="#0071c8" stop-opacity="1"/><stop offset=".52" stop-color="#0078d4" stop-opacity="1"/><stop offset="1" stop-color="#005ba1" stop-opacity="1"/></linearGradient><linearGradient id="grad0-229" x1="0" x2="1" y1="0" y2="0" gradientTransform="rotate(-90 0.5 0.5)"><stop offset="0" stop-color="#0078d4" stop-opacity="1"/><stop offset=".065" stop-color="#0a7cd7" stop-opacity="1"/><stop offset=".34" stop-color="#2e8ce1" stop-opacity="1"/><stop offset=".595" stop-color="#4897e9" stop-opacity="1"/><stop offset=".82" stop-color="#589eed" stop-opacity="1"/><stop offset="1" stop-color="#5ea0ef" stop-opacity="1"/></linearGradient><linearGradient id="grad0-233" x1="0" x2="1" y1="0" y2="0" gradientTransform="rotate(-90 0.5 0.5)"><stop offset="0" stop-color="#fea11b" stop-opacity="1"/><stop offset=".285" stop-color="#fea51a" stop-opacity="1"/><stop offset=".545" stop-color="#feb018" stop-opacity="1"/><stop offset=".8" stop-color="#ffc314" stop-opacity="1"/><stop offset="1" stop-color="#ffd70f" stop-opacity="1"/></linearGradient></defs><defs id="Markers"><g id="lend4"><path style="stroke:none" d="M 2 1 L 0 0 L 2 -1 L 2 1"/></g><marker id="mrkr4-269" class="st47" markerUnits="strokeWidth" orient="auto" overflow="visible" refX="-5.36"><use transform="scale(-2.68,-2.68)" xlink:href="#lend4"/></marker><marker id="mrkr4-275" class="st49" markerUnits="strokeWidth" orient="auto" overflow="visible" refX="-5.36"><use transform="scale(-2.68,-2.68)" xlink:href="#lend4"/></marker><g id="lend2"><path style="stroke:none" d="M 1 1 L 0 0 L 1 -1 L 1 1"/></g><marker id="mrkr2-318" class="st49" markerUnits="strokeWidth" orient="auto" overflow="visible" refX="-2.68"><use transform="scale(-2.68,-2.68)" xlink:href="#lend2"/></marker></defs><g><title>Simple diagram</title><g id="shape632-1" transform="translate(-1.41669,0)"><title>Sheet.632</title><rect width="1202.83" height="800" x="0" y="0" class="st1"/></g><g id="shape293-3" transform="translate(-375,-710)"><title>Sheet.293</title><rect width="200" height="80" x="0" y="720" class="st2"/></g><g id="shape634-5" transform="translate(101.83,-670.313)"><title>Sheet.634</title><desc>Extensibility model</desc><rect width="238.17" height="40" x="0" y="760" class="st2"/><text x="38.16" y="785.4" class="st3">Extensibility model</text></g><g id="shape635-8" transform="translate(50,-575.313)"><title>圆角矩形.635</title><desc>Container image</desc><path d="M12.2 800 L155 800 A12.1966 12.1966 -180 0 0 167.2 787.8 L167.2 727.2 A12.1966 12.1966 -180 0 0 155 715 L12.2 715 A12.1966 12.1966 -180 0 0 -0 727.2 L0 787.8 A12.1966 12.1966 -180 0 0 12.2 800 Z" class="st4"/><text x="17.94" y="762.9" class="st5">Container image</text></g><g id="shape636-11" transform="translate(236.402,-575.313)"><title>圆角矩形.636</title><desc>Container registy</desc><path d="M9.19 800 L144.41 800 A9.18654 9.18654 -180 0 0 153.6 790.81 L153.6 724.19 A9.18654 9.18654 -180 0 0 144.41 715 L9.19 715 A9.18654 9.18654 -180 0 0 0 724.19 L0 790.81 A9.18654 9.18654 -180 0 0 9.19 800 Z" class="st6"/><text x="9.12" y="762.9" class="st7">Container registy</text></g><g id="shape637-14" transform="translate(457.5,-670.313)"><title>Sheet.637</title><desc>Catalog</desc><rect width="193.17" height="40" x="0" y="760" class="st2"/><text x="64.15" y="785.4" class="st3">Catalog</text></g><g id="shape764-17" transform="translate(772.5,-495.313)"><title>Sheet.764</title><desc>Build</desc><rect width="50" height="40" x="0" y="760" class="st2"/><text x="4" y="785.4" class="st7">Build</text></g><g id="shape765-20" transform="translate(728,-444.313)"><title>Sheet.765</title><desc>Code</desc><rect width="50" height="21" x="0" y="779" class="st2"/><text x="4" y="794.9" class="st7">Code</text></g><g id="shape766-23" transform="translate(792.593,-433.313)"><title>Sheet.766</title><desc>Debug</desc><rect width="62.407" height="40" x="0" y="760" class="st2"/><text x="4" y="785.4" class="st7">Debug</text></g><g id="shape768-26" transform="translate(50,-345.091)"><title>Sheet.768</title><desc>Platform Engineers</desc><rect width="260" height="32.444" x="0" y="767.556" class="st2"/><text x="4" y="789.18" class="st3">Platform Engineers</text></g><g id="shape769-29" transform="translate(50,-283.091)"><title>Sheet.769</title><desc>Curate templates and map environment settings by type</desc><rect width="260" height="70" x="0" y="730" class="st2"/><text x="4" y="759.6" class="st7">Curate<tspan class="st8"> </tspan><tspan class="st8">templates </tspan>and map <tspan x="4" class="st8" dy="1.2em">environment settings by type</tspan></text></g><g id="group770-35" transform="translate(971.83,-389.091)"><title>Sheet.770</title><g id="shape771-36" transform="translate(0,-85)"><title>Sheet.771</title><desc>Developers</desc><rect width="146.994" height="32.444" x="0" y="767.556" class="st2"/><text x="4" y="789.18" class="st3">Developers</text></g><g id="shape772-39" transform="translate(0,-51.2223)"><title>Sheet.772</title><desc>Continuity between inner and outer loops</desc><rect width="158.17" height="40" x="0" y="760" class="st2"/><text x="4" y="775.8" class="st9">Continuity between <tspan x="4" class="st8" dy="1.2em">inner and outer loops</tspan></text></g></g><g id="shape791-43" transform="translate(860.829,-677.869)"><title>Sheet.791</title><desc>Development or Test Subscription</desc><rect width="299.17" height="32.444" x="0" y="767.556" class="st2"/><text x="4" y="789.18" class="st3">Development or Test Subscription</text></g><g id="group814-46" transform="translate(875,-447.813)"><title>Sheet.814</title><g id="group815-47" transform="translate(4.47642E-13,-5.22232)"><title>Sheet.815</title><g id="group816-48"><title>VM 应用程序定义</title><g id="group817-49"><title>Sheet.817</title><g id="shape818-50" transform="translate(0,-14.895)"><title>Sheet.818</title><path d="M0 798.07 A2.27527 1.93029 -180 0 0 2.28 800 L65.98 800 A2.27527 1.93029 -180 0 0 68.26 798.07 L68.26 763.33 A2.27527 1.93029 -180 0 0 65.98 761.4 L2.28 761.4 A2.27527 1.93029 -180 0 0 -0 763.33 L0 798.07 Z" class="st10"/></g><g id="shape819-54" transform="translate(17.1021,0)"><title>Sheet.819</title><path d="M30.72 796.78 C23.97 795.88 23.7 791.76 23.74 785.1 L10.2 785.1 C10.2 791.76 10.2 795.88 3.34 796.78 A3.79203 3.21707 -180 0 0 0 800 L34.13 800 A4.02335 3.41331 -180 0 0 30.72 796.78 Z" class="st11"/></g><g id="group820-58" transform="translate(22.5133,-24.305)"><title>Sheet.820</title><g id="shape821-59" transform="translate(5.18371,-4.07603)"><title>Sheet.821</title><path d="M0 799.65 a0.417133 0.353886 -180 0 0 0.417124 0.353878 L10.17 800 a0.417133 0.353886 -180 0 0 0.417124 -0.353878 L10.59 791.37 a0.417133 0.353886 -180 0 0 -0.417124 -0.353878 L0.42 791.01 a0.417133 0.353886 -180 0 0 -0.417124 0.353878 L0 799.65 Z" class="st12"/></g><g id="shape822-61" transform="translate(12.0549,-9.75738)"><title>Sheet.822</title><path d="M10.42 790.36 L0.41 790.36 a0.413332 0.350661 -180 0 0 -0.413332 0.347444 L0 792.25 a0.413332 0.350661 -180 0 0 0.413332 0.350661 L7.77 792.6 a0.826663 0.701322 0 0 1 0.830455 0.701322 L8.6 799.65 a0.40954 0.347444 -180 0 0 0.40954 0.347444 L10.84 800 a0.40954 0.347444 -180 0 0 0.413332 -0.347444 L11.25 791.06 a0.830455 0.704539 -180 0 0 -0.830455 -0.704539 Z" class="st13"/></g><g id="shape823-63"><title>Sheet.823</title><path d="M18.96 791.72 L18.96 797.31 a0.758407 0.643414 0 0 1 -0.758407 0.643414 L3.17 797.95 a0.758407 0.643414 0 0 1 -0.758407 -0.643414 L2.41 785.27 a0.758407 0.643414 0 0 1 0.758407 -0.643414 L10.71 784.62 a0.413332 0.350661 -180 0 0 0.40954 -0.350661 L11.12 782.93 a0.413332 0.350661 -180 0 0 -0.40954 -0.350661 L0.76 782.58 a0.758407 0.643414 -180 0 0 -0.758407 0.643414 L0 799.36 a0.758407 0.643414 -180 0 0 0.758407 0.643414 L20.62 800 a0.758407 0.643414 -180 0 0 0.758407 -0.643414 L21.38 791.72 a0.413332 0.350661 -180 0 0 -0.413332 -0.350661 L19.38 791.37 a0.40954 0.347444 -180 0 0 -0.413332 0.347444 L18.96 791.72 Z" class="st14"/></g></g></g></g></g><g id="shape824-65" transform="translate(0,-20.8355)"><title>Sheet.824</title><path d="M0 798.12 A2.3129 1.88261 -180 0 0 2.31 800 L67.53 800 A2.3129 1.88261 -180 0 0 69.84 798.12 L69.84 764 A2.3129 1.88261 -180 0 0 67.53 762.11 L2.31 762.11 A2.3129 1.88261 -180 0 0 -0 764 L0 798.12 Z" class="st10"/></g><g id="group825-68" transform="translate(38.5049,2.27374E-13)"><title>组</title><g id="shape826-69" transform="translate(25.919,-6.92527)"><title>Sheet.826</title><path d="M23.29 800 A2.25755 2.2422 -180 0 0 25.58 797.76 a0.800146 0.794703 -180 0 0 -0.0571533 -0.368969 C24.63 790.29 20.55 784.5 12.77 784.5 C5 784.5 0.8 789.5 0 797.39 A2.31471 2.29896 -180 0 0 2.06 799.89 L23.29 799.89 L23.29 800 Z" class="st15"/></g><g id="shape827-71" transform="translate(34.8349,-11.7786)"><title>Sheet.827</title><path d="M3.89 791.14 A6.9727 6.92527 0 0 1 0 790.01 L3.86 800 L7.66 790.09 A7.25846 7.20909 0 0 1 3.89 791.14 Z" class="st16"/></g><g id="shape828-73" transform="translate(31.5486,-20.6339)"><title>Sheet.828</title><ellipse cx="7.173" cy="792.876" class="st15" rx="7.173" ry="7.124"/></g><g id="shape829-75"><title>Sheet.829</title><path d="M34.83 800 A3.40062 3.37749 -180 0 0 38.24 796.62 A1.88606 1.87323 -180 0 0 38.24 796.23 C36.89 785.61 30.81 776.98 19.2 776.98 C7.6 776.98 1.26 784.3 0 796.14 A3.4292 3.40587 -180 0 0 3.06 799.86 L34.78 799.86 L34.83 800 Z" class="st17"/></g><g id="shape830-79" transform="translate(13.6311,-7.29424)"><title>Sheet.830</title><path d="M5.72 786.8 A10.6305 10.5582 0 0 1 0 785.1 L5.72 800 L11.43 785.21 A10.8877 10.8136 0 0 1 5.72 786.8 Z" class="st16"/></g><g id="shape831-81" transform="translate(8.54441,-20.492)"><title>Sheet.831</title><ellipse cx="10.716" cy="789.357" class="st18" rx="10.716" ry="10.643"/></g></g></g><g id="group832-85" transform="translate(440,-483.216)"><title>Sheet.832</title><g id="shape640-86" transform="translate(-7.99361E-14,9.99998)"><title>圆角矩形.452</title><path d="M23.25 800 L209.25 800 A23.2496 23.2496 -180 0 0 232.5 776.75 L232.5 636.15 A23.2496 23.2496 -180 0 0 209.25 612.9 L23.25 612.9 A23.2496 23.2496 -180 0 0 -0 636.15 L0 776.75 A23.2496 23.2496 -180 0 0 23.25 800 Z" class="st6"/></g><g id="shape795-88" transform="translate(19.3735,-10.8874)"><title>圆角矩形.795</title><path d="M19.32 800 L173.85 800 A19.3167 19.3167 -180 0 0 193.17 780.68 L193.17 701.87 A19.3167 19.3167 -180 0 0 173.85 682.56 L19.32 682.56 A19.3167 19.3167 -180 0 0 0 701.87 L0 780.68 A19.3167 19.3167 -180 0 0 19.32 800 Z" class="st19"/></g><g id="group641-90" transform="translate(30.22,-79.19)"><title>Kubernetes logo with no border.453</title><g id="group642-91"><title>g1350</title><g id="shape643-92"><title>path3055</title><path d="M17.17 765.44 A2.34869 2.30371 -90 0 0 16.29 765.67 L4.24 771.59 A2.34869 2.30371 -90 0 0 2.99 773.18 L0.02 786.47 A2.34869 2.30371 -90 0 0 0.34 788.27 A2.34869 2.30371 -90 0 0 0.47 788.46 L8.8 799.12 A2.34869 2.30371 -90 0 0 10.61 800 L23.98 800 A2.34869 2.30371 -90 0 0 25.78 799.11 L34.11 788.46 A2.34869 2.30371 -90 0 0 34.56 786.47 L31.58 773.18 A2.34869 2.30371 -90 0 0 30.34 771.58 L18.29 765.67 A2.34869 2.30371 -90 0 0 17.17 765.44 Z" class="st20"/></g><g id="shape644-95" transform="translate(4.51761,-4.41587)"><title>path3059</title><path d="M12.77 774.38 C12.37 774.38 12.05 774.75 12.05 775.2 C12.05 775.21 12.05 775.22 12.05 775.22 C12.05 775.29 12.05 775.36 12.05 775.41 C12.06 775.68 12.12 775.88 12.15 776.12 C12.21 776.64 12.26 777.06 12.23 777.46 C12.2 777.61 12.09 777.75 12 777.85 L11.98 778.16 C11.55 778.2 11.11 778.26 10.68 778.37 C8.8 778.8 7.19 779.79 5.96 781.13 C5.88 781.08 5.75 780.97 5.7 780.94 C5.58 780.96 5.45 781 5.28 780.9 C4.95 780.68 4.66 780.37 4.3 780 C4.14 779.82 4.02 779.65 3.83 779.48 C3.78 779.44 3.72 779.39 3.67 779.35 C3.52 779.22 3.34 779.16 3.17 779.15 C2.94 779.14 2.73 779.23 2.59 779.41 C2.34 779.73 2.42 780.22 2.77 780.51 C2.77 780.51 2.78 780.51 2.78 780.51 C2.83 780.55 2.89 780.61 2.93 780.64 C3.13 780.79 3.32 780.87 3.53 781 C3.96 781.27 4.32 781.5 4.6 781.77 C4.71 781.89 4.73 782.11 4.74 782.2 L4.98 782.41 C3.74 784.33 3.17 786.69 3.5 789.1 L3.2 789.19 C3.12 789.29 3.01 789.46 2.89 789.51 C2.52 789.63 2.1 789.67 1.6 789.73 C1.36 789.75 1.16 789.74 0.91 789.79 C0.85 789.8 0.78 789.82 0.71 789.83 C0.71 789.83 0.71 789.83 0.71 789.83 C0.71 789.83 0.7 789.84 0.7 789.84 C0.27 789.94 0 790.34 0.09 790.74 C0.18 791.14 0.59 791.38 1.02 791.28 C1.02 791.28 1.03 791.28 1.03 791.28 C1.03 791.28 1.04 791.28 1.04 791.27 C1.1 791.26 1.18 791.25 1.23 791.23 C1.48 791.16 1.65 791.06 1.88 790.98 C2.35 790.8 2.75 790.65 3.13 790.6 C3.29 790.58 3.46 790.7 3.55 790.75 L3.86 790.69 C4.59 793 6.1 794.86 8.02 796.03 L7.89 796.35 C7.94 796.48 7.99 796.65 7.95 796.77 C7.81 797.14 7.57 797.54 7.3 797.98 C7.17 798.18 7.03 798.34 6.91 798.57 C6.89 798.63 6.85 798.71 6.82 798.77 C6.64 799.18 6.77 799.65 7.13 799.82 C7.49 800 7.93 799.81 8.12 799.4 C8.12 799.4 8.13 799.4 8.13 799.4 C8.13 799.4 8.13 799.4 8.13 799.4 C8.15 799.34 8.19 799.27 8.22 799.21 C8.32 798.97 8.35 798.77 8.42 798.53 C8.61 798.04 8.72 797.52 8.98 797.2 C9.05 797.11 9.17 797.08 9.29 797.05 L9.46 796.74 C11.13 797.4 13 797.58 14.87 797.14 C15.3 797.04 15.71 796.91 16.11 796.76 C16.16 796.84 16.24 797 16.26 797.04 C16.39 797.09 16.52 797.11 16.63 797.27 C16.83 797.62 16.96 798.03 17.13 798.52 C17.2 798.75 17.23 798.96 17.34 799.2 C17.36 799.26 17.4 799.33 17.43 799.39 C17.62 799.8 18.06 799.99 18.42 799.81 C18.78 799.63 18.91 799.16 18.73 798.76 C18.7 798.7 18.66 798.61 18.64 798.56 C18.52 798.33 18.38 798.17 18.25 797.97 C17.98 797.53 17.75 797.16 17.61 796.79 C17.55 796.6 17.62 796.48 17.66 796.35 C17.64 796.32 17.58 796.14 17.54 796.05 C19.54 794.84 21.01 792.91 21.7 790.68 C21.79 790.69 21.96 790.72 22.01 790.73 C22.12 790.66 22.22 790.56 22.41 790.58 C22.8 790.64 23.19 790.78 23.67 790.96 C23.89 791.05 24.07 791.15 24.32 791.22 C24.37 791.23 24.44 791.24 24.5 791.26 C24.51 791.26 24.51 791.26 24.52 791.26 C24.52 791.26 24.53 791.26 24.53 791.26 C24.96 791.36 25.37 791.12 25.46 790.72 C25.55 790.33 25.27 789.92 24.85 789.82 C24.79 789.81 24.7 789.78 24.64 789.77 C24.39 789.72 24.18 789.73 23.95 789.71 C23.44 789.66 23.03 789.61 22.66 789.49 C22.5 789.43 22.4 789.25 22.34 789.17 L22.05 789.08 C22.2 787.96 22.16 786.79 21.9 785.62 C21.64 784.44 21.17 783.36 20.55 782.41 C20.63 782.34 20.77 782.22 20.81 782.18 C20.82 782.04 20.81 781.91 20.94 781.76 C21.23 781.48 21.58 781.26 22.01 780.98 C22.22 780.86 22.41 780.78 22.61 780.62 C22.66 780.59 22.72 780.53 22.77 780.49 C23.12 780.21 23.2 779.72 22.95 779.4 C22.7 779.08 22.22 779.05 21.87 779.33 C21.82 779.37 21.76 779.43 21.71 779.46 C21.52 779.64 21.4 779.8 21.24 779.98 C20.88 780.35 20.59 780.66 20.27 780.89 C20.13 780.97 19.92 780.94 19.83 780.94 L19.55 781.14 C17.99 779.45 15.86 778.37 13.57 778.16 C13.56 778.07 13.55 777.89 13.55 777.83 C13.46 777.74 13.34 777.66 13.32 777.46 C13.28 777.06 13.34 776.64 13.4 776.12 C13.43 775.88 13.49 775.68 13.5 775.41 C13.5 775.35 13.49 775.27 13.49 775.2 C13.49 774.75 13.17 774.38 12.77 774.38 L12.77 774.38 ZM11.87 780.13 L11.66 784.02 L11.64 784.02 C11.63 784.37 11.35 784.65 11.01 784.65 C10.87 784.65 10.74 784.6 10.63 784.52 L10.63 784.53 L7.52 782.27 C8.48 781.3 9.7 780.59 11.1 780.26 C11.36 780.2 11.61 780.16 11.87 780.13 L11.87 780.13 ZM13.68 780.13 C15.32 780.34 16.83 781.1 18 782.27 L14.92 784.52 L14.91 784.51 C14.63 784.72 14.25 784.66 14.03 784.39 C13.95 784.28 13.9 784.15 13.89 784.01 L13.89 784.01 L13.68 780.13 ZM6.4 783.72 L9.23 786.32 L9.23 786.34 C9.48 786.57 9.52 786.96 9.31 787.24 C9.22 787.35 9.1 787.43 8.98 787.46 L8.97 787.48 L5.34 788.55 C5.16 786.82 5.56 785.13 6.4 783.72 L6.4 783.72 ZM19.13 783.72 C19.55 784.42 19.87 785.21 20.06 786.05 C20.24 786.89 20.29 787.73 20.21 788.54 L16.56 787.46 L16.56 787.44 C16.23 787.35 16.03 787.01 16.11 786.67 C16.14 786.53 16.21 786.41 16.31 786.32 L16.31 786.31 L19.13 783.72 L19.13 783.72 ZM12.19 786.53 L13.35 786.53 L14.07 787.45 L13.81 788.61 L12.77 789.12 L11.73 788.61 L11.47 787.45 L12.19 786.53 ZM15.91 789.7 C15.96 789.69 16.01 789.7 16.06 789.71 L16.06 789.7 L19.82 790.35 C19.27 791.94 18.22 793.31 16.81 794.23 L15.36 790.61 L15.36 790.61 C15.23 790.29 15.36 789.91 15.67 789.76 C15.75 789.72 15.83 789.7 15.91 789.7 L15.91 789.7 ZM9.61 789.71 C9.89 789.72 10.15 789.92 10.22 790.22 C10.25 790.36 10.23 790.5 10.18 790.62 L10.19 790.64 L8.75 794.22 C7.4 793.33 6.33 792 5.75 790.36 L9.47 789.71 L9.48 789.72 C9.52 789.71 9.56 789.71 9.61 789.71 L9.61 789.71 ZM12.75 791.28 C12.85 791.28 12.95 791.3 13.05 791.35 C13.17 791.41 13.27 791.51 13.33 791.62 L13.35 791.62 L15.18 795.03 C14.94 795.12 14.7 795.19 14.45 795.24 C13.04 795.57 11.65 795.47 10.38 795.03 L12.21 791.63 L12.21 791.63 C12.32 791.42 12.53 791.29 12.75 791.28 L12.75 791.28 Z" class="st21"/></g></g></g><g id="group645-98" transform="translate(64.86,-23.53)"><title>应用服务环境</title><g id="group646-99"><title>Sheet.646</title><g id="shape647-100"><title>Sheet.647</title><path d="M18.58 779.02 L0 779.02 L0 762.75 C0 761.24 1.19 760.01 2.68 760 L18.58 760 L18.58 779.02 ZM2.31 776.68 L16.28 776.68 L16.28 762.3 L2.68 762.3 C2.47 762.3 2.31 762.47 2.31 762.68 L2.31 776.68 ZM39.28 779.02 L20.7 779.02 L20.7 760 L36.6 760 C38.09 760.01 39.28 761.24 39.28 762.75 L39.28 779.02 ZM23 776.68 L36.97 776.68 L36.97 762.75 C37.01 762.55 36.88 762.35 36.69 762.31 C36.66 762.3 36.63 762.3 36.6 762.3 L23 762.3 L23 776.68 ZM18.58 800 L2.68 800 C1.21 800 0.01 798.8 0 797.3 L0 781 L18.58 781 L18.58 800 ZM2.31 783.35 L2.31 797.3 C2.31 797.51 2.47 797.68 2.68 797.68 L16.28 797.68 L16.28 783.35 L2.31 783.35 ZM36.6 800 L20.7 800 L20.7 781 L39.28 781 L39.28 797.3 C39.27 798.8 38.07 800 36.6 800 ZM23 797.65 L36.6 797.65 C36.81 797.65 36.97 797.49 36.97 797.28 L36.97 783.36 L23 783.36 L23 797.65 Z" class="st22"/></g><g id="shape648-102" transform="translate(5.7447,-9.66249)"><title>Sheet.648</title><path d="M27.82 793.51 C27.74 790.36 25.45 787.73 22.39 787.26 C22.23 782.84 18.61 779.36 14.26 779.46 C10.82 779.43 7.72 781.6 6.53 784.89 C2.84 785.41 0.06 788.59 0 792.39 C0.15 796.65 3.64 800 7.83 799.89 L21.61 799.89 C25.01 799.78 27.74 796.98 27.82 793.51 Z" class="st23"/></g></g></g><g id="group649-106" transform="translate(120.36,-25.27)"><title>虚拟网络</title><g id="shape650-107" transform="translate(32.026,-16.2024)"><title>Sheet.650</title><ellipse cx="3.207" cy="795.568" class="st24" rx="3.207" ry="4.432"/></g><g id="shape651-111" transform="translate(21.7971,-16.1642)"><title>Sheet.651</title><ellipse cx="3.207" cy="795.568" class="st25" rx="3.207" ry="4.432"/></g><g id="shape652-115" transform="translate(11.5683,-16.1642)"><title>Sheet.652</title><ellipse cx="3.207" cy="795.568" class="st25" rx="3.207" ry="4.432"/></g><g id="shape653-118" transform="translate(0.0234987,-2.27374E-13)"><title>Sheet.653</title><path d="M17.08 797.12 L15.24 799.66 a0.82937 1.1462 0 0 1 -1.17218 0 L0.49 780.95 A1.65874 2.2924 0 0 1 0.48 777.71 L2.32 775.16 L17.08 795.5 a0.82937 1.1462 0 0 1 -7.10543E-15 1.62378 L17.08 797.12 Z" class="st26"/></g><g id="shape654-120" transform="translate(0,-16.5577)"><title>Sheet.654</title><path d="M14.99 775.74 L16.83 778.28 a0.82937 1.1462 0 0 1 -3.55271E-15 1.61996 L2.33 800 L0.49 797.47 A1.65874 2.2924 0 0 1 0.49 794.22 L13.82 775.75 a0.82937 1.1462 0 0 1 1.17218 0 L14.99 775.74 Z" class="st27"/></g><g id="shape655-122" transform="translate(32.4387,-0.034386)"><title>Sheet.655</title><path d="M15.01 775.16 L16.84 777.7 A1.65874 2.2924 0 0 1 16.84 780.94 L3.25 799.66 a0.82937 1.1462 0 0 1 -1.17218 0 L0.24 797.12 a0.82937 1.1462 0 0 1 -8.21565E-15 -1.61996 L15.01 775.16 Z" class="st26"/></g><g id="shape656-124" transform="translate(32.6834,-16.5807)"><title>Sheet.656</title><path d="M16.59 797.46 L14.75 800 L0.24 779.9 a0.82937 1.1462 0 0 1 -1.73195E-14 -1.62378 L2.11 775.72 a0.82937 1.1462 0 0 1 1.17218 0 L16.61 794.19 A1.65874 2.2924 0 0 1 16.61 797.44 L16.59 797.46 Z" class="st27"/></g></g><g id="group657-126" transform="translate(95.22,-76.47)"><title>Icon-security-245</title><g id="shape658-127" transform="translate(3.29712,-1.6004)"><title>aacf8311-a317-400f-b613-74bd00d</title><path d="M14.9 761.6 A21.0783 20.6058 -180 1 0 35.98 782.21 A21.1031 20.6301 -180 0 0 14.9 761.6 ZM14.9 800 A18.2017 17.7937 0 1 1 33.11 782.21 A18.2017 17.7937 0 0 1 14.9 800 Z" class="st28"/></g><g id="shape659-131" transform="translate(0,-1.6004)"><title>Sheet.659</title><ellipse cx="18.202" cy="782.206" class="st14" rx="18.202" ry="17.794"/></g><g id="group660-133" transform="translate(5.86999,0)"><title>Sheet.660</title><g id="shape661-134"><title>bd983c41-db73-40ec-a4f4-da1213f</title><path d="M23.34 776.56 A4.56283 4.46056 -180 0 0 23.34 770.28 L15.53 762.62 A4.53803 4.43631 -180 0 0 9.13 762.62 L1.32 770.28 A4.56283 4.46056 -180 0 0 1.32 776.56 L7.82 783.03 A1.2647 1.23635 0 0 1 8.19 783.9 L8.19 795.73 A1.56227 1.52726 -180 0 0 8.64 796.8 L11.61 799.71 a1.01672 0.993928 -180 0 0 1.43828 0 L15.93 796.9 L17.61 795.25 a0.61995 0.606054 -180 0 0 -1.42109E-14 -0.824233 L16.4 793.24 a0.669546 0.654538 0 0 1 -1.06581E-14 -0.89696 L17.61 791.15 a0.61995 0.606054 -180 0 0 3.55271E-15 -0.824233 L16.4 789.14 a0.669546 0.654538 0 0 1 -3.55271E-15 -0.89696 L17.61 787.05 a0.61995 0.606054 -180 0 0 2.13163E-14 -0.824233 L15.93 784.56 L15.93 783.95 L23.34 776.56 ZM12.33 764.48 A2.56659 2.50906 0 1 1 12.33 769.5 A2.56659 2.50906 0 1 1 12.33 764.48 Z" class="st29"/></g><g id="shape662-138" transform="translate(10.1247,-4.03522)"><title>ad2e7e44-9bfd-4775-8bf4-8ef26a5</title><path d="M0.17 799.91 a0.570354 0.557569 -180 0 0 0.942323 -0.412117 L1.12 789.8 a0.595152 0.581812 -180 0 0 -0.272778 -0.484843 a0.545556 0.533327 -180 0 0 -0.843131 0.484843 L0 799.5 a0.694344 0.67878 -180 0 0 0.173586 0.412117 Z" class="st30"/></g><g id="shape663-140" transform="translate(6.08264,-25.6971)"><title>a996fbff-3936-4b24-b407-369336c</title><path d="M0 799.32 a0.69436 0.678796 -180 0 0 0.694344 0.67878 L12.13 800 a0.69436 0.678796 -180 0 0 0.694344 -0.67878 L12.82 799.2 a0.69436 0.678796 -180 0 0 -0.694344 -0.67878 L0.69 798.52 a0.69436 0.678796 -180 0 0 -0.694344 0.67878 L0 799.32 Z" class="st30"/></g><g id="shape664-142" transform="translate(6.08264,-23.2971)"><title>bb12d31c-3352-4a18-87dd-a169a4a</title><path d="M0 799.32 a0.69436 0.678796 -180 0 0 0.694344 0.67878 L12.13 800 a0.69436 0.678796 -180 0 0 0.694344 -0.67878 L12.82 799.2 a0.69436 0.678796 -180 0 0 -0.694344 -0.67878 L0.69 798.52 a0.69436 0.678796 -180 0 0 -0.694344 0.67878 L0 799.32 Z" class="st30"/></g></g></g><g id="group665-144" transform="translate(158.22,-76.47)"><title>Icon-databases-137</title><g id="shape666-145" transform="translate(20.7953,-13.0736)"><title>Sheet.666</title><path d="M9.24 780.43 C4.14 780.43 0 778.79 0 776.74 L0 796.33 C0 798.33 4.07 799.97 9.13 800 L9.24 800 C14.35 800 18.48 798.35 18.48 796.33 L18.48 776.74 C18.48 778.79 14.35 780.43 9.24 780.43 Z" class="st31"/></g><g id="shape667-149" transform="translate(20.7953,-32.6407)"><title>Sheet.667</title><path d="M18.48 796.31 C18.48 798.35 14.35 800 9.24 800 C4.14 800 0 798.35 0 796.31 C0 794.26 4.14 792.64 9.24 792.64 C14.35 792.64 18.48 794.29 18.48 796.31 Z" class="st32"/></g><g id="shape668-151" transform="translate(22.9441,-34.2857)"><title>Sheet.668</title><path d="M14.19 797.66 C14.19 798.96 11 800 7.09 800 C3.19 800 0 798.96 0 797.66 C0 796.36 3.19 795.32 7.09 795.32 C11 795.32 14.19 796.36 14.19 797.66 Z" class="st26"/></g><g id="shape669-153" transform="translate(24.4229,-34.2857)"><title>Sheet.669</title><path d="M5.61 798.21 A19.9866 24.9639 -180 0 0 -0 799.08 A18.0226 22.5108 -180 0 0 5.61 800 A18.0226 22.5108 -180 0 0 11.23 799.08 A19.9866 24.9639 -180 0 0 5.61 798.21 Z" class="st33"/></g><g id="shape670-155" transform="translate(0,-13.0736)"><title>Sheet.670</title><path d="M9.24 780.43 C4.14 780.43 0 778.79 0 776.74 L0 796.33 C0 798.33 4.07 799.97 9.24 800 C14.35 800 18.48 798.35 18.48 796.33 L18.48 776.74 C18.48 778.79 14.35 780.43 9.24 780.43 Z" class="st31"/></g><g id="shape671-158" transform="translate(0,-32.6407)"><title>Sheet.671</title><path d="M18.48 796.31 C18.48 798.35 14.35 800 9.24 800 C4.14 800 0 798.35 0 796.31 C0 794.26 4.14 792.64 9.24 792.64 C14.35 792.64 18.48 794.29 18.48 796.31 Z" class="st32"/></g><g id="shape672-160" transform="translate(2.14885,-34.2857)"><title>Sheet.672</title><path d="M14.19 797.66 C14.19 798.96 11 800 7.09 800 C3.19 800 0 798.96 0 797.66 C0 796.36 3.19 795.32 7.09 795.32 C11 795.32 14.19 796.36 14.19 797.66 Z" class="st26"/></g><g id="shape673-162" transform="translate(3.62762,-34.2857)"><title>Sheet.673</title><path d="M5.61 798.21 A19.9866 24.9639 -180 0 0 0 799.08 A18.0226 22.5108 -180 0 0 5.61 800 A18.0226 22.5108 -180 0 0 11.23 799.08 A19.9866 24.9639 -180 0 0 5.61 798.21 Z" class="st33"/></g><g id="group674-164" transform="translate(10.3976,-2.27374E-13)"><title>Sheet.674</title><g id="shape675-165"><title>Sheet.675</title><path d="M9.24 780.43 C4.14 780.43 0 778.79 0 776.74 L0 796.33 C0 798.35 4.07 799.97 9.13 800 L9.24 800 C14.35 800 18.48 798.35 18.48 796.33 L18.48 776.74 C18.48 778.79 14.35 780.43 9.24 780.43 Z" class="st31"/></g><g id="shape676-168" transform="translate(0,-19.5671)"><title>Sheet.676</title><path d="M18.48 796.31 C18.48 798.35 14.35 800 9.24 800 C4.14 800 0 798.35 0 796.31 C0 794.26 4.14 792.64 9.24 792.64 C14.35 792.64 18.48 794.29 18.48 796.31 Z" class="st32"/></g><g id="shape677-170" transform="translate(2.14885,-21.2121)"><title>Sheet.677</title><path d="M14.19 797.66 C14.19 798.96 11 800 7.09 800 C3.19 800 0 798.96 0 797.66 C0 796.36 3.19 795.44 7.09 795.44 C11 795.44 14.19 796.48 14.19 797.78 L14.19 797.66 Z" class="st34"/><path d="M14.19 797.66 C14.19 798.96 11 800 7.09 800 C3.19 800 0 798.96 0 797.66 C0 796.36 3.19 795.44 7.09 795.44 C11 795.44 14.19 796.48 14.19 797.78" class="st35"/></g><g id="shape678-173" transform="translate(3.62762,-21.2121)"><title>Sheet.678</title><path d="M5.61 798.33 A19.9866 24.9639 -180 0 0 -0 799.19 A18.0226 22.5108 -180 0 0 5.61 800 A18.0226 22.5108 -180 0 0 11.23 799.08 A19.9866 24.9639 -180 0 0 5.61 798.33 Z" class="st33"/></g></g></g><g id="shape639-175" transform="translate(55,-126.278)"><title>Sheet.639</title><desc>IaC templates</desc><rect width="120" height="40" x="0" y="760" class="st2"/><text x="4" y="785.4" class="st7">Ia<tspan class="st8">C</tspan> <tspan class="st8">t</tspan>emplates</text></g></g><g id="group852-180" transform="translate(820,-117.41)"><title>Sheet.852</title><g id="group774-181"><title>Sheet.774</title><g id="shape775-182" transform="translate(35,-5.47158)"><title>圆角矩形.531</title><path d="M17.1 800 L287.9 800 A17.1041 17.1041 -180 0 0 305 782.9 L305 669.67 A17.1041 17.1041 -180 0 0 287.9 652.57 L17.1 652.57 A17.1041 17.1041 -180 0 0 0 669.67 L0 782.9 A17.1041 17.1041 -180 0 0 17.1 800 Z" class="st6"/></g></g><g id="group850-184" transform="translate(49.2966,-27.5)"><title>Sheet.850</title><g id="group836-185"><title>Sheet.836</title><g id="shape777-186" transform="translate(4.40686,-49.5966)"><title>矩形.411</title><desc>Dev Env</desc><rect width="70" height="30.615" x="0" y="769.385" class="st2"/><text x="8.57" y="788.89" class="st36">Dev Env</text></g><g id="shape782-189"><title>圆角矩形.596</title><path d="M4.57 800 L76.84 800 A4.5652 4.5652 -180 0 0 81.41 795.43 L81.41 714.97 A4.5652 4.5652 -180 0 0 76.84 710.4 L4.57 710.4 A4.5652 4.5652 -180 0 0 -0 714.97 L0 795.43 A4.5652 4.5652 -180 0 0 4.57 800 Z" class="st37"/></g><g id="shape786-191" transform="translate(1.61029,-10.3558)"><title>Sheet.786</title><desc>Dev Sub</desc><rect width="79.407" height="29.288" x="0" y="770.712" class="st2"/><text x="14.07" y="789.56" class="st9">Dev Sub</text></g><g id="shape835-194" transform="translate(11.6103,-45)"><title>直线</title><path d="M0 800 L61.11 800" class="st38"/></g></g><g id="group837-197" transform="translate(95,0)"><title>Sheet.837</title><g id="shape838-198" transform="translate(4.40686,-49.5966)"><title>矩形.411</title><desc>Test Env</desc><rect width="70" height="30.615" x="0" y="769.385" class="st2"/><text x="7.62" y="788.89" class="st36">Test Env</text></g><g id="shape839-201"><title>圆角矩形.596</title><path d="M4.57 800 L76.84 800 A4.5652 4.5652 -180 0 0 81.41 795.43 L81.41 714.97 A4.5652 4.5652 -180 0 0 76.84 710.4 L4.57 710.4 A4.5652 4.5652 -180 0 0 -0 714.97 L0 795.43 A4.5652 4.5652 -180 0 0 4.57 800 Z" class="st37"/></g><g id="shape840-203" transform="translate(1.61029,-10.3558)"><title>Sheet.840</title><desc>Test Sub</desc><rect width="79.407" height="29.288" x="0" y="770.712" class="st2"/><text x="13.32" y="789.56" class="st9">Test Sub</text></g><g id="shape841-206" transform="translate(11.6103,-45)"><title>直线</title><path d="M0 800 L61.11 800" class="st38"/></g></g><g id="group844-209" transform="translate(190,0)"><title>Sheet.844</title><g id="shape845-210" transform="translate(4.40686,-49.5966)"><title>矩形.411</title><desc>Prod Env</desc><rect width="70" height="30.615" x="0" y="769.385" class="st2"/><text x="5.62" y="788.89" class="st36">Prod Env</text></g><g id="shape846-213"><title>圆角矩形.596</title><path d="M4.57 800 L76.84 800 A4.5652 4.5652 -180 0 0 81.41 795.43 L81.41 714.97 A4.5652 4.5652 -180 0 0 76.84 710.4 L4.57 710.4 A4.5652 4.5652 -180 0 0 -0 714.97 L0 795.43 A4.5652 4.5652 -180 0 0 4.57 800 Z" class="st37"/></g><g id="shape847-215" transform="translate(1.61029,-10.3558)"><title>Sheet.847</title><desc>Prod Sub</desc><rect width="79.407" height="29.288" x="0" y="770.712" class="st2"/><text x="11.41" y="789.56" class="st9">Prod Sub</text></g><g id="shape848-218" transform="translate(11.6103,-45)"><title>直线</title><path d="M0 800 L61.11 800" class="st38"/></g></g></g><g id="group851-221" transform="translate(14.6483,-147.903)"><title>Sheet.851</title><g id="shape781-222" transform="translate(25.7034,0)"><title>Sheet.781</title><desc>Automated Deployment Pipelines</desc><rect width="305" height="49.154" x="0" y="750.846" class="st2"/><text x="9.75" y="780.82" class="st3">Automated Deployment Pipelines</text></g><g id="group787-225" transform="translate(155.514,-35)"><title>Icon-322Artboard 1</title><g id="shape788-226"><title>Sheet.788</title><path d="M29.67 787 L29.67 783.71 L29.17 783.55 L25.51 782.39 L24.51 780.09 L26.51 776.14 L24.01 773.84 L23.51 774 L20.17 775.65 L17.84 774.66 L16.5 770.71 L13.17 770.71 L12.84 771.21 L11.67 774.83 L9.34 775.65 L5.5 773.84 L3.17 776.31 L3.33 776.8 L5 780.09 L4.17 782.39 L0 783.71 L0 787 L0.5 787.17 L4.17 788.32 L5.17 790.62 L3.17 794.57 L5.67 796.87 L6.17 796.71 L9.5 795.06 L11.84 796.05 L13.17 800 L16.5 800 L16.67 799.51 L17.84 795.89 L20.17 794.9 L24.01 796.71 L26.34 794.41 L26.17 793.91 L24.51 790.62 L25.51 788.32 L29.67 787 ZM14.84 791.77 A6.40513 6.3217 0 0 1 8.34 785.36 A6.40513 6.3217 0 0 1 14.84 778.94 A6.40513 6.3217 0 0 1 21.34 785.36 A6.40513 6.3217 0 0 1 14.84 791.77 Z" class="st39"/></g><g id="shape789-230" transform="translate(7.66882,-1.13687E-13)"><title>Sheet.789</title><path d="M6.34 787.82 L0.33 787.82 a0.358434 0.353765 0 0 1 -0.333427 -0.329084 L0 787.33 L7.17 773.34 C7.17 773.18 7.34 773.18 7.5 773.18 L14.5 773.18 a0.358434 0.353765 0 0 1 0.333427 0.329084 L14.84 773.67 L6.34 784.7 L14.5 784.7 a0.358434 0.353765 0 0 1 0.333427 0.329084 a0.166713 0.164542 0 0 1 -0.166713 0.164542 L1 799.18 C0.83 799.18 0 800 0.33 798.85 L6.34 787.82 Z" class="st40"/></g></g></g></g><g id="shape855-234" transform="translate(1805,530.069) rotate(90)"><title>直线箭头.854</title><path d="M10.3 796.8 L10.3 803.2 L16.69 800 L10.3 796.8 Z" class="st41"/><path d="M10.3 796.8 L10.3 803.2 L16.69 800 L10.3 796.8" class="st42"/><path d="M0 800 L10.3 800" class="st42"/></g><g id="shape856-238" transform="translate(1900,530.615) rotate(90)"><title>直线箭头.856</title><path d="M10.3 796.8 L10.3 803.2 L16.69 800 L10.3 796.8 Z" class="st41"/><path d="M10.3 796.8 L10.3 803.2 L16.69 800 L10.3 796.8" class="st42"/><path d="M0 800 L10.3 800" class="st42"/></g><g id="shape857-242" transform="translate(1710,529.687) rotate(90)"><title>直线箭头.857</title><path d="M10.3 796.8 L10.3 803.2 L16.69 800 L10.3 796.8 Z" class="st41"/><path d="M10.3 796.8 L10.3 803.2 L16.69 800 L10.3 796.8" class="st42"/><path d="M0 800 L10.3 800" class="st42"/></g><g id="shape877-246" transform="translate(19.8312,17.4021) rotate(-63.9221)"><title>弧线箭头</title><path d="M111.74 795.17 L109.32 796.3 L113.99 800 L114.15 794.04 L111.74 795.17 Z" class="st41"/><path d="M2.26 795.17 A61.7218 61.7218 0 0 1 111.74 795.17" class="st43"/><path d="M111.74 795.17 L109.32 796.3 L113.99 800 L114.15 794.04 L111.74 795.17" class="st43"/></g><g id="shape878-250" transform="translate(1526.7,-66.7423) rotate(65.3681)"><title>弧线箭头.878</title><path d="M108.22 794.87 L105.65 796.75 L111.98 800 L110.78 792.99 L108.22 794.87 Z" class="st41"/><path d="M3.76 794.87 A67.1608 67.1608 0 0 1 108.22 794.87" class="st43"/><path d="M108.22 794.87 L105.65 796.75 L111.98 800 L110.78 792.99 L108.22 794.87" class="st43"/></g><g id="shape879-254" transform="translate(850.646,1168.46) rotate(179.679)"><title>弧线箭头.879</title><path d="M102.6 794.21 L99.7 796.8 L107.78 800 L105.49 791.62 L102.6 794.21 Z" class="st41"/><path d="M5.18 794.21 A68.9715 68.9715 0 0 1 102.6 794.21" class="st43"/><path d="M102.6 794.21 L99.7 796.8 L107.78 800 L105.49 791.62 L102.6 794.21" class="st43"/></g><g id="shape880-258" transform="translate(792,-527.313)"><title>Sheet.880</title><ellipse cx="5.5" cy="794.5" class="st44" rx="5.5" ry="5.5"/></g><g id="shape881-260" transform="translate(1289.91,-203.998) rotate(45)"><title>Sheet.881</title><ellipse cx="5.5" cy="794.5" class="st44" rx="5.5" ry="5.5"/></g><g id="shape882-262" transform="translate(1400.41,-191.998) rotate(45)"><title>Sheet.882</title><ellipse cx="5.5" cy="794.5" class="st45" rx="5.5" ry="5.5"/></g><g id="shape884-264" transform="translate(214.299,-605.313)"><title>Dynamic connector.884</title><path d="M2.9 787.5 L14.06 787.5" class="st46"/></g><g id="shape887-270" transform="translate(390.5,-605.313)"><title>Dynamic connector.887</title><path d="M0 787.5 L40.33 787.5" class="st48"/></g><g id="shape891-276" transform="translate(646,-228.361)"><title>Dynamic connector.891</title><path d="M0 800 L39.45 800 L39.45 588.55 L70.21 588.55" class="st48"/></g><g id="group889-281" transform="translate(390,-111.765)"><title>Sheet.889</title><g id="shape679-282" transform="translate(0,-227.097)"><title>Sheet.679</title><desc>Environment Type Mappings</desc><rect width="320" height="40" x="0" y="760" class="st2"/><text x="38.06" y="785.4" class="st3">Environment Type Mappings</text></g><g id="shape759-285" transform="translate(41.25,0)"><title>圆角矩形.759</title><path d="M23.25 800 L209.25 800 A23.2496 23.2496 -180 0 0 232.5 776.75 L232.5 599.06 A23.2496 23.2496 -180 0 0 209.25 575.81 L23.25 575.81 A23.2496 23.2496 -180 0 0 -0 599.06 L0 776.75 A23.2496 23.2496 -180 0 0 23.25 800 Z" class="st50"/></g><g id="shape760-287" transform="translate(57.439,-168.548)"><title>圆角矩形.760</title><desc>Subscription</desc><path d="M3.43 800 L200.38 800 A3.43466 3.43466 -180 0 0 203.81 796.57 L203.81 763.43 A3.43466 3.43466 -180 0 0 200.38 760 L3.43 760 A3.43466 3.43466 -180 0 0 0 763.43 L0 796.57 A3.43466 3.43466 -180 0 0 3.43 800 Z" class="st51"/><text x="52.57" y="785.4" class="st7">Subscription</text></g><g id="shape761-290" transform="translate(57.439,-116.882)"><title>圆角矩形.761</title><desc>Identity</desc><path d="M3.43 800 L200.38 800 A3.43466 3.43466 -180 0 0 203.81 796.57 L203.81 763.43 A3.43466 3.43466 -180 0 0 200.38 760 L3.43 760 A3.43466 3.43466 -180 0 0 0 763.43 L0 796.57 A3.43466 3.43466 -180 0 0 3.43 800 Z" class="st51"/><text x="71.78" y="785.4" class="st7">Identity</text></g><g id="shape762-293" transform="translate(57.439,-65.215)"><title>圆角矩形.762</title><desc>Permissions</desc><path d="M3.43 800 L200.38 800 A3.43466 3.43466 -180 0 0 203.81 796.57 L203.81 763.43 A3.43466 3.43466 -180 0 0 200.38 760 L3.43 760 A3.43466 3.43466 -180 0 0 0 763.43 L0 796.57 A3.43466 3.43466 -180 0 0 3.43 800 Z" class="st51"/><text x="55.1" y="785.4" class="st7">Permissions</text></g><g id="shape763-296" transform="translate(57.439,-13.5483)"><title>圆角矩形.763</title><desc>Secrets</desc><path d="M3.43 800 L200.38 800 A3.43466 3.43466 -180 0 0 203.81 796.57 L203.81 763.43 A3.43466 3.43466 -180 0 0 200.38 760 L3.43 760 A3.43466 3.43466 -180 0 0 0 763.43 L0 796.57 A3.43466 3.43466 -180 0 0 3.43 800 Z" class="st51"/><text x="73.56" y="785.4" class="st7">Secrets</text></g></g><g id="shape895-299" transform="translate(673.241,-578.861)"><title>直线</title><path d="M0 800 L12.41 800" class="st42"/></g><g id="shape896-302" transform="translate(1485.5,220.983) rotate(90)"><title>直线.896</title><path d="M0 800 L139.2 800" class="st42"/></g><g id="shape897-305" transform="translate(860.829,-599.265)"><title>圆角矩形.795</title><path d="M12.76 800 L286.41 800 A12.7579 12.7579 -180 0 0 299.17 787.24 L299.17 731.71 A12.7579 12.7579 -180 0 0 286.41 718.95 L12.76 718.95 A12.7579 12.7579 -180 0 0 -0 731.71 L0 787.24 A12.7579 12.7579 -180 0 0 12.76 800 Z" class="st19"/></g><g id="shape833-307" transform="translate(876.098,-609.789)"><title>圆角矩形.833</title><desc>Sandbox, demo, perf, other environments</desc><path d="M10.71 800 L257.09 800 A10.7146 10.7146 -180 0 0 267.8 789.29 L267.8 750.71 A10.7146 10.7146 -180 0 0 257.09 740 L10.71 740 A10.7146 10.7146 -180 0 0 0 750.71 L0 789.29 A10.7146 10.7146 -180 0 0 10.71 800 Z" class="st4"/><text x="49.69" y="764.6" class="st5">Sandbox,<tspan class="st8"> </tspan>demo,<tspan class="st8"> </tspan>perf,<tspan x="55.98" class="st8" dy="1.2em">other environments</tspan></text></g><g id="shape899-313" transform="translate(797.125,-641.851)"><title>直线.899</title><path d="M0 800 L58.85 800" class="st52"/></g><g id="shape900-319" transform="translate(1641.68,379.126) rotate(90)"><title>直线.900</title><path d="M0 800 L224.29 800" class="st42"/></g><g id="shape901-322" transform="translate(842.222,-196.597)"><title>直线.901</title><path d="M0 800 L8.76 800" class="st52"/></g><g id="shape902-327" transform="translate(781,-225.313)"><title>Sheet.902</title><desc>Git push</desc><rect width="69" height="40" x="0" y="760" class="st2"/><text x="4" y="784.2" class="st9">Git push</text></g><g id="shape903-330" transform="translate(790.763,-629.789)"><title>Sheet.903</title><desc>Portal/CLI</desc><rect width="74.237" height="40" x="0" y="760" class="st2"/><text x="4" y="784.2" class="st9">Portal/CLI</text></g><g id="group912-333" transform="translate(56,-384.091)"><title>图像</title><g id="shape913-334" transform="translate(0,-20.386)"><title>Sheet.913</title><path d="M0 797.36 A2.9854 2.64187 -180 0 0 2.99 800 L86.57 800 A2.9854 2.64187 -180 0 0 89.56 797.36 L89.56 749.81 A2.9854 2.64187 -180 0 0 86.57 747.16 L2.99 747.16 A2.9854 2.64187 -180 0 0 0 749.81 L0 797.36 Z" class="st10"/></g><g id="shape914-337" transform="translate(44.78,-31.3935)"><title>Sheet.914</title><path d="M14.93 776.88 L14.93 792.25 L0 800 L0 784.59 L14.93 776.88 Z" class="st26"/></g><g id="shape915-339" transform="translate(29.8533,-46.7601)"><title>Sheet.915</title><path d="M29.85 792.25 L14.98 800 L0 792.25 L14.98 784.55 L29.85 792.25 Z" class="st53"/></g><g id="shape916-341" transform="translate(29.8533,-31.3935)"><title>Sheet.916</title><path d="M14.93 784.63 L14.93 800 L0 792.25 L0 776.88 L14.93 784.63 Z" class="st12"/></g><g id="shape917-343" transform="translate(29.8533,-31.3935)"><title>Sheet.917</title><path d="M0 792.25 L14.93 784.59 L14.93 800 L0 792.25 Z" class="st53"/></g><g id="shape918-345" transform="translate(44.78,-31.3935)"><title>Sheet.918</title><path d="M14.93 792.25 L0 784.59 L0 800 L14.93 792.25 Z" class="st12"/></g><g id="shape919-347" transform="translate(22.4398,0)"><title>Sheet.919</title><path d="M40.3 795.6 C31.45 794.36 31.1 788.73 31.15 779.61 L13.38 779.61 C13.38 788.73 13.38 794.36 4.38 795.6 A4.97556 4.40302 -180 0 0 0 800 L44.78 800 A5.27409 4.6672 -180 0 0 40.3 795.6 Z" class="st11"/></g><g id="shape920-350" transform="translate(7.31407,-25.6696)"><title>Sheet.920</title><path d="M16.97 757.73 L3.28 757.73 A3.28387 2.90599 -180 0 0 0 760.64 L0 772.79 A1.64193 1.453 -180 0 0 1.64 774.24 L2.74 774.24 A1.64193 1.453 -180 0 0 4.38 772.79 L4.38 761.56 L16.97 761.56 A1.64193 1.453 -180 0 0 18.56 760.11 L18.56 759.18 A1.64193 1.453 -180 0 0 16.97 757.73 ZM16.97 795.86 L4.33 795.86 L4.33 784.72 A1.64193 1.453 -180 0 0 2.69 783.27 L1.64 783.27 A1.64193 1.453 -180 0 0 0 784.72 L0 797.05 A3.28387 2.90599 -180 0 0 3.28 800 L16.97 800 A1.69169 1.49703 -180 0 0 18.56 798.28 L18.56 797.31 A1.64193 1.453 -180 0 0 16.97 795.86 ZM71.85 757.86 L58.36 757.86 A1.64193 1.453 -180 0 0 56.72 759.32 L56.72 760.24 A1.64193 1.453 -180 0 0 58.36 761.83 L70.95 761.83 L70.95 772.88 A1.64193 1.453 -180 0 0 72.59 774.33 L73.74 774.33 A1.64193 1.453 -180 0 0 75.38 772.88 L75.38 760.77 A3.28387 2.90599 -180 0 0 71.85 757.86 ZM73.54 783.36 L72.49 783.36 A1.64193 1.453 -180 0 0 70.85 784.81 L70.85 795.99 L58.36 795.99 A1.64193 1.453 -180 0 0 56.72 797.45 L56.72 798.41 A1.64193 1.453 -180 0 0 58.36 799.87 L72.05 799.87 A3.33362 2.95002 -180 0 0 75.38 796.96 L75.38 784.81 A1.64193 1.453 -180 0 0 73.54 783.36 Z" class="st14"/></g></g><g id="group921-352" transform="translate(106.442,-380.313)"><title>组</title><g id="shape922-353" transform="translate(31.9908,-8.98909)"><title>Sheet.922</title><path d="M28.75 800 A2.78641 2.9104 -180 0 0 31.57 797.09 a0.987587 1.03153 -180 0 0 -0.0705419 -0.478927 C30.4 787.4 25.36 779.89 15.77 779.89 C6.17 779.89 0.99 786.37 0 796.61 A2.85695 2.98408 -180 0 0 2.54 799.85 L28.75 799.85 L28.75 800 Z" class="st15"/></g><g id="shape923-355" transform="translate(42.9953,-15.2888)"><title>Sheet.923</title><path d="M4.8 788.51 A8.60612 8.98909 0 0 1 -0 787.03 L4.76 800 L9.45 787.14 A8.95883 9.35749 0 0 1 4.8 788.51 Z" class="st16"/></g><g id="shape924-357" transform="translate(38.9391,-26.7831)"><title>Sheet.924</title><ellipse cx="8.853" cy="790.753" class="st15" rx="8.853" ry="9.247"/></g><g id="shape925-359"><title>Sheet.925</title><path d="M43 800 A4.19725 4.38402 -180 0 0 47.19 795.62 A2.32788 2.43147 -180 0 0 47.19 795.1 C45.53 781.32 38.02 770.12 23.7 770.12 C9.38 770.12 1.55 779.63 0 794.99 A4.23252 4.42086 -180 0 0 3.77 799.82 L42.92 799.82 L43 800 Z" class="st17"/></g><g id="shape926-362" transform="translate(16.8243,-9.46801)"><title>Sheet.926</title><path d="M7.05 782.87 A13.1208 13.7047 0 0 1 0 780.66 L7.05 800 L14.11 780.81 A13.4382 14.0362 0 0 1 7.05 782.87 Z" class="st16"/></g><g id="shape927-364" transform="translate(10.546,-26.5989)"><title>Sheet.927</title><ellipse cx="13.227" cy="786.185" class="st18" rx="13.227" ry="13.815"/></g></g><g id="shape928-367" transform="translate(1210,219.687) rotate(90)"><title>直线.928</title><path d="M0 800 L353 800" class="st42"/></g><g id="shape929-370" transform="translate(410.909,-227.376)"><title>直线.929</title><path d="M0 800 L14.31 800" class="st52"/></g><g id="shape931-375" transform="translate(410,-580.313)"><title>直线.931</title><path d="M0 800 L25.73 800" class="st52"/></g><g id="shape932-380" transform="translate(170,-403.813)"><title>直线.932</title><path d="M0 800 L240 800" class="st42"/></g><g id="shape933-383" transform="translate(1597.12,155.137) rotate(89.7843)"><title>直线.898</title><path d="M0 800 L99.62 800" class="st42"/></g></g></svg>