<svg xmlns="http://www.w3.org/2000/svg" xmlns:ev="http://www.w3.org/2001/xml-events" xmlns:xlink="http://www.w3.org/1999/xlink" width="699.402" height="156" class="st6" color-interpolation-filters="sRGB" viewBox="0 0 524.552 117" xml:space="preserve"><style type="text/css">.st1,.st2{fill:#fff;stroke:none;stroke-linecap:round;stroke-linejoin:round;stroke-width:.75}.st2{fill:#b7dde8;stroke-width:.24}.st3{fill:#000;font-family:Calibri;font-size:.833336em}.st4{font-size:1em}.st5{fill:#000;stroke:#000;stroke-linecap:round;stroke-linejoin:round;stroke-width:.24}.st6{fill:none;fill-rule:evenodd;font-size:12px;overflow:visible;stroke-linecap:square;stroke-miterlimit:3}</style><g><title>Export</title><g id="shape1060-1" transform="translate(18,-18)"><title>Sheet.1060</title><rect width="488.552" height="81" x="0" y="36" class="st1"/></g><g id="shape1061-3" transform="translate(29.5517,-34.5)"><title>Box.1721</title><desc>Chat with a bot</desc><rect width="72" height="48" x="0" y="69" class="st2"/><text x="4.89" y="96" class="st3">Chat with a bot</text></g><g id="shape1062-6" transform="translate(128.552,-34.5)"><title>Box.1722</title><desc>Chat with a human</desc><rect width="72" height="48" x="0" y="69" class="st2"/><text x="12.96" y="90" class="st3">Chat with a <tspan x="21.73" class="st4" dy="1.2em">human</tspan></text></g><g id="shape1063-10" transform="translate(326.552,-34.5)"><title>Box.1723</title><desc>Voice with a human</desc><rect width="72" height="48" x="0" y="69" class="st2"/><text x="11.1" y="90" class="st3">Voice with a <tspan x="21.73" class="st4" dy="1.2em">human</tspan></text></g><g id="shape1064-14" transform="translate(425.552,-34.5)"><title>Box.1724</title><desc>Video with a human</desc><rect width="72" height="48" x="0" y="69" class="st2"/><text x="10.58" y="90" class="st3">Video with a <tspan x="21.73" class="st4" dy="1.2em">human</tspan></text></g><g id="shape1065-18" transform="translate(227.552,-34.5)"><title>Box.1725</title><desc>Voice with a bot or IVR</desc><rect width="72" height="48" x="0" y="69" class="st2"/><text x="11.1" y="90" class="st3">Voice with a <tspan x="15.61" class="st4" dy="1.2em">bot or IVR</tspan></text></g><g id="shape1066-22" transform="translate(109.427,-52.3125)"><title>Chevron.1726</title><path d="M0 117 L5.63 117 L11.25 110.81 L5.63 104.62 L0 104.62 L5.63 110.81 L0 117 Z" class="st5"/></g><g id="shape1067-24" transform="translate(208.427,-52.3125)"><title>Chevron.1727</title><path d="M0 117 L5.63 117 L11.25 110.81 L5.63 104.62 L0 104.62 L5.63 110.81 L0 117 Z" class="st5"/></g><g id="shape1068-26" transform="translate(307.427,-52.3125)"><title>Chevron.1728</title><path d="M0 117 L5.63 117 L11.25 110.81 L5.63 104.62 L0 104.62 L5.63 110.81 L0 117 Z" class="st5"/></g><g id="shape1069-28" transform="translate(406.427,-52.3125)"><title>Chevron.1729</title><path d="M0 117 L5.63 117 L11.25 110.81 L5.63 104.62 L0 104.62 L5.63 110.81 L0 117 Z" class="st5"/></g></g></svg>