<svg xmlns="http://www.w3.org/2000/svg" xmlns:ev="http://www.w3.org/2001/xml-events" xmlns:xlink="http://www.w3.org/1999/xlink" width="853.333" height="266.667" class="st17" color-interpolation-filters="sRGB" viewBox="0 0 640 200" xml:space="preserve"><style type="text/css">.st1{fill:#fff;stroke:none;stroke-width:.25}.st2,.st3{stroke-linecap:butt}.st2{fill:#f0f7fd;stroke:#0078d4;stroke-dasharray:1.5,3;stroke-width:1.5}.st3{fill:#0078d4;stroke:none;stroke-width:.561468}.st4{fill:#fff;font-family:Segoe UI;font-size:1.16666em}.st5{fill:#0078d4;fill-opacity:.23;stroke:none;stroke-linecap:butt;stroke-width:.561468}.st6{fill:#1e1e1e;font-family:Segoe UI;font-size:1.16666em}.st7,.st8{stroke:#3c3c41}.st7{marker-start:url(#mrkr4-19);stroke-linecap:round;stroke-linejoin:round;stroke-width:1.5}.st8{fill:#3c3c41;fill-opacity:1;stroke-opacity:1;stroke-width:.37313432835821}.st10,.st9{stroke:#3c3c41;stroke-linecap:round;stroke-linejoin:round;stroke-width:1.5}.st9{marker-end:url(#mrkr5-25)}.st10{marker-end:url(#mrkr4-36)}.st11{fill:none;stroke:none;stroke-linecap:butt;stroke-width:.561468}.st12{fill:#000;font-family:Segoe UI;font-size:1.16666em}.st13{fill:url(#grad0-45);stroke-width:.75}.st13,.st14,.st15{stroke:none;stroke-linecap:butt}.st14{fill:url(#grad13-50);stroke-width:.561468}.st15{fill:none;stroke-width:.75}.st16{fill:#fff;font-family:Segoe UI;font-size:1.00001em}.st17{fill:none;fill-rule:evenodd;font-size:12px;overflow:visible;stroke-linecap:square;stroke-miterlimit:3}</style><defs id="Patterns_And_Gradients"><linearGradient id="grad0-45" x1="0" x2="1" y1="0" y2="0" gradientTransform="rotate(-90 0.5 0.5)"><stop offset="0" stop-color="#0078d4" stop-opacity="1"/><stop offset=".16" stop-color="#1380da" stop-opacity="1"/><stop offset=".53" stop-color="#3c91e5" stop-opacity="1"/><stop offset=".82" stop-color="#559cec" stop-opacity="1"/><stop offset="1" stop-color="#5ea0ef" stop-opacity="1"/></linearGradient><pattern id="grad13-50" width="1" height="1" x="0" y="0" patternContentUnits="objectBoundingBox"><path d="M 0.5 0.5 L 0 0 L 0 1 z" style="fill:url(#grad0-51)"/><path d="M 0.5 0.5 L 1 0 L 1 1 z" style="fill:url(#grad0-52)"/><path d="M 0.5 0.5 L 0 0 L 1 0 z" style="fill:url(#grad0-53)"/><path d="M 0.5 0.5 L 0 1 L 1 1 z" style="fill:url(#grad0-54)"/></pattern><linearGradient id="grad0-51" x1="0" x2="1" y1="0" y2="0" gradientTransform="rotate(180 0.5 0.5)"><stop offset=".45" stop-color="#0078d4" stop-opacity="1"/><stop offset=".805" stop-color="#0063af" stop-opacity="1"/><stop offset="1" stop-color="#005ba1" stop-opacity="1"/></linearGradient><linearGradient id="grad0-52" x1="0" x2="1" y1="0" y2="0" gradientTransform="rotate(360 0.5 0.5)"><stop offset=".45" stop-color="#0078d4" stop-opacity="1"/><stop offset=".805" stop-color="#0063af" stop-opacity="1"/><stop offset="1" stop-color="#005ba1" stop-opacity="1"/></linearGradient><linearGradient id="grad0-53" x1="0" x2="1" y1="0" y2="0" gradientTransform="rotate(270 0.5 0.5)"><stop offset=".45" stop-color="#0078d4" stop-opacity="1"/><stop offset=".805" stop-color="#0063af" stop-opacity="1"/><stop offset="1" stop-color="#005ba1" stop-opacity="1"/></linearGradient><linearGradient id="grad0-54" x1="0" x2="1" y1="0" y2="0" gradientTransform="rotate(90 0.5 0.5)"><stop offset=".45" stop-color="#0078d4" stop-opacity="1"/><stop offset=".805" stop-color="#0063af" stop-opacity="1"/><stop offset="1" stop-color="#005ba1" stop-opacity="1"/></linearGradient></defs><defs id="Markers"><g id="lend4"><path d="M 2 1 L 0 0 L 2 -1 L 2 1" style="stroke:none"/></g><marker id="mrkr4-19" class="st8" markerUnits="strokeWidth" orient="auto" overflow="visible" refX="5.12"><use transform="scale(2.68)" xlink:href="#lend4"/></marker><g id="lend5"><path d="M 2 1 L 0 0 L 1.98117 -0.993387 C 1.67173 -0.364515 1.67301 0.372641 1.98465 1.00043" style="stroke:none"/></g><marker id="mrkr5-25" class="st8" markerUnits="strokeWidth" orient="auto" overflow="visible" refX="-4.69"><use transform="scale(-2.68,-2.68)" xlink:href="#lend5"/></marker><marker id="mrkr4-36" class="st8" markerUnits="strokeWidth" orient="auto" overflow="visible" refX="-5.36"><use transform="scale(-2.68,-2.68)" xlink:href="#lend4"/></marker></defs><g><title>页-1</title><g id="shape75-1" transform="translate(0,4.2126)"><title>Sheet.75</title><rect width="640" height="204.213" x="0" y="-4.213" class="st1"/></g><g id="shape145-3" transform="translate(27.4074,-18)"><title>圆角矩形</title><path d="M11.84 200 L573.35 200 A11.8357 11.8357 -180 0 0 585.19 188.16 L585.19 47.84 A11.8357 11.8357 -180 0 0 573.35 36 L11.84 36 A11.8357 11.8357 -180 0 0 -0 47.84 L0 188.16 A11.8357 11.8357 -180 0 0 11.84 200 Z" class="st2"/></g><g id="group122-5" transform="translate(625,161.378)"><title>Sheet.122</title></g><g id="shape129-6" transform="translate(74,-34.4572)"><title>Sheet.129</title><desc>Replica 1</desc><rect width="158.733" height="39.086" x="0" y="160.914" class="st3"/><text x="51.53" y="185.01" class="st4">Replica 1</text></g><g id="shape132-9" transform="translate(172.168,-127.457)"><title>Sheet.132</title><rect width="158.733" height="39.086" x="0" y="160.914" class="st5"/></g><g id="shape144-11" transform="translate(414.785,-34.4572)"><title>Sheet.144</title><desc>Replica 2</desc><rect width="158.733" height="39.086" x="0" y="160.914" class="st5"/><text x="51.53" y="185.01" class="st6">Replica 2</text></g><g id="shape154-14" transform="translate(1.83563,-27.0807) rotate(-39.8531)"><title>直线</title><path d="M7.68 200 L8.04 200 L76.95 200" class="st7"/></g><g id="shape155-20" transform="translate(239.282,-65)"><title>直线.155</title><path d="M0 200 L160.35 200" class="st9"/></g><g id="shape156-26" transform="translate(239.282,-42)"><title>直线.156</title><path d="M7.68 200 L8.04 200 L167.38 200" class="st7"/></g><g id="shape157-31" transform="translate(47.7401,-27.6783) rotate(-39.5852)"><title>直线.157</title><path d="M0 200 L69.57 200" class="st10"/></g><g id="group158-37" transform="translate(215,-125.914)"><title>Sheet.158</title><g id="shape141-38" transform="translate(26.9308,0)"><title>Sheet.141</title><desc>Client</desc><rect width="46.138" height="39.086" x="0" y="160.914" class="st11"/><text x="5.35" y="185.01" class="st12">Client</text></g><g id="group151-41" transform="translate(0,-10)"><title>Icon-intune-331</title><g id="shape152-42"><title>Sheet.152</title><path d="M7 194 L13 194 L13 200 L7 200 L7 194 ZM0 186 L6 186 L6 180 L0.84 180 a0.8375 0.8375 -180 0 0 -0.8375 0.8375 L0 186 ZM0.84 200 L6 200 L6 194 L0 194 L0 199.16 a0.8375 0.8375 -180 0 0 0.8375 0.8375 ZM0 193 L6 193 L6 187 L0 187 L0 193 ZM14 200 L19.16 200 a0.8375 0.8375 -180 0 0 0.8375 -0.8375 L20 194 L14 194 L14 200 ZM7 193 L13 193 L13 187 L7 187 L7 193 ZM14 193 L20 193 L20 187 L14 187 L14 193 ZM14 180 L14 186 L20 186 L20 180.84 a0.8375 0.8375 -180 0 0 -0.8375 -0.8375 L14 180 ZM7 186 L13 186 L13 180 L7 180 L7 186 Z" class="st13"/></g></g></g><g id="group159-46" transform="translate(153.205,-90.4143)"><title>Sheet.159</title><g id="shape160-47" transform="translate(0,380.829) scale(1,-1)"><title>Sheet.160</title><ellipse cx="9.586" cy="190.414" class="st14" rx="9.586" ry="9.586"/></g><g id="shape161-55" transform="translate(2.93206,-1.91692)"><title>Sheet.161</title><desc>1</desc><rect width="12.781" height="15.337" x="0" y="184.663" class="st15"/><text x="3.16" y="195.93" class="st16">1</text></g></g><g id="group165-58" transform="translate(310.102,-54.3715)"><title>Sheet.165</title><g id="shape166-59" transform="translate(0,380.829) scale(1,-1)"><title>Sheet.166</title><ellipse cx="9.586" cy="190.414" class="st14" rx="9.586" ry="9.586"/></g><g id="shape167-62" transform="translate(2.93206,-1.91692)"><title>Sheet.167</title><desc>2</desc><rect width="12.781" height="15.337" x="0" y="184.663" class="st15"/><text x="3.16" y="195.93" class="st16">2</text></g></g><g id="group168-65" transform="translate(310.102,-32.8286)"><title>Sheet.168</title><g id="shape169-66" transform="translate(0,380.829) scale(1,-1)"><title>Sheet.169</title><ellipse cx="9.586" cy="190.414" class="st14" rx="9.586" ry="9.586"/></g><g id="shape170-69" transform="translate(2.93206,-1.91692)"><title>Sheet.170</title><desc>3</desc><rect width="12.781" height="15.337" x="0" y="184.663" class="st15"/><text x="3.16" y="195.93" class="st16">3</text></g></g><g id="group171-72" transform="translate(195.926,-90.4143)"><title>Sheet.171</title><g id="shape172-73" transform="translate(0,380.829) scale(1,-1)"><title>Sheet.172</title><ellipse cx="9.586" cy="190.414" class="st14" rx="9.586" ry="9.586"/></g><g id="shape173-76" transform="translate(2.93206,-1.91692)"><title>Sheet.173</title><desc>4</desc><rect width="12.781" height="15.337" x="0" y="184.663" class="st15"/><text x="3.16" y="195.93" class="st16">4</text></g></g></g></svg>