<svg xmlns="http://www.w3.org/2000/svg" xmlns:xlink="http://www.w3.org/1999/xlink" id="Layer_1" x="0" y="0" version="1.1" viewBox="0 0 80 80" xml:space="preserve" style="enable-background:new 0 0 80 80"><style type="text/css">.st3{fill:#fff}.st39{fill:#0078d7}.st40{opacity:.25}</style><g><g><path d="M63.535,69.992H5.83c-2.656,0-4.489-1.919-4.095-4.286l8.57-51.429c0.394-2.367,2.867-4.286,5.523-4.286 h57.706c2.656,0,4.489,1.919,4.095,4.286l-8.57,51.429C68.664,68.074,66.191,69.992,63.535,69.992z" class="st39"/></g><g><path d="M21.856,63.239c-0.902,0-1.793-0.41-2.371-1.187c-0.969-1.3-0.693-3.135,0.616-4.097L44.884,39.72 L26.973,22.917c-1.184-1.111-1.239-2.965-0.121-4.142c1.116-1.175,2.983-1.23,4.165-0.12l20.473,19.206 c0.635,0.596,0.972,1.44,0.92,2.306c-0.053,0.866-0.487,1.665-1.19,2.181L23.607,62.664C23.08,63.052,22.465,63.239,21.856,63.239 z" class="st3"/></g><g><path d="M53.425,63.061H39.748c-1.628,0-2.947-1.311-2.947-2.93s1.319-2.93,2.947-2.93h13.677 c1.628,0,2.947,1.311,2.947,2.93S55.053,63.061,53.425,63.061z" class="st3"/></g><g class="st40"><path d="M73.534,10H15.828c-1.989,0-3.875,1.073-4.862,2.608c14.351,13.69,43.242,41.971,56.943,55.406 c0.59-0.667,1.008-1.521,1.15-2.371l8.57-51.344C78.023,11.932,76.19,10,73.534,10z" class="st3"/></g></g></svg>