<svg xmlns="http://www.w3.org/2000/svg" xmlns:xlink="http://www.w3.org/1999/xlink" id="Shapes" x="0" y="0" enable-background="new 0 0 64 62" version="1.1" viewBox="0 0 64 62" xml:space="preserve"><symbol id="Deleted_Symbol_6" viewBox="0 -32 32 32"><rect width="32" height="2" y="-10"/><rect width="32" height="2" y="-26"/><rect width="32" height="1.99" y="-17.99"/><rect width="32" height="32" y="-32" fill="none"/><rect width="32" height="32" y="-32" fill="none"/></symbol><symbol id="Machine_Learning" viewBox="-32 -31 64 62"><rect width="36" height="13" x="-19" y="-31" fill="#3617FF"/><polygon fill="#8A78FF" points="-2.45 17.01 10 7 -19 -31 -32 -20.88"/><polygon fill="#7A66FF" points="2.59 -10.67 17.32 -.99 32 -21.08 17 -31"/><rect width="20" height="23.94" x="-10" y="7.06" fill="#3617FF"/></symbol><symbol id="New_Symbol_523" viewBox="-27 -6 54 12"><image width="54" height="12" overflow="visible" transform="matrix(1 0 0 -1 -27 6)" xlink:href="AD1CEBC4.png"/></symbol><symbol id="Pencil-02" viewBox="0 -16 16 16"><polyline fill="none" stroke="#000" stroke-miterlimit="10" points="14.88 -4.12 4.69 -14.31 .69 -15.31 1.69 -11.31 11.88 -1.12"/><path fill="none" stroke="#000" stroke-miterlimit="10" d="M11.88-1.12c0.83,0.83,2.17,0.83,3,0c0.83-0.83,0.83-2.17,0-3"/><path fill="none" stroke="#000" stroke-miterlimit="10" d="M4.5-14.5c0,1.66-1.34,3-3,3"/><rect width="16" height="16" y="-16" fill="none"/><line x1="11" x2="14" y1="-2" y2="-5" fill="none" stroke="#000" stroke-miterlimit="10"/></symbol><symbol id="Play-01" viewBox="0 -16 16 16"><g><path d="M4-2.92L11.26-8L4-13.08V-2.92 M3-1v-14l10,7L3-1L3-1z"/></g><rect width="16" height="16" y="-16" fill="none"/></symbol><symbol id="Repairs_x5F_01" viewBox="6 -32 20 32"><g><path fill="#FFF" d="M26-16h-4v8.59l2,2V0h-6v-5.41l2-2V-16h-4v-2h2v-11c0-1.65,1.35-3,3-3s3,1.35,3,3v11h2V-16z M20-2h2v-2.59 l-1-1l-1,1V-2z M22-29c0-0.55-0.45-1-1-1s-1,0.45-1,1v11h2V-29z"/><path fill="#FFF" d="M11,0C8.24,0,6-2.24,6-5c0-1.56,0.75-3.04,2-3.98V-29c0-1.65,1.35-3,3-3s3,1.35,3,3v20.02 c1.25,0.94,2,2.42,2,3.98C16-2.24,13.76,0,11,0z M12.5-7.58L12-7.87V-29c0-0.55-0.45-1-1-1s-1,0.45-1,1v21.13L9.5-7.58 C8.56-7.03,8-6.07,8-5c0,1.3,0.84,2.4,2,2.82V-5l1-1l1,1v2.82C13.16-2.6,14-3.7,14-5C14-6.07,13.44-7.03,12.5-7.58z"/></g></symbol><symbol id="Video_x5F_02" viewBox="0 -16 16 16"><rect width="11" height="7" x=".5" y="-11.5" fill="none" stroke="#101010" stroke-miterlimit="10"/><rect width="16" height="16" y="-16" fill="none"/><polygon fill="none" stroke="#101010" stroke-miterlimit="10" points="11.5 -9.25 15.5 -11.25 15.5 -4.75 11.5 -6.75"/></symbol><symbol id="W10_x5F_CheckboxIndeterminate_x5F_16" viewBox="-4 -4 8 8"><rect width="8" height="8" x="-4" y="-4"/></symbol><symbol id="W10_x5F_Checkbox_x5F_16" viewBox="-8 -8 16 16"><g><path d="M7,7V-7H-7V7H7 M8,8H-8V-8H8V8L8,8z"/></g></symbol><symbol id="W10_x5F_Undo" viewBox="-5.91 -7.91 11.82 15.82"><path fill="none" stroke="#FFF" stroke-miterlimit="10" d="M-2.56-7.56l6.53,6.53c1.91,1.91,1.91,5.02,0,6.93L3.91,5.98 c-1.91,1.91-5.02,1.91-6.93,0l-2.54-2.53"/></symbol><symbol id="gripper_x5F_16" viewBox="0 -16 16 16"><polygon fill="none" stroke="#231F20" stroke-miterlimit="10" points="9.5 -15.5 15.5 -9.5 15.5 -15.5"/><rect width="16" height="16" y="-16" fill="none"/></symbol><symbol id="smallbox_x5F_32" viewBox="0 -32 32 32"><rect width="16" height="16" x="8" y="-24"/><rect width="32" height="32" y="-32" fill="none"/></symbol><symbol id="unlock" viewBox="0 -16 16 16"><rect width="11" height="8" x="2.5" y="-15.5" fill="none" stroke="#000" stroke-miterlimit="10"/><rect width="16" height="16" y="-16" fill="none"/><path d="M8,0C5.72,0,4-1.74,4-4h1c0,1.71,1.29,3,3,3s3-1.29,3-3v-3H6v-1h6v4C12-1.74,10.28,0,8,0z"/></symbol><use width="64" height="62" x="-32" y="-31" overflow="visible" transform="matrix(1 0 0 -1 32 31)" xlink:href="#Machine_Learning"/></svg>