<svg xmlns="http://www.w3.org/2000/svg" xmlns:xlink="http://www.w3.org/1999/xlink" id="Layer_1" x="0" y="0" version="1.1" viewBox="0 0 80 80" xml:space="preserve" style="enable-background:new 0 0 80 80"><style type="text/css">.st1{fill:#8b6ab1}.st2{fill:#5c2d91}.st3{fill:#fff}</style><g><circle cx="40" cy="40" r="40" class="st1"/><path d="M12.3,11.2C4.7,18.5,0,28.7,0,40c0,22.1,17.9,40,40,40c11.3,0,21.5-4.7,28.8-12.3L12.3,11.2z" class="st2"/><g><path d="M27.4,52.7L12.6,31.3c-0.2-0.3-0.4-0.6-0.5-0.8c-0.2-0.3-0.3-0.6-0.4-0.8h-0.1c0,0.2,0,0.5,0.1,0.9 c0,0.4,0,0.9,0,1.5v20.6H9.2V26.1h2.7l14.5,21.1c0.2,0.3,0.4,0.6,0.6,0.9c0.2,0.3,0.3,0.6,0.5,0.8h0.1c0-0.4-0.1-0.9-0.1-1.4 s0-1.1,0-1.7V26.1H30v26.6H27.4z" class="st3"/><path d="M36.9,52.7V26.1h13v2.3H39.3v9.8H49v2.2h-9.7v10.1h11.1v2.2H36.9z" class="st3"/><path d="M63.7,28.3v24.3h-2.5V28.3h-7.7V26h17.8v2.3H63.7z" class="st3"/></g></g></svg>