<svg xmlns="http://www.w3.org/2000/svg" xmlns:xlink="http://www.w3.org/1999/xlink" x="0" y="0" version="1.1" viewBox="0 0 80 80" xml:space="preserve" style="enable-background:new 0 0 80 80"><style type="text/css">.st0{fill:#444}.st1{display:none}.st11,.st6{display:inline}.st6{fill:#fff}.st11{fill:#b5babe}.st12{fill:#fff}.st13{fill:#6e6e6e}.st20{fill:#ccc}</style><g id="Layer_1"><g class="st1"><rect width="54" height="8.875" x="9.764" y="54.125" class="st11"/><polygon points="63.764 53 9.764 53 13.764 33.125 59.764 33.125" class="st11"/><rect width="46.083" height="8.385" x="13.722" y="25.735" class="st11"/><rect width="16.5" height="5.824" x="44.44" y="17.551" class="st11"/><polygon points="29.755 50.75 23.089 50.75 24.089 47.833 30.439 47.833" class="st6"/><polygon points="53.773 50.75 60.439 50.75 59.439 47.833 53.089 47.833" class="st6"/><polygon points="43.773 50.75 50.439 50.75 49.439 47.833 43.089 47.833" class="st6"/><polygon points="40.097 50.75 33.431 50.75 33.688 47.833 39.813 47.833" class="st6"/><polygon points="30.399 45.75 24.345 45.75 25.253 42.833 31.02 42.833" class="st6"/><polygon points="52.21 45.75 58.264 45.75 57.356 42.833 51.589 42.833" class="st6"/><polygon points="43.129 45.75 49.183 45.75 48.275 42.833 42.507 42.833" class="st6"/><polygon points="39.791 45.75 33.737 45.75 33.97 42.833 39.532 42.833" class="st6"/><polygon points="22.755 40.75 17.264 40.75 18.088 37.833 23.318 37.833" class="st6"/><polygon points="30.991 40.75 25.5 40.75 26.324 37.833 31.555 37.833" class="st6"/><polygon points="50.773 40.75 56.264 40.75 55.44 37.833 50.21 37.833" class="st6"/><polygon points="42.537 40.75 48.027 40.75 47.204 37.833 41.973 37.833" class="st6"/><polygon points="39.509 40.75 34.018 40.75 34.23 37.833 39.275 37.833" class="st6"/></g></g><g id="titles"><path d="M74.125,76H6c-1.1,0-2-0.9-2-2V23.864c0-1.1,0.9-2,2-2h68.125c1.1,0,2,0.9,2,2V74 C76.125,75.1,75.225,76,74.125,76z" class="st13"/><rect width="63.875" height="42.136" x="8.125" y="25.864" class="st12"/><ellipse cx="39.875" cy="21.864" class="st13" rx="8" ry="4"/><circle cx="53" cy="8" r="4" class="st13"/><circle cx="27" cy="8" r="4" class="st13"/><circle cx="66" cy="72" r="2" class="st12"/><circle cx="60" cy="72" r="2" class="st12"/><circle cx="54" cy="72" r="2" class="st12"/><rect width="3" height="16" x="31.218" y="5.718" class="st13" transform="matrix(0.7071 -0.7071 0.7071 0.7071 -0.117 27.1525)"/><rect width="3" height="16" x="45.782" y="5.718" class="st13" transform="matrix(0.7071 0.7071 -0.7071 0.7071 23.5485 -29.416)"/><circle cx="41.25" cy="46.72" r="18" class="st20"/><polygon points="54 46.738 33 58.16 33 35.28" class="st0"/></g></svg>