<svg xmlns="http://www.w3.org/2000/svg" xmlns:ev="http://www.w3.org/2001/xml-events" xmlns:xlink="http://www.w3.org/1999/xlink" width="14.377in" height="1199.318" class="st20" color-interpolation-filters="sRGB" viewBox="0 0 1035.15 899.488" xml:space="preserve"><style type="text/css">.st1{visibility:visible}.st2{fill:#a5a5a5;fill-opacity:.4;filter:url(#filter_2.6666667461395);stroke:#a5a5a5;stroke-opacity:.4}.st3{fill:#ebf3fc;stroke:#c7c8c8;stroke-width:.25}.st4{fill:#bfbfbf;fill-opacity:.4;filter:url(#filter_2.6666667461395);stroke:#bfbfbf;stroke-opacity:.4}.st5{fill:#f0f0f0;stroke:#c7c8c8;stroke-width:.25}.st6{fill:#000;font-family:Segoe UI;font-size:1.16666em;font-weight:700}.st7{font-size:.857157em;font-weight:400}.st8{font-size:1em}.st9{fill:#000;font-family:Segoe UI;font-size:1.5em;font-weight:700}.st10{fill:none;stroke:none;stroke-width:.25}.st11{fill:#000;font-family:Segoe UI;font-size:1.00001em}.st12{fill:url(#grad0-64)}.st12,.st13,.st14,.st15,.st16{stroke:none;stroke-linecap:butt;stroke-width:.75}.st13{fill:#86d633}.st14{fill:#b4ec36}.st15{fill:#fff}.st16{fill:#212121}.st17,.st18{stroke:#156082}.st17{marker-end:url(#mrkr4-79);stroke-linecap:round;stroke-linejoin:round;stroke-width:4}.st18{fill:#156082;fill-opacity:1;stroke-opacity:1;stroke-width:.61349693251534}.st19{fill:none;stroke:#c7c8c8;stroke-width:.25}.st20{fill:none;fill-rule:evenodd;font-size:12px;overflow:visible;stroke-linecap:square;stroke-miterlimit:3}</style><defs id="Patterns_And_Gradients"><linearGradient id="grad0-64" x1="0" x2="1" y1="0" y2="0" gradientTransform="rotate(90 0.5 0.5)"><stop offset="0" stop-color="#32d4f5" stop-opacity="1"/><stop offset=".23" stop-color="#31d0f1" stop-opacity="1"/><stop offset=".465" stop-color="#2cc3e6" stop-opacity="1"/><stop offset=".705" stop-color="#25afd4" stop-opacity="1"/><stop offset=".945" stop-color="#1c92ba" stop-opacity="1"/><stop offset="1" stop-color="#198ab3" stop-opacity="1"/></linearGradient></defs><defs id="Markers"><g id="lend4"><path style="stroke:none" d="M 2 1 L 0 0 L 2 -1 L 2 1"/></g><marker id="mrkr4-79" class="st18" markerUnits="strokeWidth" orient="auto" overflow="visible" refX="-3.26"><use transform="scale(-1.63,-1.63)" xlink:href="#lend4"/></marker></defs><defs id="Filters"><filter id="filter_2.6666667461395"><feGaussianBlur stdDeviation="2.667"/></filter></defs><g><title>Page-1</title><g id="shape3-1" transform="translate(241.195,-28.5965)"><title>Rounded Rectangle</title><g id="shadow3-2" class="st1"><path d="M28.76 899.49 L516.63 899.49 A28.757 28.757 -180 0 0 545.39 870.73 L545.39 84.94 A28.757 28.757 -180 0 0 516.63 56.18 L28.76 56.18 A28.757 28.757 -180 0 0 0 84.94 L0 870.73 A28.757 28.757 -180 0 0 28.76 899.49 Z" class="st2" transform="matrix(1,0,0,1,0,3)"/></g><path d="M28.76 899.49 L516.63 899.49 A28.757 28.757 -180 0 0 545.39 870.73 L545.39 84.94 A28.757 28.757 -180 0 0 516.63 56.18 L28.76 56.18 A28.757 28.757 -180 0 0 0 84.94 L0 870.73 A28.757 28.757 -180 0 0 28.76 899.49 Z" class="st3"/></g><g id="shape4-6" transform="translate(453.12,-669.544)"><title>Rounded Rectangle.4</title><desc>Video detector</desc><g id="shadow4-7" class="st1"><path d="M12.15 899.49 L109.38 899.49 A12.1534 12.1534 -180 0 0 121.54 887.33 L121.54 868.87 A12.1534 12.1534 -180 0 0 109.38 856.71 L12.15 856.71 A12.1534 12.1534 -180 0 0 -0 868.87 L0 887.33 A12.1534 12.1534 -180 0 0 12.15 899.49 Z" class="st4" transform="matrix(1,0,0,1,0,3)"/></g><path d="M12.15 899.49 L109.38 899.49 A12.1534 12.1534 -180 0 0 121.54 887.33 L121.54 868.87 A12.1534 12.1534 -180 0 0 109.38 856.71 L12.15 856.71 A12.1534 12.1534 -180 0 0 -0 868.87 L0 887.33 A12.1534 12.1534 -180 0 0 12.15 899.49 Z" class="st5"/><text x="12" y="882.3" class="st6">Video detector</text></g><g id="shape6-12" transform="translate(313.031,-304.84)"><title>Rounded Rectangle.6</title><desc>Image codec AVC/H.264 or RemoteFX</desc><g id="shadow6-13" class="st1"><path d="M12.15 899.49 L109.38 899.49 A12.1534 12.1534 -180 0 0 121.54 887.33 L121.54 798.26 A12.1534 12.1534 -180 0 0 109.38 786.1 L12.15 786.1 A12.1534 12.1534 -180 0 0 -0 798.26 L0 887.33 A12.1534 12.1534 -180 0 0 12.15 899.49 Z" class="st4" transform="matrix(1,0,0,1,0,3)"/></g><path d="M12.15 899.49 L109.38 899.49 A12.1534 12.1534 -180 0 0 121.54 887.33 L121.54 798.26 A12.1534 12.1534 -180 0 0 109.38 786.1 L12.15 786.1 A12.1534 12.1534 -180 0 0 -0 798.26 L0 887.33 A12.1534 12.1534 -180 0 0 12.15 899.49 Z" class="st5"/><text x="19.2" y="833.19" class="st6">Image codec<tspan x="31.85" class="st7" dy="2.15em">AVC/H.264</tspan><tspan x="26.47" class="st7" dy="1.2em">or RemoteFX</tspan></text></g><g id="shape7-20" transform="translate(453.12,-524.659)"><title>Rounded Rectangle.7</title><desc>Image processors</desc><g id="shadow7-21" class="st1"><path d="M12.15 899.49 L109.38 899.49 A12.1534 12.1534 -180 0 0 121.54 887.33 L121.54 798.26 A12.1534 12.1534 -180 0 0 109.38 786.1 L12.15 786.1 A12.1534 12.1534 -180 0 0 0 798.26 L0 887.33 A12.1534 12.1534 -180 0 0 12.15 899.49 Z" class="st4" transform="matrix(1,0,0,1,0,3)"/></g><path d="M12.15 899.49 L109.38 899.49 A12.1534 12.1534 -180 0 0 121.54 887.33 L121.54 798.26 A12.1534 12.1534 -180 0 0 109.38 786.1 L12.15 786.1 A12.1534 12.1534 -180 0 0 0 798.26 L0 887.33 A12.1534 12.1534 -180 0 0 12.15 899.49 Z" class="st5"/><text x="40.25" y="813.4" class="st6">Image <tspan x="25.91" class="st8" dy="1.2em">processors</tspan></text></g><g id="shape9-27" transform="translate(453.12,-304.84)"><title>Rounded Rectangle.9</title><desc>Text codec Custom</desc><g id="shadow9-28" class="st1"><path d="M12.15 899.49 L109.38 899.49 A12.1534 12.1534 -180 0 0 121.54 887.33 L121.54 798.26 A12.1534 12.1534 -180 0 0 109.38 786.1 L12.15 786.1 A12.1534 12.1534 -180 0 0 -0 798.26 L0 887.33 A12.1534 12.1534 -180 0 0 12.15 899.49 Z" class="st4" transform="matrix(1,0,0,1,0,3)"/></g><path d="M12.15 899.49 L109.38 899.49 A12.1534 12.1534 -180 0 0 121.54 887.33 L121.54 798.26 A12.1534 12.1534 -180 0 0 109.38 786.1 L12.15 786.1 A12.1534 12.1534 -180 0 0 -0 798.26 L0 887.33 A12.1534 12.1534 -180 0 0 12.15 899.49 Z" class="st5"/><text x="25.24" y="834.39" class="st6">Text codec<tspan x="40.39" class="st7" dy="2.15em">Custom</tspan></text></g><g id="shape10-34" transform="translate(258.248,-190.98)"><title>Rounded Rectangle.10</title><desc>Graphics channel</desc><g id="shadow10-35" class="st1"><path d="M17.04 899.49 L494.13 899.49 A17.0386 17.0386 -180 0 0 511.17 882.45 L511.17 852.36 A17.0386 17.0386 -180 0 0 494.13 835.32 L17.04 835.32 A17.0386 17.0386 -180 0 0 0 852.36 L0 882.45 A17.0386 17.0386 -180 0 0 17.04 899.49 Z" class="st4" transform="matrix(1,0,0,1,0,3)"/></g><path d="M17.04 899.49 L494.13 899.49 A17.0386 17.0386 -180 0 0 511.17 882.45 L511.17 852.36 A17.0386 17.0386 -180 0 0 494.13 835.32 L17.04 835.32 A17.0386 17.0386 -180 0 0 0 852.36 L0 882.45 A17.0386 17.0386 -180 0 0 17.04 899.49 Z" class="st5"/><text x="183.54" y="872.81" class="st9">Graphics channel</text></g><g id="shape12-40" transform="translate(453.12,-453.538)"><title>Rounded Rectangle.12</title><desc>Image classifier</desc><g id="shadow12-41" class="st1"><path d="M12.15 899.49 L109.38 899.49 A12.1534 12.1534 -180 0 0 121.54 887.33 L121.54 868.87 A12.1534 12.1534 -180 0 0 109.38 856.71 L12.15 856.71 A12.1534 12.1534 -180 0 0 -0 868.87 L0 887.33 A12.1534 12.1534 -180 0 0 12.15 899.49 Z" class="st4" transform="matrix(1,0,0,1,0,3)"/></g><path d="M12.15 899.49 L109.38 899.49 A12.1534 12.1534 -180 0 0 121.54 887.33 L121.54 868.87 A12.1534 12.1534 -180 0 0 109.38 856.71 L12.15 856.71 A12.1534 12.1534 -180 0 0 -0 868.87 L0 887.33 A12.1534 12.1534 -180 0 0 12.15 899.49 Z" class="st5"/><text x="9.81" y="882.3" class="st6">Image classifier</text></g><g id="shape13-46" transform="translate(593.209,-304.84)"><title>Rounded Rectangle.13</title><desc>Video codec AVC/H.264</desc><g id="shadow13-47" class="st1"><path d="M12.15 899.49 L109.38 899.49 A12.1534 12.1534 -180 0 0 121.54 887.33 L121.54 798.26 A12.1534 12.1534 -180 0 0 109.38 786.1 L12.15 786.1 A12.1534 12.1534 -180 0 0 -0 798.26 L0 887.33 A12.1534 12.1534 -180 0 0 12.15 899.49 Z" class="st4" transform="matrix(1,0,0,1,0,3)"/></g><path d="M12.15 899.49 L109.38 899.49 A12.1534 12.1534 -180 0 0 121.54 887.33 L121.54 798.26 A12.1534 12.1534 -180 0 0 109.38 786.1 L12.15 786.1 A12.1534 12.1534 -180 0 0 -0 798.26 L0 887.33 A12.1534 12.1534 -180 0 0 12.15 899.49 Z" class="st5"/><text x="20.66" y="834.39" class="st6">Video codec<tspan x="31.85" class="st7" dy="2.15em">AVC/H.264</tspan></text></g><g id="shape14-53" transform="translate(453.12,-538.833)"><title>Sheet.14</title><desc>Delta detection Motion detection Cache</desc><rect width="121.535" height="32.081" x="0" y="867.406" class="st10"/><text x="20.23" y="872.65" class="st11">Delta detection<tspan x="14.81" class="st8" dy="1.2em">Motion detection</tspan><tspan x="44.7" class="st8" dy="1.2em">Cache</tspan></text></g><g id="group21-58" transform="translate(675.365,-692.158)"><title>MsPortalFx.base.images-74</title></g><g id="group29-59" transform="translate(476.275,-755.095)"><title>Sheet.29</title><g id="group22-60" transform="translate(4.9991,-20.3088)"><title>Sheet.22</title><g id="shape23-61"><title>Sheet.23</title><path d="M0 897.28 A2.21217 2.21217 -180 0 0 2.21 899.49 L63.53 899.49 A2.21217 2.21217 -180 0 0 65.74 897.28 L65.74 856.22 A2.21217 2.21217 -180 0 0 63.53 854.01 L2.21 854.01 A2.21217 2.21217 -180 0 0 -0 856.22 L0 897.28 Z" class="st12"/></g><g id="shape24-65" transform="translate(28.3399,0)"><title>Sheet.24</title><path d="M37.26 880.27 L32.51 875.97 A5.31373 5.31373 -180 0 0 25.61 875.97 L0 899.49 L35.19 899.49 A2.21212 2.21212 -180 0 0 37.4 897.28 L37.4 880.26 L37.26 880.27 Z" class="st13"/></g><g id="shape25-67" transform="translate(13.149,2.27374E-13)"><title>Sheet.25</title><path d="M45.6 899.49 L25.45 881.19 A4.09938 4.09938 -180 0 0 20.13 881.19 L0 899.49 L45.6 899.49 Z" class="st14"/></g><g id="shape26-69" transform="translate(6.07946,-21.2317)"><title>Sheet.26</title><path d="M26.79 893.54 A6.01372 6.01372 -180 0 0 21.57 887.74 A7.58772 7.58772 -180 0 0 13.75 880.5 A7.8391 7.8391 -180 0 0 6.3 885.57 A7.14298 7.14298 -180 0 0 -0 892.48 A7.28994 7.28994 -180 0 0 7.55 899.49 C7.77 899.49 7.99 899.49 8.21 899.46 L20.43 899.46 A1.26075 1.26075 -180 0 0 20.75 899.41 A6.09106 6.09106 -180 0 0 26.79 893.54 Z" class="st15"/></g></g><g id="group27-71"><title>Sheet.27</title><g id="shape28-72"><title>Sheet.28</title><path d="M17.87 899.49 C16.31 899.49 15.05 898.22 15.05 896.67 C15.05 895.24 16.11 894.06 17.48 893.87 L17.87 893.85 L24.45 893.84 L24.45 884.45 L8.46 884.45 C3.98 884.45 0.32 880.97 0.02 876.56 L0 875.99 L0 836.48 C0 832 3.48 828.33 7.88 828.04 L8.46 828.02 L66.76 828.02 C71.24 828.02 74.91 831.5 75.21 835.9 L75.23 836.48 L75.23 875.99 C75.23 880.46 71.75 884.13 67.34 884.43 L66.76 884.45 L50.78 884.45 L50.78 893.84 L57.36 893.85 C58.92 893.85 60.18 895.11 60.18 896.67 C60.18 898.09 59.12 899.28 57.75 899.46 L57.36 899.49 L17.87 899.49 ZM45.13 884.45 L30.08 884.45 L30.09 893.85 L45.13 893.85 L45.13 884.45 ZM66.76 833.66 L8.46 833.66 C7.04 833.66 5.85 834.72 5.67 836.1 L5.64 836.48 L5.64 875.99 C5.64 877.41 6.7 878.59 8.08 878.78 L8.46 878.81 L66.76 878.81 C68.19 878.81 69.37 877.74 69.56 876.37 L69.58 875.99 L69.58 836.48 C69.58 835.05 68.52 833.87 67.15 833.68 L66.76 833.66 Z" class="st16"/></g></g></g><g id="shape33-74" transform="translate(506.801,-755.095)"><title>Dynamic connector</title><path d="M7.09 899.49 L7.09 929.22" class="st17"/></g><g id="shape34-80" transform="translate(506.801,-669.544)"><title>Dynamic connector.34</title><path d="M7.09 899.49 L7.09 917.95" class="st17"/></g><g id="shape35-85" transform="translate(574.656,-690.932)"><title>Dynamic connector.35</title><path d="M0 899.49 L79.32 899.49 L79.32 1159.15" class="st17"/></g><g id="shape36-90" transform="translate(453.12,-581.352)"><title>Dynamic connector.36</title><path d="M0 899.49 L-164.93 899.49 L-164.93 1212.66" class="st17"/></g><g id="shape37-95" transform="translate(506.801,-524.659)"><title>Dynamic connector.37</title><path d="M7.09 899.49 L7.09 914.79" class="st17"/></g><g id="shape38-100" transform="translate(453.12,-474.925)"><title>Dynamic connector.38</title><path d="M0 899.49 L-79.32 899.49 L-79.32 943.15" class="st17"/></g><g id="shape39-105" transform="translate(506.801,-453.538)"><title>Dynamic connector.39</title><path d="M7.09 899.49 L7.09 921.76" class="st17"/></g><g id="shape40-110" transform="translate(520.946,-304.84)"><title>Dynamic connector.40</title><path d="M-7.06 899.49 L-7.1 936.14" class="st17"/></g><g id="shape1001-115" transform="translate(373.569,-304.84)"><title>Dynamic connector.1001</title><path d="M0 899.49 L0 921.53 L140.11 921.53 L140.11 936.14" class="st17"/></g><g id="shape1002-120" transform="translate(653.977,-304.84)"><title>Dynamic connector.1002</title><path d="M0 899.49 L0 921.61 L-140.15 921.61 L-140.15 936.14" class="st17"/></g><g id="shape1003-125" transform="translate(437.888,-836.471)"><title>Sheet.1003</title><desc>Remote session</desc><rect width="152" height="20" x="0" y="879.488" class="st10"/><text x="24.98" y="893.69" class="st6">Remote session</text></g><g id="group1004-128" transform="translate(466.835,-74.3008)"><title>Sheet.1004</title><g id="shape1005-129"><title>Sheet.1005</title><path d="M20 828.91 C14.15 828.91 9.41 833.65 9.41 839.5 L9.41 874.78 C9.41 880.63 14.15 885.37 20 885.37 L74.11 885.37 C79.96 885.37 84.7 880.63 84.7 874.78 L84.7 839.5 C84.7 833.65 79.96 828.91 74.11 828.91 L20 828.91 ZM16.47 839.5 C16.47 837.55 18.05 835.97 20 835.97 L74.11 835.97 C76.06 835.97 77.64 837.55 77.64 839.5 L77.64 874.78 C77.64 876.73 76.06 878.31 74.11 878.31 L20 878.31 C18.05 878.31 16.47 876.73 16.47 874.78 L16.47 839.5 ZM3.53 892.43 C1.58 892.43 0 894.01 0 895.96 C0 897.91 1.58 899.49 3.53 899.49 L90.58 899.49 C92.53 899.49 94.11 897.91 94.11 895.96 C94.11 894.01 92.53 892.43 90.58 892.43 L3.53 892.43 Z" class="st16"/></g></g><g id="group1006-131" transform="translate(482.707,-94.8908)"><title>Sheet.1006</title><g id="shape1007-132"><title>Sheet.1007</title><path d="M-0 897.38 A2.10757 2.10757 -180 0 0 2.11 899.49 L60.53 899.49 A2.10757 2.10757 -180 0 0 62.64 897.38 L62.64 858.27 A2.10757 2.10757 -180 0 0 60.53 856.16 L2.11 856.16 A2.10757 2.10757 -180 0 0 0 858.27 L0 897.38 Z" class="st12"/></g><g id="shape1008-135" transform="translate(26.9999,0)"><title>Sheet.1008</title><path d="M35.5 881.18 L30.98 877.09 A5.06248 5.06248 -180 0 0 24.4 877.09 L0 899.49 L33.53 899.49 A2.10752 2.10752 -180 0 0 35.64 897.38 L35.64 881.17 L35.5 881.18 Z" class="st13"/></g><g id="shape1009-137" transform="translate(12.5272,2.27374E-13)"><title>Sheet.1009</title><path d="M43.44 899.49 L24.25 882.06 A3.90555 3.90555 -180 0 0 19.18 882.06 L0 899.49 L43.44 899.49 Z" class="st14"/></g><g id="shape1010-139" transform="translate(5.792,-20.2278)"><title>Sheet.1010</title><path d="M25.53 893.82 A5.72937 5.72937 -180 0 0 20.55 888.29 A7.22895 7.22895 -180 0 0 13.1 881.39 A7.46844 7.46844 -180 0 0 6 886.23 A6.80524 6.80524 -180 0 0 0 892.81 A6.94525 6.94525 -180 0 0 7.19 899.49 C7.4 899.49 7.61 899.49 7.82 899.46 L19.46 899.46 A1.20114 1.20114 -180 0 0 19.77 899.41 A5.80306 5.80306 -180 0 0 25.53 893.82 Z" class="st15"/></g></g><g id="shape1011-141" transform="translate(506.745,-190.98)"><title>Dynamic connector.1011</title><path d="M7.09 899.49 L7.09 932.55" class="st17"/></g><g id="shape1012-146" transform="translate(437.888,-42.8975)"><title>Sheet.1012</title><desc>Local device</desc><rect width="152" height="20" x="0" y="879.488" class="st10"/><text x="36.04" y="893.69" class="st6">Local device</text></g><g id="shape1013-149" transform="translate(0.25,-0.25)"><title>Sheet.1013</title><rect width="1034.65" height="898.988" x="0" y=".5" class="st19"/></g></g></svg>