<svg xmlns="http://www.w3.org/2000/svg" xmlns:ev="http://www.w3.org/2001/xml-events" xmlns:xlink="http://www.w3.org/1999/xlink" width="1600.003" height="933.333" class="st43" color-interpolation-filters="sRGB" viewBox="0 0 1200 700" xml:space="preserve"><style type="text/css">.st1{fill:none;stroke:none;stroke-width:.25}.st2{fill:#000;font-family:Segoe UI;font-size:1.99999em;font-weight:700}.st3{fill:#c5dff5;stroke:none;stroke-width:.25}.st4{fill:#000;font-family:Segoe UI;font-size:1.5em}.st10{stroke:none;stroke-linecap:butt;stroke-width:.75}.st5{fill:url(#grad0-17)}.st5,.st6,.st7,.st8,.st9{stroke:none;stroke-linecap:butt;stroke-width:.75}.st6{fill:#50e6ff}.st7{fill:#c3f1ff}.st8{fill:#9cebff}.st9{fill:url(#grad0-31)}.st10,.st11{fill:#fff}.st11{stroke:#c7c8c8;stroke-width:.25}.st12{fill:#eef5fb;stroke-dasharray:10.5,7.5}.st12,.st13,.st14{stroke:#0078d4;stroke-width:1.5}.st13{fill:#cae9ff;stroke-dasharray:10.5,7.5}.st14{fill:#eef5fb}.st15{fill:#d9f2d0;stroke:#4ea72e}.st15,.st16,.st17{stroke-width:1.5}.st16{fill:#fbf1d7;stroke:#f4c24f;stroke-dasharray:10.5,7.5}.st17{fill:#f2f2f2;stroke:#7f7f7f}.st18,.st19{fill:#fff;stroke:none;stroke-width:.25}.st19{fill:#f4c24f}.st20{fill:#000;font-family:Segoe UI;font-size:1.5em;font-weight:700}.st21{fill:url(#grad0-119)}.st21,.st22,.st23,.st24,.st25{stroke:none;stroke-linecap:butt;stroke-width:.75}.st22{fill:none}.st23{fill:url(#grad0-130)}.st24{fill:#86d633}.st25{fill:url(#grad0-166)}.st26{fill:#0078d4}.st27{stroke-linecap:round;stroke-linejoin:round;stroke-width:1.5}.st27,.st28,.st29{stroke:#0078d4}.st28{marker-start:url(#mrkr4-172);stroke-linecap:round;stroke-linejoin:round;stroke-width:1.5}.st29{fill:#0078d4;fill-opacity:1;stroke-opacity:1;stroke-width:.37313432835821}.st30{fill:#000}.st31,.st32{stroke:#000;stroke-linecap:round;stroke-linejoin:round;stroke-width:1.5}.st32{marker-end:url(#mrkr4-183);stroke-dasharray:10.5,7.5}.st33{fill:#000;fill-opacity:1;stroke:#000;stroke-opacity:1;stroke-width:.37313432835821}.st34{stroke:#3c3c41;stroke-dasharray:10.5,7.5;stroke-linecap:round;stroke-linejoin:round;stroke-width:1.5}.st35{marker-end:url(#mrkr4-192)}.st35,.st36{stroke:#0078d4;stroke-dasharray:10.5,7.5;stroke-linecap:round;stroke-linejoin:round;stroke-width:1.5}.st37{fill:#000;font-family:Segoe UI;font-size:2.50001em;font-weight:700}.st38,.st39{fill:url(#grad0-210);stroke:none;stroke-linecap:butt;stroke-width:.75}.st39{fill:url(#grad0-218)}.st40{fill:#000;fill-opacity:.33;stroke:#c7c8c8;stroke-width:.25}.st41,.st42{fill:#f2f2f2;stroke:red;stroke-width:6}.st42{fill:#d9f2d0;stroke:none}.st43{fill:none;fill-rule:evenodd;font-size:12px;overflow:visible;stroke-linecap:square;stroke-miterlimit:3}</style><defs id="Patterns_And_Gradients"><linearGradient id="grad0-17" x1="0" x2="1" y1="0" y2="0" gradientTransform="rotate(-90 0.5 0.5)"><stop offset="0" stop-color="#0078d4" stop-opacity="1"/><stop offset=".82" stop-color="#5ea0ef" stop-opacity="1"/></linearGradient><linearGradient id="grad0-31" x1="0" x2="1" y1="0" y2="0" gradientTransform="rotate(-90 0.5 0.5)"><stop offset="0" stop-color="#1490df" stop-opacity="1"/><stop offset=".98" stop-color="#1f56a3" stop-opacity="1"/></linearGradient><linearGradient id="grad0-119" x1="0" x2="1" y1="0" y2="0" gradientTransform="rotate(-45 0.5 0.5)"><stop offset="0" stop-color="#258277" stop-opacity="1"/><stop offset=".42" stop-color="#49a498" stop-opacity="1"/><stop offset=".78" stop-color="#60baad" stop-opacity="1"/><stop offset="1" stop-color="#68c2b5" stop-opacity="1"/></linearGradient><linearGradient id="grad0-130" x1="0" x2="1" y1="0" y2="0" gradientTransform="rotate(-90 0.5 0.5)"><stop offset="0" stop-color="#0078d4" stop-opacity="1"/><stop offset=".105" stop-color="#1480da" stop-opacity="1"/><stop offset=".305" stop-color="#348ee3" stop-opacity="1"/><stop offset=".5" stop-color="#4b98ea" stop-opacity="1"/><stop offset=".68" stop-color="#599eee" stop-opacity="1"/><stop offset=".84" stop-color="#5ea0ef" stop-opacity="1"/></linearGradient><linearGradient id="grad0-166" x1="0" x2="1" y1="0" y2="0" gradientTransform="rotate(-90 0.5 0.5)"><stop offset="0" stop-color="#0078d4" stop-opacity="1"/><stop offset=".155" stop-color="#1380da" stop-opacity="1"/><stop offset=".53" stop-color="#3c91e5" stop-opacity="1"/><stop offset=".82" stop-color="#559cec" stop-opacity="1"/><stop offset="1" stop-color="#5ea0ef" stop-opacity="1"/></linearGradient><linearGradient id="grad0-210" x1="0" x2="1" y1="0" y2="0" gradientTransform="rotate(-90 0.5 0.5)"><stop offset=".15" stop-color="#ccc" stop-opacity="1"/><stop offset="1" stop-color="#707070" stop-opacity="1"/></linearGradient><linearGradient id="grad0-218" x1="0" x2="1" y1="0" y2="0" gradientTransform="rotate(90 0.5 0.5)"><stop offset=".21" stop-color="#ffb34d" stop-opacity="1"/><stop offset="1" stop-color="#faa21d" stop-opacity="1"/></linearGradient></defs><defs id="Markers"><g id="lend4"><path style="stroke:none" d="M 2 1 L 0 0 L 2 -1 L 2 1"/></g><marker id="mrkr4-172" class="st29" markerUnits="strokeWidth" orient="auto" overflow="visible" refX="5.12"><use transform="scale(2.68)" xlink:href="#lend4"/></marker><marker id="mrkr4-183" class="st33" markerUnits="strokeWidth" orient="auto" overflow="visible" refX="-5.36"><use transform="scale(-2.68,-2.68)" xlink:href="#lend4"/></marker><marker id="mrkr4-192" class="st29" markerUnits="strokeWidth" orient="auto" overflow="visible" refX="-5.36"><use transform="scale(-2.68,-2.68)" xlink:href="#lend4"/></marker></defs><g><title>Simple diagram</title><g id="shape1311-1" transform="translate(75,-318.17)"><title>工作表.1311</title><desc>Devices</desc><rect width="123.17" height="40" x="0" y="660" class="st1"/><text x="4" y="690.8" class="st2">Devices</text></g><g id="shape1200-4" transform="translate(46.8295,-211.12)"><title>圆角矩形.1200</title><desc>MPU</desc><path d="M2.08 700 L121.09 700 A2.07569 2.07569 -180 0 0 123.17 697.92 L123.17 666.36 A2.07569 2.07569 -180 0 0 121.09 664.29 L2.08 664.29 A2.07569 2.07569 -180 0 0 0 666.36 L0 697.92 A2.07569 2.07569 -180 0 0 2.08 700 Z" class="st3"/><text x="42.28" y="687.54" class="st4">MPU</text></g><g id="shape1201-7" transform="translate(46.8295,-255.763)"><title>圆角矩形.1201</title><desc>MCU</desc><path d="M2.08 700 L121.09 700 A2.07569 2.07569 -180 0 0 123.17 697.92 L123.17 666.36 A2.07569 2.07569 -180 0 0 121.09 664.29 L2.08 664.29 A2.07569 2.07569 -180 0 0 0 666.36 L0 697.92 A2.07569 2.07569 -180 0 0 2.08 700 Z" class="st3"/><text x="41.75" y="687.54" class="st4">MCU</text></g><g id="shape1202-10" transform="translate(46.8295,-166.477)"><title>圆角矩形.1202</title><desc>Server class</desc><path d="M2.08 700 L121.09 700 A2.07569 2.07569 -180 0 0 123.17 697.92 L123.17 666.36 A2.07569 2.07569 -180 0 0 121.09 664.29 L2.08 664.29 A2.07569 2.07569 -180 0 0 0 666.36 L0 697.92 A2.07569 2.07569 -180 0 0 2.08 700 Z" class="st3"/><text x="15.8" y="687.54" class="st4">Server class</text></g><g id="group1258-13" transform="translate(37.72,-318.17)"><title>图像.1258</title><g id="shape1259-14" transform="translate(0,-9.62194)"><title>工作表.1259</title><path d="M0 698.75 A1.15203 1.24693 -180 0 0 1.15 700 L33.41 700 A1.15203 1.24693 -180 0 0 34.56 698.75 L34.56 676.31 A1.15203 1.24693 -180 0 0 33.41 675.06 L1.15 675.06 A1.15203 1.24693 -180 0 0 -0 676.31 L0 698.75 Z" class="st5"/></g><g id="shape1260-18" transform="translate(17.28,-14.8174)"><title>工作表.1260</title><path d="M5.76 689.09 L5.76 696.34 L0 700 L0 692.73 L5.76 689.09 Z" class="st6"/></g><g id="shape1261-20" transform="translate(11.52,-22.0702)"><title>工作表.1261</title><path d="M11.52 696.34 L5.78 700 L0 696.34 L5.78 692.71 L11.52 696.34 Z" class="st7"/></g><g id="shape1262-22" transform="translate(11.52,-14.8174)"><title>工作表.1262</title><path d="M5.76 692.75 L5.76 700 L0 696.34 L0 689.09 L5.76 692.75 Z" class="st8"/></g><g id="shape1263-24" transform="translate(11.52,-14.8174)"><title>工作表.1263</title><path d="M0 696.34 L5.76 692.73 L5.76 700 L0 696.34 Z" class="st7"/></g><g id="shape1264-26" transform="translate(17.28,-14.8174)"><title>工作表.1264</title><path d="M5.76 696.34 L0 692.73 L0 700 L5.76 696.34 Z" class="st8"/></g><g id="shape1265-28" transform="translate(8.6592,0)"><title>工作表.1265</title><path d="M15.55 697.92 C12.13 697.34 12 694.68 12.02 690.38 L5.16 690.38 C5.16 694.68 5.16 697.34 1.69 697.92 A1.92 2.07817 -180 0 0 0 700 L17.28 700 A2.0352 2.20286 -180 0 0 15.55 697.92 Z" class="st9"/></g><g id="shape1266-32" transform="translate(2.8224,-12.1157)"><title>工作表.1266</title><path d="M6.55 680.05 L1.27 680.05 A1.2672 1.37159 -180 0 0 -0 681.42 L0 687.16 a0.6336 0.685797 -180 0 0 0.6336 0.685797 L1.06 687.84 a0.6336 0.685797 -180 0 0 0.6336 -0.685797 L1.69 681.86 L6.55 681.86 a0.6336 0.685797 -180 0 0 0.6144 -0.685797 L7.16 680.74 a0.6336 0.685797 -180 0 0 -0.6144 -0.685797 ZM6.55 698.05 L1.67 698.05 L1.67 692.79 a0.6336 0.685797 -180 0 0 -0.6336 -0.685797 L0.63 692.1 a0.6336 0.685797 -180 0 0 -0.6336 0.685797 L0 698.61 A1.2672 1.37159 -180 0 0 1.27 700 L6.55 700 a0.6528 0.706578 -180 0 0 0.6144 -0.810487 L7.16 698.73 a0.6336 0.685797 -180 0 0 -0.6144 -0.685797 ZM27.72 680.11 L22.52 680.11 a0.6336 0.685797 -180 0 0 -0.6336 0.685797 L21.89 681.23 a0.6336 0.685797 -180 0 0 0.6336 0.748142 L27.38 681.98 L27.38 687.2 a0.6336 0.685797 -180 0 0 0.6336 0.685797 L28.45 687.88 a0.6336 0.685797 -180 0 0 0.6336 -0.685797 L29.09 681.48 A1.2672 1.37159 -180 0 0 27.72 680.11 ZM28.38 692.14 L27.97 692.14 a0.6336 0.685797 -180 0 0 -0.6336 0.685797 L27.34 698.11 L22.52 698.11 a0.6336 0.685797 -180 0 0 -0.6336 0.685797 L21.89 699.25 a0.6336 0.685797 -180 0 0 0.6336 0.685797 L27.8 699.94 A1.2864 1.39238 -180 0 0 29.09 698.57 L29.09 692.83 a0.6336 0.685797 -180 0 0 -0.7104 -0.685797 Z" class="st10"/></g></g><g id="shape293-34" transform="translate(-375,-710)"><title>工作表.293</title><rect width="200" height="80" x="0" y="620" class="st1"/></g><g id="shape1289-36"><title>工作表.1289</title><rect width="1200" height="700" x="0" y="0" class="st11"/></g><g id="shape1290-38" transform="translate(375,-138.171)"><title>圆角矩形.1165</title><path d="M25 700 L550 700 A24.9996 24.9996 -180 0 0 575 675 L575 233.17 A24.9996 24.9996 -180 0 0 550 208.17 L25 208.17 A24.9996 24.9996 -180 0 0 -0 233.17 L0 675 A24.9996 24.9996 -180 0 0 25 700 Z" class="st12"/></g><g id="shape1291-40" transform="translate(565,-432.5)"><title>圆角矩形.1221</title><path d="M10 700 L355 700 A9.99984 9.99984 -180 0 0 365 690 L365 572.5 A9.99984 9.99984 -180 0 0 355 562.5 L10 562.5 A9.99984 9.99984 -180 0 0 0 572.5 L0 690 A9.99984 9.99984 -180 0 0 10 700 Z" class="st13"/></g><g id="shape1292-42" transform="translate(410,-228.17)"><title>圆角矩形.551</title><path d="M7.5 700 L512.5 700 A7.4999 7.4999 -180 0 0 520 692.5 L520 525 A7.4999 7.4999 -180 0 0 512.5 517.5 L7.5 517.5 A7.4999 7.4999 -180 0 0 -0 525 L0 692.5 A7.4999 7.4999 -180 0 0 7.5 700 Z" class="st13"/></g><g id="shape1293-44" transform="translate(975,-138.171)"><title>圆角矩形.1224</title><path d="M11.11 700 L187.06 700 A11.1132 11.1132 -180 0 0 198.17 688.89 L198.17 396.11 A11.1132 11.1132 -180 0 0 187.06 385 L11.11 385 A11.1132 11.1132 -180 0 0 0 396.11 L0 688.89 A11.1132 11.1132 -180 0 0 11.11 700 Z" class="st14"/></g><g id="shape1294-46" transform="translate(213.947,-204.421)"><title>圆角矩形.1223</title><path d="M8.19 700 L137.86 700 A8.1905 8.1905 -180 0 0 146.05 691.81 L146.05 590.69 A8.1905 8.1905 -180 0 0 137.86 582.5 L8.19 582.5 A8.1905 8.1905 -180 0 0 -0 590.69 L0 691.81 A8.1905 8.1905 -180 0 0 8.19 700 Z" class="st15"/></g><g id="shape1295-48" transform="translate(26.8295,-40)"><title>圆角矩形.1222</title><path d="M11.17 700 L1135.17 700 A11.1703 11.1703 -180 0 0 1146.34 688.83 L1146.34 640.12 A11.1703 11.1703 -180 0 0 1135.17 628.95 L11.17 628.95 A11.1703 11.1703 -180 0 0 0 640.12 L0 688.83 A11.1703 11.1703 -180 0 0 11.17 700 Z" class="st16"/></g><g id="shape1296-50" transform="translate(26.8295,-138.977)"><title>圆角矩形.529</title><path d="M9.38 700 L157.82 700 A9.37621 9.37621 -180 0 0 167.2 690.62 L167.2 475.18 A9.37621 9.37621 -180 0 0 157.82 465.81 L9.38 465.81 A9.37621 9.37621 -180 0 0 -0 475.18 L0 690.62 A9.37621 9.37621 -180 0 0 9.38 700 Z" class="st17"/></g><g id="shape1298-52" transform="translate(573.831,-507.5)"><title>圆角矩形.1167</title><desc>Device registry</desc><path d="M2.82 700 L164.38 700 A2.81763 2.81763 -180 0 0 167.2 697.18 L167.2 662.82 A2.81763 2.81763 -180 0 0 164.38 660 L2.82 660 A2.81763 2.81763 -180 0 0 0 662.82 L0 697.18 A2.81763 2.81763 -180 0 0 2.82 700 Z" class="st18"/><text x="25.09" y="685.4" class="st4">Device registry</text></g><g id="shape1299-55" transform="translate(747.803,-507.5)"><title>圆角矩形.1168</title><desc>Service APls</desc><path d="M2.82 700 L164.38 700 A2.81763 2.81763 -180 0 0 167.2 697.18 L167.2 662.82 A2.81763 2.81763 -180 0 0 164.38 660 L2.82 660 A2.81763 2.81763 -180 0 0 0 662.82 L0 697.18 A2.81763 2.81763 -180 0 0 2.82 700 Z" class="st18"/><text x="36.32" y="685.4" class="st4">Service APls</text></g><g id="shape1300-58" transform="translate(587.817,-580)"><title>工作表.1300</title><desc>loT cloud services</desc><rect width="226.838" height="40" x="0" y="660" class="st1"/><text x="13.83" y="687.2" class="st2">loT cloud services</text></g><g id="shape1301-61" transform="translate(747.803,-457.5)"><title>圆角矩形.1176</title><desc>Device updates</desc><path d="M2.82 700 L164.38 700 A2.81763 2.81763 -180 0 0 167.2 697.18 L167.2 662.82 A2.81763 2.81763 -180 0 0 164.38 660 L2.82 660 A2.81763 2.81763 -180 0 0 0 662.82 L0 697.18 A2.81763 2.81763 -180 0 0 2.82 700 Z" class="st18"/><text x="22.92" y="685.4" class="st4">Device updates</text></g><g id="shape1302-64" transform="translate(573.831,-457.5)"><title>圆角矩形.1178</title><desc>Device provisioning</desc><path d="M2.82 700 L164.38 700 A2.81763 2.81763 -180 0 0 167.2 697.18 L167.2 662.82 A2.81763 2.81763 -180 0 0 164.38 660 L2.82 660 A2.81763 2.81763 -180 0 0 0 662.82 L0 697.18 A2.81763 2.81763 -180 0 0 2.82 700 Z" class="st18"/><text x="5.64" y="685.4" class="st4">Device provisioning</text></g><g id="shape1303-67" transform="translate(450,-268.17)"><title>圆角矩形.1182</title><desc>Message enrichments</desc><path d="M3.49 700 L203.36 700 A3.48586 3.48586 -180 0 0 206.85 696.51 L206.85 663.49 A3.48586 3.48586 -180 0 0 203.36 660 L3.49 660 A3.48586 3.48586 -180 0 0 -0 663.49 L0 696.51 A3.48586 3.48586 -180 0 0 3.49 700 Z" class="st18"/><text x="17.17" y="685.4" class="st4">Message enrichments</text></g><g id="shape1304-70" transform="translate(683.151,-268.17)"><title>圆角矩形.1183</title><desc>Message routing</desc><path d="M3.49 700 L203.36 700 A3.48586 3.48586 -180 0 0 206.85 696.51 L206.85 663.49 A3.48586 3.48586 -180 0 0 203.36 660 L3.49 660 A3.48586 3.48586 -180 0 0 -0 663.49 L0 696.51 A3.48586 3.48586 -180 0 0 3.49 700 Z" class="st18"/><text x="36.83" y="685.4" class="st4">Message routing</text></g><g id="shape1305-73" transform="translate(410,-168.17)"><title>圆角矩形.1186</title><desc>Device management and control</desc><path d="M8.76 700 L511.24 700 A8.76313 8.76313 -180 0 0 520 691.24 L520 668.76 A8.76313 8.76313 -180 0 0 511.24 660 L8.76 660 A8.76313 8.76313 -180 0 0 0 668.76 L0 691.24 A8.76313 8.76313 -180 0 0 8.76 700 Z" class="st3"/><text x="130.49" y="685.4" class="st4">Device management and control</text></g><g id="shape1306-76" transform="translate(981.585,-368.17)"><title>工作表.1306</title><desc>Cloud services</desc><rect width="185" height="40" x="0" y="660" class="st1"/><text x="12.27" y="687.2" class="st2">Cloud services</text></g><g id="shape1307-79" transform="translate(991.402,-257.337)"><title>圆角矩形.1190</title><desc>Analysis</desc><path d="M2.82 700 L164.38 700 A2.81763 2.81763 -180 0 0 167.2 697.18 L167.2 662.82 A2.81763 2.81763 -180 0 0 164.38 660 L2.82 660 A2.81763 2.81763 -180 0 0 0 662.82 L0 697.18 A2.81763 2.81763 -180 0 0 2.82 700 Z" class="st3"/><text x="51.77" y="685.4" class="st4">Analysis</text></g><g id="shape1308-82" transform="translate(991.402,-310.671)"><title>圆角矩形.1191</title><desc>Storage</desc><path d="M2.82 700 L164.38 700 A2.81763 2.81763 -180 0 0 167.2 697.18 L167.2 662.82 A2.81763 2.81763 -180 0 0 164.38 660 L2.82 660 A2.81763 2.81763 -180 0 0 0 662.82 L0 697.18 A2.81763 2.81763 -180 0 0 2.82 700 Z" class="st3"/><text x="52.78" y="685.4" class="st4">Storage</text></g><g id="shape1309-85" transform="translate(991.402,-204.004)"><title>圆角矩形.1194</title><desc>Visualization</desc><path d="M2.82 700 L164.38 700 A2.81763 2.81763 -180 0 0 167.2 697.18 L167.2 662.82 A2.81763 2.81763 -180 0 0 164.38 660 L2.82 660 A2.81763 2.81763 -180 0 0 0 662.82 L0 697.18 A2.81763 2.81763 -180 0 0 2.82 700 Z" class="st3"/><text x="33.73" y="685.4" class="st4">Visualization</text></g><g id="shape1310-88" transform="translate(991.402,-150.671)"><title>圆角矩形.1197</title><desc>Automation</desc><path d="M2.82 700 L164.38 700 A2.81763 2.81763 -180 0 0 167.2 697.18 L167.2 662.82 A2.81763 2.81763 -180 0 0 164.38 660 L2.82 660 A2.81763 2.81763 -180 0 0 0 662.82 L0 697.18 A2.81763 2.81763 -180 0 0 2.82 700 Z" class="st3"/><text x="36.45" y="685.4" class="st4">Automation</text></g><g id="shape1312-91" transform="translate(46.8295,-211.12)"><title>圆角矩形.1200</title><desc>MPU</desc><path d="M2.08 700 L121.09 700 A2.07569 2.07569 -180 0 0 123.17 697.92 L123.17 666.36 A2.07569 2.07569 -180 0 0 121.09 664.29 L2.08 664.29 A2.07569 2.07569 -180 0 0 0 666.36 L0 697.92 A2.07569 2.07569 -180 0 0 2.08 700 Z" class="st3"/><text x="42.28" y="687.54" class="st4">MPU</text></g><g id="shape1313-94" transform="translate(46.8295,-255.763)"><title>圆角矩形.1201</title><desc>MCU</desc><path d="M2.08 700 L121.09 700 A2.07569 2.07569 -180 0 0 123.17 697.92 L123.17 666.36 A2.07569 2.07569 -180 0 0 121.09 664.29 L2.08 664.29 A2.07569 2.07569 -180 0 0 0 666.36 L0 697.92 A2.07569 2.07569 -180 0 0 2.08 700 Z" class="st3"/><text x="41.75" y="687.54" class="st4">MCU</text></g><g id="shape1314-97" transform="translate(46.8295,-166.477)"><title>圆角矩形.1202</title><desc>Server class</desc><path d="M2.08 700 L121.09 700 A2.07569 2.07569 -180 0 0 123.17 697.92 L123.17 666.36 A2.07569 2.07569 -180 0 0 121.09 664.29 L2.08 664.29 A2.07569 2.07569 -180 0 0 0 666.36 L0 697.92 A2.07569 2.07569 -180 0 0 2.08 700 Z" class="st3"/><text x="15.8" y="687.54" class="st4">Server class</text></g><g id="shape1315-100" transform="translate(44.697,-54.6154)"><title>圆角矩形.1208</title><desc>Security</desc><path d="M3.74 700 L218.34 700 A3.74257 3.74257 -180 0 0 222.08 696.26 L222.08 663.74 A3.74257 3.74257 -180 0 0 218.34 660 L3.74 660 A3.74257 3.74257 -180 0 0 0 663.74 L0 696.26 A3.74257 3.74257 -180 0 0 3.74 700 Z" class="st19"/><text x="76.88" y="685.4" class="st20">Security</text></g><g id="shape1316-103" transform="translate(293.828,-54.6154)"><title>圆角矩形.1210</title><desc>Solution management</desc><path d="M3.74 700 L218.34 700 A3.74257 3.74257 -180 0 0 222.08 696.26 L222.08 663.74 A3.74257 3.74257 -180 0 0 218.34 660 L3.74 660 A3.74257 3.74257 -180 0 0 0 663.74 L0 696.26 A3.74257 3.74257 -180 0 0 3.74 700 Z" class="st19"/><text x="17.13" y="685.4" class="st20">Solution management</text></g><g id="shape1317-106" transform="translate(542.96,-54.6154)"><title>圆角矩形.1212</title><desc>High availability and disaster recovery</desc><path d="M5.86 700 L342.05 700 A5.86301 5.86301 -180 0 0 347.91 694.14 L347.91 665.86 A5.86301 5.86301 -180 0 0 342.05 660 L5.86 660 A5.86301 5.86301 -180 0 0 0 665.86 L0 694.14 A5.86301 5.86301 -180 0 0 5.86 700 Z" class="st19"/><text x="12.31" y="685.4" class="st20">High availability and disaster recovery</text></g><g id="shape1318-109" transform="translate(917.918,-54.6154)"><title>圆角矩形.1215</title><desc>Scalability</desc><path d="M3.74 700 L218.34 700 A3.74257 3.74257 -180 0 0 222.08 696.26 L222.08 663.74 A3.74257 3.74257 -180 0 0 218.34 660 L3.74 660 A3.74257 3.74257 -180 0 0 0 663.74 L0 696.26 A3.74257 3.74257 -180 0 0 3.74 700 Z" class="st19"/><text x="67.83" y="685.4" class="st20">Scalability</text></g><g id="shape1319-112" transform="translate(220,-216.921)"><title>圆角矩形.1217</title><desc>Gateway</desc><path d="M2.25 700 L131.35 700 A2.25142 2.25142 -180 0 0 133.6 697.75 L133.6 662.25 A2.25142 2.25142 -180 0 0 131.35 660 L2.25 660 A2.25142 2.25142 -180 0 0 0 662.25 L0 697.75 A2.25142 2.25142 -180 0 0 2.25 700 Z" class="st1"/><text x="30.32" y="685.4" class="st20">Gateway</text></g><g id="group1320-115" transform="translate(258.473,-256.17)"><title>Icon-networking-77</title><g id="shape1321-116" transform="translate(-469.825,205.175) rotate(-45)"><title>工作表.1321</title><path d="M0 698.37 A1.65138 1.63182 -180 0 0 1.65 700 L34.13 700 A1.65138 1.63182 -180 0 0 35.78 698.37 L35.78 666.28 A1.65138 1.63182 -180 0 0 34.13 664.64 L1.65 664.64 A1.65138 1.63182 -180 0 0 -0 666.28 L0 698.37 Z" class="st21"/></g><g id="shape1322-120" transform="translate(7.10341,-7.16893)"><title>工作表.1322</title><path d="M12.57 669.8 L18.02 664.42 a0.289708 0.286278 0 0 1 0.405592 3.41061E-13 L24.02 669.8 a0.260738 0.25765 0 0 1 -0.202796 0.458045 L20.48 670.26 a0.289708 0.286278 -180 0 0 -0.289708 0.286278 L20.19 677.5 a0.260738 0.25765 0 0 1 -0.260738 0.25765 L16.54 677.76 a0.260738 0.25765 0 0 1 -0.289708 -0.25765 L16.25 670.55 a0.289708 0.286278 -180 0 0 -0.260738 -0.286278 L12.78 670.26 a0.289708 0.286278 0 0 1 -0.202796 -0.458045 ZM24.02 694.54 L18.43 699.92 a0.289708 0.286278 0 0 1 -0.405592 1.13687E-13 L12.57 694.54 a0.289708 0.286278 0 0 1 0.202796 -0.458045 L15.99 694.08 a0.289708 0.286278 -180 0 0 0.260738 -0.286278 L16.25 686.84 a0.260738 0.25765 0 0 1 0.289708 -0.25765 L19.93 686.58 a0.260738 0.25765 0 0 1 0.260738 0.25765 L20.19 693.79 a0.289708 0.286278 -180 0 0 0.289708 0.286278 L23.67 694.08 a0.289708 0.286278 0 0 1 0.34765 0.458045 ZM7.62 687.44 L7.62 684.29 a0.318679 0.314906 -180 0 0 -0.289708 -0.286278 L0.29 684 a0.289708 0.286278 0 0 1 -0.289708 -0.25765 L0 680.39 a0.318679 0.314906 0 0 1 0.289708 -0.286278 L7.33 680.11 a0.289708 0.286278 -180 0 0 0.289708 -0.25765 L7.62 676.67 a0.260738 0.25765 0 0 1 0.463533 -0.229022 L13.53 681.88 a0.260738 0.25765 0 0 1 -2.30926E-14 0.372161 L8.08 687.64 a0.260738 0.25765 0 0 1 -0.463533 -0.200395 ZM28.83 676.67 L28.83 679.85 a0.289708 0.286278 -180 0 0 0.289708 0.25765 L36.16 680.11 a0.318679 0.314906 0 0 1 0.289708 0.286278 L36.45 683.74 a0.289708 0.286278 0 0 1 -0.289708 0.25765 L29.12 684 a0.318679 0.314906 -180 0 0 -0.289708 0.286278 L28.83 687.44 a0.260738 0.25765 0 0 1 -0.463533 0.200395 L22.92 682.17 a0.260738 0.25765 0 0 1 -4.26326E-14 -0.372161 L28.36 676.44 a0.260738 0.25765 0 0 1 0.463533 0.229022 Z" class="st10"/></g></g><g id="group1323-122" transform="translate(1052.49,-403.17)"><title>Internet 分析器配置文件</title><g id="shape1324-123"><title>工作表.1324</title><rect width="43.195" height="40" x="0" y="660" class="st22"/></g><g id="shape1325-125"><title>工作表.1325</title><rect width="43.195" height="40" x="0" y="660" class="st22"/></g><g id="shape1326-127" transform="translate(0.506339,-11.72)"><title>工作表.1326</title><path d="M40.7 691.63 A9.14529 8.46889 -180 0 0 32.77 683.5 A11.5186 10.6667 -180 0 0 20.9 673.29 A11.821 10.9467 -180 0 0 9.6 680.42 A10.9115 10.1044 -180 0 0 0 690.14 A11.0747 10.2556 -180 0 0 11.46 700 C11.8 700 12.14 699.98 12.47 699.96 L31.03 699.96 A1.84538 1.70889 -180 0 0 31.51 699.89 A9.25088 8.56667 -180 0 0 40.7 691.63 Z" class="st23"/></g><g id="shape1327-131" transform="translate(18.6769,-22.8956)"><title>工作表.1327</title><ellipse cx="3.163" cy="697.071" class="st10" rx="3.163" ry="2.929"/></g><g id="shape1328-133" transform="translate(27.923,-20.5333)"><title>工作表.1328</title><ellipse cx="2.536" cy="697.64" class="st10" rx="2.536" ry="2.36"/></g><g id="shape1329-135" transform="translate(23.2316,-30.3267)"><title>工作表.1329</title><ellipse cx="1.771" cy="698.36" class="st10" rx="1.771" ry="1.64"/></g><g id="shape1330-137" transform="translate(19.9224,-1.55556)"><title>工作表.1330</title><path d="M21.93 700 L1.06 700 C0.39 700 0 699.02 0.38 698.51 L7.58 688.8 a0.842298 0.78 -180 0 0 0.146382 -0.444444 L7.72 681.94 a0.41515 0.384444 -180 0 0 -0.41755 -0.382222 L6.92 681.56 a0.8255 0.764444 0 0 1 -0.8255 -0.764444 L6.09 680.44 a0.8255 0.764444 0 0 1 0.8255 -0.764444 L16.07 679.68 a0.8255 0.764444 0 0 1 0.8255 0.764444 L16.9 680.79 a0.8255 0.764444 0 0 1 -0.8255 0.766667 L15.69 681.56 a0.41275 0.382222 -180 0 0 -0.41275 0.382222 L15.27 688.37 a0.813502 0.753333 -180 0 0 0.146382 0.444444 L22.62 698.51 C22.99 699 22.6 700 21.93 700 Z" class="st6"/></g><g id="shape1331-139" transform="translate(23.3617,-3.46889)"><title>工作表.1331</title><path d="M0.03 699.31 L5.49 691.93 A1.98456 1.83778 -180 0 0 5.84 690.88 L5.84 687.91 a0.635923 0.588889 0 0 1 0.635923 -0.588889 L9.58 687.32 a0.635923 0.588889 0 0 1 0.635923 0.588889 L10.21 691.09 A1.32704 1.22889 -180 0 0 10.45 691.79 L16.03 699.31 a0.479942 0.444444 0 0 1 -0.391153 0.691111 L0.42 700 a0.479942 0.444444 0 0 1 -0.391153 -0.691111 Z" class="st10"/></g><g id="shape1332-141" transform="translate(24.2203,-4.11783)"><title>工作表.1332</title><path d="M4.45 697.53 L5.56 699.91 a0.158381 0.146667 -180 0 0 0.297564 -0.0111111 L7.02 696.71 a0.158381 0.146667 0 0 1 0.292765 -0.0222222 L8.26 698.36 a0.160781 0.148889 -180 0 0 0.278366 0 L9.8 696.38 a0.158381 0.146667 0 0 1 0.139183 -0.0733333 L12.48 696.31 L11.96 695.62 a0.158381 0.146667 -180 0 0 -0.131984 -0.0644444 L9.48 695.55 a0.160781 0.148889 -180 0 0 -0.139183 0.0711111 L8.58 696.8 a0.158381 0.146667 0 0 1 -0.278366 0 L7.15 694.77 a0.158381 0.146667 -180 0 0 -0.292765 0.0222222 L5.78 697.79 a0.158381 0.146667 0 0 1 -0.297564 0.0111111 L4.55 695.8 a0.158381 0.146667 -180 0 0 -0.285565 0 L2.95 698.02 a0.160781 0.148889 0 0 1 -0.141583 0.0755556 L0.65 698.1 a0.16318 0.151111 -180 0 0 -0.131984 0.0644444 L0 698.85 L3.28 698.85 a0.160781 0.148889 -180 0 0 0.141583 -0.0755556 L4.17 697.52 a0.158381 0.146667 0 0 1 0.285565 0.00444444 Z" class="st24"/></g></g><g id="group1333-143" transform="translate(37.72,-318.17)"><title>图像</title><g id="shape1334-144" transform="translate(0,-9.62194)"><title>工作表.1334</title><path d="M0 698.75 A1.15203 1.24693 -180 0 0 1.15 700 L33.41 700 A1.15203 1.24693 -180 0 0 34.56 698.75 L34.56 676.31 A1.15203 1.24693 -180 0 0 33.41 675.06 L1.15 675.06 A1.15203 1.24693 -180 0 0 -0 676.31 L0 698.75 Z" class="st5"/></g><g id="shape1335-147" transform="translate(17.28,-14.8174)"><title>工作表.1335</title><path d="M5.76 689.09 L5.76 696.34 L0 700 L0 692.73 L5.76 689.09 Z" class="st6"/></g><g id="shape1336-149" transform="translate(11.52,-22.0702)"><title>工作表.1336</title><path d="M11.52 696.34 L5.78 700 L0 696.34 L5.78 692.71 L11.52 696.34 Z" class="st7"/></g><g id="shape1337-151" transform="translate(11.52,-14.8174)"><title>工作表.1337</title><path d="M5.76 692.75 L5.76 700 L0 696.34 L0 689.09 L5.76 692.75 Z" class="st8"/></g><g id="shape1338-153" transform="translate(11.52,-14.8174)"><title>工作表.1338</title><path d="M0 696.34 L5.76 692.73 L5.76 700 L0 696.34 Z" class="st7"/></g><g id="shape1339-155" transform="translate(17.28,-14.8174)"><title>工作表.1339</title><path d="M5.76 696.34 L0 692.73 L0 700 L5.76 696.34 Z" class="st8"/></g><g id="shape1340-157" transform="translate(8.6592,0)"><title>工作表.1340</title><path d="M15.55 697.92 C12.13 697.34 12 694.68 12.02 690.38 L5.16 690.38 C5.16 694.68 5.16 697.34 1.69 697.92 A1.92 2.07817 -180 0 0 0 700 L17.28 700 A2.0352 2.20286 -180 0 0 15.55 697.92 Z" class="st9"/></g><g id="shape1341-160" transform="translate(2.8224,-12.1157)"><title>工作表.1341</title><path d="M6.55 680.05 L1.27 680.05 A1.2672 1.37159 -180 0 0 -0 681.42 L0 687.16 a0.6336 0.685797 -180 0 0 0.6336 0.685797 L1.06 687.84 a0.6336 0.685797 -180 0 0 0.6336 -0.685797 L1.69 681.86 L6.55 681.86 a0.6336 0.685797 -180 0 0 0.6144 -0.685797 L7.16 680.74 a0.6336 0.685797 -180 0 0 -0.6144 -0.685797 ZM6.55 698.05 L1.67 698.05 L1.67 692.79 a0.6336 0.685797 -180 0 0 -0.6336 -0.685797 L0.63 692.1 a0.6336 0.685797 -180 0 0 -0.6336 0.685797 L0 698.61 A1.2672 1.37159 -180 0 0 1.27 700 L6.55 700 a0.6528 0.706578 -180 0 0 0.6144 -0.810487 L7.16 698.73 a0.6336 0.685797 -180 0 0 -0.6144 -0.685797 ZM27.72 680.11 L22.52 680.11 a0.6336 0.685797 -180 0 0 -0.6336 0.685797 L21.89 681.23 a0.6336 0.685797 -180 0 0 0.6336 0.748142 L27.38 681.98 L27.38 687.2 a0.6336 0.685797 -180 0 0 0.6336 0.685797 L28.45 687.88 a0.6336 0.685797 -180 0 0 0.6336 -0.685797 L29.09 681.48 A1.2672 1.37159 -180 0 0 27.72 680.11 ZM28.38 692.14 L27.97 692.14 a0.6336 0.685797 -180 0 0 -0.6336 0.685797 L27.34 698.11 L22.52 698.11 a0.6336 0.685797 -180 0 0 -0.6336 0.685797 L21.89 699.25 a0.6336 0.685797 -180 0 0 0.6336 0.685797 L27.8 699.94 A1.2864 1.39238 -180 0 0 29.09 698.57 L29.09 692.83 a0.6336 0.685797 -180 0 0 -0.7104 -0.685797 Z" class="st10"/></g></g><g id="group1342-162" transform="translate(550.345,-590)"><title>云菜单</title><g id="shape1343-163"><title>工作表.1343</title><path d="M44.66 690.09 A10.0281 10.0281 -180 0 0 35.95 680.45 A12.6454 12.6454 -180 0 0 22.92 668.35 A12.9713 12.9713 -180 0 0 10.53 676.81 A11.971 11.971 -180 0 0 -0 688.34 A12.149 12.149 -180 0 0 12.58 700 C12.95 700 13.33 699.98 13.68 699.95 L34.05 699.95 A2.11843 2.11843 -180 0 0 34.58 699.87 A10.1509 10.1509 -180 0 0 44.66 690.09 Z" class="st25"/></g></g><g id="shape1354-167" transform="translate(930,-188.17) rotate(5.70701E-06)"><title>直线箭头.1274</title><path d="M35.27 696.8 L35.27 703.2 L41.67 700 L35.27 696.8 Z" class="st26"/><path d="M35.27 696.8 L35.27 703.2 L41.67 700 L35.27 696.8" class="st27"/><path d="M7.68 700 L8.04 700 L35.27 700" class="st28"/></g><g id="shape1355-174" transform="translate(937.727,-318.17)"><title>直线箭头.1275</title><path d="M33.96 696.8 L33.96 703.2 L40.35 700 L33.96 696.8 Z" class="st30"/><path d="M33.96 696.8 L33.96 703.2 L40.35 700 L33.96 696.8" class="st31"/><path d="M0 700 L33.96 700" class="st31"/></g><g id="shape1356-178" transform="translate(293.987,-321.921)"><title>Dynamic connector.1279</title><path d="M5.71 700 L5.71 673.75 L11.25 673.75" class="st32"/></g><g id="shape1357-184" transform="translate(702.703,-195.82) rotate(38.5231)"><title>多行</title><path d="M0 700 L23.67 729.73 L49.62 709.71 L42.15 700" class="st34"/></g><g id="shape1358-187" transform="translate(293.079,-207.499)"><title>Dynamic connector.1283</title><path d="M1.92 701.92 L1.92 723.08 L15.04 723.08" class="st35"/></g><g id="shape1359-193" transform="translate(-73.8912,-95.9615) rotate(-29.1167)"><title>多行.1284</title><path d="M0 700 L19.34 665.43 L44.05 679.03 L32.37 700" class="st36"/></g><g id="shape1360-196" transform="translate(268.696,-171.42)"><title>Dynamic connector.1285</title><path d="M-1.9 687.5 L-15.06 687.5" class="st35"/></g><g id="shape1361-201" transform="translate(443.291,-640)"><title>工作表.1361</title><desc>Cloud-based solution</desc><rect width="313.419" height="40" x="0" y="660" class="st1"/><text x="6.53" y="689" class="st37">Cloud-based solution</text></g><g id="group1362-204" transform="translate(524.95,-340)"><title>工作表.1362</title><g id="group1363-205" transform="translate(-3.83331,2.83718)"><title>工作表.1363</title><g id="group1364-206"><title>工作表.1364</title><g id="shape1365-207" transform="translate(10.3531,-2.27374E-13)"><title>工作表.1365</title><path d="M18.06 697.7 C14.05 697.06 14.05 694.17 14.05 689.68 L6.02 689.68 C6.02 694.33 6.02 697.22 2.01 697.7 A2.35833 2.35833 -180 0 0 0 700 L20.06 700 A2.35833 2.35833 -180 0 0 18.06 697.7 Z" class="st38"/></g><g id="shape1366-211" transform="translate(2.35811E-13,-10.0622)"><title>工作表.1366</title><path d="M0 698.63 A1.36525 1.36525 -180 0 0 1.37 700 L39.2 700 A1.36525 1.36525 -180 0 0 40.57 698.63 L40.57 674.28 A1.36525 1.36525 -180 0 0 39.2 672.91 L1.37 672.91 A1.36525 1.36525 -180 0 0 -0 674.28 L0 698.63 Z" class="st5"/></g><g id="group1367-214" transform="translate(13.6705,-19.2833)"><title>工作表.1367</title><g id="shape1368-215"><title>工作表.1368</title><path d="M0 673.82 L0 694.04 A1.80806 1.80806 -180 0 0 1.81 695.7 L14.07 695.7 a0.432361 0.432361 0 0 1 0.186046 0.0602686 L16.75 697.42 L19.48 699.23 L20.47 699.88 a0.63151 0.63151 -180 0 0 0.306583 0.123157 a0.678676 0.678676 -180 0 0 0.736324 -0.581723 L21.51 696.01 a0.283 0.283 0 0 1 0.306583 -0.277759 L31.66 695.73 A1.86308 1.86308 -180 0 0 33.5 694.04 L33.5 673.82 A1.88667 1.88667 -180 0 0 31.66 672.12 L1.81 672.12 A1.85784 1.85784 -180 0 0 0 673.82 Z" class="st39"/></g><g id="shape1369-219" transform="translate(5.9051,-12.1585)"><title>工作表.1369</title><path d="M11.56 695.06 L1.13 695.06 A1.31019 1.31019 0 0 1 1.13 692.47 L11.57 692.47 A1.31019 1.31019 0 0 1 11.57 695.06 L11.56 695.06 ZM19.34 698.72 A1.31019 1.31019 -180 0 0 18.03 697.41 L1.13 697.41 A1.31019 1.31019 -180 0 0 1.13 700 L18.06 700 A1.31019 1.31019 -180 0 0 19.34 698.72 Z" class="st10"/></g></g></g></g><g id="shape1370-221" transform="translate(50.0505,0)"><title>工作表.1370</title><desc>Message processing</desc><rect width="240" height="40" x="0" y="660" class="st1"/><text x="7.31" y="687.2" class="st2">Message processing</text></g></g><g id="shape1287-224" transform="translate(4.36322E-05,0)"><title>工作表.1287</title><rect width="1200" height="702" x="0" y="-2" class="st40"/></g><g id="shape1199-226" transform="translate(75,-318.17)"><title>工作表.1199</title><desc>Devices</desc><rect width="123.17" height="40" x="0" y="660" class="st1"/><text x="4" y="690.8" class="st2">Devices</text></g><g id="shape1285-229" transform="translate(268.696,-171.42)"><title>Dynamic connector.1285</title><path d="M-1.9 687.5 L-15.06 687.5" class="st35"/></g><g id="shape1219-234" transform="translate(190,-140)"><title>圆角矩形.1219</title><path d="M12.45 700 L209.63 700 A12.4541 12.4541 -180 0 0 222.08 687.55 L222.08 482.45 A12.4541 12.4541 -180 0 0 209.63 470 L12.45 470 A12.4541 12.4541 -180 0 0 -0 482.45 L0 687.55 A12.4541 12.4541 -180 0 0 12.45 700 Z" class="st41"/></g><g id="group1377-236" transform="translate(198.462,-182.499)"><title>工作表.1377</title><g id="shape1344-237" transform="translate(6.39488E-14,-165.671)"><title>直线箭头.1270</title><path d="M204.24 696.8 L204.24 703.2 L210.63 700 L204.24 696.8 Z" class="st30"/><path d="M204.24 696.8 L204.24 703.2 L210.63 700 L204.24 696.8" class="st31"/><path d="M0 700 L204.24 700" class="st31"/></g><g id="shape1346-241" transform="translate(7.99361E-14,-1.67131)"><title>直线箭头.1272</title><path d="M206.15 696.8 L206.15 703.2 L212.54 700 L206.15 696.8 Z" class="st26"/><path d="M206.15 696.8 L206.15 703.2 L212.54 700 L206.15 696.8" class="st27"/><path d="M7.68 700 L8.04 700 L206.15 700" class="st28"/></g><g id="shape1223-247" transform="translate(15.4854,-21.9213)"><title>圆角矩形.1223</title><path d="M8.19 700 L137.86 700 A8.1905 8.1905 -180 0 0 146.05 691.81 L146.05 590.69 A8.1905 8.1905 -180 0 0 137.86 582.5 L8.19 582.5 A8.1905 8.1905 -180 0 0 -0 590.69 L0 691.81 A8.1905 8.1905 -180 0 0 8.19 700 Z" class="st42"/></g><g id="shape1217-249" transform="translate(21.5385,-34.4213)"><title>圆角矩形.1217</title><desc>Gateway</desc><path d="M2.25 700 L131.35 700 A2.25142 2.25142 -180 0 0 133.6 697.75 L133.6 662.25 A2.25142 2.25142 -180 0 0 131.35 660 L2.25 660 A2.25142 2.25142 -180 0 0 0 662.25 L0 697.75 A2.25142 2.25142 -180 0 0 2.25 700 Z" class="st1"/><text x="30.32" y="685.4" class="st20">Gateway</text></g><g id="group1240-252" transform="translate(60.0116,-73.6713)"><title>Icon-networking-77.1240</title><g id="shape1241-253" transform="translate(-469.825,205.175) rotate(-45)"><title>工作表.1241</title><path d="M0 698.37 A1.65138 1.63182 -180 0 0 1.65 700 L34.13 700 A1.65138 1.63182 -180 0 0 35.78 698.37 L35.78 666.28 A1.65138 1.63182 -180 0 0 34.13 664.64 L1.65 664.64 A1.65138 1.63182 -180 0 0 -0 666.28 L0 698.37 Z" class="st21"/></g><g id="shape1242-256" transform="translate(7.10341,-7.16893)"><title>工作表.1242</title><path d="M12.57 669.8 L18.02 664.42 a0.289708 0.286278 0 0 1 0.405592 3.41061E-13 L24.02 669.8 a0.260738 0.25765 0 0 1 -0.202796 0.458045 L20.48 670.26 a0.289708 0.286278 -180 0 0 -0.289708 0.286278 L20.19 677.5 a0.260738 0.25765 0 0 1 -0.260738 0.25765 L16.54 677.76 a0.260738 0.25765 0 0 1 -0.289708 -0.25765 L16.25 670.55 a0.289708 0.286278 -180 0 0 -0.260738 -0.286278 L12.78 670.26 a0.289708 0.286278 0 0 1 -0.202796 -0.458045 ZM24.02 694.54 L18.43 699.92 a0.289708 0.286278 0 0 1 -0.405592 1.13687E-13 L12.57 694.54 a0.289708 0.286278 0 0 1 0.202796 -0.458045 L15.99 694.08 a0.289708 0.286278 -180 0 0 0.260738 -0.286278 L16.25 686.84 a0.260738 0.25765 0 0 1 0.289708 -0.25765 L19.93 686.58 a0.260738 0.25765 0 0 1 0.260738 0.25765 L20.19 693.79 a0.289708 0.286278 -180 0 0 0.289708 0.286278 L23.67 694.08 a0.289708 0.286278 0 0 1 0.34765 0.458045 ZM7.62 687.44 L7.62 684.29 a0.318679 0.314906 -180 0 0 -0.289708 -0.286278 L0.29 684 a0.289708 0.286278 0 0 1 -0.289708 -0.25765 L0 680.39 a0.318679 0.314906 0 0 1 0.289708 -0.286278 L7.33 680.11 a0.289708 0.286278 -180 0 0 0.289708 -0.25765 L7.62 676.67 a0.260738 0.25765 0 0 1 0.463533 -0.229022 L13.53 681.88 a0.260738 0.25765 0 0 1 -2.30926E-14 0.372161 L8.08 687.64 a0.260738 0.25765 0 0 1 -0.463533 -0.200395 ZM28.83 676.67 L28.83 679.85 a0.289708 0.286278 -180 0 0 0.289708 0.25765 L36.16 680.11 a0.318679 0.314906 0 0 1 0.289708 0.286278 L36.45 683.74 a0.289708 0.286278 0 0 1 -0.289708 0.25765 L29.12 684 a0.318679 0.314906 -180 0 0 -0.289708 0.286278 L28.83 687.44 a0.260738 0.25765 0 0 1 -0.463533 0.200395 L22.92 682.17 a0.260738 0.25765 0 0 1 -4.26326E-14 -0.372161 L28.36 676.44 a0.260738 0.25765 0 0 1 0.463533 0.229022 Z" class="st10"/></g></g><g id="shape1279-258" transform="translate(95.5252,-139.421)"><title>Dynamic connector.1279</title><path d="M5.71 700 L5.71 673.75 L11.25 673.75" class="st32"/></g><g id="shape1281-263" transform="translate(504.242,-13.3212) rotate(38.5231)"><title>多行.1281</title><path d="M0 700 L23.67 729.73 L49.62 709.71 L42.15 700" class="st34"/></g><g id="shape1283-266" transform="translate(94.6172,-25)"><title>Dynamic connector.1283</title><path d="M1.92 701.92 L1.92 723.08 L15.04 723.08" class="st35"/></g><g id="shape1284-271" transform="translate(-272.353,86.5376) rotate(-29.1167)"><title>多行.1284</title><path d="M0 700 L19.34 665.43 L44.05 679.03 L32.37 700" class="st36"/></g></g><g id="shape1378-274" transform="translate(397.5,-410)"><title>圆角矩形.1378</title><path d="M8.33 700 L140.17 700 A8.32771 8.32771 -180 0 0 148.5 691.67 L148.5 542.66 A8.32771 8.32771 -180 0 0 140.17 534.33 L8.33 534.33 A8.32771 8.32771 -180 0 0 0 542.66 L0 691.67 A8.32771 8.32771 -180 0 0 8.33 700 Z" class="st41"/></g><g id="group1379-276" transform="translate(402.803,-417)"><title>工作表.1379</title><g id="shape1297-277" transform="translate(0,-112.421)"><title>圆角矩形.1166</title><desc>Bridge</desc><path d="M2.31 700 L134.88 700 A2.31206 2.31206 -180 0 0 137.2 697.69 L137.2 662.31 A2.31206 2.31206 -180 0 0 134.88 660 L2.31 660 A2.31206 2.31206 -180 0 0 0 662.31 L0 697.69 A2.31206 2.31206 -180 0 0 2.31 700 Z" class="st3"/><text x="42.82" y="685.4" class="st4">Bridge</text></g><g id="shape1345-280" transform="translate(768.598,587.579) rotate(90)"><title>直线箭头.1271</title><path d="M106.03 696.8 L106.03 703.2 L112.42 700 L106.03 696.8 Z" class="st30"/><path d="M106.03 696.8 L106.03 703.2 L112.42 700 L106.03 696.8" class="st31"/><path d="M0 700 L106.03 700" class="st31"/></g></g></g></svg>