<svg xmlns="http://www.w3.org/2000/svg" xmlns:xlink="http://www.w3.org/1999/xlink" width="653" height="305" contentStyleType="text/css" preserveAspectRatio="none" version="1.1" viewBox="0 0 653 305" zoomAndPan="magnify" style="width:653px;height:305px;background:#fff"><g><line x1="67" x2="67" y1="37.609" y2="269.125" style="stroke:#181818;stroke-width:.5;stroke-dasharray:5,5"/><line x1="333.5" x2="333.5" y1="37.609" y2="269.125" style="stroke:#181818;stroke-width:.5;stroke-dasharray:5,5"/><line x1="571.5" x2="571.5" y1="37.609" y2="269.125" style="stroke:#181818;stroke-width:.5;stroke-dasharray:5,5"/><rect width="124" height="31.609" x="5" y="5" fill="#C2F0FF" rx="2.5" ry="2.5" style="stroke:#181818;stroke-width:.5"/><text x="12" y="26.533" fill="#000" font-family="sans-serif" font-size="14" lengthAdjust="spacing" textLength="110">Operator network</text><rect width="124" height="31.609" x="5" y="268.125" fill="#C2F0FF" rx="2.5" ry="2.5" style="stroke:#181818;stroke-width:.5"/><text x="12" y="289.658" fill="#000" font-family="sans-serif" font-size="14" lengthAdjust="spacing" textLength="110">Operator network</text><rect width="217" height="31.609" x="225.5" y="5" fill="#C2F0FF" rx="2.5" ry="2.5" style="stroke:#181818;stroke-width:.5"/><text x="232.5" y="26.533" fill="#000" font-family="sans-serif" font-size="14" lengthAdjust="spacing" textLength="203">Azure Communications Gateway</text><rect width="217" height="31.609" x="225.5" y="268.125" fill="#C2F0FF" rx="2.5" ry="2.5" style="stroke:#181818;stroke-width:.5"/><text x="232.5" y="289.658" fill="#000" font-family="sans-serif" font-size="14" lengthAdjust="spacing" textLength="203">Azure Communications Gateway</text><rect width="151" height="31.609" x="496.5" y="5" fill="#C2F0FF" rx="2.5" ry="2.5" style="stroke:#181818;stroke-width:.5"/><text x="503.5" y="26.533" fill="#000" font-family="sans-serif" font-size="14" lengthAdjust="spacing" textLength="137">Teams Direct Routing</text><rect width="151" height="31.609" x="496.5" y="268.125" fill="#C2F0FF" rx="2.5" ry="2.5" style="stroke:#181818;stroke-width:.5"/><text x="503.5" y="289.658" fill="#000" font-family="sans-serif" font-size="14" lengthAdjust="spacing" textLength="137">Teams Direct Routing</text><polygon style="stroke:#181818;stroke-width:1" fill="#181818" points="345 82.313 335 86.313 345 90.313 341 86.313"/><line x1="339" x2="571" y1="86.313" y2="86.313" style="stroke:#181818;stroke-width:1"/><text x="351" y="65.105" fill="#000" font-family="sans-serif" font-size="13" font-weight="bold" lengthAdjust="spacing" textLength="42">INVITE</text><text x="351" y="81.456" fill="#000" font-family="sans-serif" font-size="13" lengthAdjust="spacing" textLength="214">(From number assigned to customer)</text><path style="stroke:#181818;stroke-width:.5" fill="#FEFFDD" d="M179,99.3125 L179,207.3125 L488,207.3125 L488,109.3125 L478,99.3125 L179,99.3125"/><path style="stroke:#181818;stroke-width:.5" fill="#FEFFDD" d="M478,99.3125 L478,109.3125 L488,109.3125 L478,99.3125"/><text x="185" y="117.808" fill="#000" font-family="sans-serif" font-size="13" lengthAdjust="spacing" textLength="235">Lookup in internal database to determine</text><text x="185" y="134.159" fill="#000" font-family="sans-serif" font-size="13" lengthAdjust="spacing" textLength="263">if the calling number is assigned to customer.</text><text x="185" y="150.511" fill="#000" font-family="sans-serif" font-size="13" lengthAdjust="spacing" textLength="226">Number is assigned, so call is allowed.</text><text x="185" y="183.214" fill="#000" font-family="sans-serif" font-size="13" lengthAdjust="spacing" textLength="276">If number configuration includes custom header,</text><text x="185" y="199.565" fill="#000" font-family="sans-serif" font-size="13" lengthAdjust="spacing" textLength="288">contents added in X-MS-Operator-Content header.</text><polygon style="stroke:#181818;stroke-width:1" fill="#181818" points="78 247.125 68 251.125 78 255.125 74 251.125"/><line x1="72" x2="333" y1="251.125" y2="251.125" style="stroke:#181818;stroke-width:1"/><text x="84" y="229.917" fill="#000" font-family="sans-serif" font-size="13" font-weight="bold" lengthAdjust="spacing" textLength="42">INVITE</text><text x="84" y="246.269" fill="#000" font-family="sans-serif" font-size="13" lengthAdjust="spacing" textLength="138">X-MS-Operator-Content:</text><text x="222" y="246.269" fill="#000" font-family="sans-serif" font-size="13" font-style="italic" lengthAdjust="spacing" textLength="105">[Operator content]</text></g></svg>