<svg xmlns="http://www.w3.org/2000/svg" xmlns:xlink="http://www.w3.org/1999/xlink" style="width:701px;height:273px;background:#fff" width="701" height="273" contentStyleType="text/css" preserveAspectRatio="none" version="1.1" viewBox="0 0 701 273" zoomAndPan="magnify"><g><line style="stroke:#181818;stroke-width:.5;stroke-dasharray:5,5" x1="67" x2="67" y1="37.609" y2="236.422"/><line style="stroke:#181818;stroke-width:.5;stroke-dasharray:5,5" x1="278.5" x2="278.5" y1="37.609" y2="236.422"/><line style="stroke:#181818;stroke-width:.5;stroke-dasharray:5,5" x1="619.5" x2="619.5" y1="37.609" y2="236.422"/><rect style="stroke:#181818;stroke-width:.5" width="124" height="31.609" x="5" y="5" fill="#C2F0FF" rx="2.5" ry="2.5"/><text x="12" y="26.533" fill="#000" font-family="sans-serif" font-size="14" lengthAdjust="spacing" textLength="110">Operator network</text><rect style="stroke:#181818;stroke-width:.5" width="124" height="31.609" x="5" y="235.422" fill="#C2F0FF" rx="2.5" ry="2.5"/><text x="12" y="256.955" fill="#000" font-family="sans-serif" font-size="14" lengthAdjust="spacing" textLength="110">Operator network</text><rect style="stroke:#181818;stroke-width:.5" width="217" height="31.609" x="170.5" y="5" fill="#C2F0FF" rx="2.5" ry="2.5"/><text x="177.5" y="26.533" fill="#000" font-family="sans-serif" font-size="14" lengthAdjust="spacing" textLength="203">Azure Communications Gateway</text><rect style="stroke:#181818;stroke-width:.5" width="217" height="31.609" x="170.5" y="235.422" fill="#C2F0FF" rx="2.5" ry="2.5"/><text x="177.5" y="256.955" fill="#000" font-family="sans-serif" font-size="14" lengthAdjust="spacing" textLength="203">Azure Communications Gateway</text><rect style="stroke:#181818;stroke-width:.5" width="151" height="31.609" x="544.5" y="5" fill="#C2F0FF" rx="2.5" ry="2.5"/><text x="551.5" y="26.533" fill="#000" font-family="sans-serif" font-size="14" lengthAdjust="spacing" textLength="137">Teams Direct Routing</text><rect style="stroke:#181818;stroke-width:.5" width="151" height="31.609" x="544.5" y="235.422" fill="#C2F0FF" rx="2.5" ry="2.5"/><text x="551.5" y="256.955" fill="#000" font-family="sans-serif" font-size="14" lengthAdjust="spacing" textLength="137">Teams Direct Routing</text><polygon fill="#181818" points="267 98.664 277 102.664 267 106.664 271 102.664" style="stroke:#181818;stroke-width:1"/><line style="stroke:#181818;stroke-width:1" x1="67" x2="273" y1="102.664" y2="102.664"/><text x="74" y="65.105" fill="#000" font-family="sans-serif" font-size="13" font-weight="bold" lengthAdjust="spacing" textLength="131">INVITE +14255550100</text><text x="74" y="81.456" fill="#000" font-family="sans-serif" font-size="13" lengthAdjust="spacing" textLength="120">(Number assigned to</text><text x="74" y="97.808" fill="#000" font-family="sans-serif" font-size="13" lengthAdjust="spacing" textLength="188">customer with subdomain cust1)</text><path fill="#FEFFDD" d="M134,115.6641 L134,174.6641 L423,174.6641 L423,125.6641 L413,115.6641 L134,115.6641" style="stroke:#181818;stroke-width:.5"/><path fill="#FEFFDD" d="M413,115.6641 L413,125.6641 L423,125.6641 L413,115.6641" style="stroke:#181818;stroke-width:.5"/><text x="140" y="134.159" fill="#000" font-family="sans-serif" font-size="13" lengthAdjust="spacing" textLength="268">Azure Communications Gateway uses internal</text><text x="140" y="150.511" fill="#000" font-family="sans-serif" font-size="13" lengthAdjust="spacing" textLength="246">database to find subdomain for the number</text><text x="140" y="166.862" fill="#000" font-family="sans-serif" font-size="13" lengthAdjust="spacing" textLength="257">and updates Contact header with subdomain</text><polygon fill="#181818" points="608 214.422 618 218.422 608 222.422 612 218.422" style="stroke:#181818;stroke-width:1"/><line style="stroke:#181818;stroke-width:1" x1="279" x2="614" y1="218.422" y2="218.422"/><text x="286" y="197.214" fill="#000" font-family="sans-serif" font-size="13" font-weight="bold" lengthAdjust="spacing" textLength="131">INVITE +14255550100</text><text x="286" y="213.565" fill="#000" font-family="sans-serif" font-size="13" lengthAdjust="spacing" textLength="49">Contact:</text><text x="343" y="213.565" fill="#000" font-family="sans-serif" font-size="13" font-style="italic" lengthAdjust="spacing" textLength="64">&lt;sip:abc@</text><text x="407" y="213.565" fill="#000" font-family="sans-serif" font-size="13" font-style="italic" font-weight="bold" lengthAdjust="spacing" textLength="32">cust1</text><text x="439" y="213.565" fill="#000" font-family="sans-serif" font-size="13" font-style="italic" lengthAdjust="spacing" textLength="160">.region1.acg.example.com&gt;</text></g></svg>