<svg xmlns="http://www.w3.org/2000/svg" xmlns:xlink="http://www.w3.org/1999/xlink" style="width:589px;height:240px;background:#fff" width="589" height="240" contentStyleType="text/css" preserveAspectRatio="none" version="1.1" viewBox="0 0 589 240" zoomAndPan="magnify"><g><line style="stroke:#181818;stroke-width:.5;stroke-dasharray:5,5" x1="67" x2="67" y1="37.609" y2="203.719"/><line style="stroke:#181818;stroke-width:.5;stroke-dasharray:5,5" x1="247" x2="247" y1="37.609" y2="203.719"/><line style="stroke:#181818;stroke-width:.5;stroke-dasharray:5,5" x1="507" x2="507" y1="37.609" y2="203.719"/><rect style="stroke:#181818;stroke-width:.5" width="124" height="31.609" x="5" y="5" fill="#C2F0FF" rx="2.5" ry="2.5"/><text x="12" y="26.533" fill="#000" font-family="sans-serif" font-size="14" lengthAdjust="spacing" textLength="110">Operator network</text><rect style="stroke:#181818;stroke-width:.5" width="124" height="31.609" x="5" y="202.719" fill="#C2F0FF" rx="2.5" ry="2.5"/><text x="12" y="224.252" fill="#000" font-family="sans-serif" font-size="14" lengthAdjust="spacing" textLength="110">Operator network</text><rect style="stroke:#181818;stroke-width:.5" width="217" height="31.609" x="139" y="5" fill="#C2F0FF" rx="2.5" ry="2.5"/><text x="146" y="26.533" fill="#000" font-family="sans-serif" font-size="14" lengthAdjust="spacing" textLength="203">Azure Communications Gateway</text><rect style="stroke:#181818;stroke-width:.5" width="217" height="31.609" x="139" y="202.719" fill="#C2F0FF" rx="2.5" ry="2.5"/><text x="146" y="224.252" fill="#000" font-family="sans-serif" font-size="14" lengthAdjust="spacing" textLength="203">Azure Communications Gateway</text><rect style="stroke:#181818;stroke-width:.5" width="151" height="31.609" x="432" y="5" fill="#C2F0FF" rx="2.5" ry="2.5"/><text x="439" y="26.533" fill="#000" font-family="sans-serif" font-size="14" lengthAdjust="spacing" textLength="137">Teams Direct Routing</text><rect style="stroke:#181818;stroke-width:.5" width="151" height="31.609" x="432" y="202.719" fill="#C2F0FF" rx="2.5" ry="2.5"/><text x="439" y="224.252" fill="#000" font-family="sans-serif" font-size="14" lengthAdjust="spacing" textLength="137">Teams Direct Routing</text><polygon fill="#181818" points="258.5 82.313 248.5 86.313 258.5 90.313 254.5 86.313" style="stroke:#181818;stroke-width:1"/><line style="stroke:#181818;stroke-width:1" x1="252.5" x2="506.5" y1="86.313" y2="86.313"/><text x="264.5" y="65.105" fill="#000" font-family="sans-serif" font-size="13" font-weight="bold" lengthAdjust="spacing" textLength="42">INVITE</text><text x="264.5" y="81.456" fill="#000" font-family="sans-serif" font-size="13" lengthAdjust="spacing" textLength="236">(From number not assigned to customer)</text><path fill="#FEFFDD" d="M105,99.3125 L105,158.3125 L389,158.3125 L389,109.3125 L379,99.3125 L105,99.3125" style="stroke:#181818;stroke-width:.5"/><path fill="#FEFFDD" d="M379,99.3125 L379,109.3125 L389,109.3125 L379,99.3125" style="stroke:#181818;stroke-width:.5"/><text x="111" y="117.808" fill="#000" font-family="sans-serif" font-size="13" lengthAdjust="spacing" textLength="235">Lookup in internal database to determine</text><text x="111" y="134.159" fill="#000" font-family="sans-serif" font-size="13" lengthAdjust="spacing" textLength="263">if the calling number is assigned to customer.</text><text x="111" y="150.511" fill="#000" font-family="sans-serif" font-size="13" lengthAdjust="spacing" textLength="251">Number is not assigned, so call is rejected.</text><polygon fill="#181818" points="495.5 181.719 505.5 185.719 495.5 189.719 499.5 185.719" style="stroke:#181818;stroke-width:1"/><line style="stroke:#181818;stroke-width:1" x1="247.5" x2="501.5" y1="185.719" y2="185.719"/><text x="254.5" y="180.862" fill="#000" font-family="sans-serif" font-size="13" font-weight="bold" lengthAdjust="spacing" textLength="90">403 Forbidden</text></g></svg>