<svg xmlns="http://www.w3.org/2000/svg" xmlns:ev="http://www.w3.org/2001/xml-events" xmlns:xlink="http://www.w3.org/1999/xlink" width="409.236" height="730.982" class="st13" color-interpolation-filters="sRGB" viewBox="0 0 306.926 548.237" xml:space="preserve"><style type="text/css">.st1,.st2{fill:#feffff;stroke:none;stroke-linecap:round;stroke-linejoin:round;stroke-width:1}.st2{fill:url(#grad4-6)}.st3{fill:#000;font-family:Calibri;font-size:.833336em}.st4{font-size:1em}.st5{fill:url(#grad4-12);stroke:none;stroke-linecap:round;stroke-linejoin:round;stroke-width:1}.st6,.st7{stroke:#64618d}.st6{marker-end:url(#mrkr4-21);stroke-linecap:round;stroke-linejoin:round;stroke-width:1.5}.st7{fill:#64618d;fill-opacity:1;stroke-opacity:1;stroke-width:.37313432835821}.st8{fill:#fff;stroke:none;stroke-linecap:butt;stroke-width:7.2}.st9{fill:#4e4b6f;font-family:Calibri;font-size:.833336em}.st10,.st11{fill:#fff;stroke:none;stroke-linecap:butt}.st11{fill:none;stroke-linecap:round;stroke-linejoin:round;stroke-width:1}.st12{fill:#64618d;font-family:Calibri;font-size:1.00001em}.st13{fill:none;fill-rule:evenodd;font-size:12px;overflow:visible;stroke-linecap:square;stroke-miterlimit:3}</style><defs id="Patterns_And_Gradients"><radialGradient id="grad4-6" cx=".5" cy="0" r="1.1"><stop offset="0" stop-color="#eff1f8" stop-opacity="1"/><stop offset=".1" stop-color="#dce1f1" stop-opacity="1"/><stop offset="1" stop-color="#6585cf" stop-opacity="1"/></radialGradient><radialGradient id="grad4-12" cx=".5" cy="0" r="1.1"><stop offset="0" stop-color="#f0eff2" stop-opacity="1"/><stop offset=".1" stop-color="#dddde4" stop-opacity="1"/><stop offset="1" stop-color="#6a6796" stop-opacity="1"/></radialGradient></defs><defs id="Markers"><g id="lend4"><path d="M 2 1 L 0 0 L 2 -1 L 2 1" style="stroke:none"/></g><marker id="mrkr4-21" class="st7" markerUnits="strokeWidth" orient="auto" overflow="visible" refX="-5.36"><use transform="scale(-2.68,-2.68)" xlink:href="#lend4"/></marker></defs><g><title>VBackground-1</title><g id="shape1000-1"><title>Solid.1000</title><rect width="306.926" height="548.237" x="0" y="0" class="st1"/></g></g><g><title>Page-1</title><g id="shape6-3" transform="translate(32.7441,-372.406)"><title>Decision</title><desc>Check mediastats: audioOutputLevel</desc><path d="M0 519.32 L48.54 490.41 L97.09 519.32 L48.54 548.24 L0 519.32 Z" class="st2"/><text x="11.6" y="516.32" class="st3">Check mediastats: <tspan x="12.09" class="st4" dy="1.2em">audioOutputLevel</tspan></text></g><g id="shape7-9" transform="translate(206.366,-380.059)"><title>Process</title><desc>Check the audio sent from the source</desc><rect width="70.866" height="42.52" x="0" y="505.717" class="st5"/><text x="2.78" y="517.98" class="st3">Check the audio <tspan x="7.74" class="st4" dy="1.2em">sent from the </tspan><tspan x="21.87" class="st4" dy="1.2em">source</tspan></text></g><g id="shape17-16" transform="translate(88.5512,-476.871)"><title>Dynamic connector.17</title><path d="M-6.91 548.24 L-6.91 569.5 L-7.26 569.5 L-7.26 586.84" class="st6"/></g><g id="shape16-22" transform="translate(46.2087,-476.871)"><title>Process.16</title><desc>The user experiences low output volume</desc><rect width="70.866" height="42.52" x="0" y="505.717" class="st5"/><text x="17.94" y="517.98" class="st3">The user <tspan x="2.61" class="st4" dy="1.2em">experiences low </tspan><tspan x="5.28" class="st4" dy="1.2em">output volume</tspan></text></g><g id="shape21-28" transform="translate(28.8465,-252.791)"><title>Decision.21</title><desc>The volume setting of the system is low</desc><path d="M0 514.67 L52.44 481.11 L104.88 514.67 L52.44 548.24 L0 514.67 Z" class="st2"/><text x="13.56" y="511.68" class="st3">The volume setting <tspan x="12.17" class="st4" dy="1.2em">of the system is low</tspan></text></g><g id="shape22-33" transform="translate(28.8465,-147.618)"><title>Decision.22</title><desc>The volume setting of app’s volume mixer is low (if the setti...</desc><path d="M0 514.7 L52.44 481.16 L104.88 514.7 L52.44 548.24 L0 514.7 Z" class="st2"/><text x="13.56" y="499.7" class="st3">The volume setting <tspan x="20.01" class="st4" dy="1.2em">of app</tspan><tspan class="st4">’</tspan>s volume <tspan x="28.18" class="st4" dy="1.2em">mixer is low</tspan><tspan x="11.25" class="st4" dy="1.2em">(if the setting exists)</tspan></text></g><g id="shape25-41" transform="translate(206.366,-265.093)"><title>Process.25</title><desc>Adjust system volume</desc><rect width="70.866" height="42.52" x="0" y="505.717" class="st5"/><text x="7" y="523.98" class="st3">Adjust system <tspan x="20.28" class="st4" dy="1.2em">volume</tspan></text></g><g id="shape27-46" transform="translate(206.366,-159.896)"><title>Process.27</title><desc>Adjust browser volume setting</desc><rect width="70.866" height="42.52" x="0" y="505.717" class="st5"/><text x="4.56" y="523.98" class="st3">Adjust browser <tspan x="5.23" class="st4" dy="1.2em">volume setting</tspan></text></g><g id="shape1002-51" transform="translate(32.7441,-28.8465)"><title>Process.1002</title><desc>Check the audio output device / select other audio output dev...</desc><rect width="97.087" height="53.858" x="0" y="494.379" class="st5"/><text x="15.89" y="506.31" class="st3">Check the audio <tspan x="4.36" class="st4" dy="1.2em">output device / select </tspan><tspan x="9.81" class="st4" dy="1.2em">other audio output </tspan><tspan x="35.42" class="st4" dy="1.2em">device</tspan></text></g><g id="shape1004-58" transform="translate(129.831,-408.405)"><title>Dynamic connector.1004</title><desc>Always low</desc><path d="M0 555.32 L68.5 555.32" class="st6"/><rect width="45.435" height="12" x="15.55" y="549.324" class="st8"/><text x="15.55" y="558.32" class="st9">Always <tspan class="st4">low</tspan></text></g><g id="shape1005-66" transform="translate(74.2008,-372.406)"><title>Dynamic connector.1005</title><desc>Not always low</desc><path d="M7.09 548.24 L7.09 592.69" class="st6"/><rect width="61.778" height="12" x="-23.802" y="568.483" class="st8"/><text x="-23.8" y="577.48" class="st9">Not always <tspan class="st4">low</tspan></text></g><g id="shape1006-74" transform="translate(133.728,-279.266)"><title>Dynamic connector.1006</title><desc>Yes</desc><path d="M0 541.15 L64.6 541.15" class="st6"/><rect width="13.76" height="12" x="29.439" y="535.151" class="st8"/><text x="29.44" y="544.15" class="st9">Yes</text></g><g id="shape1007-81" transform="translate(74.2008,-252.791)"><title>Dynamic connector.1007</title><desc>No</desc><path d="M7.09 548.24 L7.09 578.29" class="st6"/><rect width="11.729" height="12" x="1.222" y="561.286" class="st8"/><text x="1.22" y="570.29" class="st9">No</text></g><g id="shape1008-88" transform="translate(74.2008,-147.618)"><title>Dynamic connector.1008</title><desc>No</desc><path d="M7.09 548.24 L7.09 605.11" class="st6"/><rect width="11.729" height="12" x="1.222" y="574.694" class="st10"/><text x="1.22" y="583.69" class="st9">No</text></g><g id="shape1011-95" transform="translate(133.728,-174.069)"><title>Dynamic connector.1011</title><desc>Yes</desc><path d="M0 541.15 L64.6 541.15" class="st6"/><rect width="13.76" height="12" x="29.439" y="535.151" class="st8"/><text x="29.44" y="544.15" class="st9">Yes</text></g><g id="shape1012-102" transform="translate(96.2356,-420.094)"><title>Sheet.1012</title><desc>❶</desc><rect width="22.962" height="12" x="0" y="536.237" class="st11"/><text x="3.51" y="545.84" class="st12">❶</text></g><g id="shape1013-105" transform="translate(96.3779,-309.543)"><title>Sheet.1013</title><desc>❸</desc><rect width="22.962" height="12" x="0" y="536.237" class="st11"/><text x="3.51" y="545.84" class="st12">❸</text></g><g id="shape1014-108" transform="translate(254.833,-422.929)"><title>Sheet.1014</title><desc>❷</desc><rect width="22.962" height="12" x="0" y="536.237" class="st11"/><text x="3.51" y="545.84" class="st12">❷</text></g><g id="shape1015-111" transform="translate(255.118,-309.543)"><title>Sheet.1015</title><desc>❹</desc><rect width="22.962" height="12" x="0" y="536.237" class="st11"/><text x="3.51" y="545.84" class="st12">❹</text></g><g id="shape1016-114" transform="translate(254.27,-202.693)"><title>Sheet.1016</title><desc>❻</desc><rect width="22.962" height="12" x="0" y="536.237" class="st11"/><text x="3.51" y="545.84" class="st12">❻</text></g><g id="shape1018-117" transform="translate(96.3779,-202.693)"><title>Sheet.1018</title><desc>❺</desc><rect width="22.962" height="12" x="0" y="536.237" class="st11"/><text x="3.51" y="545.84" class="st12">❺</text></g><g id="shape1019-120" transform="translate(99.2126,-88.4409)"><title>Sheet.1019</title><desc>❼</desc><rect width="22.962" height="12" x="0" y="536.237" class="st11"/><text x="3.51" y="545.84" class="st12">❼</text></g></g></svg>