<svg xmlns="http://www.w3.org/2000/svg" xmlns:ev="http://www.w3.org/2001/xml-events" xmlns:xlink="http://www.w3.org/1999/xlink" width="671.396" height="844.168" class="st15" color-interpolation-filters="sRGB" viewBox="0 0 503.547 633.126" xml:space="preserve"><style type="text/css">.st1,.st2{fill:#feffff;stroke:none;stroke-linecap:round;stroke-linejoin:round;stroke-width:1}.st2{fill:url(#grad3-6)}.st3{fill:#000;font-family:Calibri;font-size:.833336em}.st4{font-size:1em}.st5{fill:none;stroke:none;stroke-linecap:round;stroke-linejoin:round;stroke-width:1}.st6{fill:#64618d;font-family:Calibri;font-size:1.00001em}.st7,.st8{fill:url(#grad4-27);stroke:none;stroke-linecap:round;stroke-linejoin:round;stroke-width:1}.st8{fill:url(#grad4-33)}.st10,.st9{stroke:#64618d}.st9{marker-end:url(#mrkr4-42);stroke-linecap:round;stroke-linejoin:round;stroke-width:1.5}.st10{fill:#64618d;fill-opacity:1;stroke-opacity:1;stroke-width:.37313432835821}.st11{fill:#fff;stroke:none;stroke-linecap:butt}.st12{fill:#4e4b6f;font-family:Calibri;font-size:.833336em}.st13{font-size:1em;font-weight:700}.st14{fill:#fff;stroke:none;stroke-linecap:butt;stroke-width:7.2}.st15{fill:none;fill-rule:evenodd;font-size:12px;overflow:visible;stroke-linecap:square;stroke-miterlimit:3}</style><defs id="Patterns_And_Gradients"><radialGradient id="grad3-6" cx=".5" cy=".5" r=".73"><stop offset="0" stop-color="#b9d4e0" stop-opacity="1"/><stop offset=".39" stop-color="#d4e4eb" stop-opacity="1"/><stop offset=".73" stop-color="#eaf2f5" stop-opacity="1"/><stop offset="1" stop-color="#feffff" stop-opacity="1"/></radialGradient><radialGradient id="grad4-27" cx=".5" cy="0" r="1.1"><stop offset="0" stop-color="#eff1f8" stop-opacity="1"/><stop offset=".1" stop-color="#dce1f1" stop-opacity="1"/><stop offset="1" stop-color="#6585cf" stop-opacity="1"/></radialGradient><radialGradient id="grad4-33" cx=".5" cy="0" r="1.1"><stop offset="0" stop-color="#f0eff2" stop-opacity="1"/><stop offset=".1" stop-color="#dddde4" stop-opacity="1"/><stop offset="1" stop-color="#6a6796" stop-opacity="1"/></radialGradient></defs><defs id="Markers"><g id="lend4"><path d="M 2 1 L 0 0 L 2 -1 L 2 1" style="stroke:none"/></g><marker id="mrkr4-42" class="st10" markerUnits="strokeWidth" orient="auto" overflow="visible" refX="-5.36"><use transform="scale(-2.68,-2.68)" xlink:href="#lend4"/></marker></defs><g><title>VBackground-1</title><g id="shape1000-1"><title>Solid.1000</title><rect width="503.547" height="633.126" x="0" y="0" class="st1"/></g></g><g><title>Page-1</title><g id="shape1002-3" transform="translate(41.2126,-486.925)"><title>Custom 3.1002</title><desc>Check if deviceManager.getMicrophones returns empty array or ...</desc><path d="M0 633.13 L124.72 633.13 L124.72 558.29 L17.01 558.29 L0 575.3 L0 633.13 Z" class="st2"/><text x="46.39" y="568.71" class="st3">Check if <tspan x="11.27" class="st4" dy="1.2em">deviceManager.getMicro</tspan><tspan x="17.23" class="st4" dy="1.2em">phones returns empty </tspan><tspan x="26.4" class="st4" dy="1.2em">array or there is a </tspan><tspan x="11.58" class="st4" dy="1.2em">noMicrophoneDevicesEn</tspan><tspan x="23.74" class="st4" dy="1.2em">umerated Bad UFD</tspan></text></g><g id="shape1003-13" transform="translate(345.614,-487.559)"><title>Custom 3.1003</title><desc>Check if askDevicePermission returns false or there is a micr...</desc><path d="M0 633.13 L124.72 633.13 L124.72 561.82 L17.01 561.82 L0 578.83 L0 633.13 Z" class="st2"/><text x="46.39" y="576.47" class="st3">Check if <tspan x="19.89" class="st4" dy="1.2em">askDevicePermission </tspan><tspan x="11.44" class="st4" dy="1.2em">returns false or there is a </tspan><tspan x="12.37" class="st4" dy="1.2em">microphonePermissionD</tspan><tspan x="32.4" class="st4" dy="1.2em">enied Bad UFD</tspan></text></g><g id="shape1040-21" transform="translate(436.535,-401.402)"><title>Sheet.1040</title><desc>❺</desc><rect width="22.677" height="12" x="0" y="621.126" class="st5"/><text x="3.37" y="630.73" class="st6">❺</text></g><g id="shape6-24" transform="translate(122.819,-442.572)"><title>Decision</title><desc>Check if microphone exists</desc><path d="M0 601.66 L52.83 570.2 L105.65 601.66 L52.83 633.13 L0 601.66 Z" class="st7"/><text x="11.08" y="598.66" class="st3">Check if microphone <tspan x="41.44" class="st4" dy="1.2em">exists</tspan></text></g><g id="shape7-30" transform="translate(42.2047,-402.52)"><title>Process</title><desc>Ask the user to plug in a microphone</desc><rect width="70.866" height="42.52" x="0" y="590.606" class="st8"/><text x="5.01" y="602.87" class="st3">Ask the user to <tspan x="18.25" class="st4" dy="1.2em">plug in a </tspan><tspan x="10.79" class="st4" dy="1.2em">microphone</tspan></text></g><g id="shape11-37" transform="translate(228.472,-466.95)"><title>Dynamic connector.10</title><desc>Yes</desc><path d="M0 626.04 L51.2 626.04" class="st9"/><rect width="13.76" height="12" x="22.651" y="620.19" class="st11"/><text x="22.65" y="629.19" class="st12">Yes</text></g><g id="shape17-45" transform="translate(182.622,-561.76)"><title>Dynamic connector.17</title><path d="M-6.87 633.13 L-7.3 633.13 L-7.3 681.34" class="st9"/></g><g id="shape16-50" transform="translate(140.638,-561.76)"><title>Process.16</title><desc>The user doesn’t have outgoing audio</desc><rect width="70.866" height="42.52" x="0" y="590.606" class="st8"/><text x="17.94" y="602.87" class="st3">The user <tspan x="9.28" class="st4" dy="1.2em">doesn</tspan>’t have <tspan x="4.81" class="st4" dy="1.2em">outgoing audio</tspan></text></g><g id="shape21-56" transform="translate(287.717,-440.474)"><title>Decision.21</title><desc>Check if the permission is denied</desc><path d="M0 599.56 L52.44 566 L104.88 599.56 L52.44 633.13 L0 599.56 Z" class="st7"/><text x="28.55" y="596.56" class="st3">Check if the <tspan x="10.75" class="st4" dy="1.2em">permission is denied</tspan></text></g><g id="shape22-61" transform="translate(366.984,-346.327)"><title>Decision.22</title><desc>Check if there is a microphoneMuteUnexpectedly Bad UFD</desc><path d="M0 599.59 L52.44 566.05 L104.88 599.59 L52.44 633.13 L0 599.59 Z" class="st7"/><text x="16.56" y="590.59" class="st3">Check if there is a <tspan x="10.9" class="st4" dy="1.2em">microphoneMuteUn</tspan><tspan x="11.77" class="st4" dy="1.2em">expectedly Bad UFD</tspan></text></g><g id="shape24-67" transform="translate(392.598,-474.036)"><title>Dynamic connector</title><desc>No</desc><path d="M0 633.13 L26.83 633.13 L26.83 685.72" class="st9"/><rect width="11.729" height="12" x="20.962" y="644.03" class="st11"/><text x="20.96" y="653.03" class="st12">No</text></g><g id="shape25-74" transform="translate(276.488,-561.76)"><title>Process.25</title><desc>See steps in The speaking participant doesn&apos;t grant the micro...</desc><rect width="126.031" height="42.52" x="0" y="590.606" class="st8"/><text x="10.73" y="602.87" class="st3">See steps in <tspan class="st13">The speaking </tspan><tspan x="3.41" class="st13" dy="1.2em">participant doesn&apos;t grant the </tspan><tspan x="2.92" class="st13" dy="1.2em">microphone permission</tspan> page</text></g><g id="shape26-81" transform="translate(347.571,-507.599)"><title>Dynamic connector.26</title><desc>Yes</desc><path d="M-6.76 633.13 L-7.41 633.13 L-7.41 587" class="st9"/><rect width="13.76" height="12" x="-14.293" y="600.372" class="st11"/><text x="-14.29" y="609.37" class="st12">Yes</text></g><g id="shape28-88" transform="translate(412.339,-346.327)"><title>Dynamic connector.28</title><desc>Yes</desc><path d="M7.09 633.13 L7.09 660.8" class="st9"/><rect width="13.76" height="12" x=".207" y="644.984" class="st11"/><text x=".21" y="653.98" class="st12">Yes</text></g><g id="shape1000-95" transform="translate(219.583,-348.4)"><title>Decision.1000</title><desc>Check if there is a microphoneNotFunctioning Bad UFD</desc><path d="M0 601.66 L52.44 570.2 L104.88 601.66 L52.44 633.13 L0 601.66 Z" class="st7"/><text x="16.56" y="592.66" class="st3">Check if there is a <tspan x="12.71" class="st4" dy="1.2em">microphoneNotFun</tspan><tspan x="17.53" class="st4" dy="1.2em">ctioning Bad UFD</tspan></text></g><g id="shape1004-101" transform="translate(364.15,-244.28)"><title>Decision.1004</title><desc>Check if the user has pushed hardware mute button or has mute...</desc><path d="M0 599.96 L55.28 566.8 L110.55 599.96 L55.28 633.13 L0 599.96 Z" class="st7"/><text x="13.33" y="584.96" class="st3">Check if the user has <tspan x="19.6" class="st4" dy="1.2em">pushed hardware </tspan><tspan x="15.88" class="st4" dy="1.2em">mute button or has </tspan><tspan x="18.48" class="st4" dy="1.2em">muted the system</tspan></text></g><g id="shape1005-108" transform="translate(383.992,-162.075)"><title>Process.1005</title><desc>Ask the user to unmute</desc><rect width="70.866" height="42.52" x="0" y="590.606" class="st8"/><text x="5.01" y="608.87" class="st3">Ask the user to <tspan x="19.4" class="st4" dy="1.2em">unmute</tspan></text></g><g id="shape1006-113" transform="translate(293.177,-102.547)"><title>Process.1006</title><desc>Ask the user to unplug and plug in the microphone, or select ...</desc><rect width="96.591" height="42.52" x="0" y="590.606" class="st8"/><text x="2.73" y="596.87" class="st3">Ask the user to unplug <tspan x="17.94" class="st4" dy="1.2em">and plug in the </tspan><tspan x="3.9" class="st4" dy="1.2em">microphone, or select </tspan><tspan x="9.4" class="st4" dy="1.2em">other microhpones</tspan></text></g><g id="shape1012-120" transform="translate(219.583,-244.28)"><title>Decision.1012</title><desc>Check if there is a networkReconnect Bad UFD</desc><path d="M0 601.66 L52.44 570.2 L104.88 601.66 L52.44 633.13 L0 601.66 Z" class="st7"/><text x="16.56" y="592.66" class="st3">Check if there is a <tspan x="13.94" class="st4" dy="1.2em">networkReconnect </tspan><tspan x="34.99" class="st4" dy="1.2em">Bad UFD</tspan></text></g><g id="shape1014-126" transform="translate(28.8465,-93.2598)"><title>Decision.1010</title><desc>microphoneNotFunctioning UFD is recovered</desc><path d="M0 601.66 L52.44 570.2 L104.88 601.66 L52.44 633.13 L0 601.66 Z" class="st7"/><text x="12.71" y="592.66" class="st3">microphoneNotFun<tspan x="22.17" class="st4" dy="1.2em">ctioning UFD is </tspan><tspan x="31.85" class="st4" dy="1.2em">recovered</tspan></text></g><g id="shape1015-132" transform="translate(42.2047,-245.98)"><title>Process.1015</title><desc>Ask the user to do ACS mute and unmute</desc><rect width="78.165" height="42.52" x="0" y="590.606" class="st8"/><text x="2.26" y="602.87" class="st3">Ask the user to do <tspan x="10.53" class="st4" dy="1.2em">ACS mute and </tspan><tspan x="23.04" class="st4" dy="1.2em">unmute</tspan></text></g><g id="shape1019-138" transform="translate(131.709,-159.24)"><title>Process.1019</title><desc>Create a support ticket for ACS team to investigate</desc><rect width="82.311" height="49.387" x="0" y="583.739" class="st8"/><text x="7.15" y="599.43" class="st3">Create a support <tspan x="2.08" class="st4" dy="1.2em">ticket for ACS team </tspan><tspan x="13.5" class="st4" dy="1.2em">to investigate</tspan></text></g><g id="shape1021-144" transform="translate(223.728,-159.24)"><title>Process.1021</title><desc>See steps in There&apos;s a network issue in the call page</desc><rect width="96.591" height="49.387" x="0" y="583.739" class="st8"/><text x="4.43" y="599.43" class="st3">See steps in <tspan class="st13">There&apos;s a </tspan><tspan x="6.12" class="st13" dy="1.2em">network issue in the </tspan><tspan x="30.28" class="st13" dy="1.2em">call</tspan> page</text></g><g id="shape1023-151" transform="translate(45.8543,-28.8465)"><title>Start/End.1023</title><desc>Issue is resolved</desc><path d="M14.17 633.13 L56.69 633.13 A14.1732 14.1732 -180 0 0 56.69 604.78 L14.17 604.78 A14.1732 14.1732 -180 1 0 14.17 633.13 Z" class="st7"/><text x="2.44" y="621.95" class="st3">Issue is resolved</text></g><g id="shape1024-155" transform="translate(366.984,-372.778)"><title>Dynamic connector.1024</title><desc>No</desc><path d="M0 626.04 L-34.48 626.04" class="st9"/><rect width="11.729" height="12" x="-27.124" y="620.04" class="st14"/><text x="-27.12" y="629.04" class="st12">No</text></g><g id="shape1025-162" transform="translate(219.583,-379.864)"><title>Dynamic connector.1025</title><desc>Yes</desc><path d="M0 633.13 L-138.3 633.13 L-138.3 716.45" class="st9"/><rect width="13.76" height="12" x="-121.71" y="627.126" class="st14"/><text x="-121.71" y="636.13" class="st12">Yes</text></g><g id="shape1026-169" transform="translate(74.2008,-245.98)"><title>Dynamic connector.1026</title><path d="M7.09 633.13 L7.09 714.88" class="st9"/></g><g id="shape1027-174" transform="translate(74.2008,-91.7756)"><title>Dynamic connector.1027</title><desc>Yes</desc><path d="M7.09 633.13 L7.09 659.67" class="st9"/><rect width="13.76" height="12" x=".207" y="644.418" class="st14"/><text x=".21" y="653.42" class="st12">Yes</text></g><g id="shape1028-181" transform="translate(264.937,-348.4)"><title>Dynamic connector.1028</title><desc>No</desc><path d="M7.09 633.13 L7.09 666.28" class="st9"/><rect width="11.729" height="12" x="1.222" y="647.722" class="st14"/><text x="1.22" y="656.72" class="st12">No</text></g><g id="shape1029-188" transform="translate(264.937,-244.28)"><title>Dynamic connector.1029</title><desc>Yes</desc><path d="M7.09 633.13 L7.09 660.74" class="st9"/><rect width="13.76" height="12" x=".207" y="644.953" class="st14"/><text x=".21" y="653.95" class="st12">Yes</text></g><g id="shape1030-195" transform="translate(219.583,-275.744)"><title>Dynamic connector.1030</title><desc>No</desc><path d="M0 633.13 L-46.72 633.13 L-46.72 692.2" class="st9"/><rect width="11.729" height="12" x="-52.583" y="637.326" class="st11"/><text x="-52.58" y="646.33" class="st12">No</text></g><g id="shape1031-202" transform="translate(412.339,-244.28)"><title>Dynamic connector.1031</title><desc>Yes</desc><path d="M7.09 633.13 L7.09 664.77" class="st9"/><rect width="13.76" height="12" x=".207" y="646.969" class="st14"/><text x=".21" y="655.97" class="st12">Yes</text></g><g id="shape1032-209" transform="translate(364.15,-277.445)"><title>Dynamic connector.1032</title><desc>No</desc><path d="M0 633.13 L-22.68 633.13 L-22.68 757.46" class="st9"/><rect width="11.729" height="12" x="-28.541" y="681.977" class="st14"/><text x="-28.54" y="690.98" class="st12">No</text></g><g id="shape1033-216" transform="translate(133.728,-117.638)"><title>Dynamic connector.1033</title><desc>No</desc><path d="M0 626.04 L151.41 626.04" class="st9"/><rect width="11.729" height="12" x="73.86" y="620.04" class="st11"/><text x="73.86" y="629.04" class="st12">No</text></g><g id="shape1034-223" transform="translate(154.094,-493.501)"><title>Sheet.1034</title><desc>❶</desc><rect width="100" height="12" x="0" y="621.126" class="st5"/><text x="42.03" y="630.73" class="st6">❶</text></g><g id="shape1036-226" transform="translate(73.7008,-425.197)"><title>Sheet.1036</title><desc>❷</desc><rect width="100" height="12" x="0" y="621.126" class="st5"/><text x="42.03" y="630.73" class="st6">❷</text></g><g id="shape1037-229" transform="translate(122.819,-474.036)"><title>Dynamic connector.1037</title><desc>No</desc><path d="M0 633.13 L-45.18 633.13 L-45.18 654.08" class="st9"/><rect width="11.729" height="12" x="-42.953" y="627.126" class="st11"/><text x="-42.95" y="636.13" class="st12">No</text></g><g id="shape1038-236" transform="translate(257.165,-440.474)"><title>Sheet.1038</title><desc>❸</desc><rect width="100" height="12" x="0" y="621.126" class="st5"/><text x="42.03" y="630.73" class="st6">❸</text></g><g id="shape1039-239" transform="translate(363.858,-566.929)"><title>Sheet.1039</title><desc>❹</desc><rect width="100" height="12" x="0" y="621.126" class="st5"/><text x="42.03" y="630.73" class="st6">❹</text></g><g id="shape1041-242" transform="translate(289.134,-399.329)"><title>Sheet.1041</title><desc>❾</desc><rect width="22.677" height="12" x="0" y="621.126" class="st5"/><text x="3.37" y="630.73" class="st6">❾</text></g><g id="shape1042-245" transform="translate(90.3937,-295.209)"><title>Sheet.1042</title><desc>⓭</desc><rect width="22.677" height="12" x="0" y="621.126" class="st5"/><text x="3.37" y="630.73" class="st6">⓭</text></g><g id="shape1043-248" transform="translate(90.7087,-152.409)"><title>Sheet.1043</title><desc>⓮</desc><rect width="22.677" height="12" x="0" y="621.126" class="st5"/><text x="3.37" y="630.73" class="st6">⓮</text></g><g id="shape1044-251" transform="translate(87.874,-61.7008)"><title>Sheet.1044</title><desc>⓯</desc><rect width="22.677" height="12" x="0" y="621.126" class="st5"/><text x="3.37" y="630.73" class="st6">⓯</text></g><g id="shape1045-254" transform="translate(283.465,-298.61)"><title>Sheet.1045</title><desc>❿</desc><rect width="22.677" height="12" x="0" y="621.126" class="st5"/><text x="3.37" y="630.73" class="st6">❿</text></g><g id="shape1046-257" transform="translate(187.087,-212.598)"><title>Sheet.1046</title><desc>⓬</desc><rect width="22.677" height="12" x="0" y="621.126" class="st5"/><text x="3.37" y="630.73" class="st6">⓬</text></g><g id="shape1047-260" transform="translate(297.642,-212.598)"><title>Sheet.1047</title><desc>⓫</desc><rect width="22.677" height="12" x="0" y="621.126" class="st5"/><text x="3.37" y="630.73" class="st6">⓫</text></g><g id="shape1048-263" transform="translate(357.165,-149.906)"><title>Sheet.1048</title><desc>❽</desc><rect width="22.677" height="12" x="0" y="621.126" class="st5"/><text x="3.37" y="630.73" class="st6">❽</text></g><g id="shape1049-266" transform="translate(436.535,-300.142)"><title>Sheet.1049</title><desc>❻</desc><rect width="22.677" height="12" x="0" y="621.126" class="st5"/><text x="3.37" y="630.73" class="st6">❻</text></g><g id="shape1050-269" transform="translate(432.181,-206.598)"><title>Sheet.1050</title><desc>❼</desc><rect width="22.677" height="12" x="0" y="621.126" class="st5"/><text x="3.37" y="630.73" class="st6">❼</text></g></g></svg>