<svg xmlns="http://www.w3.org/2000/svg" xmlns:ev="http://www.w3.org/2001/xml-events" xmlns:xlink="http://www.w3.org/1999/xlink" width="577.712" height="566.373" class="st15" color-interpolation-filters="sRGB" viewBox="0 0 433.283 424.78" xml:space="preserve"><style type="text/css">.st1,.st2{fill:#feffff;stroke:none;stroke-linecap:round;stroke-linejoin:round;stroke-width:1}.st2{fill:url(#grad3-6)}.st3{fill:#000;font-family:Calibri;font-size:.833336em}.st4{font-size:1em}.st5{fill:url(#grad4-15);stroke:none;stroke-linecap:round;stroke-linejoin:round;stroke-width:1}.st6,.st7{stroke:#64618d}.st6{marker-end:url(#mrkr4-24);stroke-linecap:round;stroke-linejoin:round;stroke-width:1.5}.st7{fill:#64618d;fill-opacity:1;stroke-opacity:1;stroke-width:.37313432835821}.st8{fill:url(#grad4-28);stroke:none;stroke-linecap:round;stroke-linejoin:round;stroke-width:1}.st9{font-size:1em;font-weight:700}.st10{fill:#fff;stroke:none;stroke-linecap:butt;stroke-width:7.2}.st11{fill:#4e4b6f;font-family:Calibri;font-size:.833336em}.st12{fill:none;stroke:none;stroke-linecap:round;stroke-linejoin:round;stroke-width:1}.st13,.st14{fill:#64618d;font-family:Calibri;font-size:1.00001em}.st14{fill:#4e4b6f;font-size:.666664em}.st15{fill:none;fill-rule:evenodd;font-size:12px;overflow:visible;stroke-linecap:square;stroke-miterlimit:3}</style><defs id="Patterns_And_Gradients"><radialGradient id="grad3-6" cx=".5" cy=".5" r=".73"><stop offset="0" stop-color="#b9d4e0" stop-opacity="1"/><stop offset=".39" stop-color="#d4e4eb" stop-opacity="1"/><stop offset=".73" stop-color="#eaf2f5" stop-opacity="1"/><stop offset="1" stop-color="#feffff" stop-opacity="1"/></radialGradient><radialGradient id="grad4-15" cx=".5" cy="0" r="1.1"><stop offset="0" stop-color="#eff1f8" stop-opacity="1"/><stop offset=".1" stop-color="#dce1f1" stop-opacity="1"/><stop offset="1" stop-color="#6585cf" stop-opacity="1"/></radialGradient><radialGradient id="grad4-28" cx=".5" cy="0" r="1.1"><stop offset="0" stop-color="#f0eff2" stop-opacity="1"/><stop offset=".1" stop-color="#dddde4" stop-opacity="1"/><stop offset="1" stop-color="#6a6796" stop-opacity="1"/></radialGradient></defs><defs id="Markers"><g id="lend4"><path d="M 2 1 L 0 0 L 2 -1 L 2 1" style="stroke:none"/></g><marker id="mrkr4-24" class="st7" markerUnits="strokeWidth" orient="auto" overflow="visible" refX="-5.36"><use transform="scale(-2.68,-2.68)" xlink:href="#lend4"/></marker></defs><g><title>VBackground-1</title><g id="shape1000-1"><title>Solid.1000</title><rect width="433.283" height="424.78" x="0" y="0" class="st1"/></g></g><g><title>Page-1</title><g id="shape1003-3" transform="translate(153.996,-295.303)"><title>Custom 3.1003</title><desc>Check if askDevicePermission returns false or there is a micr...</desc><path d="M0 424.78 L124.3 424.78 L124.3 358.45 L17.01 358.45 L0 375.46 L0 424.78 Z" class="st2"/><text x="46.18" y="370.61" class="st3">Check if <tspan x="19.68" class="st4" dy="1.2em">askDevicePermission </tspan><tspan x="11.23" class="st4" dy="1.2em">returns false or there is a </tspan><tspan x="12.15" class="st4" dy="1.2em">microphonePermissionD</tspan><tspan x="32.19" class="st4" dy="1.2em">enied Bad UFD</tspan></text></g><g id="shape6-12" transform="translate(64.9257,-246.981)"><title>Decision</title><desc>Check if there is a networkReconnect Bad UFD</desc><path d="M0 393.31 L52.83 361.85 L105.65 393.31 L52.83 424.78 L0 393.31 Z" class="st5"/><text x="16.95" y="384.31" class="st3">Check if there is a <tspan x="14.33" class="st4" dy="1.2em">networkReconnect </tspan><tspan x="35.37" class="st4" dy="1.2em">Bad UFD</tspan></text></g><g id="shape17-19" transform="translate(125.032,-353.413)"><title>Dynamic connector.17</title><path d="M-6.89 424.78 L-6.89 446.04 L-7.28 446.04 L-7.28 460.24" class="st6"/></g><g id="shape16-25" transform="translate(82.7047,-353.413)"><title>Process.16</title><desc>The user cannot hear audio</desc><rect width="70.866" height="42.52" x="0" y="382.26" class="st8"/><text x="2.73" y="400.52" class="st3">The user cannot <tspan x="13.62" class="st4" dy="1.2em">hear audio</tspan></text></g><g id="shape21-31" transform="translate(225.854,-244.884)"><title>Decision.21</title><desc>Check if the permission is denied</desc><path d="M0 391.22 L52.44 357.66 L104.88 391.22 L52.44 424.78 L0 391.22 Z" class="st5"/><text x="28.55" y="388.22" class="st3">Check if the <tspan x="10.75" class="st4" dy="1.2em">permission is denied</tspan></text></g><g id="shape25-36" transform="translate(225.854,-132.311)"><title>Process.25</title><desc>See steps in The speaking participant doesn&apos;t grant the micro...</desc><rect width="104.882" height="65.197" x="0" y="359.583" class="st8"/><text x="19.63" y="371.18" class="st3">See steps in <tspan class="st9">The </tspan><tspan x="10.19" class="st9" dy="1.2em">speaking participant </tspan><tspan x="16.75" class="st9" dy="1.2em">doesn&apos;t grant the </tspan><tspan x="3.34" class="st9" dy="1.2em">microphone permission</tspan> <tspan x="42.58" class="st4" dy="1.2em">page</tspan></text></g><g id="shape1004-45" transform="translate(28.8465,-84.122)"><title>Start/End.1004</title><desc>Expected. If the UFD occurs on the sender’s end, the outgoing...</desc><path d="M45 424.78 L135 424.78 A45 51.7323 -180 0 0 135 321.31 L45 321.31 A45 51.7323 -180 1 0 45 424.78 Z" class="st5"/><text x="19.93" y="346.05" class="st3">Expected. If the UFD occurs on the <tspan x="5.29" class="st4" dy="1.2em">sender</tspan>’s end, the outgoing audio packets <tspan x="3.61" class="st4" dy="1.2em">are not sent while the connection is lost. If </tspan><tspan x="6.02" class="st4" dy="1.2em">the UFD occurs on the receiver</tspan>’s end, the <tspan x="7.82" class="st4" dy="1.2em">incoming audio packets are not received </tspan><tspan x="33.23" class="st4" dy="1.2em">while the connection is lost.</tspan></text></g><g id="shape1006-54" transform="translate(299.555,-28.8465)"><title>Process.1006</title><desc>See steps in The speaking participant&apos;s microphone has a prob...</desc><rect width="104.882" height="53.858" x="0" y="370.921" class="st8"/><text x="19.63" y="382.85" class="st3">See steps in <tspan class="st9">The </tspan><tspan x="7.03" class="st9" dy="1.2em">speaking participant&apos;s </tspan><tspan x="15.46" class="st9" dy="1.2em">microphone has a </tspan><tspan x="23.8" class="st9" dy="1.2em">problem</tspan> page</text></g><g id="shape1007-62" transform="translate(330.736,-278.446)"><title>Dynamic connector.1007</title><desc>No</desc><path d="M0 424.78 L21.26 424.78 L21.26 612.48" class="st6"/><rect width="11.729" height="12" x="15.396" y="506.02" class="st10"/><text x="15.4" y="515.02" class="st11">No</text></g><g id="shape1008-69" transform="translate(170.579,-285.532)"><title>Dynamic connector.1008</title><desc>No</desc><path d="M0 431.87 L47.24 431.87" class="st6"/><rect width="11.729" height="12" x="21.773" y="425.866" class="st10"/><text x="21.77" y="434.87" class="st11">No</text></g><g id="shape1009-76" transform="translate(271.209,-244.884)"><title>Dynamic connector.1009</title><desc>Yes</desc><path d="M7.09 424.78 L7.09 464.12" class="st6"/><rect width="13.76" height="12" x=".207" y="442.468" class="st10"/><text x=".21" y="451.47" class="st11">Yes</text></g><g id="shape1011-83" transform="translate(118.684,-306.142)"><title>Sheet.1011</title><desc>❶</desc><rect width="34.887" height="12" x="0" y="412.78" class="st12"/><text x="9.47" y="422.38" class="st13">❶</text></g><g id="shape1012-86" transform="translate(131.875,-190.421)"><title>Sheet.1012</title><desc>❷</desc><rect width="34.887" height="12" x="0" y="412.78" class="st12"/><text x="9.47" y="422.38" class="st13">❷</text></g><g id="shape1013-89" transform="translate(290.115,-300.472)"><title>Sheet.1013</title><desc>❸</desc><rect width="34.887" height="12" x="0" y="412.78" class="st12"/><text x="9.47" y="422.38" class="st13">❸</text></g><g id="shape1014-92" transform="translate(301.89,-200.598)"><title>Sheet.1014</title><desc>❹</desc><rect width="34.887" height="12" x="0" y="412.78" class="st12"/><text x="9.47" y="422.38" class="st13">❹</text></g><g id="shape1015-95" transform="translate(369.55,-85.0394)"><title>Sheet.1015</title><desc>❺</desc><rect width="34.887" height="12" x="0" y="412.78" class="st12"/><text x="9.47" y="422.38" class="st13">❺</text></g><g id="shape1016-98" transform="translate(111.213,-246.981)"><title>Dynamic connector.1016</title><desc>Yes</desc><path d="M6.54 424.78 L6.54 446.04 L7.63 446.04 L7.63 476.13" class="st6"/><rect width="11.008" height="9.6" x="2.13" y="449.13" class="st10"/><text x="2.13" y="456.33" class="st14">Yes</text></g></g></svg>