<svg xmlns="http://www.w3.org/2000/svg" xmlns:ev="http://www.w3.org/2001/xml-events" xmlns:xlink="http://www.w3.org/1999/xlink" width="707.538" height="562.871" class="st17" color-interpolation-filters="sRGB" viewBox="0 0 530.654 422.153" xml:space="preserve"><style type="text/css">.st1,.st2{fill:#feffff;stroke:none;stroke-linecap:round;stroke-linejoin:round;stroke-width:1}.st2{fill:url(#grad3-6)}.st3{fill:#000;font-family:Symbol;font-size:.833336em}.st4,.st5{font-size:1em}.st5{font-family:Calibri}.st6{fill:url(#grad4-22);stroke:none;stroke-linecap:round;stroke-linejoin:round;stroke-width:1}.st7{fill:#000;font-family:Calibri;font-size:.833336em}.st8{fill:url(#grad4-29);stroke:none;stroke-linecap:round;stroke-linejoin:round;stroke-width:1}.st10,.st9{stroke:#64618d}.st9{marker-end:url(#mrkr4-39);stroke-linecap:round;stroke-linejoin:round;stroke-width:1.5}.st10{fill:#64618d;fill-opacity:1;stroke-opacity:1;stroke-width:.37313432835821}.st11{fill:#fff;stroke:none;stroke-linecap:butt;stroke-width:7.2}.st12{fill:#4e4b6f;font-family:Calibri;font-size:1.00001em}.st13{font-size:1em;font-weight:700}.st14,.st15{fill:#fff;stroke:none;stroke-linecap:butt}.st15{fill:none;stroke-linecap:round;stroke-linejoin:round;stroke-width:1}.st16{fill:#64618d;font-family:Calibri;font-size:1.33333em}.st17{fill:none;fill-rule:evenodd;font-size:12px;overflow:visible;stroke-linecap:square;stroke-miterlimit:3}</style><defs id="Patterns_And_Gradients"><radialGradient id="grad3-6" cx=".5" cy=".5" r=".73"><stop offset="0" stop-color="#b7c2e3" stop-opacity="1"/><stop offset=".39" stop-color="#d3d8ed" stop-opacity="1"/><stop offset=".73" stop-color="#eaedf6" stop-opacity="1"/><stop offset="1" stop-color="#feffff" stop-opacity="1"/></radialGradient><radialGradient id="grad4-22" cx=".5" cy="0" r="1.1"><stop offset="0" stop-color="#f0eff2" stop-opacity="1"/><stop offset=".1" stop-color="#dddde4" stop-opacity="1"/><stop offset="1" stop-color="#6a6796" stop-opacity="1"/></radialGradient><radialGradient id="grad4-29" cx=".5" cy="0" r="1.1"><stop offset="0" stop-color="#eff1f8" stop-opacity="1"/><stop offset=".1" stop-color="#dce1f1" stop-opacity="1"/><stop offset="1" stop-color="#6585cf" stop-opacity="1"/></radialGradient></defs><defs id="Markers"><g id="lend4"><path d="M 2 1 L 0 0 L 2 -1 L 2 1" style="stroke:none"/></g><marker id="mrkr4-39" class="st10" markerUnits="strokeWidth" orient="auto" overflow="visible" refX="-5.36"><use transform="scale(-2.68,-2.68)" xlink:href="#lend4"/></marker></defs><g><title>VBackground-1</title><g id="shape1000-1"><title>Solid.1000</title><rect width="530.654" height="422.153" x="0" y="0" class="st1"/></g></g><g><title>Page-1</title><g id="shape1019-3" transform="translate(246.114,-28.9706)"><title>Custom 3.1002</title><desc>If the askDevicePermission returned {audio: false}, the user ...</desc><path d="M0 422.15 L230.11 422.15 L230.11 303.1 L17.01 303.1 L0 320.11 L0 422.15 Z" class="st2"/><text x="10.5" y="311.59" class="st3"><tspan class="st4">·</tspan> <tspan class="st5">If the askDevicePermission returned {audio: </tspan><tspan x="28.5" class="st5" dy="1.204em">false}, the user has to reset or grant the </tspan><tspan x="28.5" class="st5" dy="1.2em">microphone permission in the browser or OS.</tspan><tspan x="10.5" class="st4" dy="2.411em">·</tspan> <tspan class="st5">If the askDevicePermission returned {audio: </tspan><tspan x="28.5" class="st5" dy="1.204em">true} before, but later there is </tspan><tspan x="28.5" class="st5" dy="1.2em">microphonePermissionDenied Bad UFD, this </tspan><tspan x="28.5" class="st5" dy="1.2em">means the user revoked the permission during </tspan><tspan x="28.5" class="st5" dy="1.2em">the call. The user needs to reset or grant the </tspan><tspan x="28.5" class="st5" dy="1.2em">microphone permission in the browser</tspan></text></g><g id="shape16-19" transform="translate(42.5945,-350.787)"><title>Process.16</title><desc>The user doesn’t have outgoing audio</desc><rect width="70.866" height="42.52" x="0" y="379.634" class="st6"/><text x="17.94" y="391.89" class="st7">The user <tspan x="9.28" class="st4" dy="1.2em">doesn</tspan>’t have <tspan x="4.81" class="st4" dy="1.2em">outgoing audio</tspan></text></g><g id="shape21-26" transform="translate(28.8465,-231.248)"><title>Decision.21</title><desc>Check if there is microphonePermissionDenied Bad UFD</desc><path d="M0 390.54 L49.39 358.93 L98.79 390.54 L49.39 422.15 L0 390.54 Z" class="st8"/><text x="17.04" y="375.54" class="st7">Check if there is <tspan x="10.84" class="st4" dy="1.2em">microphonePermis</tspan><tspan x="17.7" class="st4" dy="1.2em">sionDenied Bad </tspan><tspan x="40.81" class="st4" dy="1.2em">UFD</tspan></text></g><g id="shape26-34" transform="translate(127.634,-255.847)"><title>Dynamic connector.26</title><desc>No</desc><path d="M0 415.14 L21.26 415.14 L21.26 414.99 L50.78 414.99" class="st9"/><rect width="14.074" height="14.4" x="22.299" y="407.793" class="st11"/><text x="22.3" y="418.59" class="st12">No</text></g><g id="shape1006-42" transform="translate(371.339,-156.53)"><title>Process.1006</title><desc>See steps in The speaking participant&apos;s microphone has a prob...</desc><rect width="104.882" height="53.858" x="0" y="368.295" class="st6"/><text x="19.63" y="380.22" class="st7">See steps in <tspan class="st13">The </tspan><tspan x="7.03" class="st13" dy="1.2em">speaking participant&apos;s </tspan><tspan x="15.46" class="st13" dy="1.2em">microphone has a </tspan><tspan x="23.8" class="st13" dy="1.2em">problem</tspan> page</text></g><g id="shape1008-50" transform="translate(71.0472,-350.787)"><title>Dynamic connector.1008</title><path d="M6.98 422.15 L7.19 422.15 L7.19 470.43" class="st9"/></g><g id="shape1009-55" transform="translate(186.453,-231.542)"><title>Decision.1012</title><desc>Check if there is a networkReconnect Bad UFD</desc><path d="M0 390.69 L52.44 359.22 L104.88 390.69 L52.44 422.15 L0 390.69 Z" class="st8"/><text x="16.56" y="381.69" class="st7">Check if there is a <tspan x="13.94" class="st4" dy="1.2em">networkReconnect </tspan><tspan x="34.99" class="st4" dy="1.2em">Bad UFD</tspan></text></g><g id="shape1011-61" transform="translate(238.894,-231.542)"><title>Dynamic connector.1011</title><desc>No</desc><path d="M0 422.15 L0 464.48 L124.4 464.48" class="st9"/><rect width="14.074" height="14.4" x="38.02" y="457.283" class="st11"/><text x="38.02" y="468.08" class="st12">No</text></g><g id="shape1012-68" transform="translate(291.335,-255.92)"><title>Dynamic connector.1012</title><desc>Yes</desc><path d="M0 415.07 L71.96 415.07" class="st9"/><rect width="16.512" height="14.4" x="31.746" y="407.867" class="st14"/><text x="31.75" y="418.67" class="st12">Yes</text></g><g id="shape1013-75" transform="translate(28.8465,-120.319)"><title>Decision.1013</title><desc>Has the app called askDevicePermission</desc><path d="M0 390.54 L49.39 358.93 L98.79 390.54 L49.39 422.15 L0 390.54 Z" class="st8"/><text x="12.18" y="381.54" class="st7">Has the app called <tspan x="12.18" class="st4" dy="1.2em">askDevicePermissi</tspan><tspan x="44.13" class="st4" dy="1.2em">on</tspan></text></g><g id="shape1014-81" transform="translate(31.0433,-30.0948)"><title>Process.1014</title><desc>The app has to call askDevicePermission</desc><rect width="96.591" height="42.52" x="0" y="379.634" class="st6"/><text x="10.48" y="397.89" class="st7">The app has to call <tspan x="5.82" class="st4" dy="1.2em">askDevicePermission</tspan></text></g><g id="shape1015-86" transform="translate(158.74,-30.0948)"><title>Process.1015</title><desc>Ask the user to reset or allow the microphone permission in t...</desc><rect width="112.203" height="42.52" x="0" y="379.634" class="st6"/><text x="8.68" y="391.89" class="st7">Ask the user to reset or <tspan x="11.51" class="st4" dy="1.2em">allow the microphone </tspan><tspan x="3.06" class="st4" dy="1.2em">permission in the browser</tspan></text></g><g id="shape1016-92" transform="translate(71.1535,-231.248)"><title>Dynamic connector.1016</title><desc>Yes</desc><path d="M7.09 422.15 L7.09 461.82" class="st9"/><rect width="16.512" height="14.4" x="-1.169" y="438.806" class="st14"/><text x="-1.17" y="449.61" class="st12">Yes</text></g><g id="shape1017-99" transform="translate(71.7028,-120.319)"><title>Dynamic connector.1017</title><desc>No</desc><path d="M6.54 422.15 L7.45 461.82" class="st9"/><rect width="14.074" height="14.4" x=".049" y="438.806" class="st11"/><text x=".05" y="449.61" class="st12">No</text></g><g id="shape1018-106" transform="translate(127.634,-151.931)"><title>Dynamic connector.1018</title><desc>Yes</desc><path d="M0 422.15 L87.21 422.15 L87.21 493.43" class="st9"/><rect width="16.512" height="14.4" x="75.006" y="414.953" class="st11"/><text x="75.01" y="425.75" class="st12">Yes</text></g><g id="shape1020-113" transform="translate(48.8937,-290.598)"><title>Sheet.1020</title><desc>❶</desc><rect width="100" height="12" x="0" y="410.153" class="st15"/><text x="39.37" y="420.95" class="st16">❶</text></g><g id="shape1021-116" transform="translate(48.8937,-177.874)"><title>Sheet.1021</title><desc>❷</desc><rect width="100" height="12" x="0" y="410.153" class="st15"/><text x="39.37" y="420.95" class="st16">❷</text></g><g id="shape1022-119" transform="translate(48.2638,-78.225)"><title>Sheet.1022</title><desc>❸</desc><rect width="100" height="12" x="0" y="410.153" class="st15"/><text x="39.37" y="420.95" class="st16">❸</text></g><g id="shape1023-122" transform="translate(188.894,-78.225)"><title>Sheet.1023</title><desc>❹</desc><rect width="100" height="12" x="0" y="410.153" class="st15"/><text x="39.37" y="420.95" class="st16">❹</text></g><g id="shape1024-125" transform="translate(212.673,-290.598)"><title>Sheet.1024</title><desc>❺</desc><rect width="100" height="12" x="0" y="410.153" class="st15"/><text x="39.37" y="420.95" class="st16">❺</text></g><g id="shape1025-128" transform="translate(401.807,-291.26)"><title>Sheet.1025</title><desc>❻</desc><rect width="100" height="12" x="0" y="410.153" class="st15"/><text x="39.37" y="420.95" class="st16">❻</text></g><g id="shape1026-131" transform="translate(401.807,-216.897)"><title>Sheet.1026</title><desc>❼</desc><rect width="100" height="12" x="0" y="410.153" class="st15"/><text x="39.37" y="420.95" class="st16">❼</text></g><g id="shape1027-134" transform="translate(371.339,-240.835)"><title>Process.1021</title><desc>See steps in There&apos;s a network issue in the call page</desc><rect width="104.882" height="44.345" x="0" y="377.809" class="st6"/><text x="8.57" y="390.98" class="st7">See steps in <tspan class="st13">There&apos;s a </tspan><tspan x="2.12" class="st13" dy="1.2em">network issue in the call</tspan> <tspan x="42.58" class="st4" dy="1.2em">page</tspan></text></g></g></svg>