<svg xmlns="http://www.w3.org/2000/svg" xmlns:ev="http://www.w3.org/2001/xml-events" xmlns:xlink="http://www.w3.org/1999/xlink" width="564.483" height="861.24" class="st14" color-interpolation-filters="sRGB" viewBox="0 0 423.362 645.93" xml:space="preserve"><style type="text/css">.st1,.st2{fill:#feffff;stroke:none;stroke-linecap:round;stroke-linejoin:round;stroke-width:1}.st2{fill:url(#grad4-6)}.st3{fill:#000;font-family:Calibri;font-size:.833336em}.st4{font-size:1em}.st5{fill:url(#grad4-12);stroke:none;stroke-linecap:round;stroke-linejoin:round;stroke-width:1}.st6,.st7{stroke:#64618d}.st6{marker-end:url(#mrkr4-23);stroke-linecap:round;stroke-linejoin:round;stroke-width:1.5}.st7{fill:#64618d;fill-opacity:1;stroke-opacity:1;stroke-width:.37313432835821}.st8{fill:#fff;stroke:none;stroke-linecap:butt;stroke-width:7.2}.st9{fill:#4e4b6f;font-family:Calibri;font-size:.833336em}.st10{fill:none;stroke:none;stroke-linecap:round;stroke-linejoin:round;stroke-width:1}.st11{fill:#64618d;font-family:Calibri;font-size:1.00001em}.st12{fill:url(#grad4-6);stroke:#64618d;stroke-linecap:round;stroke-linejoin:round;stroke-width:1}.st13{fill:#fff;stroke:none;stroke-linecap:butt}.st14{fill:none;fill-rule:evenodd;font-size:12px;overflow:visible;stroke-linecap:square;stroke-miterlimit:3}</style><defs id="Patterns_And_Gradients"><radialGradient id="grad4-6" cx=".5" cy="0" r="1.1"><stop offset="0" stop-color="#f0eff2" stop-opacity="1"/><stop offset=".1" stop-color="#dddde4" stop-opacity="1"/><stop offset="1" stop-color="#6a6796" stop-opacity="1"/></radialGradient><radialGradient id="grad4-12" cx=".5" cy="0" r="1.1"><stop offset="0" stop-color="#eff1f8" stop-opacity="1"/><stop offset=".1" stop-color="#dce1f1" stop-opacity="1"/><stop offset="1" stop-color="#6585cf" stop-opacity="1"/></radialGradient></defs><defs id="Markers"><g id="lend4"><path d="M 2 1 L 0 0 L 2 -1 L 2 1" style="stroke:none"/></g><marker id="mrkr4-23" class="st7" markerUnits="strokeWidth" orient="auto" overflow="visible" refX="-5.36"><use transform="scale(-2.68,-2.68)" xlink:href="#lend4"/></marker></defs><g><title>VBackground-1</title><g id="shape1000-1"><title>Solid.1000</title><rect width="423.362" height="645.93" x="0" y="0" class="st1"/></g></g><g><title>Page-1</title><g id="shape16-3" transform="translate(39.2677,-574.564)"><title>Process.16</title><desc>The user experiences poor audio quality</desc><rect width="93.543" height="42.52" x="0" y="603.41" class="st2"/><text x="3.81" y="621.67" class="st3">The user experiences <tspan x="9.55" class="st4" dy="1.2em">poor audio quality</tspan></text></g><g id="shape21-9" transform="translate(28.8465,-477.354)"><title>Decision.21</title><desc>Other participants also experienced poor audio quality from t...</desc><path d="M0 609.65 L56.69 573.36 L113.39 609.65 L56.69 645.93 L0 609.65 Z" class="st5"/><text x="19.59" y="588.65" class="st3">Other participants <tspan x="11.65" class="st4" dy="1.2em">also experienced poor </tspan><tspan x="19.22" class="st4" dy="1.2em">audio quality from </tspan><tspan x="18.94" class="st4" dy="1.2em">the same speaking </tspan><tspan x="34.52" class="st4" dy="1.2em">participant</tspan></text></g><g id="shape1008-18" transform="translate(92.876,-574.564)"><title>Dynamic connector.1008</title><path d="M-6.84 645.93 L-6.84 656.56 L-7.34 656.56 L-7.34 662.53" class="st6"/></g><g id="shape1021-24" transform="translate(29.3465,-343.287)"><title>Decision.1021</title><desc>Check if there is a networkSendQuality Bad UFD on the sender’...</desc><path d="M0 611.91 L56.69 577.9 L113.39 611.91 L56.69 645.93 L0 611.91 Z" class="st5"/><text x="20.81" y="596.91" class="st3">Check if there is a <tspan x="15.02" class="st4" dy="1.2em">networkSendQuality </tspan><tspan x="24.92" class="st4" dy="1.2em">Bad UFD on the </tspan><tspan x="30.69" class="st4" dy="1.2em">sender</tspan>’s end</text></g><g id="shape1022-31" transform="translate(78.7028,-477.354)"><title>Dynamic connector.1022</title><desc>Yes</desc><path d="M6.84 645.93 L6.84 667.19 L7.34 667.19 L7.34 703.93" class="st6"/><rect width="13.76" height="12" x=".457" y="672.698" class="st8"/><text x=".46" y="681.7" class="st9">Yes</text></g><g id="shape1023-38" transform="translate(180.5,-260.895)"><title>Process.1023</title><desc>Check the sender’s network</desc><rect width="93.543" height="37.923" x="0" y="608.007" class="st2"/><text x="8.42" y="623.97" class="st3">Check the sender’s <tspan x="29.75" class="st4" dy="1.2em">network</tspan></text></g><g id="shape1024-43" transform="translate(39.2677,-260.895)"><title>Process.1024</title><desc>Collect and check browser recordings on the sender’s side</desc><rect width="93.543" height="37.923" x="0" y="608.007" class="st2"/><text x="11.37" y="617.97" class="st3">Collect and check <tspan x="7.44" class="st4" dy="1.2em">browser recordings </tspan><tspan x="5.98" class="st4" dy="1.2em">on the sender</tspan>’s side</text></g><g id="shape1026-49" transform="translate(78.9528,-343.287)"><title>Dynamic connector.1026</title><desc>No</desc><path d="M7.09 645.93 L7.09 682.36" class="st6"/><rect width="11.729" height="12" x="1.222" y="662.165" class="st8"/><text x="1.22" y="671.16" class="st9">No</text></g><g id="shape1028-56" transform="translate(142.732,-377.303)"><title>Dynamic connector.1028</title><desc>Yes</desc><path d="M0 645.93 L84.54 645.93 L84.54 716.37" class="st6"/><rect width="13.76" height="12" x="74.632" y="639.93" class="st8"/><text x="74.63" y="648.93" class="st9">Yes</text></g><g id="shape1043-63" transform="translate(106.299,-540.756)"><title>Sheet.1043</title><desc>❶</desc><rect width="13.256" height="12" x="0" y="633.93" class="st10"/><text x="2" y="643.53" class="st11">❶</text></g><g id="shape1044-66" transform="translate(106.299,-404.109)"><title>Sheet.1044</title><desc>❷</desc><rect width="13.256" height="12" x="0" y="633.93" class="st10"/><text x="2" y="643.53" class="st11">❷</text></g><g id="shape1045-69" transform="translate(96.8779,-304.896)"><title>Sheet.1045</title><desc>❸</desc><rect width="13.256" height="12" x="0" y="633.93" class="st10"/><text x="2" y="643.53" class="st11">❸</text></g><g id="shape1046-72" transform="translate(231.024,-302.926)"><title>Sheet.1046</title><desc>❹</desc><rect width="13.256" height="12" x="0" y="633.93" class="st10"/><text x="2" y="643.53" class="st11">❹</text></g><g id="shape1047-75" transform="translate(243.321,-455.717)"><title>Sheet.1047</title><desc>❺</desc><rect width="13.256" height="12" x="0" y="633.93" class="st10"/><text x="2" y="643.53" class="st11">❺</text></g><g id="shape1048-78" transform="translate(357.665,-200.217)"><title>Sheet.1048</title><desc>❻</desc><rect width="13.256" height="12" x="0" y="633.93" class="st10"/><text x="2" y="643.53" class="st11">❻</text></g><g id="shape1050-81" transform="translate(197.008,-200.217)"><title>Sheet.1050</title><desc>❽</desc><rect width="13.256" height="12" x="0" y="633.93" class="st10"/><text x="2" y="643.53" class="st11">❽</text></g><g id="shape1051-84" transform="translate(355.748,-70.4851)"><title>Sheet.1051</title><desc>❼</desc><rect width="13.256" height="12" x="0" y="633.93" class="st10"/><text x="2" y="643.53" class="st11">❼</text></g><g id="shape1052-87" transform="translate(281.13,-144.186)"><title>Decision.1031</title><desc>Check if there is a networkReceiveQuality Bad UFD on the rece...</desc><path d="M0 611.91 L56.69 577.9 L113.39 611.91 L56.69 645.93 L0 611.91 Z" class="st5"/><text x="20.81" y="596.91" class="st3">Check if there is a <tspan x="11.62" class="st4" dy="1.2em">networkReceiveQualit</tspan><tspan x="21.53" class="st4" dy="1.2em">y Bad UFD on the </tspan><tspan x="28.15" class="st4" dy="1.2em">receiver</tspan>’s end</text></g><g id="shape1054-94" transform="translate(116.139,-144.186)"><title>Decision.1034</title><desc>Check if other mediastats metrics of the receiver are bad – p...</desc><path d="M0 611.91 L56.69 577.9 L113.39 611.91 L56.69 645.93 L0 611.91 Z" class="st5"/><text x="28.42" y="596.91" class="st3">Check if other <tspan x="12.84" class="st4" dy="1.2em">mediastats metrics of </tspan><tspan x="12.15" class="st4" dy="1.2em">the receiver are bad </tspan>– <tspan x="11.84" class="st4" dy="1.2em">packetsLost, jitter, etc</tspan></text></g><g id="shape1055-101" transform="translate(57.1929,-28.8465)"><title>Process.1037</title><desc>Create a support ticket for ACS team to investigate</desc><rect width="93.543" height="37.923" x="0" y="608.007" class="st2"/><text x="12.77" y="617.97" class="st3">Create a support <tspan x="2.25" class="st4" dy="1.2em">ticket for ACS team to </tspan><tspan x="24.56" class="st4" dy="1.2em">investigate</tspan></text></g><g id="shape1056-107" transform="translate(291.051,-28.8465)"><title>Process.1032</title><desc>Check the receiver’s network</desc><rect width="93.543" height="37.923" x="0" y="608.007" class="st12"/><text x="5.88" y="623.97" class="st3">Check the receiver’s <tspan x="29.75" class="st4" dy="1.2em">network</tspan></text></g><g id="shape1057-112" transform="translate(170.579,-394.67)"><title>Decision.1057</title><desc>Check if there is a networkSendQuality Bad UFD on the sender’...</desc><path d="M0 611.91 L56.69 577.9 L113.39 611.91 L56.69 645.93 L0 611.91 Z" class="st5"/><text x="20.81" y="596.91" class="st3">Check if there is a <tspan x="15.02" class="st4" dy="1.2em">networkSendQuality </tspan><tspan x="24.92" class="st4" dy="1.2em">Bad UFD on the </tspan><tspan x="30.69" class="st4" dy="1.2em">sender</tspan>’s end</text></g><g id="shape1059-119" transform="translate(234.358,-394.67)"><title>Dynamic connector.1059</title><path d="M-7.09 645.93 L-7.09 733.74" class="st6"/></g><g id="shape1060-124" transform="translate(283.965,-428.686)"><title>Dynamic connector.1060</title><desc>No</desc><path d="M0 645.93 L53.86 645.93 L53.86 854.36" class="st6"/><rect width="11.729" height="12" x="47.994" y="721.235" class="st8"/><text x="47.99" y="730.23" class="st9">No</text></g><g id="shape1061-131" transform="translate(281.13,-171.115)"><title>Dynamic connector.1061</title><desc>No</desc><path d="M0 638.84 L-43.57 638.84" class="st6"/><rect width="11.729" height="12" x="-31.667" y="632.843" class="st8"/><text x="-31.67" y="641.84" class="st9">No</text></g><g id="shape1062-138" transform="translate(330.736,-144.186)"><title>Dynamic connector.1062</title><desc>Yes</desc><path d="M7.09 645.93 L7.09 715.31" class="st6"/><rect width="13.76" height="12" x=".207" y="678.638" class="st8"/><text x=".21" y="687.64" class="st9">Yes</text></g><g id="shape1063-145" transform="translate(172.832,-144.186)"><title>Dynamic connector.1063</title><desc>Yes</desc><path d="M0 645.93 L0 702.09 L164.99 702.09 L164.99 715.31" class="st6"/><rect width="13.76" height="12" x="58.167" y="696.087" class="st13"/><text x="58.17" y="705.09" class="st9">Yes</text></g><g id="shape1064-152" transform="translate(117.138,-178.202)"><title>Dynamic connector.1064</title><desc>No</desc><path d="M-1 645.93 L-13.17 645.93 L-13.17 749.32" class="st6"/><rect width="11.729" height="12" x="-19.038" y="689.559" class="st13"/><text x="-19.04" y="698.56" class="st9">No</text></g><g id="shape1065-159" transform="translate(111.968,-73.2471)"><title>Sheet.1065</title><desc>❾</desc><rect width="13.256" height="12" x="0" y="633.93" class="st10"/><text x="2" y="643.53" class="st11">❾</text></g><g id="shape1066-162" transform="translate(142.232,-513.638)"><title>Dynamic connector.1066</title><desc>No,other participants don’t have the same issue</desc><path d="M0 645.93 L195.59 645.93 L195.59 939.31" class="st6"/><rect width="195.138" height="12" x="42.224" y="640.131" class="st13"/><text x="42.22" y="649.13" class="st9">No,other participants don’t have the same issue</text></g><g id="shape1067-169" transform="translate(142.232,-513.638)"><title>Dynamic connector.1067</title><desc>No, there are only two participants in the call</desc><path d="M0 645.93 L14.47 645.93 L14.47 730.88 L20.31 730.88" class="st6"/><rect width="91.68" height="24" x="-31.368" y="676.107" class="st13"/><text x="-31.37" y="685.11" class="st9">No, there are only two<tspan x="-30.42" class="st4" dy="1.2em">participants in the call</tspan></text></g></g></svg>