<svg xmlns="http://www.w3.org/2000/svg" xmlns:ev="http://www.w3.org/2001/xml-events" xmlns:xlink="http://www.w3.org/1999/xlink" width="425.585" height="877.628" class="st13" color-interpolation-filters="sRGB" viewBox="0 0 319.189 658.221" xml:space="preserve"><style type="text/css">.st1{fill:url(#grad3-5)}.st1,.st2,.st3{stroke:none;stroke-linecap:round;stroke-linejoin:round;stroke-width:1}.st2{fill:#feffff;fill-opacity:.2}.st3{fill:url(#grad4-55)}.st4{fill:#000;font-family:Calibri;font-size:.833336em}.st5{font-size:1em}.st6{fill:url(#grad4-61);stroke:none;stroke-linecap:round;stroke-linejoin:round;stroke-width:1}.st7,.st8{stroke:#64618d}.st7{marker-end:url(#mrkr4-70);stroke-linecap:round;stroke-linejoin:round;stroke-width:1.5}.st8{fill:#64618d;fill-opacity:1;stroke-opacity:1;stroke-width:.37313432835821}.st9{fill:#fff;stroke:none;stroke-linecap:butt;stroke-width:7.2}.st10{fill:#4e4b6f;font-family:Calibri;font-size:.833336em}.st11{fill:none;stroke:none;stroke-linecap:round;stroke-linejoin:round;stroke-width:1}.st12{fill:#64618d;font-family:Calibri;font-size:1.00001em}.st13{fill:none;fill-rule:evenodd;font-size:12px;overflow:visible;stroke-linecap:square;stroke-miterlimit:3}</style><defs id="Patterns_And_Gradients"><radialGradient id="grad3-5" cx=".5" cy=".5" r=".73"><stop offset="0" stop-color="#fff" stop-opacity="1"/><stop offset="1" stop-color="#fff" stop-opacity="1"/><stop offset="1" stop-color="#6a6796" stop-opacity="1"/></radialGradient><radialGradient id="grad4-55" cx=".5" cy="0" r="1.1"><stop offset="0" stop-color="#eff1f8" stop-opacity="1"/><stop offset=".1" stop-color="#dce1f1" stop-opacity="1"/><stop offset="1" stop-color="#6585cf" stop-opacity="1"/></radialGradient><radialGradient id="grad4-61" cx=".5" cy="0" r="1.1"><stop offset="0" stop-color="#f0eff2" stop-opacity="1"/><stop offset=".1" stop-color="#dddde4" stop-opacity="1"/><stop offset="1" stop-color="#6a6796" stop-opacity="1"/></radialGradient></defs><defs id="Markers"><g id="lend4"><path d="M 2 1 L 0 0 L 2 -1 L 2 1" style="stroke:none"/></g><marker id="mrkr4-70" class="st8" markerUnits="strokeWidth" orient="auto" overflow="visible" refX="-5.36"><use transform="scale(-2.68,-2.68)" xlink:href="#lend4"/></marker></defs><g><title>VBackground-1</title><g id="group1000-1"><title>Currency.1000</title><g id="shape1001-2"><title>Sheet.1001</title><rect width="319.189" height="658.221" x="0" y="0" class="st1"/></g><g id="shape1002-6" transform="translate(0,-401.119)"><title>Sheet.1002</title><rect width="103.374" height="212.641" x="0" y="445.58" class="st2"/></g><g id="shape1003-8" transform="translate(65.2886,-600.228)"><title>Sheet.1003</title><rect width="50.78" height="57.993" x="0" y="600.228" class="st2"/></g><g id="shape1004-10" transform="translate(177.73,-357.624)"><title>Sheet.1004</title><rect width="141.459" height="299.631" x="0" y="358.59" class="st2"/></g><g id="shape1005-12" transform="translate(54.4072,-236.805)"><title>Sheet.1005</title><rect width="103.374" height="202.976" x="0" y="455.246" class="st2"/></g><g id="shape1006-14" transform="translate(0,-38.662)"><title>Sheet.1006</title><rect width="79.797" height="231.972" x="0" y="426.249" class="st2"/></g><g id="shape1007-16" transform="translate(195.866,-3.41061E-13)"><title>Sheet.1007</title><rect width="56.221" height="43.495" x="0" y="614.727" class="st2"/></g><g id="shape1008-18" transform="translate(14.0552,-450.655)"><title>Sheet.1008</title><ellipse cx="34.685" cy="565.795" class="st2" rx="34.685" ry="92.427"/></g><g id="shape1009-20" transform="translate(81.6108,-367.289)"><title>Sheet.1009</title><ellipse cx="21.763" cy="600.228" class="st2" rx="21.763" ry="57.993"/></g><g id="shape1010-22" transform="translate(119.696,-439.781)"><title>Sheet.1010</title><ellipse cx="26.297" cy="588.146" class="st2" rx="26.297" ry="70.075"/></g><g id="shape1011-24" transform="translate(111.535,-555.767)"><title>Sheet.1011</title><ellipse cx="19.043" cy="607.477" class="st2" rx="19.043" ry="50.744"/></g><g id="shape1012-26" transform="translate(3.62715,-9.66551)"><title>Sheet.1012</title><ellipse cx="36.272" cy="561.566" class="st2" rx="36.272" ry="96.655"/></g><g id="shape1013-28" transform="translate(3.15747E-13,-190.894)"><title>Sheet.1013</title><ellipse cx="19.043" cy="607.477" class="st2" rx="19.043" ry="50.744"/></g><g id="shape1014-30" transform="translate(45.3393,-183.645)"><title>Sheet.1014</title><ellipse cx="27.204" cy="585.73" class="st2" rx="27.204" ry="72.491"/></g><g id="shape1015-32" transform="translate(70.7294,-135.317)"><title>Sheet.1015</title><ellipse cx="19.043" cy="607.477" class="st2" rx="19.043" ry="50.744"/></g><g id="shape1016-34" transform="translate(110.628,-4.83276)"><title>Sheet.1016</title><ellipse cx="29.017" cy="580.897" class="st2" rx="29.017" ry="77.324"/></g><g id="shape1017-36" transform="translate(154.154,-96.6551)"><title>Sheet.1017</title><ellipse cx="21.763" cy="600.228" class="st2" rx="21.763" ry="57.993"/></g><g id="shape1018-38" transform="translate(168.662,-91.8224)"><title>Sheet.1018</title><ellipse cx="61.661" cy="493.908" class="st2" rx="61.661" ry="164.314"/></g><g id="shape1019-40" transform="translate(223.07,-9.66551)"><title>Sheet.1019</title><ellipse cx="21.763" cy="600.228" class="st2" rx="21.763" ry="57.993"/></g><g id="shape1020-42" transform="translate(233.951,-4.83276)"><title>Sheet.1020</title><ellipse cx="41.712" cy="547.068" class="st2" rx="41.712" ry="111.153"/></g><g id="shape1021-44" transform="translate(228.51,-338.293)"><title>Sheet.1021</title><ellipse cx="41.712" cy="547.068" class="st2" rx="41.712" ry="111.153"/></g><g id="shape1022-46" transform="translate(186.798,-517.105)"><title>Sheet.1022</title><ellipse cx="25.39" cy="590.563" class="st2" rx="25.39" ry="67.659"/></g><g id="shape1023-48" transform="translate(220.349,-572.682)"><title>Sheet.1023</title><ellipse cx="14.962" cy="618.351" class="st2" rx="14.962" ry="39.87"/></g><g id="shape1024-50" transform="translate(278.384,-550.934)"><title>Sheet.1024</title><ellipse cx="19.949" cy="605.061" class="st2" rx="19.949" ry="53.16"/></g></g></g><g><title>Page-1</title><g id="shape6-52" transform="translate(32.7441,-482.39)"><title>Decision</title><desc>Check mediastats: audioOutputLevel</desc><path d="M0 629.31 L48.54 600.39 L97.09 629.31 L48.54 658.22 L0 629.31 Z" class="st3"/><text x="11.6" y="626.31" class="st4">Check mediastats: <tspan x="12.09" class="st5" dy="1.2em">audioOutputLevel</tspan></text></g><g id="shape7-58" transform="translate(206.366,-490.043)"><title>Process</title><desc>Check the audio sent from the source</desc><rect width="70.866" height="42.52" x="0" y="615.702" class="st6"/><text x="2.78" y="627.96" class="st4">Check the audio <tspan x="7.74" class="st5" dy="1.2em">sent from the </tspan><tspan x="21.87" class="st5" dy="1.2em">source</tspan></text></g><g id="shape17-65" transform="translate(88.5512,-586.855)"><title>Dynamic connector.17</title><path d="M-6.91 658.22 L-6.91 679.48 L-7.26 679.48 L-7.26 696.82" class="st7"/></g><g id="shape16-71" transform="translate(46.2087,-586.855)"><title>Process.16</title><desc>The user cannot hear incoming audio</desc><rect width="70.866" height="42.52" x="0" y="615.702" class="st6"/><text x="2.73" y="627.96" class="st4">The user cannot <tspan x="6.4" class="st5" dy="1.2em">hear incoming </tspan><tspan x="24" class="st5" dy="1.2em">audio</tspan></text></g><g id="shape21-77" transform="translate(28.8465,-362.775)"><title>Decision.21</title><desc>The volume setting of the system is 0</desc><path d="M0 624.66 L52.44 591.1 L104.88 624.66 L52.44 658.22 L0 624.66 Z" class="st3"/><text x="13.56" y="621.66" class="st4">The volume setting <tspan x="17" class="st5" dy="1.2em">of the system is 0</tspan></text></g><g id="shape22-82" transform="translate(28.8465,-257.602)"><title>Decision.22</title><desc>The volume setting of app’s volume mixer is 0 (if the setting...</desc><path d="M0 624.68 L52.44 591.15 L104.88 624.68 L52.44 658.22 L0 624.68 Z" class="st3"/><text x="13.56" y="609.68" class="st4">The volume setting <tspan x="20.01" class="st5" dy="1.2em">of app</tspan><tspan class="st5">’</tspan>s volume <tspan x="33" class="st5" dy="1.2em">mixer is 0</tspan><tspan x="11.25" class="st5" dy="1.2em">(if the setting exists)</tspan></text></g><g id="shape25-90" transform="translate(206.366,-375.077)"><title>Process.25</title><desc>Adjust system volume</desc><rect width="70.866" height="42.52" x="0" y="615.702" class="st6"/><text x="7" y="633.96" class="st4">Adjust system <tspan x="20.28" class="st5" dy="1.2em">volume</tspan></text></g><g id="shape27-95" transform="translate(206.366,-269.88)"><title>Process.27</title><desc>Adjust browser volume setting</desc><rect width="70.866" height="42.52" x="0" y="615.702" class="st6"/><text x="4.56" y="633.96" class="st4">Adjust browser <tspan x="5.23" class="st5" dy="1.2em">volume setting</tspan></text></g><g id="shape29-100" transform="translate(193.256,-134.295)"><title>Process.29</title><desc>Check if the app has too many AudioContext opened at the same...</desc><rect width="97.087" height="53.858" x="0" y="604.363" class="st6"/><text x="7.76" y="616.29" class="st4">Check if the app has <tspan x="29.19" class="st5" dy="1.2em">too many </tspan><tspan x="4.06" class="st5" dy="1.2em">AudioContext opened </tspan><tspan x="14.16" class="st5" dy="1.2em">at the same time</tspan></text></g><g id="shape1000-107" transform="translate(28.8465,-129.76)"><title>Decision.1000</title><desc>There is AudioRenderer error with rendering audio code: 3 in ...</desc><path d="M0 626.76 L52.44 595.29 L104.88 626.76 L52.44 658.22 L0 626.76 Z" class="st3"/><text x="36.43" y="605.76" class="st4">There is <tspan x="21.59" class="st5" dy="1.2em">AudioRenderer </tspan><tspan x="10.96" class="st5" dy="1.2em">error with rendering </tspan><tspan x="12.18" class="st5" dy="1.2em">audio code: 3 in the </tspan><tspan x="46.3" class="st5" dy="1.2em">log</tspan></text></g><g id="shape1002-115" transform="translate(32.7441,-28.8465)"><title>Process.1002</title><desc>Check the audio output device / select other audio output dev...</desc><rect width="97.087" height="53.858" x="0" y="604.363" class="st6"/><text x="15.89" y="616.29" class="st4">Check the audio <tspan x="4.36" class="st5" dy="1.2em">output device / select </tspan><tspan x="9.81" class="st5" dy="1.2em">other audio output </tspan><tspan x="35.42" class="st5" dy="1.2em">device</tspan></text></g><g id="shape1004-122" transform="translate(129.831,-518.39)"><title>Dynamic connector.1004</title><desc>Always 0</desc><path d="M0 665.31 L68.5 665.31" class="st7"/><rect width="35.786" height="12" x="20.375" y="659.308" class="st9"/><text x="20.37" y="668.31" class="st10">Always 0</text></g><g id="shape1005-129" transform="translate(74.2008,-482.39)"><title>Dynamic connector.1005</title><desc>Not always 0</desc><path d="M7.09 658.22 L7.09 702.67" class="st7"/><rect width="52.129" height="12" x="-18.978" y="678.467" class="st9"/><text x="-18.98" y="687.47" class="st10">Not always 0</text></g><g id="shape1006-136" transform="translate(133.728,-389.251)"><title>Dynamic connector.1006</title><desc>Yes</desc><path d="M0 651.13 L64.6 651.13" class="st7"/><rect width="13.76" height="12" x="29.439" y="645.135" class="st9"/><text x="29.44" y="654.13" class="st10">Yes</text></g><g id="shape1007-143" transform="translate(74.2008,-362.775)"><title>Dynamic connector.1007</title><desc>No</desc><path d="M7.09 658.22 L7.09 688.28" class="st7"/><rect width="11.729" height="12" x="1.222" y="671.27" class="st9"/><text x="1.22" y="680.27" class="st10">No</text></g><g id="shape1008-150" transform="translate(74.2008,-257.602)"><title>Dynamic connector.1008</title><desc>No</desc><path d="M7.09 658.22 L7.09 715.09" class="st7"/><rect width="11.729" height="12" x="1.222" y="684.678" class="st9"/><text x="1.22" y="693.68" class="st10">No</text></g><g id="shape1009-157" transform="translate(74.2008,-129.76)"><title>Dynamic connector.1009</title><desc>No</desc><path d="M7.09 658.22 L7.09 697.24" class="st7"/><rect width="11.729" height="12" x="1.222" y="675.749" class="st9"/><text x="1.22" y="684.75" class="st10">No</text></g><g id="shape1010-164" transform="translate(133.728,-154.138)"><title>Dynamic connector.1010</title><desc>Yes</desc><path d="M0 651.13 L51.49 651.13" class="st7"/><rect width="13.76" height="12" x="22.884" y="645.135" class="st9"/><text x="22.88" y="654.13" class="st10">Yes</text></g><g id="shape1011-171" transform="translate(133.728,-284.053)"><title>Dynamic connector.1011</title><desc>Yes</desc><path d="M0 651.13 L64.6 651.13" class="st7"/><rect width="13.76" height="12" x="29.439" y="645.135" class="st9"/><text x="29.44" y="654.13" class="st10">Yes</text></g><g id="shape1012-178" transform="translate(96.2356,-530.079)"><title>Sheet.1012</title><desc>❶</desc><rect width="22.962" height="12" x="0" y="646.221" class="st11"/><text x="3.51" y="655.82" class="st12">❶</text></g><g id="shape1013-181" transform="translate(96.3779,-419.528)"><title>Sheet.1013</title><desc>❸</desc><rect width="22.962" height="12" x="0" y="646.221" class="st11"/><text x="3.51" y="655.82" class="st12">❸</text></g><g id="shape1014-184" transform="translate(254.833,-532.913)"><title>Sheet.1014</title><desc>❷</desc><rect width="22.962" height="12" x="0" y="646.221" class="st11"/><text x="3.51" y="655.82" class="st12">❷</text></g><g id="shape1015-187" transform="translate(255.118,-419.528)"><title>Sheet.1015</title><desc>❹</desc><rect width="22.962" height="12" x="0" y="646.221" class="st11"/><text x="3.51" y="655.82" class="st12">❹</text></g><g id="shape1016-190" transform="translate(254.27,-312.678)"><title>Sheet.1016</title><desc>❻</desc><rect width="22.962" height="12" x="0" y="646.221" class="st11"/><text x="3.51" y="655.82" class="st12">❻</text></g><g id="shape1017-193" transform="translate(249.164,-189.921)"><title>Sheet.1017</title><desc>❽</desc><rect width="22.962" height="12" x="0" y="646.221" class="st11"/><text x="3.51" y="655.82" class="st12">❽</text></g><g id="shape1018-196" transform="translate(96.3779,-312.678)"><title>Sheet.1018</title><desc>❺</desc><rect width="22.962" height="12" x="0" y="646.221" class="st11"/><text x="3.51" y="655.82" class="st12">❺</text></g><g id="shape1019-199" transform="translate(99.2126,-181.087)"><title>Sheet.1019</title><desc>❼</desc><rect width="22.962" height="12" x="0" y="646.221" class="st11"/><text x="3.51" y="655.82" class="st12">❼</text></g><g id="shape1020-202" transform="translate(99.2126,-84.7087)"><title>Sheet.1020</title><desc>❾</desc><rect width="22.962" height="12" x="0" y="646.221" class="st11"/><text x="3.51" y="655.82" class="st12">❾</text></g></g></svg>