<svg xmlns="http://www.w3.org/2000/svg" xmlns:ev="http://www.w3.org/2001/xml-events" xmlns:xlink="http://www.w3.org/1999/xlink" style="background-color:#fff" width="416.942" height="76.256" class="st15" color-interpolation-filters="sRGB" viewBox="0 0 312.707 57.192" xml:space="preserve"><style type="text/css">.st1{fill:url(#grad7-5);stroke:none;stroke-linecap:butt;stroke-width:.75}.st2{fill:#fff;fill-opacity:.6}.st2,.st3,.st4,.st5,.st6{stroke:none;stroke-linecap:butt;stroke-width:.75}.st3{fill:#f2f2f2;fill-opacity:.55}.st4{fill:url(#grad0-13)}.st5{fill:url(#grad0-19)}.st6{fill:#f2f2f2;fill-opacity:.7}.st7{fill:#000;font-family:Calibri;font-size:.75em}.st8{font-size:1em}.st9{marker-end:url(#mrkr4-72);stroke:#000;stroke-linecap:round;stroke-linejoin:round;stroke-width:.75}.st10{fill:#000;fill-opacity:1;stroke:#000;stroke-opacity:1;stroke-width:.22935779816514}.st11{fill:#fff;stroke:none;stroke-linecap:butt;stroke-width:7.2}.st12{fill:#000;font-family:Calibri;font-size:.666664em;font-style:italic}.st13,.st14{fill:url(#grad0-86);stroke:none;stroke-linecap:butt;stroke-width:.75}.st14{fill:url(#grad0-90)}.st15{fill:none;fill-rule:evenodd;font-size:12px;overflow:visible;stroke-linecap:square;stroke-miterlimit:3}</style><defs id="Patterns_And_Gradients"><radialGradient id="grad7-5" cx="0" cy="0" r="1.4"><stop offset=".18" stop-color="#5ea0ef" stop-opacity="1"/><stop offset="1" stop-color="#0078d4" stop-opacity="1"/></radialGradient><linearGradient id="grad0-13" x1="0" x2="1" y1="0" y2="0" gradientTransform="rotate(-90.435226578092 0.5 0.5)"><stop offset="0" stop-color="#ccc" stop-opacity="1"/><stop offset="1" stop-color="#fcfcfc" stop-opacity="1"/></linearGradient><linearGradient id="grad0-19" x1="0" x2="1" y1="0" y2="0" gradientTransform="rotate(-90 0.5 0.5)"><stop offset="0" stop-color="#ccc" stop-opacity="1"/><stop offset="1" stop-color="#fcfcfc" stop-opacity="1"/></linearGradient><linearGradient id="grad0-86" x1="0" x2="1" y1="0" y2="0" gradientTransform="rotate(-90 0.5 0.5)"><stop offset="0" stop-color="#198ab3" stop-opacity="1"/><stop offset=".09" stop-color="#1f9dc4" stop-opacity="1"/><stop offset=".24" stop-color="#28b5d9" stop-opacity="1"/><stop offset=".4" stop-color="#2dc6e9" stop-opacity="1"/><stop offset=".57" stop-color="#31d1f2" stop-opacity="1"/><stop offset=".78" stop-color="#32d4f5" stop-opacity="1"/></linearGradient><linearGradient id="grad0-90" x1="0" x2="1" y1="0" y2="0" gradientTransform="rotate(90 0.5 0.5)"><stop offset="0" stop-color="#c69aeb" stop-opacity="1"/><stop offset="1" stop-color="#6f4bb2" stop-opacity="1"/></linearGradient></defs><defs id="Markers"><g id="lend4"><path style="stroke:none" d="M 2 1 L 0 0 L 2 -1 L 2 1"/></g><marker id="mrkr4-72" class="st10" markerUnits="strokeWidth" orient="auto" overflow="visible" refX="-8.72"><use transform="scale(-4.36,-4.36)" xlink:href="#lend4"/></marker></defs><g><title>Page-1</title><g id="group1540-1" transform="translate(258.879,-21.6036)"><title>Sheet.1540</title><g id="shape1541-2"><title>Sheet.1541</title><path d="M26.74 52.01 C20.04 57.19 10.39 55.97 5.2 49.29 C0 42.6 1.22 32.98 7.92 27.8 L8.09 27.69 C14.88 22.63 24.5 24.02 29.57 30.8 C34.56 37.46 33.3 46.88 26.74 52.01 Z" class="st1"/></g><g id="shape1542-6" transform="translate(4.06015,-6.77259)"><title>Sheet.1542</title><path d="M9.1 43.49 C13.44 39.37 19.2 37.06 25.2 37.04 C24.41 36.07 23.5 35.2 22.5 34.45 C19.59 34.63 16.73 35.3 14.04 36.43 C11.26 37.61 8.76 39.34 6.66 41.51 C7.67 41.89 8.53 42.58 9.1 43.49 ZM1.5 49.65 C0.88 51.18 0.38 52.76 0 54.36 C0.33 54.94 0.71 55.5 1.12 56.02 C1.44 56.44 1.75 56.81 2.11 57.19 C2.55 55.05 3.2 52.95 4.06 50.94 C3.1 50.77 2.21 50.32 1.5 49.65 Z" class="st2"/></g><g id="shape1543-8" transform="translate(4.09627,-20.8905)"><title>Sheet.1543</title><path d="M3.23 55.59 C2.6 53.88 2.18 52.1 1.99 50.29 C1.23 51.09 0.56 51.96 0 52.9 C0.2 54.36 0.55 55.8 1.03 57.19 C1.59 56.46 2.36 55.9 3.23 55.59 Z" class="st3"/></g><g id="shape1544-10" transform="translate(4.06015,-12.9472)"><title>Sheet.1544</title><ellipse cx="4.931" cy="52.275" class="st4" rx="4.931" ry="4.917"/></g><g id="shape1545-14" transform="translate(9.89389,-6.09533)"><title>Sheet.1545</title><path d="M6.29 54.41 C6.29 53.55 6.64 52.72 7.26 52.12 C5.6 51.21 4.06 50.08 2.69 48.77 C1.98 49.55 1.03 50.07 0 50.27 C0.81 51.1 1.69 51.87 2.62 52.57 C3.77 53.44 5.02 54.2 6.32 54.82 C6.3 54.69 6.29 54.55 6.29 54.41 ZM17.66 54.79 C15.98 54.79 14.32 54.6 12.68 54.21 C12.69 54.28 12.69 54.34 12.68 54.41 C12.68 55.25 12.35 56.05 11.76 56.64 C13.79 57.05 15.86 57.19 17.93 57.07 C18.73 56.35 19.46 55.54 20.08 54.66 C19.28 54.75 18.47 54.79 17.66 54.79 Z" class="st3"/></g><g id="shape1546-16" transform="translate(16.1611,-5.67024)"><title>Sheet.1546</title><ellipse cx="3.215" cy="53.986" class="st5" rx="3.215" ry="3.206"/></g><g id="shape1547-20" transform="translate(10.797,-17.4142)"><title>Sheet.1547</title><path d="M12.53 57.19 C12.69 56.49 13.08 55.85 13.63 55.39 C10.66 53.23 7.96 50.73 5.58 47.93 C4.2 46.31 2.98 44.55 1.97 42.67 C1.29 42.87 0.64 43.13 0 43.43 C1.09 45.47 2.39 47.39 3.88 49.16 C6.42 52.18 9.33 54.88 12.53 57.19 Z" class="st6"/></g><g id="shape1548-22" transform="translate(23.2772,-13.3975)"><title>Sheet.1548</title><ellipse cx="3.414" cy="53.788" class="st5" rx="3.414" ry="3.404"/></g><g id="shape1549-25" transform="translate(28.8166,-12.5509)"><title>Sheet.1549</title><path d="M3.6 55.23 L2.97 54.92 L2.43 54.63 L2.32 54.63 L1.85 54.26 L1.72 54.26 L1.16 53.9 C0.97 54.56 0.56 55.14 0 55.55 C0.22 55.7 0.45 55.82 0.69 55.95 L0.83 56.04 L1.46 56.38 L3.02 57.19 C3.24 56.54 3.41 55.87 3.54 55.19 L3.6 55.23 Z" class="st3"/></g><g id="shape1550-27" transform="translate(4.06015,-12.9472)"><title>Sheet.1550</title><ellipse cx="4.931" cy="52.275" class="st4" rx="4.931" ry="4.917"/></g><g id="shape1551-30" transform="translate(16.1611,-5.67024)"><title>Sheet.1551</title><ellipse cx="3.215" cy="53.986" class="st5" rx="3.215" ry="3.206"/></g></g><g id="shape1552-33" transform="translate(259.427,-21.6036)"><title>App Services.1552</title><desc>Backend API</desc><text x="-5.32" y="65.29" class="st7">Backend API</text></g><g id="group1553-35" transform="translate(17.9345,-21.6036)"><title>Sheet.1553</title><g id="shape1554-36"><title>Sheet.1554</title><path d="M26.74 52.01 C20.04 57.19 10.39 55.97 5.2 49.29 C0 42.6 1.22 32.98 7.92 27.8 L8.09 27.69 C14.88 22.63 24.5 24.02 29.57 30.8 C34.56 37.46 33.3 46.88 26.74 52.01 Z" class="st1"/></g><g id="shape1555-39" transform="translate(4.06015,-6.77259)"><title>Sheet.1555</title><path d="M9.1 43.49 C13.44 39.37 19.2 37.06 25.2 37.04 C24.41 36.07 23.5 35.2 22.5 34.45 C19.59 34.63 16.73 35.3 14.04 36.43 C11.26 37.61 8.76 39.34 6.66 41.51 C7.67 41.89 8.53 42.58 9.1 43.49 ZM1.5 49.65 C0.88 51.18 0.38 52.76 0 54.36 C0.33 54.94 0.71 55.5 1.12 56.02 C1.44 56.44 1.75 56.81 2.11 57.19 C2.55 55.05 3.2 52.95 4.06 50.94 C3.1 50.77 2.21 50.32 1.5 49.65 Z" class="st2"/></g><g id="shape1556-41" transform="translate(4.09627,-20.8905)"><title>Sheet.1556</title><path d="M3.23 55.59 C2.6 53.88 2.18 52.1 1.99 50.29 C1.23 51.09 0.56 51.96 0 52.9 C0.2 54.36 0.55 55.8 1.03 57.19 C1.59 56.46 2.36 55.9 3.23 55.59 Z" class="st3"/></g><g id="shape1557-43" transform="translate(4.06015,-12.9472)"><title>Sheet.1557</title><ellipse cx="4.931" cy="52.275" class="st4" rx="4.931" ry="4.917"/></g><g id="shape1558-46" transform="translate(9.89389,-6.09533)"><title>Sheet.1558</title><path d="M6.29 54.41 C6.29 53.55 6.64 52.72 7.26 52.12 C5.6 51.21 4.06 50.08 2.69 48.77 C1.98 49.55 1.03 50.07 0 50.27 C0.81 51.1 1.69 51.87 2.62 52.57 C3.77 53.44 5.02 54.2 6.32 54.82 C6.3 54.69 6.29 54.55 6.29 54.41 ZM17.66 54.79 C15.98 54.79 14.32 54.6 12.68 54.21 C12.69 54.28 12.69 54.34 12.68 54.41 C12.68 55.25 12.35 56.05 11.76 56.64 C13.79 57.05 15.86 57.19 17.93 57.07 C18.73 56.35 19.46 55.54 20.08 54.66 C19.28 54.75 18.47 54.79 17.66 54.79 Z" class="st3"/></g><g id="shape1559-48" transform="translate(16.1611,-5.67024)"><title>Sheet.1559</title><ellipse cx="3.215" cy="53.986" class="st5" rx="3.215" ry="3.206"/></g><g id="shape1560-51" transform="translate(10.797,-17.4142)"><title>Sheet.1560</title><path d="M12.53 57.19 C12.69 56.49 13.08 55.85 13.63 55.39 C10.66 53.23 7.96 50.73 5.58 47.93 C4.2 46.31 2.98 44.55 1.97 42.67 C1.29 42.87 0.64 43.13 0 43.43 C1.09 45.47 2.39 47.39 3.88 49.16 C6.42 52.18 9.33 54.88 12.53 57.19 Z" class="st6"/></g><g id="shape1561-53" transform="translate(23.2772,-13.3975)"><title>Sheet.1561</title><ellipse cx="3.414" cy="53.788" class="st5" rx="3.414" ry="3.404"/></g><g id="shape1562-56" transform="translate(28.8166,-12.5509)"><title>Sheet.1562</title><path d="M3.6 55.23 L2.97 54.92 L2.43 54.63 L2.32 54.63 L1.85 54.26 L1.72 54.26 L1.16 53.9 C0.97 54.56 0.56 55.14 0 55.55 C0.22 55.7 0.45 55.82 0.69 55.95 L0.83 56.04 L1.46 56.38 L3.02 57.19 C3.24 56.54 3.41 55.87 3.54 55.19 L3.6 55.23 Z" class="st3"/></g><g id="shape1563-58" transform="translate(4.06015,-12.9472)"><title>Sheet.1563</title><ellipse cx="4.931" cy="52.275" class="st4" rx="4.931" ry="4.917"/></g><g id="shape1564-61" transform="translate(16.1611,-5.67024)"><title>Sheet.1564</title><ellipse cx="3.215" cy="53.986" class="st5" rx="3.215" ry="3.206"/></g></g><g id="shape1565-64" transform="translate(18.72,-21.6036)"><title>App Services.1565</title><desc>Client App</desc><text x="6.7" y="65.29" class="st7">Client <tspan x="9.95" class="st8" dy="1.2em">App</tspan></text></g><g id="shape1566-67" transform="translate(53.28,-31.797)"><title>Dynamic connector.1566</title><desc>Client side</desc><path d="M0 50.11 L76.84 50.11" class="st9"/><rect width="33.156" height="9.6" x="25.113" y="45.306" class="st11"/><text x="25.11" y="52.51" class="st12">Client side</text></g><g id="shape1567-75" transform="translate(180.054,-31.727)"><title>Dynamic connector.1567</title><desc>Service side</desc><path d="M0 50.18 L72.83 50.05" class="st9"/><rect width="37.421" height="9.6" x="20.976" y="45.306" class="st11"/><text x="20.98" y="52.51" class="st12">Service side</text></g><g id="group1568-82" transform="translate(140.066,-21.8794)"><title>API Management Services.1568</title><desc>API Management</desc><g id="shape1569-83"><title>Sheet.1569</title><path d="M27.81 33.03 A9.85976 10.7103 -180 0 0 17.75 22.63 A10.1647 11.0415 -180 0 0 8.09 29.9 A9.37186 10.1803 -180 0 0 -0 39.9 A9.49384 10.3128 -180 0 0 9.74 49.84 A6.09882 6.62492 -180 0 0 10.59 49.84 L13.03 49.84 A2.98842 3.24621 0 0 1 12.81 48.6 A3.06974 3.33454 0 0 1 13.21 46.99 L9.74 46.99 A6.93233 7.53033 0 0 1 2.58 39.9 A6.76969 7.35366 0 0 1 8.5 32.68 L10.04 32.41 L10.55 30.8 A7.58287 8.23698 0 0 1 17.75 25.44 A7.31859 7.9499 0 0 1 25.23 33.06 L25.23 35.48 L27.44 35.82 A5.26532 5.71951 0 0 1 32.04 41.31 A5.34664 5.80785 0 0 1 26.71 46.92 L24.21 46.92 A7.96913 8.65656 -180 0 0 16.34 39.9 A1.30108 1.41332 -180 1 0 16.34 42.71 A5.38729 5.85201 0 0 1 16.34 54.39 A1.30108 1.41332 -180 1 0 16.34 57.19 A7.96913 8.65656 -180 0 0 24.21 49.82 L26.35 49.82 A1.30108 1.41332 -180 0 0 26.75 49.82 A7.9488 8.63448 -180 0 0 34.56 41.31 A7.84715 8.52406 -180 0 0 27.81 33.03 Z" class="st13"/></g><g id="shape1570-87" transform="translate(12.8075,-5.2116)"><title>Sheet.1570</title><path d="M0 53.79 A3.1308 3.40087 -180 0 0 3.13 57.19 L3.21 57.19 A3.1308 3.40087 -180 0 0 6.34 53.79 L6.34 53.7 A3.1308 3.40087 -180 0 0 3.21 50.3 L3.13 50.3 A3.1308 3.40087 -180 0 0 -0 53.7 L0 53.79 Z" class="st14"/></g><g id="shape1568-91"><text x="11.22" y="65.29" class="st7">API <tspan x="-7.31" class="st8" dy="1.2em">Management</tspan></text></g></g></g></svg>