<svg xmlns="http://www.w3.org/2000/svg" xmlns:ev="http://www.w3.org/2001/xml-events" xmlns:xlink="http://www.w3.org/1999/xlink" width="404.232" height="224.824" class="st28" color-interpolation-filters="sRGB" viewBox="0 0 303.174 168.619" xml:space="preserve" style="background-color:#fff"><style type="text/css">.st1{fill:#000;fill-opacity:.18;stroke:none;stroke-linecap:butt;stroke-width:.75}.st2{fill:#000;font-family:Calibri;font-size:.75em}.st3{font-size:1em}.st4{fill:url(#grad7-16);stroke:none;stroke-linecap:butt}.st4,.st5,.st6{stroke-width:.75}.st5{fill:#fff;fill-opacity:.6;stroke:none;stroke-linecap:butt}.st6{fill:#f2f2f2;fill-opacity:.55}.st6,.st7,.st8{stroke:none;stroke-linecap:butt}.st7{fill:url(#grad0-24);stroke-width:.75}.st8{fill:url(#grad0-30)}.st10,.st8,.st9{stroke-width:.75}.st9{fill:#f2f2f2;fill-opacity:.7;stroke:none;stroke-linecap:butt}.st10{marker-end:url(#mrkr5-56);marker-start:url(#mrkr4-54);stroke:#000;stroke-dasharray:5.25,3.75;stroke-linecap:round;stroke-linejoin:round}.st11{fill:#000;fill-opacity:1;stroke:#000;stroke-opacity:1;stroke-width:.22935779816514}.st12{fill:#fff;stroke:none;stroke-linecap:butt;stroke-width:7.2}.st13{fill:#000;font-family:Calibri;font-size:.666664em}.st14,.st15{stroke-width:.75}.st14{marker-end:url(#mrkr4-66);stroke:#000;stroke-linecap:round;stroke-linejoin:round}.st15{fill:url(#grad0-104)}.st15,.st16,.st17{stroke:none;stroke-linecap:butt}.st16{fill:#0078d4;stroke-width:.75}.st17{fill:#f2f2f2}.st17,.st18,.st19{stroke-width:.75}.st18{fill:url(#grad0-115);stroke:none;stroke-linecap:butt}.st19{fill:#fff;fill-opacity:.8}.st19,.st20,.st21{stroke:none;stroke-linecap:butt}.st20{fill:url(#grad0-121);stroke-width:.75}.st21{fill:#50e6ff}.st21,.st22,.st23{stroke-width:.75}.st22{fill:#fff;stroke:none;stroke-linecap:butt}.st23{fill:url(#grad0-132)}.st23,.st24,.st25{stroke:none;stroke-linecap:butt}.st24{fill:#53b1e0;stroke-width:.75}.st25{fill:#9cebff}.st25,.st26,.st27{stroke-width:.75}.st26{fill:url(#grad0-140);stroke:none;stroke-linecap:butt}.st27{marker-end:url(#mrkr4-66);stroke:#000;stroke-dasharray:5.25,3.75;stroke-linecap:round;stroke-linejoin:round}.st28{fill:none;fill-rule:evenodd;font-size:12px;overflow:visible;stroke-linecap:square;stroke-miterlimit:3}</style><defs id="Patterns_And_Gradients"><radialGradient id="grad7-16" cx="0" cy="0" r="1.4"><stop offset=".18" stop-color="#5ea0ef" stop-opacity="1"/><stop offset="1" stop-color="#0078d4" stop-opacity="1"/></radialGradient><linearGradient id="grad0-24" x1="0" x2="1" y1="0" y2="0" gradientTransform="rotate(-90.435226578092 0.5 0.5)"><stop offset="0" stop-color="#ccc" stop-opacity="1"/><stop offset="1" stop-color="#fcfcfc" stop-opacity="1"/></linearGradient><linearGradient id="grad0-30" x1="0" x2="1" y1="0" y2="0" gradientTransform="rotate(-90 0.5 0.5)"><stop offset="0" stop-color="#ccc" stop-opacity="1"/><stop offset="1" stop-color="#fcfcfc" stop-opacity="1"/></linearGradient><linearGradient id="grad0-104" x1="0" x2="1" y1="0" y2="0" gradientTransform="rotate(-90 0.5 0.5)"><stop offset="0" stop-color="#32bedd" stop-opacity="1"/><stop offset=".175" stop-color="#32caea" stop-opacity="1"/><stop offset=".41" stop-color="#32d2f2" stop-opacity="1"/><stop offset=".775" stop-color="#32d4f5" stop-opacity="1"/></linearGradient><linearGradient id="grad0-115" x1="0" x2="1" y1="0" y2="0" gradientTransform="rotate(90 0.5 0.5)"><stop offset=".22" stop-color="#32d4f5" stop-opacity="1"/><stop offset="1" stop-color="#198ab3" stop-opacity="1"/></linearGradient><linearGradient id="grad0-121" x1="0" x2="1" y1="0" y2="0" gradientTransform="rotate(85.405746668733 0.5 0.5)"><stop offset=".22" stop-color="#32d4f5" stop-opacity="1"/><stop offset="1" stop-color="#198ab3" stop-opacity="1"/></linearGradient><linearGradient id="grad0-132" x1="0" x2="1" y1="0" y2="0" gradientTransform="rotate(-133.54829310906 0.5 0.5)"><stop offset="0" stop-color="#1988d9" stop-opacity="1"/><stop offset=".9" stop-color="#54aef0" stop-opacity="1"/></linearGradient><linearGradient id="grad0-140" x1="0" x2="1" y1="0" y2="0" gradientTransform="rotate(65.834982258294 0.5 0.5)"><stop offset=".1" stop-color="#54aef0" stop-opacity="1"/><stop offset=".29" stop-color="#4fabee" stop-opacity="1"/><stop offset=".51" stop-color="#41a2e9" stop-opacity="1"/><stop offset=".74" stop-color="#2a93e0" stop-opacity="1"/><stop offset=".88" stop-color="#1988d9" stop-opacity="1"/></linearGradient></defs><defs id="Markers"><g id="lend4"><path d="M 2 1 L 0 0 L 2 -1 L 2 1" style="stroke:none"/></g><marker id="mrkr4-54" class="st11" markerUnits="strokeWidth" orient="auto" overflow="visible" refX="8.24"><use transform="scale(4.36)" xlink:href="#lend4"/></marker><g id="lend5"><path d="M 2 1 L 0 0 L 1.98117 -0.993387 C 1.67173 -0.364515 1.67301 0.372641 1.98465 1.00043" style="stroke:none"/></g><marker id="mrkr5-56" class="st11" markerUnits="strokeWidth" orient="auto" overflow="visible" refX="-7.63"><use transform="scale(-4.36,-4.36)" xlink:href="#lend5"/></marker><marker id="mrkr4-66" class="st11" markerUnits="strokeWidth" orient="auto" overflow="visible" refX="-8.72"><use transform="scale(-4.36,-4.36)" xlink:href="#lend4"/></marker></defs><g><title>Page-1</title><g id="group1-1" transform="translate(188.485,-33.9537)"><title>API Management Services</title><desc>API Management</desc><g id="shape2-2"><title>Sheet.2</title><path d="M29.94 144.78 A10.6137 10.5685 -180 0 0 19.1 134.52 A10.942 10.8954 -180 0 0 8.71 141.69 A10.0885 10.0455 -180 0 0 -0 151.56 A10.2198 10.1763 -180 0 0 10.48 161.36 A6.56518 6.53721 -180 0 0 11.4 161.36 L14.03 161.36 A3.21694 3.20324 0 0 1 13.79 160.14 A3.30447 3.2904 0 0 1 14.22 158.55 L10.48 158.55 A7.46242 7.43063 0 0 1 2.78 151.56 A7.28735 7.25631 0 0 1 9.15 144.43 L10.81 144.17 L11.36 142.58 A8.16271 8.12794 0 0 1 19.1 137.28 A7.87822 7.84466 0 0 1 27.16 144.8 L27.16 147.2 L29.54 147.53 A5.66794 5.6438 0 0 1 34.49 152.95 A5.75548 5.73096 0 0 1 28.76 158.49 L26.06 158.49 A8.5785 8.54196 -180 0 0 17.59 151.56 A1.40057 1.39461 -180 1 0 17.59 154.32 A5.79924 5.77454 0 0 1 17.59 165.85 A1.40057 1.39461 -180 1 0 17.59 168.62 A8.5785 8.54196 -180 0 0 26.06 161.34 L28.36 161.34 A1.40057 1.39461 -180 0 0 28.8 161.34 A8.55662 8.52017 -180 0 0 37.2 152.95 A8.4472 8.41122 -180 0 0 29.94 144.78 Z" class="st1"/></g><g id="shape3-4" transform="translate(13.7869,-5.14261)"><title>Sheet.3</title><path d="M-0 165.26 A3.3702 3.35585 -180 0 0 3.37 168.62 L3.46 168.62 A3.3702 3.35585 -180 0 0 6.83 165.26 L6.83 165.18 A3.3702 3.35585 -180 0 0 3.46 161.82 L3.37 161.82 A3.3702 3.35585 -180 0 0 0 165.18 L0 165.26 Z" class="st1"/></g><g id="shape1-6"><text x="12.54" y="176.72" class="st2">API<tspan class="st3"> </tspan><tspan x="-5.98" class="st3" dy="1.2em">M</tspan><tspan class="st3">anagement</tspan></text></g></g><g id="group48-11" transform="translate(248.573,-32.4036)"><title>App Services.48</title><desc>Backend API Validate AUD=ABC</desc><g id="group49-12"><title>Sheet.49</title><g id="shape50-13"><title>Sheet.50</title><path d="M28.79 163.04 C21.57 168.62 11.19 167.31 5.59 160.11 C0 152.91 1.31 142.56 8.53 136.98 L8.7 136.86 C16.02 131.42 26.37 132.91 31.83 140.21 C37.2 147.38 35.85 157.51 28.79 163.04 Z" class="st4"/></g><g id="shape51-17" transform="translate(4.37061,-7.29046)"><title>Sheet.51</title><path d="M9.8 153.87 C14.47 149.43 20.67 146.95 27.12 146.92 C26.27 145.88 25.3 144.94 24.23 144.13 C21.09 144.33 18.01 145.05 15.11 146.27 C12.12 147.54 9.43 149.4 7.17 151.73 C8.26 152.14 9.18 152.89 9.8 153.87 ZM1.61 160.5 C0.94 162.15 0.41 163.85 0 165.57 C0.36 166.2 0.76 166.79 1.21 167.36 C1.56 167.8 1.89 168.21 2.27 168.62 C2.75 166.31 3.45 164.05 4.37 161.89 C3.34 161.71 2.38 161.22 1.61 160.5 Z" class="st5"/></g><g id="shape52-19" transform="translate(4.4095,-22.488)"><title>Sheet.52</title><path d="M3.48 166.89 C2.79 165.06 2.34 163.14 2.14 161.19 C1.32 162.05 0.6 162.99 0 164 C0.22 165.57 0.59 167.12 1.11 168.62 C1.72 167.83 2.54 167.23 3.48 166.89 Z" class="st6"/></g><g id="shape53-21" transform="translate(4.37061,-13.9372)"><title>Sheet.53</title><ellipse cx="5.308" cy="163.325" class="st7" rx="5.308" ry="5.293"/></g><g id="shape54-25" transform="translate(10.6504,-6.56142)"><title>Sheet.54</title><path d="M6.77 165.62 C6.77 164.7 7.15 163.81 7.82 163.16 C6.02 162.18 4.37 160.97 2.9 159.56 C2.13 160.39 1.11 160.95 0 161.17 C0.88 162.06 1.82 162.89 2.82 163.65 C4.06 164.58 5.4 165.39 6.8 166.07 C6.78 165.92 6.77 165.77 6.77 165.62 ZM19.01 166.03 C17.21 166.03 15.41 165.83 13.65 165.41 C13.66 165.48 13.66 165.55 13.65 165.62 C13.65 166.53 13.29 167.39 12.66 168.03 C14.84 168.46 17.08 168.62 19.31 168.49 C20.17 167.71 20.95 166.84 21.62 165.89 C20.75 165.99 19.88 166.04 19.01 166.03 Z" class="st6"/></g><g id="shape55-27" transform="translate(17.3969,-6.10382)"><title>Sheet.55</title><ellipse cx="3.461" cy="165.167" class="st8" rx="3.461" ry="3.451"/></g><g id="shape56-31" transform="translate(11.6226,-18.7458)"><title>Sheet.56</title><path d="M13.49 168.62 C13.66 167.86 14.08 167.18 14.68 166.68 C11.48 164.36 8.57 161.66 6.01 158.65 C4.52 156.91 3.21 155.01 2.12 152.99 C1.39 153.21 0.68 153.48 0 153.8 C1.17 156 2.57 158.07 4.18 159.97 C6.91 163.22 10.04 166.13 13.49 168.62 Z" class="st9"/></g><g id="shape57-33" transform="translate(25.0571,-14.4219)"><title>Sheet.57</title><ellipse cx="3.675" cy="164.954" class="st8" rx="3.675" ry="3.665"/></g><g id="shape58-36" transform="translate(31.0201,-13.5106)"><title>Sheet.58</title><path d="M3.87 166.51 L3.19 166.18 L2.61 165.87 L2.49 165.87 L1.99 165.46 L1.85 165.46 L1.25 165.07 C1.04 165.78 0.6 166.41 0 166.85 C0.24 167.01 0.49 167.14 0.74 167.28 L0.9 167.38 L1.58 167.75 L3.25 168.62 C3.48 167.91 3.67 167.2 3.81 166.47 L3.87 166.51 Z" class="st6"/></g><g id="shape59-38" transform="translate(4.37061,-13.9372)"><title>Sheet.59</title><ellipse cx="5.308" cy="163.325" class="st7" rx="5.308" ry="5.293"/></g><g id="shape60-41" transform="translate(17.3969,-6.10382)"><title>Sheet.60</title><ellipse cx="3.461" cy="165.167" class="st8" rx="3.461" ry="3.451"/></g></g><g id="shape48-44"><text x="-4" y="176.72" class="st2">Backend API<tspan x="3.56" class="st3" dy="1.2em">Validate</tspan><tspan x=".65" class="st3" dy="1.2em">AUD=ABC</tspan></text></g></g><g id="shape64-48" transform="translate(146.998,-69.6063)"><title>Dynamic connector.64</title><desc>Request Access token AUD=ABC</desc><path d="M0 162.44 L0 162.08 L0 88.96 L37.31 88.96" class="st10"/><rect width="42.16" height="28.8" x="-19.719" y="112.408" class="st12"/><text x="-11.9" y="119.61" class="st13">Request<tspan x="-19.72" class="st3" dy="1.2em">Access token </tspan><tspan x="-14.6" class="st3" dy="1.2em">AUD=ABC</tspan></text></g><g id="shape88-61" transform="translate(105.511,-43.9183)"><title>Dynamic connector.88</title><path d="M0 161.53 L16.35 161.53" class="st14"/></g><g id="group1066-67" transform="translate(128.396,-32.4036)"><title>App Services.1066</title><desc>Client App</desc><g id="group1067-68"><title>Sheet.1067</title><g id="shape1068-69"><title>Sheet.1068</title><path d="M28.79 163.04 C21.57 168.62 11.19 167.31 5.59 160.11 C0 152.91 1.31 142.56 8.53 136.98 L8.7 136.86 C16.02 131.42 26.37 132.91 31.83 140.21 C37.2 147.38 35.85 157.51 28.79 163.04 Z" class="st4"/></g><g id="shape1069-72" transform="translate(4.37061,-7.29046)"><title>Sheet.1069</title><path d="M9.8 153.87 C14.47 149.43 20.67 146.95 27.12 146.92 C26.27 145.88 25.3 144.94 24.23 144.13 C21.09 144.33 18.01 145.05 15.11 146.27 C12.12 147.54 9.43 149.4 7.17 151.73 C8.26 152.14 9.18 152.89 9.8 153.87 ZM1.61 160.5 C0.94 162.15 0.41 163.85 0 165.57 C0.36 166.2 0.76 166.79 1.21 167.36 C1.56 167.8 1.89 168.21 2.27 168.62 C2.75 166.31 3.45 164.05 4.37 161.89 C3.34 161.71 2.38 161.22 1.61 160.5 Z" class="st5"/></g><g id="shape1070-74" transform="translate(4.4095,-22.488)"><title>Sheet.1070</title><path d="M3.48 166.89 C2.79 165.06 2.34 163.14 2.14 161.19 C1.32 162.05 0.6 162.99 0 164 C0.22 165.57 0.59 167.12 1.11 168.62 C1.72 167.83 2.54 167.23 3.48 166.89 Z" class="st6"/></g><g id="shape1071-76" transform="translate(4.37061,-13.9372)"><title>Sheet.1071</title><ellipse cx="5.308" cy="163.325" class="st7" rx="5.308" ry="5.293"/></g><g id="shape1072-79" transform="translate(10.6504,-6.56142)"><title>Sheet.1072</title><path d="M6.77 165.62 C6.77 164.7 7.15 163.81 7.82 163.16 C6.02 162.18 4.37 160.97 2.9 159.56 C2.13 160.39 1.11 160.95 0 161.17 C0.88 162.06 1.82 162.89 2.82 163.65 C4.06 164.58 5.4 165.39 6.8 166.07 C6.78 165.92 6.77 165.77 6.77 165.62 ZM19.01 166.03 C17.21 166.03 15.41 165.83 13.65 165.41 C13.66 165.48 13.66 165.55 13.65 165.62 C13.65 166.53 13.29 167.39 12.66 168.03 C14.84 168.46 17.08 168.62 19.31 168.49 C20.17 167.71 20.95 166.84 21.62 165.89 C20.75 165.99 19.88 166.04 19.01 166.03 Z" class="st6"/></g><g id="shape1073-81" transform="translate(17.3969,-6.10382)"><title>Sheet.1073</title><ellipse cx="3.461" cy="165.167" class="st8" rx="3.461" ry="3.451"/></g><g id="shape1074-84" transform="translate(11.6226,-18.7458)"><title>Sheet.1074</title><path d="M13.49 168.62 C13.66 167.86 14.08 167.18 14.68 166.68 C11.48 164.36 8.57 161.66 6.01 158.65 C4.52 156.91 3.21 155.01 2.12 152.99 C1.39 153.21 0.68 153.48 0 153.8 C1.17 156 2.57 158.07 4.18 159.97 C6.91 163.22 10.04 166.13 13.49 168.62 Z" class="st9"/></g><g id="shape1075-86" transform="translate(25.0571,-14.4219)"><title>Sheet.1075</title><ellipse cx="3.675" cy="164.954" class="st8" rx="3.675" ry="3.665"/></g><g id="shape1076-89" transform="translate(31.0201,-13.5106)"><title>Sheet.1076</title><path d="M3.87 166.51 L3.19 166.18 L2.61 165.87 L2.49 165.87 L1.99 165.46 L1.85 165.46 L1.25 165.07 C1.04 165.78 0.6 166.41 0 166.85 C0.24 167.01 0.49 167.14 0.74 167.28 L0.9 167.38 L1.58 167.75 L3.25 168.62 C3.48 167.91 3.67 167.2 3.81 166.47 L3.87 166.51 Z" class="st6"/></g><g id="shape1077-91" transform="translate(4.37061,-13.9372)"><title>Sheet.1077</title><ellipse cx="5.308" cy="163.325" class="st7" rx="5.308" ry="5.293"/></g><g id="shape1078-94" transform="translate(17.3969,-6.10382)"><title>Sheet.1078</title><ellipse cx="3.461" cy="165.167" class="st8" rx="3.461" ry="3.451"/></g></g><g id="shape1066-97"><text x="8.03" y="176.72" class="st2">Client <tspan x="11.27" class="st3" dy="1.2em">App</tspan></text></g></g><g id="group1079-100" transform="translate(68.3082,-32.4036)"><title>Browser.1079</title><desc>Browser</desc><g id="shape1080-101"><title>Sheet.1080</title><path d="M0 141.27 L37.2 141.27 L37.2 167.07 A1.24301 1.54603 0 0 1 35.96 168.62 L1.24 168.62 A1.24301 1.54603 0 0 1 0 167.07 L0 141.27 Z" class="st15"/></g><g id="shape1081-105" transform="translate(0,-27.344)"><title>Sheet.1081</title><path d="M1.25 158.76 L35.95 158.76 A1.24301 1.54603 0 0 1 37.2 160.31 L37.2 168.62 L0 168.62 L0 160.31 A1.24301 1.54603 0 0 1 1.25 158.76 Z" class="st16"/></g><g id="shape1082-107" transform="translate(5.00486,-30.2864)"><title>Sheet.1082</title><path d="M0 167.85 a0.621518 0.773033 -180 0 0 0.621504 0.773015 L26.57 168.62 a0.621518 0.773033 -180 0 0 0.621504 -0.773015 L27.19 165.42 a0.621518 0.773033 -180 0 0 -0.621504 -0.773015 L0.62 164.65 a0.621518 0.773033 -180 0 0 -0.621504 0.773015 L0 167.85 Z" class="st17"/></g><g id="shape1079-109"><text x="3.43" y="176.72" class="st2">Browser</text></g></g><g id="group1083-111" transform="translate(18.9488,-32.4036)"><title>Users.1083</title><g id="shape1084-112"><title>Sheet.1084</title><path d="M31.06 168.62 A3.02479 2.99688 -180 0 0 34.09 165.62 a0.980451 0.971404 -180 0 0 1.42109E-14 -0.351359 C32.88 155.82 27.47 148.14 17.04 148.14 C6.61 148.14 1.06 154.65 0 165.29 A3.04565 3.01755 -180 0 0 2.73 168.62 L31.06 168.62 Z" class="st18"/></g><g id="shape1085-116" transform="translate(11.8697,-6.4898)"><title>Sheet.1085</title><path d="M5.17 156.86 A9.57504 9.48669 0 0 1 0 155.35 L5.17 168.62 L10.26 155.43 A9.44987 9.36268 0 0 1 5.17 156.86 Z" class="st19"/></g><g id="shape1086-118" transform="translate(7.50983,-18.2707)"><title>Sheet.1086</title><ellipse cx="9.554" cy="159.153" class="st20" rx="9.554" ry="9.466"/></g></g><g id="group1087-122" transform="translate(190.035,-130.666)"><title>Azure Active Directory.1087</title><desc>Azure AD</desc><g id="shape1088-123"><title>Sheet.1088</title><path d="M1.91 152.72 L16.92 164.39 L32.19 152.67 L34.1 155.35 L16.92 168.62 L0 155.35 L1.91 152.72 Z" class="st21"/></g><g id="shape1089-125" transform="translate(3.05028,-6.65469)"><title>Sheet.1089</title><path d="M0 157.88 L13.87 138.07 L28.02 157.9 L13.87 168.62 L0 157.88 Z" class="st22"/></g><g id="shape1090-127" transform="translate(3.05028,-6.65469)"><title>Sheet.1090</title><path d="M13.87 138.07 L13.87 168.62 L0 157.88 L13.87 138.07 Z" class="st21"/></g><g id="shape1091-129" transform="translate(16.9186,-6.65469)"><title>Sheet.1091</title><path d="M0 138.07 L0 168.62 L14.15 157.9 L0 138.07 Z" class="st23"/></g><g id="shape1092-133" transform="translate(16.9186,-6.65469)"><title>Sheet.1092</title><path d="M0 153.86 L14.15 157.9 L0 168.62 L0 153.86 Z" class="st24"/></g><g id="shape1093-135" transform="translate(3.05028,-6.65469)"><title>Sheet.1093</title><path d="M13.87 168.62 L0 157.88 L13.87 153.86 L13.87 168.62 Z" class="st25"/></g><g id="shape1094-137" transform="translate(16.9186,2.27374E-13)"><title>Sheet.1094</title><path d="M0 168.62 L17.18 155.35 L15.27 152.67 L0 164.39 L0 168.62 Z" class="st26"/></g><g id="shape1087-141"><text x=".11" y="176.72" class="st2">A<tspan class="st3">zure A</tspan>D</text></g></g><g id="shape1095-144" transform="translate(165.599,-43.9183)"><title>Dynamic connector.1095</title><path d="M0 161.53 L16.35 161.53" class="st14"/></g><g id="shape1096-149" transform="translate(225.687,-43.9183)"><title>Dynamic connector.1096</title><path d="M0 161.53 L16.35 161.53" class="st14"/></g><g id="shape1097-154" transform="translate(267.174,-69.6063)"><title>Dynamic connector.1097</title><desc>Metadata endpoint</desc><path d="M0 168.62 L0 88.96 L-36.5 88.96" class="st27"/><rect width="31.878" height="19.2" x="-15.667" y="133.99" class="st12"/><text x="-15.67" y="141.19" class="st13">Metadata<tspan x="-14.49" class="st3" dy="1.2em">endpoint</tspan></text></g><g id="shape1098-162" transform="translate(199.999,-68.0562)"><title>Dynamic connector.1098</title><desc>Metadata endpoint</desc><path d="M7.09 168.62 L7.09 123.35" class="st27"/><rect width="31.878" height="19.2" x="-8.853" y="133.116" class="st12"/><text x="-8.85" y="140.32" class="st13">Metadata<tspan x="-7.68" class="st3" dy="1.2em">endpoint</tspan></text></g><g id="shape1099-170" transform="translate(86.9096,-69.6063)"><title>Dynamic connector.1099</title><desc>OIDC</desc><path d="M0 162.44 L0 162.08 L0 88.96 L97.4 88.96" class="st10"/><rect width="16.5" height="9.6" x="-7.763" y="118.956" class="st12"/><text x="-7.76" y="126.16" class="st13">OIDC</text></g></g></svg>